<svg xmlns="http://www.w3.org/2000/svg" viewBox="0 0 688.268 171">
  <g id="background">
    <rect x="11" y="17" width="666" height="136" rx="5" fill="#f5f5f5"/>
  </g>
  <g id="texts">
    <g>
      <g>
        <path d="M414,90.13H30.155a3,3,0,0,1-3-3v-9a3,3,0,0,1,3-3H414Z" fill="#e57373"/>
        <path d="M656,90h-5V75h5a3,3,0,0,1,3,3v9A3,3,0,0,1,656,90Z" fill="#999"/>
        <rect x="414" y="75.131" width="237" height="15" fill="#b3ddb5"/>
      </g>
      <g>
        <g>
          <path d="M30.891,112.246a2.575,2.575,0,0,1-2.148-1.045,6.128,6.128,0,0,1,0-6.072,2.74,2.74,0,0,1,4.3,0,6.174,6.174,0,0,1,0,6.072A2.572,2.572,0,0,1,30.891,112.246Zm0-.865a1.622,1.622,0,0,0,1.074-.365,2.231,2.231,0,0,0,.66-1.086,7.123,7.123,0,0,0,0-3.529,2.235,2.235,0,0,0-.66-1.086,1.759,1.759,0,0,0-2.148,0,2.228,2.228,0,0,0-.66,1.086,7.123,7.123,0,0,0,0,3.529,2.223,2.223,0,0,0,.66,1.086A1.616,1.616,0,0,0,30.891,111.381Z" fill="gray"/>
          <path d="M37.011,104.086a1.859,1.859,0,0,1,1.013.269,1.787,1.787,0,0,1,.661.762,2.967,2.967,0,0,1,0,2.3,1.787,1.787,0,0,1-.661.762,2.034,2.034,0,0,1-2.022,0,1.778,1.778,0,0,1-.666-.762,2.967,2.967,0,0,1,0-2.3,1.778,1.778,0,0,1,.666-.762A1.874,1.874,0,0,1,37.011,104.086Zm0,.756a.972.972,0,0,0-.576.168.985.985,0,0,0-.36.486,2.534,2.534,0,0,0,0,1.541.984.984,0,0,0,.36.492,1.082,1.082,0,0,0,1.158,0,1.011,1.011,0,0,0,.354-.492,2.554,2.554,0,0,0,0-1.541,1.013,1.013,0,0,0-.354-.486A.965.965,0,0,0,37.011,104.842Zm-.228,7.283,5.04-7.92h.911l-5.04,7.92Zm5.723-4.248a1.86,1.86,0,0,1,1.015.27,1.807,1.807,0,0,1,.66.763,2.95,2.95,0,0,1,0,2.3,1.807,1.807,0,0,1-.66.763,2.028,2.028,0,0,1-2.022,0,1.773,1.773,0,0,1-.666-.763,2.95,2.95,0,0,1,0-2.3,1.773,1.773,0,0,1,.666-.763A1.861,1.861,0,0,1,42.506,107.877Zm0,.756a.976.976,0,0,0-.575.168,1.01,1.01,0,0,0-.36.486,2.54,2.54,0,0,0,0,1.543,1,1,0,0,0,.36.491,1.08,1.08,0,0,0,1.157,0,1.016,1.016,0,0,0,.354-.491,2.54,2.54,0,0,0,0-1.543,1.025,1.025,0,0,0-.354-.486A.97.97,0,0,0,42.506,108.633Z" fill="gray"/>
        </g>
        <g>
          <path d="M178.7,112.125v-.779q1.188-.876,1.986-1.536a11.722,11.722,0,0,0,1.278-1.2,3.789,3.789,0,0,0,.684-1.025,2.6,2.6,0,0,0,.2-1.015,1.527,1.527,0,0,0-.45-1.145,1.9,1.9,0,0,0-2.538.1,2.357,2.357,0,0,0-.576,1.421l-.84-.5a3.1,3.1,0,0,1,.45-1.225,2.381,2.381,0,0,1,.924-.828,3,3,0,0,1,1.386-.3,3.145,3.145,0,0,1,1.1.18,2.411,2.411,0,0,1,.834.509,2.243,2.243,0,0,1,.534.787,2.636,2.636,0,0,1,.186,1.007,3.2,3.2,0,0,1-.36,1.458,5.566,5.566,0,0,1-1.188,1.494,17.712,17.712,0,0,1-2.244,1.729v.012q.132-.012.366-.018l.468-.013c.156,0,.274,0,.354,0h2.772v.9Z" fill="gray"/>
          <path d="M188.254,112.246a2.767,2.767,0,0,1-1.7-.48,3.067,3.067,0,0,1-.99-1.332l.936-.493a2.339,2.339,0,0,0,.594,1.014,1.633,1.633,0,0,0,1.182.391,2.022,2.022,0,0,0,.942-.2,1.465,1.465,0,0,0,.606-.582,1.8,1.8,0,0,0,.216-.907,2.015,2.015,0,0,0-.2-.942,1.306,1.306,0,0,0-.57-.569,1.971,1.971,0,0,0-.912-.193,3.156,3.156,0,0,0-.714.078,1.969,1.969,0,0,0-.594.246,1.616,1.616,0,0,0-.456.444l-.84-.155.468-4.357h4.452v.9h-3.636l-.312,2.5-.024.107h.024a2.1,2.1,0,0,1,.738-.48,2.888,2.888,0,0,1,1.074-.18,2.62,2.62,0,0,1,1.314.318,2.231,2.231,0,0,1,.87.895,2.778,2.778,0,0,1,.312,1.343,2.854,2.854,0,0,1-.2,1.1,2.326,2.326,0,0,1-.576.834,2.53,2.53,0,0,1-.882.522A3.326,3.326,0,0,1,188.254,112.246Z" fill="gray"/>
        </g>
        <g>
          <path d="M339.671,112.246a2.762,2.762,0,0,1-1.7-.48,3.061,3.061,0,0,1-.991-1.332l.936-.493a2.341,2.341,0,0,0,.6,1.014,1.629,1.629,0,0,0,1.181.391,2.03,2.03,0,0,0,.943-.2,1.471,1.471,0,0,0,.606-.582,1.8,1.8,0,0,0,.215-.907,2.016,2.016,0,0,0-.2-.942,1.313,1.313,0,0,0-.571-.569,1.968,1.968,0,0,0-.912-.193,3.163,3.163,0,0,0-.714.078,1.952,1.952,0,0,0-.593.246,1.6,1.6,0,0,0-.456.444l-.84-.155.468-4.357H342.1v.9h-3.637l-.312,2.5-.023.107h.023a2.094,2.094,0,0,1,.739-.48,2.883,2.883,0,0,1,1.073-.18,2.62,2.62,0,0,1,1.314.318,2.227,2.227,0,0,1,.871.895,2.778,2.778,0,0,1,.312,1.343,2.836,2.836,0,0,1-.205,1.1,2.336,2.336,0,0,1-.575.834,2.544,2.544,0,0,1-.883.522A3.318,3.318,0,0,1,339.671,112.246Z" fill="gray"/>
          <path d="M346.943,112.246A2.576,2.576,0,0,1,344.8,111.2a6.134,6.134,0,0,1,0-6.072,2.741,2.741,0,0,1,4.3,0,6.174,6.174,0,0,1,0,6.072A2.574,2.574,0,0,1,346.943,112.246Zm0-.865a1.623,1.623,0,0,0,1.075-.365,2.23,2.23,0,0,0,.659-1.086,7.123,7.123,0,0,0,0-3.529,2.234,2.234,0,0,0-.659-1.086,1.759,1.759,0,0,0-2.148,0,2.229,2.229,0,0,0-.661,1.086,7.123,7.123,0,0,0,0,3.529,2.224,2.224,0,0,0,.661,1.086A1.615,1.615,0,0,0,346.943,111.381Z" fill="gray"/>
        </g>
        <g>
          <path d="M494.733,104.205h5.831v.9a11.383,11.383,0,0,0-1.626,2.166,8.882,8.882,0,0,0-.917,2.311,10.857,10.857,0,0,0-.288,2.543h-.984a10.338,10.338,0,0,1,.33-2.609,9.935,9.935,0,0,1,1-2.454,10.811,10.811,0,0,1,1.668-2.2l.156.24h-5.172Z" fill="gray"/>
          <path d="M504.429,112.246a2.77,2.77,0,0,1-1.7-.48,3.082,3.082,0,0,1-.99-1.332l.937-.493a2.33,2.33,0,0,0,.594,1.014,1.63,1.63,0,0,0,1.181.391,2.027,2.027,0,0,0,.943-.2,1.469,1.469,0,0,0,.605-.582,1.788,1.788,0,0,0,.217-.907,2.028,2.028,0,0,0-.2-.942,1.308,1.308,0,0,0-.571-.569,1.971,1.971,0,0,0-.912-.193,3.156,3.156,0,0,0-.714.078,1.963,1.963,0,0,0-.593.246,1.619,1.619,0,0,0-.457.444l-.839-.155.467-4.357h4.453v.9h-3.636l-.313,2.5-.023.107h.023a2.112,2.112,0,0,1,.739-.48,2.885,2.885,0,0,1,1.074-.18,2.616,2.616,0,0,1,1.313.318,2.231,2.231,0,0,1,.87.895,2.778,2.778,0,0,1,.312,1.343,2.854,2.854,0,0,1-.2,1.1,2.339,2.339,0,0,1-.576.834,2.53,2.53,0,0,1-.882.522A3.334,3.334,0,0,1,504.429,112.246Z" fill="gray"/>
        </g>
        <g>
          <path d="M643.453,112.125v-5.808c0-.135,0-.282.006-.438s.01-.317.018-.485a4.311,4.311,0,0,1-.948.69,4.44,4.44,0,0,1-1.1.426l-.252-.877a2.118,2.118,0,0,0,.546-.161,6.281,6.281,0,0,0,.7-.349,6.036,6.036,0,0,0,.678-.449,2.441,2.441,0,0,0,.48-.469h.84v7.92Z" fill="gray"/>
          <path d="M649.369,112.246a2.575,2.575,0,0,1-2.148-1.045,6.134,6.134,0,0,1,0-6.072,2.738,2.738,0,0,1,4.3,0,6.174,6.174,0,0,1,0,6.072A2.57,2.57,0,0,1,649.369,112.246Zm0-.865a1.615,1.615,0,0,0,1.073-.365,2.232,2.232,0,0,0,.661-1.086,7.123,7.123,0,0,0,0-3.529,2.236,2.236,0,0,0-.661-1.086,1.757,1.757,0,0,0-2.147,0,2.228,2.228,0,0,0-.66,1.086,7.123,7.123,0,0,0,0,3.529,2.223,2.223,0,0,0,.66,1.086A1.616,1.616,0,0,0,649.369,111.381Z" fill="gray"/>
          <path d="M656.833,112.246a2.575,2.575,0,0,1-2.148-1.045,6.134,6.134,0,0,1,0-6.072,2.738,2.738,0,0,1,4.3,0,6.174,6.174,0,0,1,0,6.072A2.57,2.57,0,0,1,656.833,112.246Zm0-.865a1.615,1.615,0,0,0,1.073-.365,2.223,2.223,0,0,0,.66-1.086,7.092,7.092,0,0,0,0-3.529,2.228,2.228,0,0,0-.66-1.086,1.757,1.757,0,0,0-2.147,0,2.228,2.228,0,0,0-.66,1.086,7.123,7.123,0,0,0,0,3.529,2.223,2.223,0,0,0,.66,1.086A1.616,1.616,0,0,0,656.833,111.381Z" fill="gray"/>
        </g>
        <g>
          <path d="M270.722,126.109a2.174,2.174,0,0,1,1.183.315,2.094,2.094,0,0,1,.77.889,3.447,3.447,0,0,1,0,2.689,2.088,2.088,0,0,1-.77.889,2.372,2.372,0,0,1-2.359,0,2.07,2.07,0,0,1-.777-.889,3.447,3.447,0,0,1,0-2.689,2.076,2.076,0,0,1,.777-.889A2.179,2.179,0,0,1,270.722,126.109Zm0,.882a1.137,1.137,0,0,0-.672.2,1.166,1.166,0,0,0-.42.566,2.96,2.96,0,0,0,0,1.8,1.17,1.17,0,0,0,.42.574,1.26,1.26,0,0,0,1.35,0,1.178,1.178,0,0,0,.413-.574,2.94,2.94,0,0,0,0-1.8,1.173,1.173,0,0,0-.413-.566A1.129,1.129,0,0,0,270.722,126.991Zm-.266,8.5,5.88-9.24H277.4l-5.879,9.24Zm6.678-4.956a2.168,2.168,0,0,1,1.182.315,2.084,2.084,0,0,1,.771.889,3.459,3.459,0,0,1,0,2.689,2.075,2.075,0,0,1-.771.888,2.364,2.364,0,0,1-2.358,0,2.055,2.055,0,0,1-.777-.888,3.447,3.447,0,0,1,0-2.689,2.064,2.064,0,0,1,.777-.889A2.181,2.181,0,0,1,277.134,130.533Zm0,.882a1.137,1.137,0,0,0-.672.2,1.178,1.178,0,0,0-.42.567,2.94,2.94,0,0,0,0,1.8,1.166,1.166,0,0,0,.42.574,1.26,1.26,0,0,0,1.35,0,1.181,1.181,0,0,0,.414-.574,2.96,2.96,0,0,0,0-1.8,1.194,1.194,0,0,0-.414-.567A1.128,1.128,0,0,0,277.134,131.415Z" fill="#4d4d4d"/>
          <path d="M288.894,128.35a3.488,3.488,0,0,1,1.756.433,3.038,3.038,0,0,1,1.2,1.253,4.621,4.621,0,0,1,0,3.906,3.038,3.038,0,0,1-1.2,1.253,3.757,3.757,0,0,1-3.506,0,3.029,3.029,0,0,1-1.2-1.253,4.621,4.621,0,0,1,0-3.906,3.029,3.029,0,0,1,1.2-1.253A3.5,3.5,0,0,1,288.894,128.35Zm0,.965a2.221,2.221,0,0,0-1.218.322,2.1,2.1,0,0,0-.778.918,3.9,3.9,0,0,0,0,2.863,2.1,2.1,0,0,0,.778.924,2.469,2.469,0,0,0,2.435,0,2.1,2.1,0,0,0,.778-.924,3.9,3.9,0,0,0,0-2.863,2.1,2.1,0,0,0-.778-.918A2.22,2.22,0,0,0,288.894,129.315Z" fill="#4d4d4d"/>
          <path d="M298.273,128.489v.966h-4.857v-.966Zm-1.162-3.29a2.717,2.717,0,0,1,.687.084,1.286,1.286,0,0,1,.5.238l-.294.911a1.144,1.144,0,0,0-.364-.162,1.829,1.829,0,0,0-.434-.049,1.4,1.4,0,0,0-.939.287,1.148,1.148,0,0,0-.335.918v8.063h-1.121v-8.176a2.537,2.537,0,0,1,.14-.854,1.759,1.759,0,0,1,.428-.672,1.93,1.93,0,0,1,.721-.433A2.972,2.972,0,0,1,297.111,125.2Z" fill="#4d4d4d"/>
          <path d="M307.9,128.489v.966h-5.067v-.966Zm-2.548-1.987v7.055a.96.96,0,0,0,.294.77,1.124,1.124,0,0,0,.756.252,1.6,1.6,0,0,0,.7-.14,1.885,1.885,0,0,0,.533-.378l.391.938a2.36,2.36,0,0,1-.762.462,2.842,2.842,0,0,1-1.015.168,2.591,2.591,0,0,1-.994-.189,1.581,1.581,0,0,1-.736-.6,2.031,2.031,0,0,1-.287-1.084v-6.945Z" fill="#4d4d4d"/>
          <path d="M309.571,135.489V125.27h1.12v4.269a2.163,2.163,0,0,1,.966-.91,3.1,3.1,0,0,1,1.317-.279,3.2,3.2,0,0,1,1.372.287,2.283,2.283,0,0,1,.986.875,2.76,2.76,0,0,1,.371,1.5v4.479h-1.12V131.4a2.137,2.137,0,0,0-.5-1.617,1.742,1.742,0,0,0-1.225-.455,2.331,2.331,0,0,0-1.007.238,1.948,1.948,0,0,0-.833.777,2.727,2.727,0,0,0-.33,1.435v3.71Z" fill="#4d4d4d"/>
          <path d="M321.163,135.629a3.568,3.568,0,0,1-1.77-.434,3.007,3.007,0,0,1-1.211-1.253,4.6,4.6,0,0,1,0-3.906,3.05,3.05,0,0,1,1.189-1.253,3.4,3.4,0,0,1,1.723-.433,3.163,3.163,0,0,1,1.673.42,2.764,2.764,0,0,1,1.056,1.14,3.548,3.548,0,0,1,.365,1.617c0,.159,0,.3-.015.434a3.334,3.334,0,0,1-.042.35h-5.655v-.994h5.166l-.575.113a2.091,2.091,0,0,0-.552-1.555,1.981,1.981,0,0,0-1.45-.546,2.155,2.155,0,0,0-1.183.316,2.056,2.056,0,0,0-.77.91,3.435,3.435,0,0,0-.273,1.434,3.376,3.376,0,0,0,.28,1.429,2.072,2.072,0,0,0,.791.916,2.282,2.282,0,0,0,1.226.315,2.389,2.389,0,0,0,1.253-.294,2.233,2.233,0,0,0,.776-.8l.882.518a2.927,2.927,0,0,1-1.645,1.365A3.819,3.819,0,0,1,321.163,135.629Z" fill="#4d4d4d"/>
          <path d="M334.8,126.249a3.377,3.377,0,0,1,2.267.728,2.46,2.46,0,0,1,.855,1.974,2.352,2.352,0,0,1-.861,1.94,3.525,3.525,0,0,1-2.275.693l-.1.069h-2.268v3.836H331.3v-9.24Zm-.014,4.355a2.231,2.231,0,0,0,1.477-.414,1.829,1.829,0,0,0,0-2.477,2.237,2.237,0,0,0-1.477-.414h-2.366V130.6Zm.644.223,3.051,4.662h-1.33l-2.659-4.046Z" fill="#4d4d4d"/>
          <path d="M343.087,135.629a3.579,3.579,0,0,1-1.772-.434,3.025,3.025,0,0,1-1.211-1.253,4.621,4.621,0,0,1,0-3.906,3.06,3.06,0,0,1,1.191-1.253,3.4,3.4,0,0,1,1.722-.433,3.155,3.155,0,0,1,1.672.42,2.768,2.768,0,0,1,1.058,1.14,3.547,3.547,0,0,1,.363,1.617c0,.159,0,.3-.013.434s-.024.248-.042.35H340.4v-.994h5.166l-.574.113a2.087,2.087,0,0,0-.552-1.555,1.981,1.981,0,0,0-1.45-.546,2.152,2.152,0,0,0-1.182.316,2.065,2.065,0,0,0-.771.91,3.436,3.436,0,0,0-.272,1.434,3.346,3.346,0,0,0,.28,1.429,2.066,2.066,0,0,0,.791.916,2.279,2.279,0,0,0,1.225.315,2.386,2.386,0,0,0,1.253-.294,2.235,2.235,0,0,0,.777-.8l.882.518a3,3,0,0,1-.679.826,2.941,2.941,0,0,1-.967.539A3.808,3.808,0,0,1,343.087,135.629Z" fill="#4d4d4d"/>
          <path d="M350.759,135.629a4.126,4.126,0,0,1-1.883-.434,3.1,3.1,0,0,1-1.323-1.232l.952-.686a2.324,2.324,0,0,0,.9,1.008,2.705,2.705,0,0,0,1.435.364,2.034,2.034,0,0,0,1.162-.287.871.871,0,0,0,.23-1.288,1.2,1.2,0,0,0-.72-.357l-1.68-.35a2.639,2.639,0,0,1-1.463-.7,1.755,1.755,0,0,1-.441-1.219,1.8,1.8,0,0,1,.329-1.05,2.294,2.294,0,0,1,.938-.762,3.326,3.326,0,0,1,1.435-.287,3.48,3.48,0,0,1,1.75.406,2.524,2.524,0,0,1,1.063,1.147l-.937.617a1.665,1.665,0,0,0-.771-.9,2.308,2.308,0,0,0-1.105-.287,2.377,2.377,0,0,0-.862.14,1.243,1.243,0,0,0-.545.385.888.888,0,0,0,.021,1.121,1.321,1.321,0,0,0,.784.371l1.75.363a2.411,2.411,0,0,1,1.371.645,1.6,1.6,0,0,1,.393,1.091,1.945,1.945,0,0,1-.351,1.155,2.207,2.207,0,0,1-.979.763A3.7,3.7,0,0,1,350.759,135.629Z" fill="#4d4d4d"/>
          <path d="M355.616,138.43v-9.941h.981l.1,1.708-.153-.195a2.4,2.4,0,0,1,.546-.861,2.552,2.552,0,0,1,.882-.582,2.968,2.968,0,0,1,1.12-.209,3,3,0,0,1,1.575.433,3.137,3.137,0,0,1,1.154,1.246,4.589,4.589,0,0,1-.006,3.913,3.165,3.165,0,0,1-1.169,1.253,3.066,3.066,0,0,1-1.6.434,2.708,2.708,0,0,1-1.52-.427,2.408,2.408,0,0,1-.93-1.085l.139-.21v4.523Zm3.319-3.781a1.958,1.958,0,0,0,1.617-.727,3.019,3.019,0,0,0,.581-1.933,3.062,3.062,0,0,0-.568-1.932,1.9,1.9,0,0,0-1.588-.728,2.1,2.1,0,0,0-1.176.329,2.18,2.18,0,0,0-.784.924,3.273,3.273,0,0,0-.281,1.407,3.359,3.359,0,0,0,.274,1.4,2.13,2.13,0,0,0,.769.931A2.051,2.051,0,0,0,358.935,134.649Z" fill="#4d4d4d"/>
          <path d="M367.293,128.35a3.5,3.5,0,0,1,1.757.433,3.034,3.034,0,0,1,1.2,1.253,4.6,4.6,0,0,1,0,3.906,3.034,3.034,0,0,1-1.2,1.253,3.759,3.759,0,0,1-3.507,0,3.021,3.021,0,0,1-1.2-1.253,4.6,4.6,0,0,1,0-3.906,3.021,3.021,0,0,1,1.2-1.253A3.5,3.5,0,0,1,367.293,128.35Zm0,.965a2.222,2.222,0,0,0-1.219.322,2.085,2.085,0,0,0-.776.918,3.876,3.876,0,0,0,0,2.863,2.085,2.085,0,0,0,.776.924,2.473,2.473,0,0,0,2.437,0,2.092,2.092,0,0,0,.776-.924,3.876,3.876,0,0,0,0-2.863,2.091,2.091,0,0,0-.776-.918A2.221,2.221,0,0,0,367.293,129.315Z" fill="#4d4d4d"/>
          <path d="M372.794,135.489v-7h.98l.1,1.568-.182-.154a2.41,2.41,0,0,1,.6-.9,2.272,2.272,0,0,1,.875-.5,3.421,3.421,0,0,1,1.029-.154,3.2,3.2,0,0,1,1.372.287,2.288,2.288,0,0,1,.988.875,2.76,2.76,0,0,1,.371,1.5v4.479h-1.12V131.4a2.137,2.137,0,0,0-.5-1.617,1.748,1.748,0,0,0-1.226-.455,2.338,2.338,0,0,0-1.008.238,1.969,1.969,0,0,0-.833.771,2.693,2.693,0,0,0-.329,1.428v3.723Z" fill="#4d4d4d"/>
          <path d="M384.19,135.629a3.057,3.057,0,0,1-1.595-.434,3.108,3.108,0,0,1-1.162-1.253,4.11,4.11,0,0,1-.435-1.953,3.931,3.931,0,0,1,.462-1.973,3.219,3.219,0,0,1,2.843-1.666,2.548,2.548,0,0,1,1.5.447,2.119,2.119,0,0,1,.846,1.19l-.139.1V125.27h1.12v10.219h-.981l-.1-1.694.153-.084a2.03,2.03,0,0,1-.469,1.043,2.407,2.407,0,0,1-.91.651A2.928,2.928,0,0,1,384.19,135.629Zm.113-.98a2.041,2.041,0,0,0,1.169-.336,2.161,2.161,0,0,0,.769-.959,3.6,3.6,0,0,0,.274-1.463,3.148,3.148,0,0,0-.274-1.371,1.985,1.985,0,0,0-1.883-1.191,2.006,2.006,0,0,0-1.652.728,2.985,2.985,0,0,0-.588,1.932,3.04,3.04,0,0,0,.574,1.933A1.937,1.937,0,0,0,384.3,134.649Z" fill="#4d4d4d"/>
          <path d="M393.164,135.629a3.568,3.568,0,0,1-1.77-.434,3.007,3.007,0,0,1-1.211-1.253,4.6,4.6,0,0,1,0-3.906,3.05,3.05,0,0,1,1.189-1.253,3.4,3.4,0,0,1,1.723-.433,3.163,3.163,0,0,1,1.673.42,2.77,2.77,0,0,1,1.056,1.14,3.547,3.547,0,0,1,.364,1.617c0,.159,0,.3-.014.434a3.334,3.334,0,0,1-.042.35h-5.655v-.994h5.166l-.575.113a2.091,2.091,0,0,0-.552-1.555,1.982,1.982,0,0,0-1.45-.546,2.155,2.155,0,0,0-1.183.316,2.056,2.056,0,0,0-.77.91,3.435,3.435,0,0,0-.273,1.434,3.376,3.376,0,0,0,.28,1.429,2.072,2.072,0,0,0,.791.916,2.282,2.282,0,0,0,1.226.315,2.389,2.389,0,0,0,1.253-.294,2.233,2.233,0,0,0,.776-.8l.882.518a2.927,2.927,0,0,1-1.645,1.365A3.819,3.819,0,0,1,393.164,135.629Z" fill="#4d4d4d"/>
          <path d="M398.316,135.489v-7h.981l.1,1.568-.182-.154a2.384,2.384,0,0,1,.6-.9,2.272,2.272,0,0,1,.875-.5,3.418,3.418,0,0,1,1.03-.154,3.2,3.2,0,0,1,1.372.287,2.283,2.283,0,0,1,.986.875,2.76,2.76,0,0,1,.371,1.5v4.479h-1.12V131.4a2.137,2.137,0,0,0-.5-1.617,1.742,1.742,0,0,0-1.225-.455,2.337,2.337,0,0,0-1.007.238,1.957,1.957,0,0,0-.833.771,2.684,2.684,0,0,0-.329,1.428v3.723Z" fill="#4d4d4d"/>
          <path d="M411.084,128.489v.966h-5.067v-.966Zm-2.548-1.987v7.055a.96.96,0,0,0,.294.77,1.121,1.121,0,0,0,.756.252,1.607,1.607,0,0,0,.7-.14,1.881,1.881,0,0,0,.532-.378l.392.938a2.354,2.354,0,0,1-.763.462,2.84,2.84,0,0,1-1.014.168,2.6,2.6,0,0,1-1-.189,1.584,1.584,0,0,1-.735-.6,2.022,2.022,0,0,1-.287-1.084v-6.945Z" fill="#4d4d4d"/>
          <path d="M415.27,135.629a4.129,4.129,0,0,1-1.883-.434,3.1,3.1,0,0,1-1.323-1.232l.952-.686a2.324,2.324,0,0,0,.9,1.008,2.7,2.7,0,0,0,1.435.364,2.032,2.032,0,0,0,1.162-.287.872.872,0,0,0,.231-1.288,1.2,1.2,0,0,0-.721-.357l-1.68-.35a2.643,2.643,0,0,1-1.463-.7,1.755,1.755,0,0,1-.441-1.219,1.81,1.81,0,0,1,.329-1.05,2.294,2.294,0,0,1,.938-.762,3.326,3.326,0,0,1,1.435-.287,3.477,3.477,0,0,1,1.75.406,2.521,2.521,0,0,1,1.064,1.147l-.938.617a1.672,1.672,0,0,0-.77-.9,2.315,2.315,0,0,0-1.106-.287,2.368,2.368,0,0,0-.861.14,1.241,1.241,0,0,0-.546.385.888.888,0,0,0,.021,1.121,1.321,1.321,0,0,0,.784.371l1.75.363a2.421,2.421,0,0,1,1.372.645,1.6,1.6,0,0,1,.392,1.091,1.952,1.952,0,0,1-.35,1.155,2.21,2.21,0,0,1-.98.763A3.708,3.708,0,0,1,415.27,135.629Z" fill="#4d4d4d"/>
        </g>
        <g>
          <line x1="27.181" y1="100.327" x2="27.181" y2="96.327" fill="none" stroke="#ccc" stroke-miterlimit="10"/>
          <line x1="185.132" y1="100.327" x2="185.132" y2="96.327" fill="none" stroke="#ccc" stroke-miterlimit="10"/>
          <line x1="343.084" y1="100.327" x2="343.084" y2="96.327" fill="none" stroke="#ccc" stroke-miterlimit="10"/>
          <line x1="501.049" y1="100.327" x2="501.049" y2="96.327" fill="none" stroke="#ccc" stroke-miterlimit="10"/>
          <line x1="659" y1="100.327" x2="659" y2="96.327" fill="none" stroke="#ccc" stroke-miterlimit="10"/>
          <line x1="27" y1="96.5" x2="659" y2="96.5" fill="none" stroke="#ccc" stroke-miterlimit="10"/>
        </g>
      </g>
    </g>
    <g>
      <rect x="27.299" y="31.987" width="10.211" height="10.211" rx="3" fill="#e57373"/>
      <rect x="118.799" y="31.987" width="10.211" height="10.211" rx="3" fill="#b3ddb5"/>
      <g>
        <path d="M52.285,36.175a1.414,1.414,0,0,0-.361-1.038,1.364,1.364,0,0,0-1.019-.366,1.952,1.952,0,0,0-1.056.27,1.582,1.582,0,0,0-.637.869l-.779-.479a2.107,2.107,0,0,1,.887-1.086,2.925,2.925,0,0,1,1.609-.414,3.022,3.022,0,0,1,1.175.221,1.857,1.857,0,0,1,.834.672,2.015,2.015,0,0,1,.307,1.158v2.905c0,.288.151.431.456.431a1.656,1.656,0,0,0,.444-.059l-.048.756a1.4,1.4,0,0,1-.624.12A1.425,1.425,0,0,1,52.849,40a.975.975,0,0,1-.432-.4,1.329,1.329,0,0,1-.156-.678V38.8l.239.036a1.581,1.581,0,0,1-.491.762,2.275,2.275,0,0,1-.78.432,2.8,2.8,0,0,1-.853.138,2.627,2.627,0,0,1-.983-.181,1.6,1.6,0,0,1-.726-.545,1.616,1.616,0,0,1,.18-2.016,2.4,2.4,0,0,1,1.254-.594l2.376-.468v.791l-1.933.4a2.205,2.205,0,0,0-.876.336.708.708,0,0,0-.288.6.744.744,0,0,0,.294.607,1.313,1.313,0,0,0,.835.233,2.389,2.389,0,0,0,.665-.09,1.738,1.738,0,0,0,.571-.275,1.315,1.315,0,0,0,.4-.469,1.454,1.454,0,0,0,.144-.666Z" fill="#333"/>
        <path d="M57.732,40.171a3.527,3.527,0,0,1-1.613-.372,2.658,2.658,0,0,1-1.135-1.057l.817-.588a1.993,1.993,0,0,0,.774.865,2.313,2.313,0,0,0,1.23.311,1.747,1.747,0,0,0,1-.245A.749.749,0,0,0,59,37.98a1.028,1.028,0,0,0-.619-.3l-1.44-.3a2.254,2.254,0,0,1-1.253-.6,1.507,1.507,0,0,1-.378-1.045,1.552,1.552,0,0,1,.281-.9,1.972,1.972,0,0,1,.8-.653,2.857,2.857,0,0,1,1.23-.246,3,3,0,0,1,1.5.348,2.178,2.178,0,0,1,.912.984l-.8.528a1.429,1.429,0,0,0-.659-.774,1.982,1.982,0,0,0-.948-.246,2.016,2.016,0,0,0-.738.12,1.067,1.067,0,0,0-.469.33.764.764,0,0,0-.162.474.751.751,0,0,0,.181.486,1.114,1.114,0,0,0,.671.318l1.5.312a2.076,2.076,0,0,1,1.177.552,1.377,1.377,0,0,1,.336.936,1.67,1.67,0,0,1-.3.99,1.9,1.9,0,0,1-.84.654A3.18,3.18,0,0,1,57.732,40.171Z" fill="#333"/>
        <path d="M64.056,40.171a3.534,3.534,0,0,1-1.614-.372,2.655,2.655,0,0,1-1.134-1.057l.817-.588a1.991,1.991,0,0,0,.773.865,2.313,2.313,0,0,0,1.23.311,1.752,1.752,0,0,0,1-.245.749.749,0,0,0,.2-1.105,1.028,1.028,0,0,0-.618-.3l-1.44-.3a2.261,2.261,0,0,1-1.254-.6,1.507,1.507,0,0,1-.378-1.045,1.553,1.553,0,0,1,.282-.9,1.976,1.976,0,0,1,.8-.653,2.86,2.86,0,0,1,1.23-.246,2.993,2.993,0,0,1,1.5.348,2.173,2.173,0,0,1,.912.984l-.8.528a1.427,1.427,0,0,0-.66-.774,1.982,1.982,0,0,0-.948-.246,2.023,2.023,0,0,0-.738.12,1.064,1.064,0,0,0-.468.33.76.76,0,0,0,.018.96,1.118,1.118,0,0,0,.672.318l1.5.312a2.072,2.072,0,0,1,1.176.552,1.372,1.372,0,0,1,.336.936,1.676,1.676,0,0,1-.3.99,1.909,1.909,0,0,1-.84.654A3.187,3.187,0,0,1,64.056,40.171Z" fill="#333"/>
        <path d="M70.705,33.931a2.991,2.991,0,0,1,1.5.372,2.6,2.6,0,0,1,1.026,1.074,3.952,3.952,0,0,1,0,3.348A2.608,2.608,0,0,1,72.21,39.8a3.22,3.22,0,0,1-3,0,2.6,2.6,0,0,1-1.033-1.074,3.953,3.953,0,0,1,0-3.348A2.593,2.593,0,0,1,69.205,34.3,3,3,0,0,1,70.705,33.931Zm0,.828a1.9,1.9,0,0,0-1.044.276A1.783,1.783,0,0,0,69,35.82a3.323,3.323,0,0,0,0,2.455,1.772,1.772,0,0,0,.666.791,2.106,2.106,0,0,0,2.088,0,1.785,1.785,0,0,0,.666-.791,3.35,3.35,0,0,0,0-2.455,1.8,1.8,0,0,0-.666-.785A1.912,1.912,0,0,0,70.705,34.759Z" fill="#333"/>
        <path d="M77.9,33.931a2.909,2.909,0,0,1,1.1.192,2.364,2.364,0,0,1,.822.552,2.863,2.863,0,0,1,.564.852l-.912.432a1.816,1.816,0,0,0-.582-.883,1.6,1.6,0,0,0-1.014-.3,1.908,1.908,0,0,0-1.032.27,1.715,1.715,0,0,0-.66.779,3.418,3.418,0,0,0,0,2.455,1.713,1.713,0,0,0,.66.786,1.916,1.916,0,0,0,1.032.269,2.1,2.1,0,0,0,.81-.142,1.426,1.426,0,0,0,.564-.421,1.575,1.575,0,0,0,.306-.672l.888.311a2.922,2.922,0,0,1-.558.949,2.367,2.367,0,0,1-.852.606,2.9,2.9,0,0,1-1.134.21,3,3,0,0,1-1.5-.372,2.6,2.6,0,0,1-1.032-1.074,3.953,3.953,0,0,1,0-3.348A2.591,2.591,0,0,1,76.4,34.3,3,3,0,0,1,77.9,33.931Z" fill="#333"/>
        <path d="M82.621,32.9a.72.72,0,1,1,0-1.439.72.72,0,1,1,0,1.439Zm.48,1.153v6h-.96v-6Z" fill="#333"/>
        <path d="M88.836,36.175a1.418,1.418,0,0,0-.36-1.038,1.366,1.366,0,0,0-1.02-.366,1.955,1.955,0,0,0-1.056.27,1.576,1.576,0,0,0-.636.869l-.78-.479a2.109,2.109,0,0,1,.888-1.086,2.921,2.921,0,0,1,1.608-.414,3.024,3.024,0,0,1,1.176.221,1.863,1.863,0,0,1,.834.672,2.023,2.023,0,0,1,.306,1.158v2.905c0,.288.152.431.456.431a1.65,1.65,0,0,0,.444-.059l-.048.756a1.4,1.4,0,0,1-.624.12A1.429,1.429,0,0,1,89.4,40a.975.975,0,0,1-.432-.4,1.339,1.339,0,0,1-.156-.678V38.8l.24.036a1.59,1.59,0,0,1-.492.762,2.266,2.266,0,0,1-.78.432,2.789,2.789,0,0,1-.852.138,2.636,2.636,0,0,1-.984-.181,1.607,1.607,0,0,1-.726-.545,1.62,1.62,0,0,1,.18-2.016,2.408,2.408,0,0,1,1.254-.594l2.376-.468v.791l-1.932.4a2.205,2.205,0,0,0-.876.336.706.706,0,0,0-.288.6.741.741,0,0,0,.294.607,1.31,1.31,0,0,0,.834.233,2.4,2.4,0,0,0,.666-.09,1.733,1.733,0,0,0,.57-.275,1.305,1.305,0,0,0,.4-.469,1.441,1.441,0,0,0,.144-.666Z" fill="#333"/>
        <path d="M95.484,34.051v.828H91.14v-.828Zm-2.184-1.7V38.4a.823.823,0,0,0,.252.66.961.961,0,0,0,.648.216,1.384,1.384,0,0,0,.6-.121,1.617,1.617,0,0,0,.456-.324l.336.8a2.03,2.03,0,0,1-.654.4,2.434,2.434,0,0,1-.87.144,2.228,2.228,0,0,1-.852-.162,1.353,1.353,0,0,1-.63-.517,1.723,1.723,0,0,1-.246-.93V32.611Z" fill="#333"/>
        <path d="M99.42,40.171A3.06,3.06,0,0,1,97.9,39.8a2.586,2.586,0,0,1-1.038-1.074,3.953,3.953,0,0,1,0-3.348,2.613,2.613,0,0,1,1.02-1.074,2.911,2.911,0,0,1,1.476-.372,2.716,2.716,0,0,1,1.434.36,2.373,2.373,0,0,1,.906.978,3.03,3.03,0,0,1,.312,1.385c0,.137,0,.261-.012.373a2.789,2.789,0,0,1-.036.3H97.116v-.851h4.428l-.492.095a1.79,1.79,0,0,0-.474-1.332,1.7,1.7,0,0,0-1.242-.467,1.854,1.854,0,0,0-1.014.27,1.764,1.764,0,0,0-.66.779,2.939,2.939,0,0,0-.234,1.231,2.88,2.88,0,0,0,.24,1.224,1.772,1.772,0,0,0,.678.786,1.971,1.971,0,0,0,1.05.269,2.042,2.042,0,0,0,1.074-.252,1.913,1.913,0,0,0,.666-.683l.756.444a2.509,2.509,0,0,1-1.41,1.17A3.271,3.271,0,0,1,99.42,40.171Z" fill="#333"/>
      </g>
      <g>
        <path d="M138.654,32.9a.679.679,0,1,1,.522-.2A.705.705,0,0,1,138.654,32.9Zm.48,1.153v6h-.96v-6Z" fill="#333"/>
        <path d="M141.366,40.051v-6h.84l.084,1.344-.156-.132a2.074,2.074,0,0,1,.516-.775,1.982,1.982,0,0,1,.75-.426,3,3,0,0,1,.882-.131,2.751,2.751,0,0,1,1.176.246,1.964,1.964,0,0,1,.846.75,2.368,2.368,0,0,1,.318,1.284v3.84h-.96v-3.5a1.833,1.833,0,0,0-.426-1.387,1.5,1.5,0,0,0-1.05-.389,2.008,2.008,0,0,0-.864.2,1.682,1.682,0,0,0-.714.66,2.31,2.31,0,0,0-.282,1.224v3.192Z" fill="#333"/>
        <path d="M151.134,40.171a2.622,2.622,0,0,1-1.368-.372,2.671,2.671,0,0,1-1-1.074,3.518,3.518,0,0,1-.372-1.674,3.369,3.369,0,0,1,.4-1.692,2.748,2.748,0,0,1,1.044-1.062,2.781,2.781,0,0,1,1.391-.366,2.192,2.192,0,0,1,1.291.383,1.818,1.818,0,0,1,.726,1.021l-.12.084V31.291h.96v8.76h-.84l-.084-1.452.132-.072a1.751,1.751,0,0,1-.4.894,2.066,2.066,0,0,1-.78.558A2.541,2.541,0,0,1,151.134,40.171Zm.1-.841a1.754,1.754,0,0,0,1-.287,1.871,1.871,0,0,0,.66-.822,3.1,3.1,0,0,0,.234-1.254,2.717,2.717,0,0,0-.234-1.176,1.7,1.7,0,0,0-1.614-1.02,1.716,1.716,0,0,0-1.416.624,2.556,2.556,0,0,0-.5,1.656,2.6,2.6,0,0,0,.492,1.656A1.656,1.656,0,0,0,151.229,39.33Z" fill="#333"/>
        <path d="M158.826,40.171a3.054,3.054,0,0,1-1.518-.372,2.586,2.586,0,0,1-1.038-1.074,3.943,3.943,0,0,1,0-3.348,2.607,2.607,0,0,1,1.02-1.074,2.911,2.911,0,0,1,1.476-.372,2.716,2.716,0,0,1,1.434.36,2.37,2.37,0,0,1,.905.978,3.03,3.03,0,0,1,.312,1.385c0,.137,0,.261-.011.373s-.02.211-.036.3h-4.849v-.851h4.429l-.492.095a1.79,1.79,0,0,0-.474-1.332,1.7,1.7,0,0,0-1.242-.467,1.854,1.854,0,0,0-1.014.27,1.758,1.758,0,0,0-.66.779,2.939,2.939,0,0,0-.235,1.231,2.88,2.88,0,0,0,.241,1.224,1.764,1.764,0,0,0,.677.786,1.974,1.974,0,0,0,1.051.269,2.036,2.036,0,0,0,1.073-.252,1.908,1.908,0,0,0,.667-.683l.756.444a2.509,2.509,0,0,1-1.41,1.17A3.271,3.271,0,0,1,158.826,40.171Z" fill="#333"/>
        <path d="M163.242,42.57V34.051h.84l.084,1.464-.132-.168a2.055,2.055,0,0,1,.468-.738,2.176,2.176,0,0,1,.756-.5,2.512,2.512,0,0,1,.96-.18,2.57,2.57,0,0,1,1.35.372,2.688,2.688,0,0,1,.99,1.068,3.521,3.521,0,0,1,.372,1.68,3.483,3.483,0,0,1-.378,1.674,2.713,2.713,0,0,1-1,1.074,2.622,2.622,0,0,1-1.368.372,2.32,2.32,0,0,1-1.3-.366,2.073,2.073,0,0,1-.8-.93l.12-.18V42.57Zm2.844-3.24a1.673,1.673,0,0,0,1.386-.623,2.58,2.58,0,0,0,.5-1.656,2.622,2.622,0,0,0-.486-1.656,1.628,1.628,0,0,0-1.362-.624,1.8,1.8,0,0,0-1.008.282,1.865,1.865,0,0,0-.672.792,2.812,2.812,0,0,0-.24,1.206,2.884,2.884,0,0,0,.234,1.2,1.841,1.841,0,0,0,.66.8A1.759,1.759,0,0,0,166.086,39.33Z" fill="#333"/>
        <path d="M173.274,40.171a3.06,3.06,0,0,1-1.518-.372,2.586,2.586,0,0,1-1.038-1.074,3.952,3.952,0,0,1,0-3.348,2.613,2.613,0,0,1,1.02-1.074,2.911,2.911,0,0,1,1.476-.372,2.716,2.716,0,0,1,1.434.36,2.373,2.373,0,0,1,.906.978,3.03,3.03,0,0,1,.312,1.385c0,.137,0,.261-.012.373a2.789,2.789,0,0,1-.036.3H170.97v-.851H175.4l-.492.095a1.79,1.79,0,0,0-.474-1.332,1.7,1.7,0,0,0-1.242-.467,1.854,1.854,0,0,0-1.014.27,1.764,1.764,0,0,0-.66.779,2.939,2.939,0,0,0-.234,1.231,2.88,2.88,0,0,0,.24,1.224,1.772,1.772,0,0,0,.678.786,1.971,1.971,0,0,0,1.05.269,2.042,2.042,0,0,0,1.074-.252,1.913,1.913,0,0,0,.666-.683l.756.444a2.509,2.509,0,0,1-1.41,1.17A3.271,3.271,0,0,1,173.274,40.171Z" fill="#333"/>
        <path d="M177.69,40.051v-6h.84l.084,1.344-.156-.132a2.062,2.062,0,0,1,.516-.775,1.975,1.975,0,0,1,.75-.426,3,3,0,0,1,.882-.131,2.751,2.751,0,0,1,1.176.246,1.964,1.964,0,0,1,.846.75,2.368,2.368,0,0,1,.318,1.284v3.84h-.96v-3.5a1.833,1.833,0,0,0-.426-1.387,1.5,1.5,0,0,0-1.05-.389,2.008,2.008,0,0,0-.864.2,1.682,1.682,0,0,0-.714.66,2.31,2.31,0,0,0-.282,1.224v3.192Z" fill="#333"/>
        <path d="M187.458,40.171a2.623,2.623,0,0,1-1.369-.372,2.671,2.671,0,0,1-1-1.074,3.53,3.53,0,0,1-.371-1.674,3.369,3.369,0,0,1,.4-1.692,2.734,2.734,0,0,1,1.044-1.062,2.778,2.778,0,0,1,1.391-.366,2.191,2.191,0,0,1,1.29.383,1.809,1.809,0,0,1,.726,1.021l-.119.084V31.291h.96v8.76h-.841l-.084-1.452.133-.072a1.752,1.752,0,0,1-.4.894,2.063,2.063,0,0,1-.779.558A2.549,2.549,0,0,1,187.458,40.171Zm.095-.841a1.756,1.756,0,0,0,1-.287,1.869,1.869,0,0,0,.659-.822,3.087,3.087,0,0,0,.235-1.254,2.7,2.7,0,0,0-.235-1.176,1.7,1.7,0,0,0-1.613-1.02,1.715,1.715,0,0,0-1.416.624,2.556,2.556,0,0,0-.5,1.656,2.6,2.6,0,0,0,.491,1.656A1.656,1.656,0,0,0,187.553,39.33Z" fill="#333"/>
        <path d="M195.149,40.171a3.06,3.06,0,0,1-1.518-.372,2.592,2.592,0,0,1-1.038-1.074,3.953,3.953,0,0,1,0-3.348,2.613,2.613,0,0,1,1.02-1.074,2.914,2.914,0,0,1,1.476-.372,2.716,2.716,0,0,1,1.434.36,2.373,2.373,0,0,1,.906.978,3.03,3.03,0,0,1,.312,1.385c0,.137,0,.261-.012.373a2.789,2.789,0,0,1-.036.3h-4.848v-.851h4.428l-.492.095a1.79,1.79,0,0,0-.473-1.332,1.7,1.7,0,0,0-1.243-.467,1.854,1.854,0,0,0-1.014.27,1.756,1.756,0,0,0-.659.779,2.923,2.923,0,0,0-.235,1.231,2.88,2.88,0,0,0,.24,1.224,1.772,1.772,0,0,0,.678.786,1.971,1.971,0,0,0,1.05.269,2.042,2.042,0,0,0,1.074-.252,1.9,1.9,0,0,0,.666-.683l.757.444a2.506,2.506,0,0,1-1.411,1.17A3.262,3.262,0,0,1,195.149,40.171Z" fill="#333"/>
        <path d="M199.566,40.051v-6h.84l.084,1.344-.157-.132a2.076,2.076,0,0,1,.517-.775,1.975,1.975,0,0,1,.75-.426,3,3,0,0,1,.882-.131,2.751,2.751,0,0,1,1.176.246,1.964,1.964,0,0,1,.846.75,2.368,2.368,0,0,1,.318,1.284v3.84h-.96v-3.5a1.833,1.833,0,0,0-.426-1.387,1.5,1.5,0,0,0-1.05-.389,2.016,2.016,0,0,0-.865.2,1.686,1.686,0,0,0-.713.66,2.31,2.31,0,0,0-.282,1.224v3.192Z" fill="#333"/>
        <path d="M210.509,34.051v.828h-4.343v-.828Zm-2.183-1.7V38.4a.823.823,0,0,0,.252.66.959.959,0,0,0,.648.216,1.387,1.387,0,0,0,.6-.121,1.6,1.6,0,0,0,.455-.324l.337.8a2.046,2.046,0,0,1-.655.4,2.434,2.434,0,0,1-.87.144,2.223,2.223,0,0,1-.851-.162,1.361,1.361,0,0,1-.631-.517,1.74,1.74,0,0,1-.246-.93V32.611Z" fill="#333"/>
      </g>
      <rect x="226.799" y="31.987" width="10.211" height="10.211" rx="3" fill="#999"/>
      <g>
        <path d="M249.678,36.175a1.418,1.418,0,0,0-.36-1.038,1.366,1.366,0,0,0-1.02-.366,1.955,1.955,0,0,0-1.056.27,1.576,1.576,0,0,0-.636.869l-.78-.479a2.109,2.109,0,0,1,.888-1.086,2.921,2.921,0,0,1,1.608-.414,3.024,3.024,0,0,1,1.176.221,1.863,1.863,0,0,1,.834.672,2.023,2.023,0,0,1,.306,1.158v2.905c0,.288.152.431.456.431a1.65,1.65,0,0,0,.444-.059l-.048.756a1.4,1.4,0,0,1-.624.12,1.429,1.429,0,0,1-.624-.132.975.975,0,0,1-.432-.4,1.339,1.339,0,0,1-.156-.678V38.8l.24.036a1.59,1.59,0,0,1-.492.762,2.266,2.266,0,0,1-.78.432,2.789,2.789,0,0,1-.852.138,2.636,2.636,0,0,1-.984-.181,1.607,1.607,0,0,1-.726-.545,1.62,1.62,0,0,1,.18-2.016,2.408,2.408,0,0,1,1.254-.594l2.376-.468v.791l-1.932.4a2.205,2.205,0,0,0-.876.336.706.706,0,0,0-.288.6.741.741,0,0,0,.294.607,1.31,1.31,0,0,0,.834.233,2.4,2.4,0,0,0,.666-.09,1.733,1.733,0,0,0,.57-.275,1.305,1.305,0,0,0,.4-.469,1.441,1.441,0,0,0,.144-.666Z" fill="#333"/>
        <path d="M252.966,40.051v-6h.84l.06.935a1.971,1.971,0,0,1,.846-.8,2.444,2.444,0,0,1,1.074-.252,2.6,2.6,0,0,1,1.2.288,1.932,1.932,0,0,1,.864.888,1.731,1.731,0,0,1,.54-.666,2.508,2.508,0,0,1,.762-.384,2.7,2.7,0,0,1,.786-.126,2.6,2.6,0,0,1,1.1.24,2.044,2.044,0,0,1,.858.743,2.3,2.3,0,0,1,.336,1.3v3.84h-.96V36.307a1.5,1.5,0,0,0-.408-1.176,1.469,1.469,0,0,0-1.008-.36,1.767,1.767,0,0,0-.876.228,1.674,1.674,0,0,0-.654.672,2.224,2.224,0,0,0-.246,1.092v3.288h-.96V36.307a1.5,1.5,0,0,0-.408-1.176,1.469,1.469,0,0,0-1.008-.36,1.794,1.794,0,0,0-.81.209,1.73,1.73,0,0,0-.69.666,2.306,2.306,0,0,0-.276,1.2v3.2Z" fill="#333"/>
        <path d="M267.342,40.171a2.392,2.392,0,0,1-.936-.181,2.191,2.191,0,0,1-1.212-1.235l.132-.168-.084,1.464h-.84v-8.76h.96v4.115l-.12-.179a2.058,2.058,0,0,1,.81-.93,2.357,2.357,0,0,1,1.3-.366,2.622,2.622,0,0,1,1.368.372,2.674,2.674,0,0,1,1,1.068,3.521,3.521,0,0,1,.372,1.68,3.483,3.483,0,0,1-.378,1.674,2.713,2.713,0,0,1-1,1.074A2.622,2.622,0,0,1,267.342,40.171Zm-.1-.841a1.673,1.673,0,0,0,1.386-.623,3.018,3.018,0,0,0,.006-3.312,1.657,1.657,0,0,0-1.38-.624,1.725,1.725,0,0,0-.99.288,1.929,1.929,0,0,0-.666.8,3.172,3.172,0,0,0-.006,2.406,1.806,1.806,0,0,0,.66.786A1.788,1.788,0,0,0,267.246,39.33Z" fill="#333"/>
        <path d="M272.406,32.9a.679.679,0,1,1,.522-.2A.705.705,0,0,1,272.406,32.9Zm.48,1.153v6h-.96v-6Z" fill="#333"/>
        <path d="M278.346,39.283a2.056,2.056,0,0,1,1.332.39,1.27,1.27,0,0,1,.48,1.038,1.468,1.468,0,0,1-.39,1.019,2.506,2.506,0,0,1-1.044.666,4.318,4.318,0,0,1-1.47.235,3.77,3.77,0,0,1-2.118-.481,1.381,1.381,0,0,1-.7-1.151,1.3,1.3,0,0,1,.318-.858,1.464,1.464,0,0,1,1.074-.426l-.084.18a1.626,1.626,0,0,1-.69-.366.966.966,0,0,1-.282-.75,1.136,1.136,0,0,1,.366-.846,1.829,1.829,0,0,1,1.086-.439l.636.324h-.12a1.419,1.419,0,0,0-.834.3.7.7,0,0,0-.246.51.555.555,0,0,0,.246.5,1.249,1.249,0,0,0,.69.162Zm-1.188-5.352a3.013,3.013,0,0,1,1.278.258,2.091,2.091,0,0,1,.87.713,1.935,1.935,0,0,1,0,2.107,2.076,2.076,0,0,1-.87.72,3.028,3.028,0,0,1-1.278.257,2.644,2.644,0,0,1-1.824-.569,1.87,1.87,0,0,1-.636-1.458,1.805,1.805,0,0,1,.318-1.057,2.143,2.143,0,0,1,.87-.713A2.973,2.973,0,0,1,277.158,33.931Zm.084,7.9a3.832,3.832,0,0,0,1.146-.143,1.558,1.558,0,0,0,.666-.372.709.709,0,0,0,.216-.493.61.61,0,0,0-.258-.515,1.634,1.634,0,0,0-.93-.192h-1.848a1.049,1.049,0,0,0-.648.2.645.645,0,0,0-.264.546.792.792,0,0,0,.51.707A3.106,3.106,0,0,0,277.242,41.826Zm-.084-7.115a1.594,1.594,0,0,0-1.044.342,1.181,1.181,0,0,0,0,1.806,1.74,1.74,0,0,0,2.088,0,1.181,1.181,0,0,0,0-1.806A1.594,1.594,0,0,0,277.158,34.711Zm3.012-1.764.216.852H280.3a1.509,1.509,0,0,0-.906.234.869.869,0,0,0-.318.75l-.588-.3a1.512,1.512,0,0,1,.216-.815,1.438,1.438,0,0,1,.588-.534,1.8,1.8,0,0,1,.816-.186h.06Z" fill="#333"/>
        <path d="M283.674,40.171a2.756,2.756,0,0,1-1.086-.216,1.832,1.832,0,0,1-.828-.7,2.277,2.277,0,0,1-.318-1.267V34.051h.96v3.683a1.6,1.6,0,0,0,.4,1.254,1.65,1.65,0,0,0,1.116.342,1.974,1.974,0,0,0,.66-.113,1.62,1.62,0,0,0,.582-.36,1.74,1.74,0,0,0,.408-.63,2.506,2.506,0,0,0,.15-.913V34.051h.96v6h-.84l-.06-.912a1.87,1.87,0,0,1-.846.786A2.972,2.972,0,0,1,283.674,40.171Z" fill="#333"/>
        <path d="M291.39,33.931a3,3,0,0,1,1.506.372,2.6,2.6,0,0,1,1.025,1.074,3.952,3.952,0,0,1,0,3.348A2.605,2.605,0,0,1,292.9,39.8a3.222,3.222,0,0,1-3.006,0,2.6,2.6,0,0,1-1.033-1.074,3.953,3.953,0,0,1,0-3.348A2.593,2.593,0,0,1,289.89,34.3,3,3,0,0,1,291.39,33.931Zm0,.828a1.9,1.9,0,0,0-1.044.276,1.783,1.783,0,0,0-.666.785,3.323,3.323,0,0,0,0,2.455,1.772,1.772,0,0,0,.666.791,2.106,2.106,0,0,0,2.088,0,1.785,1.785,0,0,0,.666-.791,3.35,3.35,0,0,0,0-2.455,1.8,1.8,0,0,0-.666-.785A1.91,1.91,0,0,0,291.39,34.759Z" fill="#333"/>
        <path d="M298.277,40.171a2.756,2.756,0,0,1-1.086-.216,1.832,1.832,0,0,1-.828-.7,2.277,2.277,0,0,1-.318-1.267V34.051h.96v3.683a1.6,1.6,0,0,0,.4,1.254,1.65,1.65,0,0,0,1.116.342,1.974,1.974,0,0,0,.66-.113,1.611,1.611,0,0,0,.582-.36,1.727,1.727,0,0,0,.408-.63,2.506,2.506,0,0,0,.15-.913V34.051h.96v6h-.839l-.061-.912a1.865,1.865,0,0,1-.846.786A2.972,2.972,0,0,1,298.277,40.171Z" fill="#333"/>
        <path d="M305.669,40.171a3.527,3.527,0,0,1-1.613-.372,2.658,2.658,0,0,1-1.135-1.057l.817-.588a1.993,1.993,0,0,0,.774.865,2.313,2.313,0,0,0,1.23.311,1.747,1.747,0,0,0,1-.245.749.749,0,0,0,.2-1.105,1.028,1.028,0,0,0-.619-.3l-1.44-.3a2.254,2.254,0,0,1-1.253-.6,1.507,1.507,0,0,1-.378-1.045,1.552,1.552,0,0,1,.281-.9,1.972,1.972,0,0,1,.805-.653,2.857,2.857,0,0,1,1.23-.246,3,3,0,0,1,1.5.348,2.178,2.178,0,0,1,.912.984l-.805.528a1.429,1.429,0,0,0-.659-.774,1.982,1.982,0,0,0-.948-.246,2.016,2.016,0,0,0-.738.12,1.067,1.067,0,0,0-.469.33.764.764,0,0,0-.162.474.751.751,0,0,0,.181.486,1.114,1.114,0,0,0,.671.318l1.5.312a2.076,2.076,0,0,1,1.177.552,1.377,1.377,0,0,1,.336.936,1.67,1.67,0,0,1-.3.99,1.9,1.9,0,0,1-.84.654A3.18,3.18,0,0,1,305.669,40.171Z" fill="#333"/>
      </g>
    </g>
    <g>
      <path d="M31.886,61.434a3.92,3.92,0,0,1,1.316.2,2.591,2.591,0,0,1,1,.636,3.364,3.364,0,0,1,.707,1.134l-1.316.63a1.993,1.993,0,0,0-.623-.952,1.816,1.816,0,0,0-1.183-.351,1.77,1.77,0,0,0-.966.267,2.247,2.247,0,0,0-.714.749,3.9,3.9,0,0,0-.448,1.134,6.14,6.14,0,0,0-.154,1.407v.252l.056.027a1.777,1.777,0,0,1,.553-.9,2.675,2.675,0,0,1,.9-.511,3.135,3.135,0,0,1,.994-.169,3.429,3.429,0,0,1,1.61.358,2.6,2.6,0,0,1,1.071,1.015,3.376,3.376,0,0,1-.021,3.171,2.753,2.753,0,0,1-1.127,1.05,3.743,3.743,0,0,1-1.729.371,3.363,3.363,0,0,1-2-.588,3.67,3.67,0,0,1-1.26-1.652,6.575,6.575,0,0,1-.434-2.492,6.245,6.245,0,0,1,.5-2.646,3.657,3.657,0,0,1,1.351-1.6A3.515,3.515,0,0,1,31.886,61.434Zm-.1,4.8a1.971,1.971,0,0,0-.938.218,1.639,1.639,0,0,0-.637.595,1.659,1.659,0,0,0-.231.883,1.63,1.63,0,0,0,.245.881,1.968,1.968,0,0,0,2.891.392,1.689,1.689,0,0,0,.476-1.273,1.867,1.867,0,0,0-.21-.905,1.4,1.4,0,0,0-.609-.587A2.166,2.166,0,0,0,31.788,66.234Z" fill="gray"/>
      <path d="M40.23,70.953a3.128,3.128,0,0,1-2.611-1.211,5.684,5.684,0,0,1-.945-3.549,5.681,5.681,0,0,1,.945-3.548,3.435,3.435,0,0,1,5.236,0,5.681,5.681,0,0,1,.945,3.548,5.684,5.684,0,0,1-.945,3.549A3.144,3.144,0,0,1,40.23,70.953Zm0-1.273a1.683,1.683,0,0,0,1.127-.386,2.359,2.359,0,0,0,.686-1.162,8.253,8.253,0,0,0,0-3.878,2.359,2.359,0,0,0-.686-1.162,1.842,1.842,0,0,0-2.254,0,2.316,2.316,0,0,0-.679,1.162,8.5,8.5,0,0,0,0,3.878,2.316,2.316,0,0,0,.679,1.162A1.683,1.683,0,0,0,40.23,69.68Z" fill="gray"/>
      <path d="M47.482,61.434a2.328,2.328,0,0,1,1.239.321,2.166,2.166,0,0,1,.812.895,3.34,3.34,0,0,1,0,2.709,2.145,2.145,0,0,1-.812.905,2.538,2.538,0,0,1-2.471,0,2.128,2.128,0,0,1-.819-.905,3.34,3.34,0,0,1,0-2.709,2.149,2.149,0,0,1,.819-.895A2.335,2.335,0,0,1,47.482,61.434Zm0,1.091a.992.992,0,0,0-.98.679,2.612,2.612,0,0,0,0,1.6,1.008,1.008,0,0,0,.378.5,1.061,1.061,0,0,0,.6.168,1.085,1.085,0,0,0,.616-.168,1.008,1.008,0,0,0,.378-.5,2.612,2.612,0,0,0,0-1.6,1.064,1.064,0,0,0-.371-.5A1.052,1.052,0,0,0,47.482,62.525Zm-.364,8.287,6.048-9.24h1.288l-6.034,9.24ZM54.09,65.8a2.32,2.32,0,0,1,1.239.322,2.154,2.154,0,0,1,.812.9,3.34,3.34,0,0,1,0,2.709,2.159,2.159,0,0,1-.812.9,2.531,2.531,0,0,1-2.471,0,2.142,2.142,0,0,1-.819-.9,3.34,3.34,0,0,1,0-2.709,2.137,2.137,0,0,1,.819-.9A2.327,2.327,0,0,1,54.09,65.8Zm0,1.106a1.059,1.059,0,0,0-.6.168,1.019,1.019,0,0,0-.378.5,2.612,2.612,0,0,0,0,1.6,1.054,1.054,0,0,0,.378.511,1.025,1.025,0,0,0,.6.175.989.989,0,0,0,.994-.686,2.231,2.231,0,0,0,.126-.784,2.32,2.32,0,0,0-.126-.812,1.03,1.03,0,0,0-.371-.5A1.077,1.077,0,0,0,54.09,66.907Z" fill="gray"/>
    </g>
    <g>
      <path d="M417.382,70.953a4.272,4.272,0,0,1-2.261-.581,2.944,2.944,0,0,1-1.309-1.631l1.456-.686a2.477,2.477,0,0,0,.392.868,1.685,1.685,0,0,0,.7.554,2.722,2.722,0,0,0,1.078.188,1.985,1.985,0,0,0,.924-.2,1.4,1.4,0,0,0,.581-.546,1.555,1.555,0,0,0,.2-.8,1.536,1.536,0,0,0-.175-.77,1.014,1.014,0,0,0-.546-.448,2.717,2.717,0,0,0-.945-.139c-.112,0-.226,0-.343,0s-.24.018-.371.036v-1.26c.084.01.166.016.245.021s.156.007.231.007a1.89,1.89,0,0,0,1.3-.364,1.476,1.476,0,0,0,.392-1.134,1.275,1.275,0,0,0-.4-1.009,1.683,1.683,0,0,0-1.141-.349,1.815,1.815,0,0,0-1.2.357,2.217,2.217,0,0,0-.651,1.029l-1.372-.574a2.726,2.726,0,0,1,.658-1.12,3.112,3.112,0,0,1,1.141-.735,4.168,4.168,0,0,1,1.491-.259,3.788,3.788,0,0,1,1.659.322,2.247,2.247,0,0,1,.994.882,2.417,2.417,0,0,1,.329,1.246,2.569,2.569,0,0,1-.154.931,2.183,2.183,0,0,1-.413.686,1.955,1.955,0,0,1-.56.441,2.2,2.2,0,0,1-.609.21v.028a2.038,2.038,0,0,1,1.365.567,1.825,1.825,0,0,1,.427.623,2.019,2.019,0,0,1,.154.8,2.589,2.589,0,0,1-.42,1.471,2.815,2.815,0,0,1-1.155.981A3.933,3.933,0,0,1,417.382,70.953Z" fill="gray"/>
      <path d="M421.513,61.572h7.042v1.246a12.177,12.177,0,0,0-1.876,2.472,9.861,9.861,0,0,0-1.03,2.632,12.826,12.826,0,0,0-.315,2.89h-1.512a11.723,11.723,0,0,1,.386-3,10.928,10.928,0,0,1,1.175-2.8,12.255,12.255,0,0,1,2-2.513l.281.378h-6.146Z" fill="gray"/>
      <path d="M431.886,61.434a2.328,2.328,0,0,1,1.239.321,2.175,2.175,0,0,1,.813.895,3.35,3.35,0,0,1,0,2.709,2.153,2.153,0,0,1-.813.905,2.538,2.538,0,0,1-2.471,0,2.128,2.128,0,0,1-.819-.905,3.34,3.34,0,0,1,0-2.709,2.149,2.149,0,0,1,.819-.895A2.338,2.338,0,0,1,431.886,61.434Zm0,1.091a.992.992,0,0,0-.98.679,2.612,2.612,0,0,0,0,1.6,1.008,1.008,0,0,0,.378.5,1.061,1.061,0,0,0,.6.168,1.085,1.085,0,0,0,.616-.168,1.008,1.008,0,0,0,.378-.5,2.612,2.612,0,0,0,0-1.6,1.064,1.064,0,0,0-.371-.5A1.05,1.05,0,0,0,431.886,62.525Zm-.364,8.287,6.048-9.24h1.288l-6.034,9.24Zm6.972-5.011a2.32,2.32,0,0,1,1.239.322,2.154,2.154,0,0,1,.812.9,3.34,3.34,0,0,1,0,2.709,2.159,2.159,0,0,1-.812.9,2.531,2.531,0,0,1-2.471,0,2.142,2.142,0,0,1-.819-.9,3.34,3.34,0,0,1,0-2.709,2.137,2.137,0,0,1,.819-.9A2.329,2.329,0,0,1,438.494,65.8Zm0,1.106a1.061,1.061,0,0,0-.6.168,1.019,1.019,0,0,0-.378.5,2.612,2.612,0,0,0,0,1.6,1.054,1.054,0,0,0,.378.511,1.027,1.027,0,0,0,.6.175.989.989,0,0,0,.994-.686,2.231,2.231,0,0,0,.126-.784,2.32,2.32,0,0,0-.126-.812,1.03,1.03,0,0,0-.371-.5A1.077,1.077,0,0,0,438.494,66.907Z" fill="gray"/>
    </g>
    <g>
      <path d="M642.858,70.953a4.272,4.272,0,0,1-2.261-.581,2.938,2.938,0,0,1-1.308-1.631l1.455-.686a2.477,2.477,0,0,0,.392.868,1.685,1.685,0,0,0,.7.554,2.724,2.724,0,0,0,1.079.188,1.983,1.983,0,0,0,.923-.2,1.4,1.4,0,0,0,.581-.546,1.556,1.556,0,0,0,.2-.8,1.536,1.536,0,0,0-.176-.77,1.011,1.011,0,0,0-.546-.448,2.715,2.715,0,0,0-.944-.139c-.113,0-.227,0-.344,0s-.24.018-.371.036v-1.26c.084.01.166.016.245.021s.157.007.231.007a1.9,1.9,0,0,0,1.3-.364,1.479,1.479,0,0,0,.391-1.134,1.275,1.275,0,0,0-.4-1.009,1.68,1.68,0,0,0-1.14-.349,1.816,1.816,0,0,0-1.2.357,2.217,2.217,0,0,0-.651,1.029l-1.372-.574a2.717,2.717,0,0,1,.659-1.12,3.108,3.108,0,0,1,1.14-.735,4.168,4.168,0,0,1,1.491-.259,3.8,3.8,0,0,1,1.66.322,2.25,2.25,0,0,1,.993.882,2.417,2.417,0,0,1,.329,1.246,2.592,2.592,0,0,1-.153.931,2.2,2.2,0,0,1-.414.686,1.942,1.942,0,0,1-.56.441,2.193,2.193,0,0,1-.609.21v.028a2.033,2.033,0,0,1,1.365.567,1.825,1.825,0,0,1,.427.623,2.019,2.019,0,0,1,.154.8,2.589,2.589,0,0,1-.42,1.471,2.812,2.812,0,0,1-1.154.981A3.941,3.941,0,0,1,642.858,70.953Z" fill="gray"/>
      <path d="M649.816,61.434a2.332,2.332,0,0,1,1.24.321,2.179,2.179,0,0,1,.812.895,3.35,3.35,0,0,1,0,2.709,2.158,2.158,0,0,1-.812.905,2.54,2.54,0,0,1-2.472,0,2.126,2.126,0,0,1-.818-.905,3.34,3.34,0,0,1,0-2.709,2.146,2.146,0,0,1,.818-.895A2.34,2.34,0,0,1,649.816,61.434Zm0,1.091a.992.992,0,0,0-.98.679,2.612,2.612,0,0,0,0,1.6,1.008,1.008,0,0,0,.378.5,1.061,1.061,0,0,0,.6.168,1.088,1.088,0,0,0,.617-.168,1.008,1.008,0,0,0,.378-.5,2.612,2.612,0,0,0,0-1.6.981.981,0,0,0-1-.679Zm-.363,8.287,6.047-9.24h1.289l-6.035,9.24Zm6.971-5.011a2.326,2.326,0,0,1,1.24.322,2.161,2.161,0,0,1,.812.9,3.35,3.35,0,0,1,0,2.709,2.166,2.166,0,0,1-.812.9,2.533,2.533,0,0,1-2.472,0,2.133,2.133,0,0,1-.818-.9,3.329,3.329,0,0,1,0-2.709,2.129,2.129,0,0,1,.818-.9A2.332,2.332,0,0,1,656.424,65.8Zm0,1.106a1.061,1.061,0,0,0-.6.168,1.019,1.019,0,0,0-.378.5,2.612,2.612,0,0,0,0,1.6,1.054,1.054,0,0,0,.378.511,1.027,1.027,0,0,0,.6.175.986.986,0,0,0,.994-.686,2.231,2.231,0,0,0,.126-.784,2.32,2.32,0,0,0-.126-.812,1.03,1.03,0,0,0-.371-.5A1.077,1.077,0,0,0,656.424,66.907Z" fill="gray"/>
    </g>
  </g>
</svg>
