<svg xmlns="http://www.w3.org/2000/svg" viewBox="0 0 688.268 171">
  <g id="background">
    <rect x="11" y="15" width="666" height="138" rx="5" fill="#f5f5f5"/>
  </g>
  <g id="texts">
    <g>
      <g>
        <path d="M393.134,93.13H30.155a3,3,0,0,1-3-3v-9a3,3,0,0,1,3-3H393.134Z" fill="#64b5f6"/>
        <rect x="393.134" y="78.13" width="94.851" height="15" fill="#ffb74d"/>
        <path d="M656,93.13H487.984v-15H656a3,3,0,0,1,3,3v9A3,3,0,0,1,656,93.13Z" fill="#999"/>
      </g>
      <g>
        <g>
          <path d="M30.891,115.246a2.575,2.575,0,0,1-2.148-1.045,6.128,6.128,0,0,1,0-6.072,2.74,2.74,0,0,1,4.3,0,6.174,6.174,0,0,1,0,6.072A2.572,2.572,0,0,1,30.891,115.246Zm0-.865a1.622,1.622,0,0,0,1.074-.365,2.231,2.231,0,0,0,.66-1.086,7.123,7.123,0,0,0,0-3.529,2.235,2.235,0,0,0-.66-1.086,1.759,1.759,0,0,0-2.148,0,2.228,2.228,0,0,0-.66,1.086,7.123,7.123,0,0,0,0,3.529,2.223,2.223,0,0,0,.66,1.086A1.616,1.616,0,0,0,30.891,114.381Z" fill="gray"/>
          <path d="M37.011,107.086a1.859,1.859,0,0,1,1.013.269,1.787,1.787,0,0,1,.661.762,2.967,2.967,0,0,1,0,2.3,1.787,1.787,0,0,1-.661.762,2.034,2.034,0,0,1-2.022,0,1.778,1.778,0,0,1-.666-.762,2.967,2.967,0,0,1,0-2.3,1.778,1.778,0,0,1,.666-.762A1.874,1.874,0,0,1,37.011,107.086Zm0,.756a.972.972,0,0,0-.576.168.985.985,0,0,0-.36.486,2.534,2.534,0,0,0,0,1.541.984.984,0,0,0,.36.492,1.082,1.082,0,0,0,1.158,0,1.011,1.011,0,0,0,.354-.492,2.554,2.554,0,0,0,0-1.541,1.013,1.013,0,0,0-.354-.486A.965.965,0,0,0,37.011,107.842Zm-.228,7.283,5.04-7.92h.911l-5.04,7.92Zm5.723-4.248a1.86,1.86,0,0,1,1.015.27,1.807,1.807,0,0,1,.66.763,2.95,2.95,0,0,1,0,2.3,1.807,1.807,0,0,1-.66.763,2.028,2.028,0,0,1-2.022,0,1.773,1.773,0,0,1-.666-.763,2.95,2.95,0,0,1,0-2.3,1.773,1.773,0,0,1,.666-.763A1.861,1.861,0,0,1,42.506,110.877Zm0,.756a.976.976,0,0,0-.575.168,1.01,1.01,0,0,0-.36.486,2.54,2.54,0,0,0,0,1.543,1,1,0,0,0,.36.491,1.08,1.08,0,0,0,1.157,0,1.016,1.016,0,0,0,.354-.491,2.54,2.54,0,0,0,0-1.543,1.025,1.025,0,0,0-.354-.486A.97.97,0,0,0,42.506,111.633Z" fill="gray"/>
        </g>
        <g>
          <path d="M178.7,115.125v-.779q1.188-.876,1.986-1.536a11.722,11.722,0,0,0,1.278-1.2,3.789,3.789,0,0,0,.684-1.025,2.6,2.6,0,0,0,.2-1.015,1.527,1.527,0,0,0-.45-1.145,1.9,1.9,0,0,0-2.538.1,2.357,2.357,0,0,0-.576,1.421l-.84-.5a3.1,3.1,0,0,1,.45-1.225,2.381,2.381,0,0,1,.924-.828,3,3,0,0,1,1.386-.3,3.145,3.145,0,0,1,1.1.18,2.411,2.411,0,0,1,.834.509,2.243,2.243,0,0,1,.534.787,2.636,2.636,0,0,1,.186,1.007,3.2,3.2,0,0,1-.36,1.458,5.566,5.566,0,0,1-1.188,1.494,17.712,17.712,0,0,1-2.244,1.729v.012q.132-.012.366-.018l.468-.013c.156,0,.274,0,.354,0h2.772v.9Z" fill="gray"/>
          <path d="M188.254,115.246a2.767,2.767,0,0,1-1.7-.48,3.067,3.067,0,0,1-.99-1.332l.936-.493a2.339,2.339,0,0,0,.594,1.014,1.633,1.633,0,0,0,1.182.391,2.022,2.022,0,0,0,.942-.2,1.465,1.465,0,0,0,.606-.582,1.8,1.8,0,0,0,.216-.907,2.015,2.015,0,0,0-.2-.942,1.306,1.306,0,0,0-.57-.569,1.971,1.971,0,0,0-.912-.193,3.156,3.156,0,0,0-.714.078,1.969,1.969,0,0,0-.594.246,1.616,1.616,0,0,0-.456.444l-.84-.155.468-4.357h4.452v.9h-3.636l-.312,2.5-.024.107h.024a2.1,2.1,0,0,1,.738-.48,2.888,2.888,0,0,1,1.074-.18,2.62,2.62,0,0,1,1.314.318,2.231,2.231,0,0,1,.87.895,2.778,2.778,0,0,1,.312,1.343,2.854,2.854,0,0,1-.2,1.1,2.326,2.326,0,0,1-.576.834,2.53,2.53,0,0,1-.882.522A3.326,3.326,0,0,1,188.254,115.246Z" fill="gray"/>
        </g>
        <g>
          <path d="M339.671,115.246a2.762,2.762,0,0,1-1.7-.48,3.061,3.061,0,0,1-.991-1.332l.936-.493a2.341,2.341,0,0,0,.6,1.014,1.629,1.629,0,0,0,1.181.391,2.03,2.03,0,0,0,.943-.2,1.471,1.471,0,0,0,.606-.582,1.8,1.8,0,0,0,.215-.907,2.016,2.016,0,0,0-.2-.942,1.313,1.313,0,0,0-.571-.569,1.968,1.968,0,0,0-.912-.193,3.163,3.163,0,0,0-.714.078,1.952,1.952,0,0,0-.593.246,1.6,1.6,0,0,0-.456.444l-.84-.155.468-4.357H342.1v.9h-3.637l-.312,2.5-.023.107h.023a2.094,2.094,0,0,1,.739-.48,2.883,2.883,0,0,1,1.073-.18,2.62,2.62,0,0,1,1.314.318,2.227,2.227,0,0,1,.871.895,2.778,2.778,0,0,1,.312,1.343,2.836,2.836,0,0,1-.205,1.1,2.336,2.336,0,0,1-.575.834,2.544,2.544,0,0,1-.883.522A3.318,3.318,0,0,1,339.671,115.246Z" fill="gray"/>
          <path d="M346.943,115.246A2.576,2.576,0,0,1,344.8,114.2a6.134,6.134,0,0,1,0-6.072,2.741,2.741,0,0,1,4.3,0,6.174,6.174,0,0,1,0,6.072A2.574,2.574,0,0,1,346.943,115.246Zm0-.865a1.623,1.623,0,0,0,1.075-.365,2.23,2.23,0,0,0,.659-1.086,7.123,7.123,0,0,0,0-3.529,2.234,2.234,0,0,0-.659-1.086,1.759,1.759,0,0,0-2.148,0,2.229,2.229,0,0,0-.661,1.086,7.123,7.123,0,0,0,0,3.529,2.224,2.224,0,0,0,.661,1.086A1.615,1.615,0,0,0,346.943,114.381Z" fill="gray"/>
        </g>
        <g>
          <path d="M494.733,107.205h5.831v.9a11.383,11.383,0,0,0-1.626,2.166,8.882,8.882,0,0,0-.917,2.311,10.857,10.857,0,0,0-.288,2.543h-.984a10.338,10.338,0,0,1,.33-2.609,9.935,9.935,0,0,1,1-2.454,10.811,10.811,0,0,1,1.668-2.2l.156.24h-5.172Z" fill="gray"/>
          <path d="M504.429,115.246a2.77,2.77,0,0,1-1.7-.48,3.082,3.082,0,0,1-.99-1.332l.937-.493a2.33,2.33,0,0,0,.594,1.014,1.63,1.63,0,0,0,1.181.391,2.027,2.027,0,0,0,.943-.2,1.469,1.469,0,0,0,.605-.582,1.788,1.788,0,0,0,.217-.907,2.028,2.028,0,0,0-.2-.942,1.308,1.308,0,0,0-.571-.569,1.971,1.971,0,0,0-.912-.193,3.156,3.156,0,0,0-.714.078,1.963,1.963,0,0,0-.593.246,1.619,1.619,0,0,0-.457.444l-.839-.155.467-4.357h4.453v.9h-3.636l-.313,2.5-.023.107h.023a2.112,2.112,0,0,1,.739-.48,2.885,2.885,0,0,1,1.074-.18,2.616,2.616,0,0,1,1.313.318,2.231,2.231,0,0,1,.87.895,2.778,2.778,0,0,1,.312,1.343,2.854,2.854,0,0,1-.2,1.1,2.339,2.339,0,0,1-.576.834,2.53,2.53,0,0,1-.882.522A3.334,3.334,0,0,1,504.429,115.246Z" fill="gray"/>
        </g>
        <g>
          <path d="M643.453,115.125v-5.808c0-.135,0-.282.006-.438s.01-.317.018-.485a4.311,4.311,0,0,1-.948.69,4.44,4.44,0,0,1-1.1.426l-.252-.877a2.118,2.118,0,0,0,.546-.161,6.281,6.281,0,0,0,.7-.349,6.036,6.036,0,0,0,.678-.449,2.441,2.441,0,0,0,.48-.469h.84v7.92Z" fill="gray"/>
          <path d="M649.369,115.246a2.575,2.575,0,0,1-2.148-1.045,6.134,6.134,0,0,1,0-6.072,2.738,2.738,0,0,1,4.3,0,6.174,6.174,0,0,1,0,6.072A2.57,2.57,0,0,1,649.369,115.246Zm0-.865a1.615,1.615,0,0,0,1.073-.365,2.232,2.232,0,0,0,.661-1.086,7.123,7.123,0,0,0,0-3.529,2.236,2.236,0,0,0-.661-1.086,1.757,1.757,0,0,0-2.147,0,2.228,2.228,0,0,0-.66,1.086,7.123,7.123,0,0,0,0,3.529,2.223,2.223,0,0,0,.66,1.086A1.616,1.616,0,0,0,649.369,114.381Z" fill="gray"/>
          <path d="M656.833,115.246a2.575,2.575,0,0,1-2.148-1.045,6.134,6.134,0,0,1,0-6.072,2.738,2.738,0,0,1,4.3,0,6.174,6.174,0,0,1,0,6.072A2.57,2.57,0,0,1,656.833,115.246Zm0-.865a1.615,1.615,0,0,0,1.073-.365,2.223,2.223,0,0,0,.66-1.086,7.092,7.092,0,0,0,0-3.529,2.228,2.228,0,0,0-.66-1.086,1.757,1.757,0,0,0-2.147,0,2.228,2.228,0,0,0-.66,1.086,7.123,7.123,0,0,0,0,3.529,2.223,2.223,0,0,0,.66,1.086A1.616,1.616,0,0,0,656.833,114.381Z" fill="gray"/>
        </g>
        <g>
          <path d="M281.722,126.109a2.174,2.174,0,0,1,1.183.315,2.094,2.094,0,0,1,.77.889,3.447,3.447,0,0,1,0,2.689,2.088,2.088,0,0,1-.77.889,2.372,2.372,0,0,1-2.359,0,2.07,2.07,0,0,1-.777-.889,3.447,3.447,0,0,1,0-2.689,2.076,2.076,0,0,1,.777-.889A2.179,2.179,0,0,1,281.722,126.109Zm0,.882a1.137,1.137,0,0,0-.672.2,1.166,1.166,0,0,0-.42.566,2.96,2.96,0,0,0,0,1.8,1.17,1.17,0,0,0,.42.574,1.26,1.26,0,0,0,1.35,0,1.178,1.178,0,0,0,.413-.574,2.94,2.94,0,0,0,0-1.8,1.173,1.173,0,0,0-.413-.566A1.129,1.129,0,0,0,281.722,126.991Zm-.266,8.5,5.88-9.24H288.4l-5.879,9.24Zm6.678-4.956a2.168,2.168,0,0,1,1.182.315,2.084,2.084,0,0,1,.771.889,3.459,3.459,0,0,1,0,2.689,2.075,2.075,0,0,1-.771.888,2.364,2.364,0,0,1-2.358,0,2.055,2.055,0,0,1-.777-.888,3.447,3.447,0,0,1,0-2.689,2.064,2.064,0,0,1,.777-.889A2.181,2.181,0,0,1,288.134,130.533Zm0,.882a1.137,1.137,0,0,0-.672.2,1.178,1.178,0,0,0-.42.567,2.94,2.94,0,0,0,0,1.8,1.166,1.166,0,0,0,.42.574,1.26,1.26,0,0,0,1.35,0,1.181,1.181,0,0,0,.414-.574,2.96,2.96,0,0,0,0-1.8,1.194,1.194,0,0,0-.414-.567A1.128,1.128,0,0,0,288.134,131.415Z" fill="#4d4d4d"/>
          <path d="M299.894,128.35a3.488,3.488,0,0,1,1.756.433,3.038,3.038,0,0,1,1.2,1.253,4.621,4.621,0,0,1,0,3.906,3.038,3.038,0,0,1-1.2,1.253,3.757,3.757,0,0,1-3.506,0,3.029,3.029,0,0,1-1.2-1.253,4.621,4.621,0,0,1,0-3.906,3.029,3.029,0,0,1,1.2-1.253A3.5,3.5,0,0,1,299.894,128.35Zm0,.965a2.221,2.221,0,0,0-1.218.322,2.1,2.1,0,0,0-.778.918,3.9,3.9,0,0,0,0,2.863,2.1,2.1,0,0,0,.778.924,2.469,2.469,0,0,0,2.435,0,2.1,2.1,0,0,0,.778-.924,3.9,3.9,0,0,0,0-2.863,2.1,2.1,0,0,0-.778-.918A2.22,2.22,0,0,0,299.894,129.315Z" fill="#4d4d4d"/>
          <path d="M309.273,128.489v.966h-4.857v-.966Zm-1.162-3.29a2.717,2.717,0,0,1,.687.084,1.286,1.286,0,0,1,.5.238l-.294.911a1.144,1.144,0,0,0-.364-.162,1.829,1.829,0,0,0-.434-.049,1.4,1.4,0,0,0-.939.287,1.148,1.148,0,0,0-.335.918v8.063h-1.121v-8.176a2.537,2.537,0,0,1,.14-.854,1.759,1.759,0,0,1,.428-.672,1.93,1.93,0,0,1,.721-.433A2.972,2.972,0,0,1,308.111,125.2Z" fill="#4d4d4d"/>
          <path d="M318.9,128.489v.966h-5.067v-.966Zm-2.548-1.987v7.055a.96.96,0,0,0,.294.77,1.124,1.124,0,0,0,.756.252,1.6,1.6,0,0,0,.7-.14,1.885,1.885,0,0,0,.533-.378l.391.938a2.36,2.36,0,0,1-.762.462,2.842,2.842,0,0,1-1.015.168,2.591,2.591,0,0,1-.994-.189,1.581,1.581,0,0,1-.736-.6,2.031,2.031,0,0,1-.287-1.084v-6.945Z" fill="#4d4d4d"/>
          <path d="M320.571,135.489V125.27h1.12v4.269a2.163,2.163,0,0,1,.966-.91,3.1,3.1,0,0,1,1.317-.279,3.2,3.2,0,0,1,1.372.287,2.283,2.283,0,0,1,.986.875,2.76,2.76,0,0,1,.371,1.5v4.479h-1.12V131.4a2.137,2.137,0,0,0-.5-1.617,1.742,1.742,0,0,0-1.225-.455,2.331,2.331,0,0,0-1.007.238,1.948,1.948,0,0,0-.833.777,2.727,2.727,0,0,0-.33,1.435v3.71Z" fill="#4d4d4d"/>
          <path d="M332.163,135.629a3.568,3.568,0,0,1-1.77-.434,3.007,3.007,0,0,1-1.211-1.253,4.6,4.6,0,0,1,0-3.906,3.05,3.05,0,0,1,1.189-1.253,3.4,3.4,0,0,1,1.723-.433,3.163,3.163,0,0,1,1.673.42,2.764,2.764,0,0,1,1.056,1.14,3.548,3.548,0,0,1,.365,1.617c0,.159,0,.3-.015.434a3.334,3.334,0,0,1-.042.35h-5.655v-.994h5.166l-.575.113a2.091,2.091,0,0,0-.552-1.555,1.981,1.981,0,0,0-1.45-.546,2.155,2.155,0,0,0-1.183.316,2.056,2.056,0,0,0-.77.91,3.435,3.435,0,0,0-.273,1.434,3.376,3.376,0,0,0,.28,1.429,2.072,2.072,0,0,0,.791.916,2.282,2.282,0,0,0,1.226.315,2.389,2.389,0,0,0,1.253-.294,2.233,2.233,0,0,0,.776-.8l.882.518a2.927,2.927,0,0,1-1.645,1.365A3.819,3.819,0,0,1,332.163,135.629Z" fill="#4d4d4d"/>
          <path d="M345.8,126.249a3.377,3.377,0,0,1,2.267.728,2.46,2.46,0,0,1,.855,1.974,2.352,2.352,0,0,1-.861,1.94,3.525,3.525,0,0,1-2.275.693l-.1.069h-2.268v3.836H342.3v-9.24Zm-.014,4.355a2.231,2.231,0,0,0,1.477-.414,1.829,1.829,0,0,0,0-2.477,2.237,2.237,0,0,0-1.477-.414h-2.366V130.6Zm.644.223,3.051,4.662h-1.33l-2.659-4.046Z" fill="#4d4d4d"/>
          <path d="M354.087,135.629a3.579,3.579,0,0,1-1.772-.434,3.025,3.025,0,0,1-1.211-1.253,4.621,4.621,0,0,1,0-3.906,3.06,3.06,0,0,1,1.191-1.253,3.4,3.4,0,0,1,1.722-.433,3.155,3.155,0,0,1,1.672.42,2.768,2.768,0,0,1,1.058,1.14,3.547,3.547,0,0,1,.363,1.617c0,.159,0,.3-.013.434s-.024.248-.042.35H351.4v-.994h5.166l-.574.113a2.087,2.087,0,0,0-.552-1.555,1.981,1.981,0,0,0-1.45-.546,2.152,2.152,0,0,0-1.182.316,2.065,2.065,0,0,0-.771.91,3.436,3.436,0,0,0-.272,1.434,3.346,3.346,0,0,0,.28,1.429,2.066,2.066,0,0,0,.791.916,2.279,2.279,0,0,0,1.225.315,2.386,2.386,0,0,0,1.253-.294,2.235,2.235,0,0,0,.777-.8l.882.518a3,3,0,0,1-.679.826,2.941,2.941,0,0,1-.967.539A3.808,3.808,0,0,1,354.087,135.629Z" fill="#4d4d4d"/>
          <path d="M361.759,135.629a4.126,4.126,0,0,1-1.883-.434,3.1,3.1,0,0,1-1.323-1.232l.952-.686a2.324,2.324,0,0,0,.9,1.008,2.705,2.705,0,0,0,1.435.364,2.034,2.034,0,0,0,1.162-.287.871.871,0,0,0,.23-1.288,1.2,1.2,0,0,0-.72-.357l-1.68-.35a2.639,2.639,0,0,1-1.463-.7,1.755,1.755,0,0,1-.441-1.219,1.8,1.8,0,0,1,.329-1.05,2.294,2.294,0,0,1,.938-.762,3.326,3.326,0,0,1,1.435-.287,3.48,3.48,0,0,1,1.75.406,2.524,2.524,0,0,1,1.063,1.147l-.937.617a1.665,1.665,0,0,0-.771-.9,2.308,2.308,0,0,0-1.105-.287,2.377,2.377,0,0,0-.862.14,1.243,1.243,0,0,0-.545.385.888.888,0,0,0,.021,1.121,1.321,1.321,0,0,0,.784.371l1.75.363a2.411,2.411,0,0,1,1.371.645,1.6,1.6,0,0,1,.393,1.091,1.945,1.945,0,0,1-.351,1.155,2.207,2.207,0,0,1-.979.763A3.7,3.7,0,0,1,361.759,135.629Z" fill="#4d4d4d"/>
          <path d="M366.616,138.43v-9.941h.981l.1,1.708-.153-.195a2.4,2.4,0,0,1,.546-.861,2.552,2.552,0,0,1,.882-.582,2.968,2.968,0,0,1,1.12-.209,3,3,0,0,1,1.575.433,3.137,3.137,0,0,1,1.154,1.246,4.589,4.589,0,0,1-.006,3.913,3.165,3.165,0,0,1-1.169,1.253,3.066,3.066,0,0,1-1.6.434,2.708,2.708,0,0,1-1.52-.427,2.408,2.408,0,0,1-.93-1.085l.139-.21v4.523Zm3.319-3.781a1.958,1.958,0,0,0,1.617-.727,3.019,3.019,0,0,0,.581-1.933,3.062,3.062,0,0,0-.568-1.932,1.9,1.9,0,0,0-1.588-.728,2.1,2.1,0,0,0-1.176.329,2.18,2.18,0,0,0-.784.924,3.273,3.273,0,0,0-.281,1.407,3.359,3.359,0,0,0,.274,1.4,2.13,2.13,0,0,0,.769.931A2.051,2.051,0,0,0,369.935,134.649Z" fill="#4d4d4d"/>
          <path d="M378.293,128.35a3.5,3.5,0,0,1,1.757.433,3.034,3.034,0,0,1,1.2,1.253,4.6,4.6,0,0,1,0,3.906,3.034,3.034,0,0,1-1.2,1.253,3.759,3.759,0,0,1-3.507,0,3.021,3.021,0,0,1-1.2-1.253,4.6,4.6,0,0,1,0-3.906,3.021,3.021,0,0,1,1.2-1.253A3.5,3.5,0,0,1,378.293,128.35Zm0,.965a2.222,2.222,0,0,0-1.219.322,2.085,2.085,0,0,0-.776.918,3.876,3.876,0,0,0,0,2.863,2.085,2.085,0,0,0,.776.924,2.473,2.473,0,0,0,2.437,0,2.092,2.092,0,0,0,.776-.924,3.876,3.876,0,0,0,0-2.863,2.091,2.091,0,0,0-.776-.918A2.221,2.221,0,0,0,378.293,129.315Z" fill="#4d4d4d"/>
          <path d="M383.794,135.489v-7h.98l.1,1.568-.182-.154a2.41,2.41,0,0,1,.6-.9,2.272,2.272,0,0,1,.875-.5,3.421,3.421,0,0,1,1.029-.154,3.2,3.2,0,0,1,1.372.287,2.288,2.288,0,0,1,.988.875,2.76,2.76,0,0,1,.371,1.5v4.479h-1.12V131.4a2.137,2.137,0,0,0-.5-1.617,1.748,1.748,0,0,0-1.226-.455,2.338,2.338,0,0,0-1.008.238,1.969,1.969,0,0,0-.833.771,2.693,2.693,0,0,0-.329,1.428v3.723Z" fill="#4d4d4d"/>
          <path d="M395.19,135.629a3.057,3.057,0,0,1-1.595-.434,3.108,3.108,0,0,1-1.162-1.253,4.11,4.11,0,0,1-.435-1.953,3.931,3.931,0,0,1,.462-1.973,3.219,3.219,0,0,1,2.843-1.666,2.548,2.548,0,0,1,1.5.447,2.119,2.119,0,0,1,.846,1.19l-.139.1V125.27h1.12v10.219h-.981l-.1-1.694.153-.084a2.03,2.03,0,0,1-.469,1.043,2.407,2.407,0,0,1-.91.651A2.928,2.928,0,0,1,395.19,135.629Zm.113-.98a2.041,2.041,0,0,0,1.169-.336,2.161,2.161,0,0,0,.769-.959,3.6,3.6,0,0,0,.274-1.463,3.148,3.148,0,0,0-.274-1.371,1.985,1.985,0,0,0-1.883-1.191,2.006,2.006,0,0,0-1.652.728,2.985,2.985,0,0,0-.588,1.932,3.04,3.04,0,0,0,.574,1.933A1.937,1.937,0,0,0,395.3,134.649Z" fill="#4d4d4d"/>
          <path d="M404.164,135.629a3.568,3.568,0,0,1-1.77-.434,3.007,3.007,0,0,1-1.211-1.253,4.6,4.6,0,0,1,0-3.906,3.05,3.05,0,0,1,1.189-1.253,3.4,3.4,0,0,1,1.723-.433,3.163,3.163,0,0,1,1.673.42,2.77,2.77,0,0,1,1.056,1.14,3.547,3.547,0,0,1,.364,1.617c0,.159,0,.3-.014.434a3.334,3.334,0,0,1-.042.35h-5.655v-.994h5.166l-.575.113a2.091,2.091,0,0,0-.552-1.555,1.982,1.982,0,0,0-1.45-.546,2.155,2.155,0,0,0-1.183.316,2.056,2.056,0,0,0-.77.91,3.435,3.435,0,0,0-.273,1.434,3.376,3.376,0,0,0,.28,1.429,2.072,2.072,0,0,0,.791.916,2.282,2.282,0,0,0,1.226.315,2.389,2.389,0,0,0,1.253-.294,2.233,2.233,0,0,0,.776-.8l.882.518a2.927,2.927,0,0,1-1.645,1.365A3.819,3.819,0,0,1,404.164,135.629Z" fill="#4d4d4d"/>
          <path d="M409.316,135.489v-7h.981l.1,1.568-.182-.154a2.384,2.384,0,0,1,.6-.9,2.272,2.272,0,0,1,.875-.5,3.418,3.418,0,0,1,1.03-.154,3.2,3.2,0,0,1,1.372.287,2.283,2.283,0,0,1,.986.875,2.76,2.76,0,0,1,.371,1.5v4.479h-1.12V131.4a2.137,2.137,0,0,0-.5-1.617,1.742,1.742,0,0,0-1.225-.455,2.337,2.337,0,0,0-1.007.238,1.957,1.957,0,0,0-.833.771,2.684,2.684,0,0,0-.329,1.428v3.723Z" fill="#4d4d4d"/>
          <path d="M422.084,128.489v.966h-5.067v-.966Zm-2.548-1.987v7.055a.96.96,0,0,0,.294.77,1.121,1.121,0,0,0,.756.252,1.607,1.607,0,0,0,.7-.14,1.881,1.881,0,0,0,.532-.378l.392.938a2.354,2.354,0,0,1-.763.462,2.84,2.84,0,0,1-1.014.168,2.6,2.6,0,0,1-1-.189,1.584,1.584,0,0,1-.735-.6,2.022,2.022,0,0,1-.287-1.084v-6.945Z" fill="#4d4d4d"/>
          <path d="M426.27,135.629a4.129,4.129,0,0,1-1.883-.434,3.1,3.1,0,0,1-1.323-1.232l.952-.686a2.324,2.324,0,0,0,.9,1.008,2.7,2.7,0,0,0,1.435.364,2.032,2.032,0,0,0,1.162-.287.872.872,0,0,0,.231-1.288,1.2,1.2,0,0,0-.721-.357l-1.68-.35a2.643,2.643,0,0,1-1.463-.7,1.755,1.755,0,0,1-.441-1.219,1.81,1.81,0,0,1,.329-1.05,2.294,2.294,0,0,1,.938-.762,3.326,3.326,0,0,1,1.435-.287,3.477,3.477,0,0,1,1.75.406,2.521,2.521,0,0,1,1.064,1.147l-.938.617a1.672,1.672,0,0,0-.77-.9,2.315,2.315,0,0,0-1.106-.287,2.368,2.368,0,0,0-.861.14,1.241,1.241,0,0,0-.546.385.888.888,0,0,0,.021,1.121,1.321,1.321,0,0,0,.784.371l1.75.363a2.421,2.421,0,0,1,1.372.645,1.6,1.6,0,0,1,.392,1.091,1.952,1.952,0,0,1-.35,1.155,2.21,2.21,0,0,1-.98.763A3.708,3.708,0,0,1,426.27,135.629Z" fill="#4d4d4d"/>
        </g>
        <g>
          <line x1="27.181" y1="103.327" x2="27.181" y2="99.327" fill="none" stroke="#ccc" stroke-miterlimit="10"/>
          <line x1="185.132" y1="103.327" x2="185.132" y2="99.327" fill="none" stroke="#ccc" stroke-miterlimit="10"/>
          <line x1="343.084" y1="103.327" x2="343.084" y2="99.327" fill="none" stroke="#ccc" stroke-miterlimit="10"/>
          <line x1="501.049" y1="103.327" x2="501.049" y2="99.327" fill="none" stroke="#ccc" stroke-miterlimit="10"/>
          <line x1="659" y1="103.327" x2="659" y2="99.327" fill="none" stroke="#ccc" stroke-miterlimit="10"/>
          <line x1="27" y1="99.5" x2="659" y2="99.5" fill="none" stroke="#ccc" stroke-miterlimit="10"/>
        </g>
      </g>
    </g>
    <g>
      <rect x="27.299" y="32.987" width="10.211" height="10.211" rx="3" fill="#64b5f6"/>
      <rect x="118.799" y="32.987" width="10.211" height="10.211" rx="3" fill="#ffb74d"/>
      <g>
        <path d="M52.285,37.175a1.414,1.414,0,0,0-.361-1.038,1.364,1.364,0,0,0-1.019-.366,1.952,1.952,0,0,0-1.056.27,1.582,1.582,0,0,0-.637.869l-.779-.479a2.107,2.107,0,0,1,.887-1.086,2.925,2.925,0,0,1,1.609-.414,3.022,3.022,0,0,1,1.175.221,1.857,1.857,0,0,1,.834.672,2.015,2.015,0,0,1,.307,1.158v2.905c0,.288.151.431.456.431a1.656,1.656,0,0,0,.444-.059l-.048.756a1.4,1.4,0,0,1-.624.12A1.425,1.425,0,0,1,52.849,41a.975.975,0,0,1-.432-.4,1.329,1.329,0,0,1-.156-.678V39.8l.239.036a1.581,1.581,0,0,1-.491.762,2.275,2.275,0,0,1-.78.432,2.8,2.8,0,0,1-.853.138,2.627,2.627,0,0,1-.983-.181,1.6,1.6,0,0,1-.726-.545,1.616,1.616,0,0,1,.18-2.016,2.4,2.4,0,0,1,1.254-.594l2.376-.468v.791l-1.933.4a2.205,2.205,0,0,0-.876.336.708.708,0,0,0-.288.6.744.744,0,0,0,.294.607,1.313,1.313,0,0,0,.835.233,2.389,2.389,0,0,0,.665-.09,1.738,1.738,0,0,0,.571-.275,1.315,1.315,0,0,0,.4-.469,1.454,1.454,0,0,0,.144-.666Z" fill="#333"/>
        <path d="M55.573,41.051v-6h.84L56.5,36.4l-.157-.132a2.086,2.086,0,0,1,.516-.775,1.99,1.99,0,0,1,.75-.426,3.006,3.006,0,0,1,.883-.131,2.757,2.757,0,0,1,1.176.246,1.97,1.97,0,0,1,.846.75,2.368,2.368,0,0,1,.318,1.284v3.84h-.96v-3.5a1.829,1.829,0,0,0-.427-1.387,1.492,1.492,0,0,0-1.049-.389,2.009,2.009,0,0,0-.865.2,1.688,1.688,0,0,0-.714.66,2.311,2.311,0,0,0-.281,1.224v3.192Z" fill="#333"/>
        <path d="M66.5,37.175a1.418,1.418,0,0,0-.36-1.038,1.365,1.365,0,0,0-1.019-.366,1.956,1.956,0,0,0-1.057.27,1.576,1.576,0,0,0-.636.869l-.78-.479a2.109,2.109,0,0,1,.888-1.086,2.921,2.921,0,0,1,1.608-.414,3.024,3.024,0,0,1,1.176.221,1.863,1.863,0,0,1,.834.672,2.023,2.023,0,0,1,.306,1.158v2.905c0,.288.152.431.456.431a1.65,1.65,0,0,0,.444-.059l-.048.756a1.4,1.4,0,0,1-.624.12A1.429,1.429,0,0,1,67.068,41a.975.975,0,0,1-.432-.4,1.339,1.339,0,0,1-.156-.678V39.8l.24.036a1.588,1.588,0,0,1-.491.762,2.279,2.279,0,0,1-.781.432,2.789,2.789,0,0,1-.852.138,2.636,2.636,0,0,1-.984-.181,1.607,1.607,0,0,1-.726-.545,1.62,1.62,0,0,1,.18-2.016,2.408,2.408,0,0,1,1.254-.594l2.376-.468v.791l-1.932.4a2.205,2.205,0,0,0-.876.336.706.706,0,0,0-.288.6.741.741,0,0,0,.294.607,1.311,1.311,0,0,0,.835.233,2.394,2.394,0,0,0,.665-.09,1.733,1.733,0,0,0,.57-.275,1.305,1.305,0,0,0,.4-.469,1.441,1.441,0,0,0,.144-.666Z" fill="#333"/>
        <path d="M70.7,32.291v7.236a.9.9,0,0,0,.168.629.72.72,0,0,0,.54.174,1.878,1.878,0,0,0,.4-.035,3.661,3.661,0,0,0,.42-.133L72.072,41a1.906,1.906,0,0,1-.42.126,2.671,2.671,0,0,1-.468.042,1.384,1.384,0,0,1-1.086-.4,1.777,1.777,0,0,1-.354-1.213V32.291Z" fill="#333"/>
        <path d="M78.1,35.051l-2.82,7.008a3.566,3.566,0,0,1-.5.929,1.614,1.614,0,0,1-.6.492,1.823,1.823,0,0,1-.761.151,2.355,2.355,0,0,1-.75-.114,2.21,2.21,0,0,1-.606-.306l.263-.84a1.617,1.617,0,0,0,.51.318,1.5,1.5,0,0,0,.534.1,1.017,1.017,0,0,0,.589-.192,1.683,1.683,0,0,0,.5-.781l.312-.779-.6-1.428-1.908-4.56h1.092l1.5,3.912.373,1.068.431-1.188,1.4-3.792Z" fill="#333"/>
        <path d="M82.956,35.051v.828H78.612v-.828Zm-2.184-1.7V39.4a.823.823,0,0,0,.252.66.961.961,0,0,0,.648.216,1.384,1.384,0,0,0,.6-.121,1.617,1.617,0,0,0,.456-.324l.336.8a2.03,2.03,0,0,1-.654.4,2.434,2.434,0,0,1-.87.144,2.228,2.228,0,0,1-.852-.162,1.353,1.353,0,0,1-.63-.517,1.723,1.723,0,0,1-.246-.93V33.611Z" fill="#333"/>
        <path d="M84.864,33.9a.679.679,0,1,1,.522-.2A.705.705,0,0,1,84.864,33.9Zm.48,1.153v6h-.96v-6Z" fill="#333"/>
        <path d="M90.06,34.931a2.909,2.909,0,0,1,1.1.192,2.364,2.364,0,0,1,.822.552,2.863,2.863,0,0,1,.564.852l-.912.432a1.816,1.816,0,0,0-.582-.883,1.6,1.6,0,0,0-1.014-.3,1.908,1.908,0,0,0-1.032.27,1.715,1.715,0,0,0-.66.779,3.418,3.418,0,0,0,0,2.455,1.713,1.713,0,0,0,.66.786,1.916,1.916,0,0,0,1.032.269,2.1,2.1,0,0,0,.81-.142,1.426,1.426,0,0,0,.564-.421,1.575,1.575,0,0,0,.306-.672l.888.311a2.922,2.922,0,0,1-.558.949,2.367,2.367,0,0,1-.852.606,2.9,2.9,0,0,1-1.134.21,3,3,0,0,1-1.5-.372,2.6,2.6,0,0,1-1.032-1.074,3.953,3.953,0,0,1,0-3.348A2.591,2.591,0,0,1,88.56,35.3,3,3,0,0,1,90.06,34.931Z" fill="#333"/>
        <path d="M97.8,37.175a1.418,1.418,0,0,0-.36-1.038,1.366,1.366,0,0,0-1.02-.366,1.955,1.955,0,0,0-1.056.27,1.576,1.576,0,0,0-.636.869l-.78-.479a2.109,2.109,0,0,1,.888-1.086,2.921,2.921,0,0,1,1.608-.414,3.024,3.024,0,0,1,1.176.221,1.863,1.863,0,0,1,.834.672,2.023,2.023,0,0,1,.306,1.158v2.905c0,.288.152.431.456.431a1.65,1.65,0,0,0,.444-.059l-.048.756a1.4,1.4,0,0,1-.624.12A1.429,1.429,0,0,1,98.364,41a.975.975,0,0,1-.432-.4,1.339,1.339,0,0,1-.156-.678V39.8l.24.036a1.59,1.59,0,0,1-.492.762,2.266,2.266,0,0,1-.78.432,2.789,2.789,0,0,1-.852.138,2.636,2.636,0,0,1-.984-.181,1.607,1.607,0,0,1-.726-.545,1.62,1.62,0,0,1,.18-2.016,2.408,2.408,0,0,1,1.254-.594l2.376-.468v.791l-1.932.4a2.205,2.205,0,0,0-.876.336.706.706,0,0,0-.288.6.741.741,0,0,0,.294.607,1.31,1.31,0,0,0,.834.233,2.4,2.4,0,0,0,.666-.09,1.733,1.733,0,0,0,.57-.275,1.305,1.305,0,0,0,.4-.469,1.441,1.441,0,0,0,.144-.666Z" fill="#333"/>
        <path d="M102,32.291v7.236a.909.909,0,0,0,.167.629.722.722,0,0,0,.541.174,1.878,1.878,0,0,0,.4-.035,3.6,3.6,0,0,0,.419-.133l-.155.841a1.906,1.906,0,0,1-.42.126,2.682,2.682,0,0,1-.469.042,1.382,1.382,0,0,1-1.085-.4,1.777,1.777,0,0,1-.354-1.213V32.291Z" fill="#333"/>
      </g>
      <g>
        <path d="M140.658,34.931a2.909,2.909,0,0,1,1.1.192,2.364,2.364,0,0,1,.822.552,2.863,2.863,0,0,1,.564.852l-.912.432a1.816,1.816,0,0,0-.582-.883,1.6,1.6,0,0,0-1.014-.3,1.908,1.908,0,0,0-1.032.27,1.715,1.715,0,0,0-.66.779,3.418,3.418,0,0,0,0,2.455,1.713,1.713,0,0,0,.66.786,1.916,1.916,0,0,0,1.032.269,2.1,2.1,0,0,0,.81-.142,1.426,1.426,0,0,0,.564-.421,1.575,1.575,0,0,0,.306-.672l.888.311a2.922,2.922,0,0,1-.558.949,2.367,2.367,0,0,1-.852.606,2.9,2.9,0,0,1-1.134.21,3,3,0,0,1-1.5-.372,2.6,2.6,0,0,1-1.032-1.074,3.953,3.953,0,0,1,0-3.348,2.591,2.591,0,0,1,1.032-1.074A3,3,0,0,1,140.658,34.931Z" fill="#333"/>
        <path d="M144.9,41.051v-6h.779l.132.984a1.761,1.761,0,0,1,.738-.828,2.361,2.361,0,0,1,1.183-.276,2.685,2.685,0,0,1,.341.024.9.9,0,0,1,.318.1l-.168.876a1.516,1.516,0,0,0-.288-.072,3.087,3.087,0,0,0-.444-.025,1.494,1.494,0,0,0-.75.217,1.705,1.705,0,0,0-.63.654,2.2,2.2,0,0,0-.252,1.11v3.24Z" fill="#333"/>
        <path d="M152.106,41.171a3.06,3.06,0,0,1-1.518-.372,2.586,2.586,0,0,1-1.038-1.074,3.953,3.953,0,0,1,0-3.348,2.613,2.613,0,0,1,1.02-1.074,2.911,2.911,0,0,1,1.476-.372,2.716,2.716,0,0,1,1.434.36,2.373,2.373,0,0,1,.906.978,3.03,3.03,0,0,1,.312,1.385c0,.137,0,.261-.012.373a2.789,2.789,0,0,1-.036.3H149.8v-.851h4.428l-.492.095a1.79,1.79,0,0,0-.474-1.332,1.7,1.7,0,0,0-1.242-.467,1.854,1.854,0,0,0-1.014.27,1.764,1.764,0,0,0-.66.779,2.939,2.939,0,0,0-.234,1.231,2.88,2.88,0,0,0,.24,1.224,1.772,1.772,0,0,0,.678.786,1.971,1.971,0,0,0,1.05.269,2.042,2.042,0,0,0,1.074-.252,1.913,1.913,0,0,0,.666-.683l.756.444a2.509,2.509,0,0,1-1.41,1.17A3.271,3.271,0,0,1,152.106,41.171Z" fill="#333"/>
        <path d="M160.026,37.175a1.418,1.418,0,0,0-.36-1.038,1.366,1.366,0,0,0-1.02-.366,1.955,1.955,0,0,0-1.056.27,1.576,1.576,0,0,0-.636.869l-.78-.479a2.109,2.109,0,0,1,.888-1.086,2.921,2.921,0,0,1,1.608-.414,3.024,3.024,0,0,1,1.176.221,1.863,1.863,0,0,1,.834.672,2.023,2.023,0,0,1,.306,1.158v2.905c0,.288.152.431.456.431a1.65,1.65,0,0,0,.444-.059l-.048.756a1.4,1.4,0,0,1-.624.12A1.429,1.429,0,0,1,160.59,41a.975.975,0,0,1-.432-.4,1.339,1.339,0,0,1-.156-.678V39.8l.24.036a1.59,1.59,0,0,1-.492.762,2.266,2.266,0,0,1-.78.432,2.789,2.789,0,0,1-.852.138,2.636,2.636,0,0,1-.984-.181,1.607,1.607,0,0,1-.726-.545,1.62,1.62,0,0,1,.18-2.016,2.408,2.408,0,0,1,1.254-.594l2.376-.468v.791l-1.932.4a2.205,2.205,0,0,0-.876.336.706.706,0,0,0-.288.6.741.741,0,0,0,.294.607,1.31,1.31,0,0,0,.834.233,2.4,2.4,0,0,0,.666-.09,1.733,1.733,0,0,0,.57-.275,1.305,1.305,0,0,0,.4-.469,1.441,1.441,0,0,0,.144-.666Z" fill="#333"/>
        <path d="M166.674,35.051v.828H162.33v-.828Zm-2.184-1.7V39.4a.823.823,0,0,0,.252.66.961.961,0,0,0,.648.216,1.384,1.384,0,0,0,.6-.121,1.617,1.617,0,0,0,.456-.324l.336.8a2.03,2.03,0,0,1-.654.4,2.434,2.434,0,0,1-.87.144,2.228,2.228,0,0,1-.852-.162,1.353,1.353,0,0,1-.63-.517,1.723,1.723,0,0,1-.246-.93V33.611Z" fill="#333"/>
        <path d="M168.582,33.9a.679.679,0,1,1,.522-.2A.705.705,0,0,1,168.582,33.9Zm.48,1.153v6h-.96v-6Z" fill="#333"/>
        <path d="M175.266,35.051h1.008l-2.5,6h-.96l-2.5-6h1.092l1.9,5.027Z" fill="#333"/>
        <path d="M180.042,41.171a3.06,3.06,0,0,1-1.518-.372,2.586,2.586,0,0,1-1.038-1.074,3.953,3.953,0,0,1,0-3.348,2.613,2.613,0,0,1,1.02-1.074,2.911,2.911,0,0,1,1.476-.372,2.716,2.716,0,0,1,1.434.36,2.373,2.373,0,0,1,.906.978,3.03,3.03,0,0,1,.312,1.385c0,.137,0,.261-.012.373a2.789,2.789,0,0,1-.036.3h-4.848v-.851h4.428l-.492.095a1.79,1.79,0,0,0-.474-1.332,1.7,1.7,0,0,0-1.242-.467,1.854,1.854,0,0,0-1.014.27,1.764,1.764,0,0,0-.66.779,2.939,2.939,0,0,0-.234,1.231,2.88,2.88,0,0,0,.24,1.224,1.772,1.772,0,0,0,.678.786,1.971,1.971,0,0,0,1.05.269,2.042,2.042,0,0,0,1.074-.252,1.913,1.913,0,0,0,.666-.683l.756.444a2.509,2.509,0,0,1-1.41,1.17A3.271,3.271,0,0,1,180.042,41.171Z" fill="#333"/>
      </g>
      <rect x="199.799" y="32.987" width="10.211" height="10.211" rx="3" fill="#999"/>
      <g>
        <path d="M221.346,41.171a2.756,2.756,0,0,1-1.086-.216,1.832,1.832,0,0,1-.828-.7,2.277,2.277,0,0,1-.318-1.267V35.051h.96v3.683a1.6,1.6,0,0,0,.4,1.254,1.65,1.65,0,0,0,1.116.342,1.974,1.974,0,0,0,.66-.113,1.611,1.611,0,0,0,.582-.36,1.727,1.727,0,0,0,.408-.63,2.506,2.506,0,0,0,.15-.913V35.051h.96v6h-.84l-.06-.912a1.865,1.865,0,0,1-.846.786A2.972,2.972,0,0,1,221.346,41.171Z" fill="#333"/>
        <path d="M226.578,41.051v-6h.84L227.5,36.4l-.156-.132a2.074,2.074,0,0,1,.516-.775,1.982,1.982,0,0,1,.75-.426,3,3,0,0,1,.882-.131,2.751,2.751,0,0,1,1.176.246,1.964,1.964,0,0,1,.846.75,2.368,2.368,0,0,1,.318,1.284v3.84h-.96v-3.5a1.833,1.833,0,0,0-.426-1.387,1.5,1.5,0,0,0-1.05-.389,2.008,2.008,0,0,0-.864.2,1.682,1.682,0,0,0-.714.66,2.31,2.31,0,0,0-.282,1.224v3.192Z" fill="#333"/>
        <path d="M234.966,32.291v8.76h-.96v-8.76Zm4.307,2.76-2.591,2.592-.228.228-1.968,1.968v-1.2l3.576-3.588Zm-2.507,2.1,2.651,3.9h-1.164l-2.292-3.36Z" fill="#333"/>
        <path d="M240.81,41.051v-6h.84l.084,1.344-.156-.132a2.074,2.074,0,0,1,.516-.775,1.982,1.982,0,0,1,.75-.426,3,3,0,0,1,.882-.131,2.751,2.751,0,0,1,1.176.246,1.964,1.964,0,0,1,.846.75,2.368,2.368,0,0,1,.318,1.284v3.84h-.96v-3.5a1.833,1.833,0,0,0-.426-1.387,1.5,1.5,0,0,0-1.05-.389,2.008,2.008,0,0,0-.864.2,1.682,1.682,0,0,0-.714.66,2.31,2.31,0,0,0-.282,1.224v3.192Z" fill="#333"/>
        <path d="M250.722,34.931a2.992,2.992,0,0,1,1.506.372,2.6,2.6,0,0,1,1.025,1.074,3.952,3.952,0,0,1,0,3.348,2.605,2.605,0,0,1-1.025,1.074,3.222,3.222,0,0,1-3.006,0,2.6,2.6,0,0,1-1.033-1.074,3.952,3.952,0,0,1,0-3.348,2.6,2.6,0,0,1,1.033-1.074A3,3,0,0,1,250.722,34.931Zm0,.828a1.9,1.9,0,0,0-1.044.276,1.783,1.783,0,0,0-.666.785,3.323,3.323,0,0,0,0,2.455,1.772,1.772,0,0,0,.666.791,2.106,2.106,0,0,0,2.088,0,1.785,1.785,0,0,0,.666-.791,3.337,3.337,0,0,0,0-2.455,1.8,1.8,0,0,0-.666-.785A1.91,1.91,0,0,0,250.722,35.759Z" fill="#333"/>
        <path d="M262.77,35.051h1.067l-2.087,6h-.96L259.1,36.275l-1.6,4.776h-.959l-2.088-6h1.067l1.512,4.884,1.633-4.884h.959l1.632,4.884Z" fill="#333"/>
        <path d="M265.278,41.051v-6h.84L266.2,36.4l-.157-.132a2.076,2.076,0,0,1,.517-.775,1.975,1.975,0,0,1,.75-.426,3,3,0,0,1,.882-.131,2.754,2.754,0,0,1,1.176.246,1.97,1.97,0,0,1,.846.75,2.368,2.368,0,0,1,.318,1.284v3.84h-.96v-3.5a1.829,1.829,0,0,0-.427-1.387,1.492,1.492,0,0,0-1.049-.389,2.012,2.012,0,0,0-.865.2,1.686,1.686,0,0,0-.713.66,2.31,2.31,0,0,0-.282,1.224v3.192Z" fill="#333"/>
      </g>
    </g>
    <g>
      <path d="M31.3,72.953a3.559,3.559,0,0,1-2.023-.532,3.615,3.615,0,0,1-1.253-1.54l1.4-.729a2.622,2.622,0,0,0,.637,1.1,1.718,1.718,0,0,0,1.267.428,2.124,2.124,0,0,0,1-.218,1.532,1.532,0,0,0,.637-.616,1.935,1.935,0,0,0,.224-.959,2.07,2.07,0,0,0-.209-.98,1.4,1.4,0,0,0-.6-.595,2.121,2.121,0,0,0-.98-.2,3.236,3.236,0,0,0-.756.084,2.132,2.132,0,0,0-.63.259,1.787,1.787,0,0,0-.489.455l-1.233-.238.56-5.1h5.376v1.289H30.038l-.336,2.6-.028.154H29.7a2.17,2.17,0,0,1,.833-.547,3.394,3.394,0,0,1,1.211-.2,3.038,3.038,0,0,1,1.54.371,2.645,2.645,0,0,1,1.008,1.029,3.1,3.1,0,0,1,.364,1.526,3.375,3.375,0,0,1-.252,1.343,2.73,2.73,0,0,1-.714,1,3.067,3.067,0,0,1-1.071.609A4.169,4.169,0,0,1,31.3,72.953Z" fill="gray"/>
      <path d="M39.768,63.447a4.062,4.062,0,0,1,1.631.3,2.441,2.441,0,0,1,1.071.848,2.25,2.25,0,0,1,.378,1.315,2.28,2.28,0,0,1-.343,1.253,2.13,2.13,0,0,1-1,.818V68a2.848,2.848,0,0,1,1.267.875,2.211,2.211,0,0,1,.469,1.435,2.346,2.346,0,0,1-.427,1.407,2.72,2.72,0,0,1-1.2.917,5.424,5.424,0,0,1-3.682,0,2.764,2.764,0,0,1-1.211-.917,2.324,2.324,0,0,1-.434-1.407,2.24,2.24,0,0,1,.462-1.428A2.761,2.761,0,0,1,38.032,68v-.015a2.159,2.159,0,0,1-1.358-2.071,2.218,2.218,0,0,1,.385-1.315,2.483,2.483,0,0,1,1.085-.848A4.078,4.078,0,0,1,39.768,63.447Zm0,8.246a2.717,2.717,0,0,0,1.05-.181,1.48,1.48,0,0,0,.672-.533,1.43,1.43,0,0,0,.238-.827,1.373,1.373,0,0,0-.245-.818,1.54,1.54,0,0,0-.679-.525,2.677,2.677,0,0,0-1.036-.182,2.745,2.745,0,0,0-1.036.182,1.516,1.516,0,0,0-.693.532,1.51,1.51,0,0,0-.007,1.638,1.474,1.474,0,0,0,.686.533A2.788,2.788,0,0,0,39.768,71.693Zm-.014-6.986a1.8,1.8,0,0,0-1.169.357,1.215,1.215,0,0,0-.441,1,1.193,1.193,0,0,0,.448.988,1.832,1.832,0,0,0,1.176.357,1.8,1.8,0,0,0,1.169-.357,1.2,1.2,0,0,0,.441-.988,1.233,1.233,0,0,0-.434-.994A1.8,1.8,0,0,0,39.754,64.707Z" fill="gray"/>
      <path d="M46.95,63.434a2.328,2.328,0,0,1,1.239.321,2.166,2.166,0,0,1,.812.9,3.34,3.34,0,0,1,0,2.709,2.145,2.145,0,0,1-.812.905,2.538,2.538,0,0,1-2.471,0,2.128,2.128,0,0,1-.819-.905,3.34,3.34,0,0,1,0-2.709,2.149,2.149,0,0,1,.819-.9A2.335,2.335,0,0,1,46.95,63.434Zm0,1.091a1.032,1.032,0,0,0-.6.175,1.044,1.044,0,0,0-.378.5,2.612,2.612,0,0,0,0,1.6,1.008,1.008,0,0,0,.378.5,1.059,1.059,0,0,0,.6.168,1.087,1.087,0,0,0,.616-.168,1.008,1.008,0,0,0,.378-.5,2.612,2.612,0,0,0,0-1.6,1.064,1.064,0,0,0-.371-.5A1.052,1.052,0,0,0,46.95,64.525Zm-.364,8.287,6.048-9.24h1.288l-6.034,9.24ZM53.558,67.8a2.32,2.32,0,0,1,1.239.322,2.161,2.161,0,0,1,.812.9,3.34,3.34,0,0,1,0,2.709,2.166,2.166,0,0,1-.812.9,2.531,2.531,0,0,1-2.471,0,2.142,2.142,0,0,1-.819-.9,3.34,3.34,0,0,1,0-2.709,2.137,2.137,0,0,1,.819-.9A2.327,2.327,0,0,1,53.558,67.8Zm0,1.106a1.059,1.059,0,0,0-.6.168,1.019,1.019,0,0,0-.378.5,2.612,2.612,0,0,0,0,1.6,1.054,1.054,0,0,0,.378.511,1.025,1.025,0,0,0,.6.175.989.989,0,0,0,.994-.686,2.231,2.231,0,0,0,.126-.784,2.32,2.32,0,0,0-.126-.812,1.03,1.03,0,0,0-.371-.5A1.077,1.077,0,0,0,53.558,68.907Z" fill="gray"/>
    </g>
    <g>
      <path d="M392.122,72.812V66.471c0-.187,0-.38.007-.58s.012-.414.021-.638a4.887,4.887,0,0,1-1.085.791,4.746,4.746,0,0,1-1.253.47l-.28-1.3a3.145,3.145,0,0,0,.686-.195,6.726,6.726,0,0,0,.812-.393,6.091,6.091,0,0,0,.77-.512,2.792,2.792,0,0,0,.546-.539h1.26v9.24Z" fill="gray"/>
      <path d="M398.926,72.953a3.559,3.559,0,0,1-2.023-.532,3.615,3.615,0,0,1-1.253-1.54l1.4-.729a2.622,2.622,0,0,0,.637,1.1,1.718,1.718,0,0,0,1.267.428,2.124,2.124,0,0,0,1-.218,1.538,1.538,0,0,0,.637-.616,1.935,1.935,0,0,0,.224-.959,2.057,2.057,0,0,0-.21-.98,1.4,1.4,0,0,0-.6-.595,2.121,2.121,0,0,0-.98-.2,3.23,3.23,0,0,0-.756.084,2.132,2.132,0,0,0-.63.259,1.8,1.8,0,0,0-.49.455l-1.232-.238.56-5.1h5.376v1.289h-4.186l-.336,2.6-.028.154h.028a2.17,2.17,0,0,1,.833-.547,3.394,3.394,0,0,1,1.211-.2,3.038,3.038,0,0,1,1.54.371,2.645,2.645,0,0,1,1.008,1.029,3.1,3.1,0,0,1,.364,1.526,3.375,3.375,0,0,1-.252,1.343,2.73,2.73,0,0,1-.714,1,3.067,3.067,0,0,1-1.071.609A4.169,4.169,0,0,1,398.926,72.953Z" fill="gray"/>
      <path d="M405.912,63.434a2.328,2.328,0,0,1,1.239.321,2.166,2.166,0,0,1,.812.9,3.34,3.34,0,0,1,0,2.709,2.145,2.145,0,0,1-.812.905,2.538,2.538,0,0,1-2.471,0,2.128,2.128,0,0,1-.819-.905,3.34,3.34,0,0,1,0-2.709,2.149,2.149,0,0,1,.819-.9A2.338,2.338,0,0,1,405.912,63.434Zm0,1.091a.992.992,0,0,0-.98.679,2.612,2.612,0,0,0,0,1.6,1.008,1.008,0,0,0,.378.5,1.061,1.061,0,0,0,.6.168,1.085,1.085,0,0,0,.616-.168,1.008,1.008,0,0,0,.378-.5,2.612,2.612,0,0,0,0-1.6,1.064,1.064,0,0,0-.371-.5A1.05,1.05,0,0,0,405.912,64.525Zm-.364,8.287,6.048-9.24h1.288l-6.034,9.24ZM412.52,67.8a2.32,2.32,0,0,1,1.239.322,2.154,2.154,0,0,1,.812.9,3.34,3.34,0,0,1,0,2.709,2.159,2.159,0,0,1-.812.9,2.531,2.531,0,0,1-2.471,0,2.142,2.142,0,0,1-.819-.9,3.34,3.34,0,0,1,0-2.709,2.137,2.137,0,0,1,.819-.9A2.329,2.329,0,0,1,412.52,67.8Zm0,1.106a1.061,1.061,0,0,0-.6.168,1.019,1.019,0,0,0-.378.5,2.612,2.612,0,0,0,0,1.6,1.054,1.054,0,0,0,.378.511,1.027,1.027,0,0,0,.6.175.989.989,0,0,0,.994-.686,2.231,2.231,0,0,0,.126-.784,2.32,2.32,0,0,0-.126-.812,1.03,1.03,0,0,0-.371-.5A1.077,1.077,0,0,0,412.52,68.907Z" fill="gray"/>
    </g>
    <g>
      <path d="M489.26,72.812V71.721q1.331-.953,2.233-1.68a12.115,12.115,0,0,0,1.449-1.344,4.631,4.631,0,0,0,.791-1.17,2.76,2.76,0,0,0,.246-1.127,1.628,1.628,0,0,0-.463-1.2,1.97,1.97,0,0,0-2.667.119,2.605,2.605,0,0,0-.581,1.588l-1.3-.6a3.446,3.446,0,0,1,.518-1.526,2.794,2.794,0,0,1,1.141-.994,3.8,3.8,0,0,1,1.673-.349,3.91,3.91,0,0,1,1.379.223,2.848,2.848,0,0,1,1,.622,2.755,2.755,0,0,1,.623.932,2.967,2.967,0,0,1,.217,1.135,3.576,3.576,0,0,1-.434,1.7,6.369,6.369,0,0,1-1.372,1.673,18.6,18.6,0,0,1-2.464,1.834v.028a3.465,3.465,0,0,1,.462-.035l.588-.014c.2,0,.355-.007.476-.007h2.912v1.287Z" fill="gray"/>
      <path d="M496.765,63.572h7.042v1.246a12.177,12.177,0,0,0-1.876,2.472,9.861,9.861,0,0,0-1.03,2.632,12.826,12.826,0,0,0-.315,2.89h-1.512a11.766,11.766,0,0,1,.385-3,10.967,10.967,0,0,1,1.176-2.8,12.255,12.255,0,0,1,2-2.513l.281.378h-6.146Z" fill="gray"/>
      <path d="M507.138,63.434a2.328,2.328,0,0,1,1.239.321,2.166,2.166,0,0,1,.812.9,3.34,3.34,0,0,1,0,2.709,2.145,2.145,0,0,1-.812.905,2.538,2.538,0,0,1-2.471,0,2.128,2.128,0,0,1-.819-.905,3.34,3.34,0,0,1,0-2.709,2.149,2.149,0,0,1,.819-.9A2.338,2.338,0,0,1,507.138,63.434Zm0,1.091a.992.992,0,0,0-.98.679,2.612,2.612,0,0,0,0,1.6,1.008,1.008,0,0,0,.378.5,1.061,1.061,0,0,0,.6.168,1.085,1.085,0,0,0,.616-.168,1.008,1.008,0,0,0,.378-.5,2.612,2.612,0,0,0,0-1.6,1.064,1.064,0,0,0-.371-.5A1.05,1.05,0,0,0,507.138,64.525Zm-.364,8.287,6.048-9.24h1.288l-6.034,9.24Zm6.972-5.011a2.32,2.32,0,0,1,1.239.322,2.154,2.154,0,0,1,.812.9,3.34,3.34,0,0,1,0,2.709,2.159,2.159,0,0,1-.812.9,2.531,2.531,0,0,1-2.471,0,2.142,2.142,0,0,1-.819-.9,3.34,3.34,0,0,1,0-2.709,2.137,2.137,0,0,1,.819-.9A2.329,2.329,0,0,1,513.746,67.8Zm0,1.106a1.061,1.061,0,0,0-.6.168,1.019,1.019,0,0,0-.378.5,2.612,2.612,0,0,0,0,1.6,1.054,1.054,0,0,0,.378.511,1.027,1.027,0,0,0,.6.175.989.989,0,0,0,.994-.686,2.231,2.231,0,0,0,.126-.784,2.32,2.32,0,0,0-.126-.812,1.03,1.03,0,0,0-.371-.5A1.077,1.077,0,0,0,513.746,68.907Z" fill="gray"/>
    </g>
  </g>
</svg>
