<svg xmlns="http://www.w3.org/2000/svg" viewBox="0 0 940 198">
  <g id="background">
    <rect x="2" width="936" height="198" fill="#fff"/>
    <rect x="137" y="42" width="666" height="138" rx="5" fill="#f5f5f5"/>
  </g>
  <g id="texts">
    <g>
      <path d="M140.924,15.57V27.45H139V15.57Z" fill="#333"/>
      <path d="M144.11,27.45v-9h1.71l.126,2.34-.252-.252a3.394,3.394,0,0,1,.729-1.287,2.818,2.818,0,0,1,1.134-.747,4.147,4.147,0,0,1,1.4-.233,3.909,3.909,0,0,1,1.719.369,2.85,2.85,0,0,1,1.215,1.106,3.545,3.545,0,0,1,.45,1.872V27.45H150.41V22.212a2.473,2.473,0,0,0-.549-1.845,1.938,1.938,0,0,0-1.377-.513,2.547,2.547,0,0,0-1.152.279,2.259,2.259,0,0,0-.927.891,3.159,3.159,0,0,0-.369,1.638V27.45Z" fill="#333"/>
      <path d="M165.062,27.63a4.9,4.9,0,0,1-2.376-.558,3.886,3.886,0,0,1-1.594-1.611,5.225,5.225,0,0,1-.567-2.511,5.231,5.231,0,0,1,.567-2.511,3.92,3.92,0,0,1,1.575-1.611,4.641,4.641,0,0,1,2.287-.557,4.326,4.326,0,0,1,2.232.54,3.6,3.6,0,0,1,1.4,1.475,4.529,4.529,0,0,1,.486,2.124q0,.324-.017.612c-.013.192-.031.36-.055.5h-7.235V22.05h6.389l-.953.288a2.661,2.661,0,0,0-.613-1.881,2.18,2.18,0,0,0-1.674-.657,2.494,2.494,0,0,0-1.35.36,2.274,2.274,0,0,0-.881,1.071,4.372,4.372,0,0,0-.307,1.737,4.044,4.044,0,0,0,.325,1.71,2.348,2.348,0,0,0,.918,1.062,2.653,2.653,0,0,0,1.4.361,2.76,2.76,0,0,0,1.458-.343,2.421,2.421,0,0,0,.882-.954l1.531.72a3.641,3.641,0,0,1-.874,1.125,3.776,3.776,0,0,1-1.3.729A5.208,5.208,0,0,1,165.062,27.63Z" fill="#333"/>
      <path d="M177.157,18.45h2.016l-3.582,9h-2.106l-3.6-9h2.106l2.556,7.326Z" fill="#333"/>
      <path d="M184.718,27.63a4.9,4.9,0,0,1-2.376-.558,3.884,3.884,0,0,1-1.593-1.611,5.225,5.225,0,0,1-.567-2.511,5.231,5.231,0,0,1,.567-2.511,3.908,3.908,0,0,1,1.575-1.611,4.637,4.637,0,0,1,2.286-.557,4.326,4.326,0,0,1,2.232.54,3.606,3.606,0,0,1,1.4,1.475,4.541,4.541,0,0,1,.485,2.124c0,.216,0,.42-.017.612a5,5,0,0,1-.054.5h-7.236V22.05h6.389l-.953.288a2.665,2.665,0,0,0-.612-1.881,2.181,2.181,0,0,0-1.674-.657,2.492,2.492,0,0,0-1.35.36,2.27,2.27,0,0,0-.882,1.071,4.391,4.391,0,0,0-.306,1.737,4.06,4.06,0,0,0,.324,1.71,2.354,2.354,0,0,0,.918,1.062,2.657,2.657,0,0,0,1.4.361,2.76,2.76,0,0,0,1.458-.343,2.411,2.411,0,0,0,.881-.954l1.531.72a3.653,3.653,0,0,1-.873,1.125,3.794,3.794,0,0,1-1.305.729A5.214,5.214,0,0,1,184.718,27.63Z" fill="#333"/>
      <path d="M191.162,27.45v-9H192.8l.18,1.62a2.8,2.8,0,0,1,1.071-1.341,3.172,3.172,0,0,1,1.756-.458,3.287,3.287,0,0,1,.54.044,1.671,1.671,0,0,1,.449.135l-.27,1.693a2.843,2.843,0,0,0-.441-.118,3.77,3.77,0,0,0-.657-.045,2.248,2.248,0,0,0-1.1.3,2.353,2.353,0,0,0-.892.891,2.949,2.949,0,0,0-.351,1.513V27.45Z" fill="#333"/>
      <path d="M206.515,18.45l-3.942,10.062a6.8,6.8,0,0,1-.855,1.656,2.743,2.743,0,0,1-1.053.882,3.321,3.321,0,0,1-1.386.27,4.008,4.008,0,0,1-1.2-.171,3.493,3.493,0,0,1-.963-.459l.468-1.494a2.463,2.463,0,0,0,.729.432,2.381,2.381,0,0,0,.837.144,1.526,1.526,0,0,0,.873-.261,2.2,2.2,0,0,0,.693-1.034l.4-.973-.954-2.232-2.808-6.822h2.16l2,5.653.522,1.691.594-1.854,1.89-5.49Z" fill="#333"/>
      <path d="M218.755,18.45v1.512h-6.48V18.45ZM217.1,14.274a4.074,4.074,0,0,1,1.017.118,1.749,1.749,0,0,1,.693.314l-.36,1.386A1.567,1.567,0,0,0,218,15.9a2.387,2.387,0,0,0-.577-.063,1.786,1.786,0,0,0-1.16.343,1.347,1.347,0,0,0-.424,1.115v1.314l.055.487V27.45h-1.926v-10.3a3.413,3.413,0,0,1,.206-1.223,2.313,2.313,0,0,1,.621-.91,2.75,2.75,0,0,1,1-.558A4.242,4.242,0,0,1,217.1,14.274Z" fill="#333"/>
      <path d="M224.191,18.271a4.721,4.721,0,0,1,2.323.557,3.917,3.917,0,0,1,1.574,1.611,5.231,5.231,0,0,1,.567,2.511,5.225,5.225,0,0,1-.567,2.511,3.917,3.917,0,0,1-1.574,1.611,5.11,5.11,0,0,1-4.644,0,3.965,3.965,0,0,1-1.584-1.611,5.147,5.147,0,0,1-.577-2.511,5.153,5.153,0,0,1,.577-2.511,3.965,3.965,0,0,1,1.584-1.611A4.711,4.711,0,0,1,224.191,18.271Zm0,1.511a2.47,2.47,0,0,0-1.377.369,2.372,2.372,0,0,0-.873,1.072,4.32,4.32,0,0,0-.305,1.727,4.339,4.339,0,0,0,.305,1.719,2.364,2.364,0,0,0,.873,1.08,2.47,2.47,0,0,0,1.377.369,2.429,2.429,0,0,0,1.369-.369,2.378,2.378,0,0,0,.863-1.08,4.339,4.339,0,0,0,.306-1.719,4.319,4.319,0,0,0-.306-1.727,2.386,2.386,0,0,0-.863-1.072A2.429,2.429,0,0,0,224.191,19.782Z" fill="#333"/>
      <path d="M234.29,27.63a4.068,4.068,0,0,1-1.63-.323,2.624,2.624,0,0,1-1.2-1.045,3.486,3.486,0,0,1-.45-1.871V18.45h1.926V23.9a2.178,2.178,0,0,0,.522,1.683,2.13,2.13,0,0,0,1.458.459,2.571,2.571,0,0,0,.873-.152,2.143,2.143,0,0,0,.765-.487,2.223,2.223,0,0,0,.531-.855,3.594,3.594,0,0,0,.189-1.224V18.45H239.2v9h-1.692l-.09-1.458a2.912,2.912,0,0,1-1.26,1.242A4.139,4.139,0,0,1,234.29,27.63Z" fill="#333"/>
      <path d="M242.209,27.45v-9h1.638l.18,1.62a2.8,2.8,0,0,1,1.071-1.341,3.172,3.172,0,0,1,1.756-.458,3.3,3.3,0,0,1,.54.044,1.671,1.671,0,0,1,.449.135l-.27,1.693a2.873,2.873,0,0,0-.441-.118,3.778,3.778,0,0,0-.657-.045,2.255,2.255,0,0,0-1.1.3,2.358,2.358,0,0,0-.891.891,2.939,2.939,0,0,0-.351,1.513V27.45Z" fill="#333"/>
      <path d="M260.335,21.672a1.886,1.886,0,0,0-.5-1.395,1.836,1.836,0,0,0-1.359-.5,2.47,2.47,0,0,0-1.386.378,2.192,2.192,0,0,0-.846,1.224l-1.62-.684a3.225,3.225,0,0,1,1.341-1.763,4.565,4.565,0,0,1,2.583-.666,4.854,4.854,0,0,1,1.908.35,2.909,2.909,0,0,1,1.305,1.053,3.141,3.141,0,0,1,.477,1.8v4.013a.588.588,0,0,0,.666.666,2.221,2.221,0,0,0,.63-.09l-.108,1.332a2.418,2.418,0,0,1-1.044.2,2.491,2.491,0,0,1-1.035-.207,1.6,1.6,0,0,1-.72-.63,1.969,1.969,0,0,1-.261-1.053v-.126l.4-.017a2.2,2.2,0,0,1-.666,1.161,3.284,3.284,0,0,1-1.17.683,4.192,4.192,0,0,1-1.35.225,4.066,4.066,0,0,1-1.521-.27,2.2,2.2,0,0,1-1.449-2.177,2.229,2.229,0,0,1,.657-1.657,3.536,3.536,0,0,1,1.863-.881l3.492-.685-.018,1.351-2.538.521a2.938,2.938,0,0,0-1.134.414.912.912,0,0,0-.378.792.956.956,0,0,0,.387.8,1.657,1.657,0,0,0,1.035.3,3.469,3.469,0,0,0,.873-.108,2.283,2.283,0,0,0,.765-.351,1.63,1.63,0,0,0,.531-.63,2.094,2.094,0,0,0,.189-.927Z" fill="#333"/>
      <path d="M265.393,27.45v-9h1.71l.126,2.34-.252-.252a3.407,3.407,0,0,1,.729-1.287,2.818,2.818,0,0,1,1.134-.747,4.151,4.151,0,0,1,1.4-.233,3.906,3.906,0,0,1,1.719.369,2.844,2.844,0,0,1,1.215,1.106,3.545,3.545,0,0,1,.45,1.872V27.45h-1.926V22.212a2.473,2.473,0,0,0-.549-1.845,1.938,1.938,0,0,0-1.377-.513,2.547,2.547,0,0,0-1.152.279,2.271,2.271,0,0,0-.927.891,3.159,3.159,0,0,0-.369,1.638V27.45Z" fill="#333"/>
      <path d="M281.736,21.672a1.89,1.89,0,0,0-.494-1.395,1.84,1.84,0,0,0-1.36-.5,2.464,2.464,0,0,0-1.385.378,2.194,2.194,0,0,0-.847,1.224l-1.619-.684a3.22,3.22,0,0,1,1.341-1.763,4.562,4.562,0,0,1,2.583-.666,4.849,4.849,0,0,1,1.907.35,2.9,2.9,0,0,1,1.3,1.053,3.142,3.142,0,0,1,.478,1.8v4.013a.588.588,0,0,0,.666.666,2.219,2.219,0,0,0,.629-.09l-.107,1.332a2.424,2.424,0,0,1-1.044.2,2.5,2.5,0,0,1-1.036-.207,1.6,1.6,0,0,1-.719-.63,1.96,1.96,0,0,1-.262-1.053v-.126l.4-.017a2.2,2.2,0,0,1-.666,1.161,3.28,3.28,0,0,1-1.169.683,4.2,4.2,0,0,1-1.351.225,4.069,4.069,0,0,1-1.521-.27,2.2,2.2,0,0,1-1.448-2.177,2.228,2.228,0,0,1,.656-1.657,3.539,3.539,0,0,1,1.864-.881l3.491-.685-.018,1.351-2.537.521a2.937,2.937,0,0,0-1.135.414.913.913,0,0,0-.377.792.953.953,0,0,0,.387.8,1.654,1.654,0,0,0,1.034.3,3.469,3.469,0,0,0,.873-.108,2.288,2.288,0,0,0,.766-.351,1.636,1.636,0,0,0,.53-.63,2.094,2.094,0,0,0,.189-.927Z" fill="#333"/>
      <path d="M288.667,14.4V24.931a1.365,1.365,0,0,0,.233.918,1.017,1.017,0,0,0,.774.252,2.934,2.934,0,0,0,.549-.045,4.03,4.03,0,0,0,.568-.172l-.217,1.44a3.111,3.111,0,0,1-.7.225,3.872,3.872,0,0,1-.792.081,2.29,2.29,0,0,1-1.773-.621,2.772,2.772,0,0,1-.567-1.917V14.4Z" fill="#333"/>
      <path d="M299.917,18.45l-3.942,10.062a6.874,6.874,0,0,1-.855,1.656,2.753,2.753,0,0,1-1.054.882,3.32,3.32,0,0,1-1.385.27,4.019,4.019,0,0,1-1.2-.171,3.472,3.472,0,0,1-.962-.459l.467-1.494a2.463,2.463,0,0,0,.729.432,2.387,2.387,0,0,0,.838.144,1.53,1.53,0,0,0,.873-.261,2.2,2.2,0,0,0,.693-1.034l.4-.973-.955-2.232-2.808-6.822h2.161l2,5.653.522,1.691.593-1.854,1.89-5.49Z" fill="#333"/>
      <path d="M304.759,27.63a5.748,5.748,0,0,1-2.466-.522,4.244,4.244,0,0,1-1.764-1.476l1.332-1.152A2.99,2.99,0,0,0,303,25.659a3.46,3.46,0,0,0,1.791.442,2.57,2.57,0,0,0,1.314-.289.919.919,0,0,0,.261-1.413,1.61,1.61,0,0,0-.855-.405l-1.89-.395a3.848,3.848,0,0,1-2.052-.928,2.259,2.259,0,0,1-.612-1.629,2.366,2.366,0,0,1,.432-1.368,3.034,3.034,0,0,1,1.269-1.017,4.753,4.753,0,0,1,2.007-.386,5.123,5.123,0,0,1,2.3.476,3.38,3.38,0,0,1,1.458,1.359L307.1,21.223a2.271,2.271,0,0,0-1.008-1.072,2.938,2.938,0,0,0-1.386-.351,3.047,3.047,0,0,0-.99.144,1.418,1.418,0,0,0-.63.4.886.886,0,0,0-.216.595.857.857,0,0,0,.27.629,1.95,1.95,0,0,0,.972.415l2.052.431a3.188,3.188,0,0,1,1.827.856,2.138,2.138,0,0,1,.531,1.466,2.624,2.624,0,0,1-.45,1.521,2.9,2.9,0,0,1-1.3,1.018A5.152,5.152,0,0,1,304.759,27.63Z" fill="#333"/>
      <path d="M316.584,18.45v1.512h-6.75V18.45Zm-3.1-2.646V24.75a1.224,1.224,0,0,0,.351.973,1.387,1.387,0,0,0,.945.3,2.134,2.134,0,0,0,.846-.153,2.468,2.468,0,0,0,.666-.423l.432,1.4a3.011,3.011,0,0,1-1.017.567,4.111,4.111,0,0,1-1.341.207,3.888,3.888,0,0,1-1.422-.252,2.031,2.031,0,0,1-1.008-.818,2.853,2.853,0,0,1-.379-1.486v-8.73Z" fill="#333"/>
      <path d="M321.913,27.63a5.745,5.745,0,0,1-2.466-.522,4.244,4.244,0,0,1-1.764-1.476l1.332-1.152a2.983,2.983,0,0,0,1.143,1.179,3.457,3.457,0,0,0,1.791.442,2.576,2.576,0,0,0,1.314-.289.918.918,0,0,0,.26-1.413,1.606,1.606,0,0,0-.855-.405l-1.89-.395a3.844,3.844,0,0,1-2.051-.928,2.255,2.255,0,0,1-.612-1.629,2.372,2.372,0,0,1,.431-1.368,3.034,3.034,0,0,1,1.269-1.017,4.758,4.758,0,0,1,2.008-.386,5.115,5.115,0,0,1,2.3.476,3.369,3.369,0,0,1,1.458,1.359l-1.332,1.117a2.274,2.274,0,0,0-1.007-1.072,2.942,2.942,0,0,0-1.387-.351,3.045,3.045,0,0,0-.989.144,1.413,1.413,0,0,0-.63.4.887.887,0,0,0-.217.595.861.861,0,0,0,.27.629,1.954,1.954,0,0,0,.973.415l2.051.431a3.188,3.188,0,0,1,1.828.856,2.137,2.137,0,0,1,.53,1.466,2.631,2.631,0,0,1-.449,1.521,2.908,2.908,0,0,1-1.3,1.018A5.155,5.155,0,0,1,321.913,27.63Z" fill="#333"/>
      <path d="M328.969,25.021a1.387,1.387,0,0,1,.837.243,1.554,1.554,0,0,1,.512.665,2.441,2.441,0,0,1,.181.964,3.387,3.387,0,0,1-.252,1.286,3.725,3.725,0,0,1-.729,1.134,3.839,3.839,0,0,1-1.143.837l-.9-.774a3.324,3.324,0,0,0,.863-.468,3.14,3.14,0,0,0,.64-.648,2.409,2.409,0,0,0,.369-.738l-.073-.036a.916.916,0,0,1-.207.09,1.153,1.153,0,0,1-.333.036,1.118,1.118,0,0,1-.512-.134,1.187,1.187,0,0,1-.442-.406,1.249,1.249,0,0,1-.179-.7,1.308,1.308,0,0,1,.189-.7,1.347,1.347,0,0,1,.5-.477A1.372,1.372,0,0,1,328.969,25.021Z" fill="#333"/>
      <path d="M344.214,18.45v1.512h-6.75V18.45ZM341.119,15.8V24.75a1.224,1.224,0,0,0,.351.973,1.387,1.387,0,0,0,.945.3,2.134,2.134,0,0,0,.846-.153,2.483,2.483,0,0,0,.666-.423l.431,1.4a3,3,0,0,1-1.016.567A4.117,4.117,0,0,1,342,27.63a3.886,3.886,0,0,1-1.421-.252,2.026,2.026,0,0,1-1.008-.818,2.853,2.853,0,0,1-.379-1.486v-8.73Z" fill="#333"/>
      <path d="M346.194,27.45V14.4h1.926v5.491a2.8,2.8,0,0,1,1.215-1.234,3.713,3.713,0,0,1,1.7-.386,3.906,3.906,0,0,1,1.719.369,2.844,2.844,0,0,1,1.215,1.106,3.545,3.545,0,0,1,.45,1.872V27.45h-1.926V22.23a2.51,2.51,0,0,0-.549-1.854,1.919,1.919,0,0,0-1.377-.522,2.566,2.566,0,0,0-1.143.279,2.242,2.242,0,0,0-.936.9,3.246,3.246,0,0,0-.369,1.665V27.45Z" fill="#333"/>
      <path d="M361.3,27.63a4.9,4.9,0,0,1-2.376-.558,3.89,3.89,0,0,1-1.593-1.611,5.225,5.225,0,0,1-.567-2.511,5.231,5.231,0,0,1,.567-2.511,3.92,3.92,0,0,1,1.575-1.611,4.64,4.64,0,0,1,2.286-.557,4.321,4.321,0,0,1,2.232.54,3.606,3.606,0,0,1,1.4,1.475,4.541,4.541,0,0,1,.486,2.124q0,.324-.018.612a5,5,0,0,1-.054.5H358V22.05h6.39l-.954.288a2.661,2.661,0,0,0-.612-1.881,2.18,2.18,0,0,0-1.674-.657,2.494,2.494,0,0,0-1.35.36,2.281,2.281,0,0,0-.882,1.071,4.391,4.391,0,0,0-.306,1.737,4.06,4.06,0,0,0,.324,1.71,2.354,2.354,0,0,0,.918,1.062,2.657,2.657,0,0,0,1.4.361,2.76,2.76,0,0,0,1.458-.343,2.421,2.421,0,0,0,.882-.954l1.53.72a3.623,3.623,0,0,1-.873,1.125,3.776,3.776,0,0,1-1.305.729A5.21,5.21,0,0,1,361.3,27.63Z" fill="#333"/>
      <path d="M367.74,27.45v-9h1.637l.181,1.62a2.793,2.793,0,0,1,1.07-1.341,3.176,3.176,0,0,1,1.756-.458,3.287,3.287,0,0,1,.54.044,1.679,1.679,0,0,1,.45.135l-.27,1.693a2.9,2.9,0,0,0-.441-.118,3.79,3.79,0,0,0-.658-.045,2.251,2.251,0,0,0-1.1.3,2.344,2.344,0,0,0-.891.891,2.939,2.939,0,0,0-.351,1.513V27.45Z" fill="#333"/>
      <path d="M378.918,27.63a4.9,4.9,0,0,1-2.376-.558,3.89,3.89,0,0,1-1.593-1.611,5.225,5.225,0,0,1-.567-2.511,5.231,5.231,0,0,1,.567-2.511,3.92,3.92,0,0,1,1.575-1.611,4.64,4.64,0,0,1,2.286-.557,4.321,4.321,0,0,1,2.232.54,3.606,3.606,0,0,1,1.4,1.475,4.541,4.541,0,0,1,.486,2.124q0,.324-.018.612a5,5,0,0,1-.054.5h-7.236V22.05h6.39l-.954.288a2.665,2.665,0,0,0-.612-1.881,2.18,2.18,0,0,0-1.674-.657,2.494,2.494,0,0,0-1.35.36,2.281,2.281,0,0,0-.882,1.071,4.391,4.391,0,0,0-.306,1.737,4.06,4.06,0,0,0,.324,1.71,2.354,2.354,0,0,0,.918,1.062,2.657,2.657,0,0,0,1.4.361,2.76,2.76,0,0,0,1.458-.343,2.421,2.421,0,0,0,.882-.954l1.53.72a3.623,3.623,0,0,1-.873,1.125,3.776,3.776,0,0,1-1.305.729A5.21,5.21,0,0,1,378.918,27.63Z" fill="#333"/>
      <path d="M392.184,16.938a1.349,1.349,0,0,1-.963-.315,1.167,1.167,0,0,1-.333-.891,1.137,1.137,0,0,1,.333-.881,1.37,1.37,0,0,1,.963-.307,1.342,1.342,0,0,1,.945.307,1.137,1.137,0,0,1,.333.881,1.167,1.167,0,0,1-.333.891A1.322,1.322,0,0,1,392.184,16.938Zm.954,1.512v9h-1.926v-9Z" fill="#333"/>
      <path d="M399.563,27.63a5.744,5.744,0,0,1-2.465-.522,4.253,4.253,0,0,1-1.765-1.476l1.333-1.152a2.983,2.983,0,0,0,1.143,1.179,3.457,3.457,0,0,0,1.791.442,2.576,2.576,0,0,0,1.314-.289.92.92,0,0,0,.26-1.413,1.61,1.61,0,0,0-.855-.405l-1.89-.395a3.852,3.852,0,0,1-2.052-.928,2.259,2.259,0,0,1-.611-1.629,2.372,2.372,0,0,1,.431-1.368,3.034,3.034,0,0,1,1.269-1.017,4.754,4.754,0,0,1,2.008-.386,5.115,5.115,0,0,1,2.3.476,3.374,3.374,0,0,1,1.458,1.359L401.9,21.223a2.274,2.274,0,0,0-1.007-1.072,2.942,2.942,0,0,0-1.387-.351,3.04,3.04,0,0,0-.989.144,1.413,1.413,0,0,0-.63.4.887.887,0,0,0-.217.595.861.861,0,0,0,.27.629,1.954,1.954,0,0,0,.973.415l2.051.431a3.184,3.184,0,0,1,1.827.856,2.138,2.138,0,0,1,.531,1.466,2.624,2.624,0,0,1-.45,1.521,2.9,2.9,0,0,1-1.3,1.018A5.157,5.157,0,0,1,399.563,27.63Z" fill="#333"/>
      <path d="M415.421,18.271a4.715,4.715,0,0,1,2.322.557,3.92,3.92,0,0,1,1.575,1.611,5.231,5.231,0,0,1,.567,2.511,5.225,5.225,0,0,1-.567,2.511,3.92,3.92,0,0,1-1.575,1.611,5.11,5.11,0,0,1-4.644,0,3.977,3.977,0,0,1-1.584-1.611,5.158,5.158,0,0,1-.576-2.511,5.164,5.164,0,0,1,.576-2.511,3.977,3.977,0,0,1,1.584-1.611A4.715,4.715,0,0,1,415.421,18.271Zm0,1.511a2.47,2.47,0,0,0-1.377.369,2.36,2.36,0,0,0-.873,1.072,4.319,4.319,0,0,0-.306,1.727,4.339,4.339,0,0,0,.306,1.719,2.351,2.351,0,0,0,.873,1.08,2.47,2.47,0,0,0,1.377.369,2.426,2.426,0,0,0,1.368-.369,2.373,2.373,0,0,0,.864-1.08,4.339,4.339,0,0,0,.306-1.719,4.319,4.319,0,0,0-.306-1.727,2.382,2.382,0,0,0-.864-1.072A2.426,2.426,0,0,0,415.421,19.782Z" fill="#333"/>
      <path d="M422.315,27.45v-9h1.71l.126,2.34-.252-.252a3.407,3.407,0,0,1,.729-1.287,2.818,2.818,0,0,1,1.134-.747,4.151,4.151,0,0,1,1.395-.233,3.909,3.909,0,0,1,1.719.369,2.844,2.844,0,0,1,1.215,1.106,3.545,3.545,0,0,1,.45,1.872V27.45h-1.926V22.212a2.473,2.473,0,0,0-.549-1.845,1.938,1.938,0,0,0-1.377-.513,2.547,2.547,0,0,0-1.152.279,2.265,2.265,0,0,0-.927.891,3.159,3.159,0,0,0-.369,1.638V27.45Z" fill="#333"/>
      <path d="M437.417,27.63a4.9,4.9,0,0,1-2.376-.558,3.89,3.89,0,0,1-1.593-1.611,5.225,5.225,0,0,1-.567-2.511,5.231,5.231,0,0,1,.567-2.511,3.92,3.92,0,0,1,1.575-1.611,4.64,4.64,0,0,1,2.286-.557,4.321,4.321,0,0,1,2.232.54,3.606,3.606,0,0,1,1.4,1.475,4.541,4.541,0,0,1,.486,2.124q0,.324-.018.612a5,5,0,0,1-.054.5h-7.236V22.05h6.39l-.954.288a2.665,2.665,0,0,0-.612-1.881,2.18,2.18,0,0,0-1.674-.657,2.494,2.494,0,0,0-1.35.36,2.281,2.281,0,0,0-.882,1.071,4.391,4.391,0,0,0-.306,1.737,4.06,4.06,0,0,0,.324,1.71,2.354,2.354,0,0,0,.918,1.062,2.657,2.657,0,0,0,1.4.361,2.76,2.76,0,0,0,1.458-.343,2.421,2.421,0,0,0,.882-.954l1.53.72a3.623,3.623,0,0,1-.873,1.125,3.776,3.776,0,0,1-1.305.729A5.21,5.21,0,0,1,437.417,27.63Z" fill="#333"/>
      <path d="M450.682,16.938a1.349,1.349,0,0,1-.963-.315,1.167,1.167,0,0,1-.333-.891,1.137,1.137,0,0,1,.333-.881,1.37,1.37,0,0,1,.963-.307,1.342,1.342,0,0,1,.945.307,1.137,1.137,0,0,1,.333.881,1.167,1.167,0,0,1-.333.891A1.322,1.322,0,0,1,450.682,16.938Zm.954,1.512v9H449.71v-9Z" fill="#333"/>
      <path d="M454.643,27.45v-9h1.71l.126,2.34-.252-.252a3.394,3.394,0,0,1,.729-1.287,2.808,2.808,0,0,1,1.133-.747,4.151,4.151,0,0,1,1.395-.233,3.914,3.914,0,0,1,1.72.369,2.847,2.847,0,0,1,1.214,1.106,3.545,3.545,0,0,1,.451,1.872V27.45h-1.927V22.212a2.478,2.478,0,0,0-.548-1.845,1.942,1.942,0,0,0-1.377-.513,2.551,2.551,0,0,0-1.153.279,2.263,2.263,0,0,0-.926.891,3.149,3.149,0,0,0-.37,1.638V27.45Z" fill="#333"/>
      <path d="M476.836,21.672a1.886,1.886,0,0,0-.5-1.395,1.836,1.836,0,0,0-1.359-.5,2.47,2.47,0,0,0-1.386.378,2.192,2.192,0,0,0-.846,1.224l-1.62-.684a3.225,3.225,0,0,1,1.341-1.763,4.565,4.565,0,0,1,2.583-.666,4.854,4.854,0,0,1,1.908.35,2.909,2.909,0,0,1,1.305,1.053,3.141,3.141,0,0,1,.477,1.8v4.013a.588.588,0,0,0,.666.666,2.221,2.221,0,0,0,.63-.09l-.108,1.332a2.418,2.418,0,0,1-1.044.2,2.491,2.491,0,0,1-1.035-.207,1.6,1.6,0,0,1-.72-.63,1.969,1.969,0,0,1-.261-1.053v-.126l.4-.017a2.2,2.2,0,0,1-.666,1.161,3.284,3.284,0,0,1-1.17.683,4.192,4.192,0,0,1-1.35.225,4.066,4.066,0,0,1-1.521-.27,2.2,2.2,0,0,1-1.449-2.177,2.229,2.229,0,0,1,.657-1.657,3.536,3.536,0,0,1,1.863-.881l3.492-.685-.018,1.351-2.538.521a2.938,2.938,0,0,0-1.134.414.912.912,0,0,0-.378.792.956.956,0,0,0,.387.8,1.657,1.657,0,0,0,1.035.3,3.469,3.469,0,0,0,.873-.108,2.283,2.283,0,0,0,.765-.351,1.63,1.63,0,0,0,.531-.63,2.094,2.094,0,0,0,.189-.927Z" fill="#333"/>
      <path d="M491.29,18.271a4.842,4.842,0,0,1,1.845.314,3.517,3.517,0,0,1,1.287.892,3.953,3.953,0,0,1,.792,1.313l-1.818.72a2.527,2.527,0,0,0-.747-1.269,1.987,1.987,0,0,0-1.341-.441,2.523,2.523,0,0,0-1.386.369,2.289,2.289,0,0,0-.873,1.071,4.44,4.44,0,0,0-.3,1.728,4.269,4.269,0,0,0,.306,1.71,2.287,2.287,0,0,0,.882,1.062,2.8,2.8,0,0,0,2.43.154,1.959,1.959,0,0,0,.747-.595,2.2,2.2,0,0,0,.4-.945l1.747.594a3.846,3.846,0,0,1-.783,1.413,3.58,3.58,0,0,1-1.323.936,4.642,4.642,0,0,1-1.818.333,4.857,4.857,0,0,1-2.358-.558,3.89,3.89,0,0,1-1.593-1.611,5.225,5.225,0,0,1-.567-2.511,5.231,5.231,0,0,1,.567-2.511,3.9,3.9,0,0,1,1.584-1.611A4.726,4.726,0,0,1,491.29,18.271Z" fill="#333"/>
      <path d="M497.518,27.45v-9h1.638l.18,1.62a2.8,2.8,0,0,1,1.071-1.341,3.17,3.17,0,0,1,1.755-.458,3.278,3.278,0,0,1,.54.044,1.668,1.668,0,0,1,.45.135l-.27,1.693a2.873,2.873,0,0,0-.441-.118,3.778,3.778,0,0,0-.657-.045,2.255,2.255,0,0,0-1.1.3,2.358,2.358,0,0,0-.891.891,2.939,2.939,0,0,0-.351,1.513V27.45Z" fill="#333"/>
      <path d="M508.7,27.63a4.9,4.9,0,0,1-2.376-.558,3.884,3.884,0,0,1-1.593-1.611,5.225,5.225,0,0,1-.567-2.511,5.231,5.231,0,0,1,.567-2.511,3.908,3.908,0,0,1,1.575-1.611,4.637,4.637,0,0,1,2.286-.557,4.324,4.324,0,0,1,2.232.54,3.606,3.606,0,0,1,1.4,1.475,4.541,4.541,0,0,1,.485,2.124c0,.216,0,.42-.017.612a5,5,0,0,1-.054.5H505.4V22.05h6.39l-.954.288a2.665,2.665,0,0,0-.612-1.881,2.181,2.181,0,0,0-1.674-.657,2.492,2.492,0,0,0-1.35.36,2.27,2.27,0,0,0-.882,1.071,4.391,4.391,0,0,0-.306,1.737,4.06,4.06,0,0,0,.324,1.71,2.354,2.354,0,0,0,.918,1.062,2.657,2.657,0,0,0,1.4.361,2.76,2.76,0,0,0,1.458-.343A2.421,2.421,0,0,0,511,24.8l1.53.72a3.653,3.653,0,0,1-.873,1.125,3.785,3.785,0,0,1-1.305.729A5.214,5.214,0,0,1,508.7,27.63Z" fill="#333"/>
      <path d="M520.341,21.672a1.89,1.89,0,0,0-.494-1.395,1.84,1.84,0,0,0-1.36-.5,2.464,2.464,0,0,0-1.385.378,2.194,2.194,0,0,0-.847,1.224l-1.619-.684a3.22,3.22,0,0,1,1.341-1.763,4.562,4.562,0,0,1,2.583-.666,4.849,4.849,0,0,1,1.907.35,2.9,2.9,0,0,1,1.305,1.053,3.142,3.142,0,0,1,.478,1.8v4.013a.588.588,0,0,0,.666.666,2.219,2.219,0,0,0,.629-.09l-.107,1.332a2.424,2.424,0,0,1-1.044.2,2.5,2.5,0,0,1-1.036-.207,1.6,1.6,0,0,1-.719-.63,1.96,1.96,0,0,1-.262-1.053v-.126l.4-.017a2.2,2.2,0,0,1-.666,1.161,3.288,3.288,0,0,1-1.169.683,4.2,4.2,0,0,1-1.351.225,4.069,4.069,0,0,1-1.521-.27,2.2,2.2,0,0,1-1.448-2.177,2.228,2.228,0,0,1,.656-1.657,3.535,3.535,0,0,1,1.864-.881l3.491-.685-.018,1.351-2.537.521a2.937,2.937,0,0,0-1.135.414.913.913,0,0,0-.377.792.953.953,0,0,0,.387.8,1.654,1.654,0,0,0,1.034.3,3.469,3.469,0,0,0,.873-.108,2.288,2.288,0,0,0,.766-.351,1.636,1.636,0,0,0,.53-.63,2.094,2.094,0,0,0,.189-.927Z" fill="#333"/>
      <path d="M530.763,18.45v1.512h-6.75V18.45Zm-3.1-2.646V24.75a1.224,1.224,0,0,0,.352.973,1.383,1.383,0,0,0,.944.3,2.139,2.139,0,0,0,.847-.153,2.483,2.483,0,0,0,.666-.423l.431,1.4a3.015,3.015,0,0,1-1.016.567,4.117,4.117,0,0,1-1.342.207,3.9,3.9,0,0,1-1.422-.252,2.024,2.024,0,0,1-1.007-.818,2.834,2.834,0,0,1-.379-1.486v-8.73Z" fill="#333"/>
      <path d="M533.644,16.938a1.349,1.349,0,0,1-.963-.315,1.164,1.164,0,0,1-.333-.891,1.134,1.134,0,0,1,.333-.881,1.37,1.37,0,0,1,.963-.307,1.342,1.342,0,0,1,.945.307,1.137,1.137,0,0,1,.333.881,1.167,1.167,0,0,1-.333.891A1.322,1.322,0,0,1,533.644,16.938Zm.954,1.512v9h-1.926v-9Z" fill="#333"/>
      <path d="M543.525,18.45h2.017l-3.583,9h-2.1l-3.6-9h2.106l2.557,7.326Z" fill="#333"/>
      <path d="M551.085,27.63a4.9,4.9,0,0,1-2.376-.558,3.89,3.89,0,0,1-1.593-1.611,5.225,5.225,0,0,1-.567-2.511,5.231,5.231,0,0,1,.567-2.511,3.92,3.92,0,0,1,1.575-1.611,4.641,4.641,0,0,1,2.287-.557,4.32,4.32,0,0,1,2.231.54,3.6,3.6,0,0,1,1.4,1.475,4.529,4.529,0,0,1,.486,2.124q0,.324-.017.612c-.013.192-.031.36-.055.5h-7.235V22.05h6.389l-.953.288a2.661,2.661,0,0,0-.613-1.881,2.18,2.18,0,0,0-1.674-.657,2.494,2.494,0,0,0-1.35.36,2.281,2.281,0,0,0-.882,1.071,4.391,4.391,0,0,0-.306,1.737,4.044,4.044,0,0,0,.325,1.71,2.348,2.348,0,0,0,.918,1.062,2.653,2.653,0,0,0,1.4.361,2.76,2.76,0,0,0,1.458-.343,2.421,2.421,0,0,0,.882-.954l1.53.72a3.623,3.623,0,0,1-.873,1.125,3.776,3.776,0,0,1-1.305.729A5.21,5.21,0,0,1,551.085,27.63Z" fill="#333"/>
      <path d="M563.379,27.45v-9h1.638l.18,1.62a2.8,2.8,0,0,1,1.071-1.341,3.173,3.173,0,0,1,1.755-.458,3.269,3.269,0,0,1,.54.044,1.657,1.657,0,0,1,.45.135l-.269,1.693a2.918,2.918,0,0,0-.442-.118,3.778,3.778,0,0,0-.657-.045,2.258,2.258,0,0,0-1.1.3,2.349,2.349,0,0,0-.89.891,2.929,2.929,0,0,0-.352,1.513V27.45Z" fill="#333"/>
      <path d="M574.5,18.271a4.717,4.717,0,0,1,2.322.557,3.92,3.92,0,0,1,1.575,1.611,5.231,5.231,0,0,1,.567,2.511,5.225,5.225,0,0,1-.567,2.511,3.92,3.92,0,0,1-1.575,1.611,5.11,5.11,0,0,1-4.644,0,3.977,3.977,0,0,1-1.584-1.611,5.147,5.147,0,0,1-.576-2.511,5.153,5.153,0,0,1,.576-2.511,3.977,3.977,0,0,1,1.584-1.611A4.712,4.712,0,0,1,574.5,18.271Zm0,1.511a2.47,2.47,0,0,0-1.377.369,2.36,2.36,0,0,0-.873,1.072,4.319,4.319,0,0,0-.306,1.727,4.339,4.339,0,0,0,.306,1.719,2.351,2.351,0,0,0,.873,1.08,2.47,2.47,0,0,0,1.377.369,2.426,2.426,0,0,0,1.368-.369,2.373,2.373,0,0,0,.864-1.08,4.338,4.338,0,0,0,.307-1.719,4.318,4.318,0,0,0-.307-1.727,2.382,2.382,0,0,0-.864-1.072A2.426,2.426,0,0,0,574.5,19.782Z" fill="#333"/>
      <path d="M583.269,14.4V24.931a1.371,1.371,0,0,0,.233.918,1.021,1.021,0,0,0,.775.252,2.941,2.941,0,0,0,.549-.045,3.984,3.984,0,0,0,.567-.172l-.216,1.44a3.128,3.128,0,0,1-.7.225,3.879,3.879,0,0,1-.792.081,2.289,2.289,0,0,1-1.773-.621,2.772,2.772,0,0,1-.567-1.917V14.4Z" fill="#333"/>
      <path d="M590.973,27.63a4.9,4.9,0,0,1-2.376-.558A3.89,3.89,0,0,1,587,25.461a5.225,5.225,0,0,1-.567-2.511A5.231,5.231,0,0,1,587,20.439a3.92,3.92,0,0,1,1.575-1.611,4.637,4.637,0,0,1,2.286-.557,4.321,4.321,0,0,1,2.232.54,3.606,3.606,0,0,1,1.4,1.475,4.541,4.541,0,0,1,.486,2.124q0,.324-.018.612c-.012.192-.03.36-.053.5h-7.237V22.05h6.39l-.954.288a2.661,2.661,0,0,0-.612-1.881,2.18,2.18,0,0,0-1.674-.657,2.494,2.494,0,0,0-1.35.36,2.281,2.281,0,0,0-.882,1.071,4.392,4.392,0,0,0-.3,1.737,4.061,4.061,0,0,0,.323,1.71,2.354,2.354,0,0,0,.918,1.062,2.657,2.657,0,0,0,1.4.361,2.76,2.76,0,0,0,1.458-.343,2.421,2.421,0,0,0,.882-.954l1.53.72a3.623,3.623,0,0,1-.873,1.125,3.776,3.776,0,0,1-1.3.729A5.21,5.21,0,0,1,590.973,27.63Z" fill="#333"/>
      <path d="M604.239,16.938a1.349,1.349,0,0,1-.963-.315,1.167,1.167,0,0,1-.333-.891,1.137,1.137,0,0,1,.333-.881,1.37,1.37,0,0,1,.963-.307,1.348,1.348,0,0,1,.946.307,1.141,1.141,0,0,1,.333.881,1.171,1.171,0,0,1-.333.891A1.328,1.328,0,0,1,604.239,16.938Zm.954,1.512v9h-1.926v-9Z" fill="#333"/>
      <path d="M608.2,27.45v-9h1.71l.126,2.34-.252-.252a3.407,3.407,0,0,1,.729-1.287,2.818,2.818,0,0,1,1.134-.747,4.151,4.151,0,0,1,1.4-.233,3.906,3.906,0,0,1,1.719.369,2.844,2.844,0,0,1,1.215,1.106,3.554,3.554,0,0,1,.45,1.872V27.45H614.5V22.212a2.473,2.473,0,0,0-.549-1.845,1.938,1.938,0,0,0-1.377-.513,2.547,2.547,0,0,0-1.152.279,2.271,2.271,0,0,0-.927.891,3.159,3.159,0,0,0-.369,1.638V27.45Z" fill="#333"/>
      <path d="M630.627,18.45v1.512h-6.75V18.45Zm-3.1-2.646V24.75a1.227,1.227,0,0,0,.351.973,1.389,1.389,0,0,0,.945.3,2.134,2.134,0,0,0,.846-.153,2.453,2.453,0,0,0,.666-.423l.432,1.4a3.011,3.011,0,0,1-1.017.567,4.111,4.111,0,0,1-1.341.207,3.891,3.891,0,0,1-1.422-.252,2.035,2.035,0,0,1-1.008-.818,2.843,2.843,0,0,1-.378-1.486v-8.73Z" fill="#333"/>
      <path d="M632.606,27.45V14.4h1.926v5.491a2.8,2.8,0,0,1,1.215-1.234,3.713,3.713,0,0,1,1.7-.386,3.906,3.906,0,0,1,1.719.369,2.844,2.844,0,0,1,1.215,1.106,3.545,3.545,0,0,1,.45,1.872V27.45h-1.926V22.23a2.506,2.506,0,0,0-.549-1.854,1.919,1.919,0,0,0-1.377-.522,2.566,2.566,0,0,0-1.143.279,2.242,2.242,0,0,0-.936.9,3.246,3.246,0,0,0-.369,1.665V27.45Z" fill="#333"/>
      <path d="M647.709,27.63a4.9,4.9,0,0,1-2.376-.558,3.884,3.884,0,0,1-1.593-1.611,5.225,5.225,0,0,1-.567-2.511,5.231,5.231,0,0,1,.567-2.511,3.923,3.923,0,0,1,1.574-1.611,4.644,4.644,0,0,1,2.287-.557,4.321,4.321,0,0,1,2.232.54,3.606,3.606,0,0,1,1.4,1.475,4.541,4.541,0,0,1,.486,2.124q0,.324-.018.612c-.013.192-.03.36-.054.5h-7.236V22.05h6.39l-.954.288a2.665,2.665,0,0,0-.612-1.881,2.182,2.182,0,0,0-1.675-.657,2.493,2.493,0,0,0-1.349.36,2.281,2.281,0,0,0-.882,1.071,4.391,4.391,0,0,0-.306,1.737,4.06,4.06,0,0,0,.324,1.71,2.348,2.348,0,0,0,.918,1.062,2.657,2.657,0,0,0,1.4.361,2.763,2.763,0,0,0,1.458-.343,2.421,2.421,0,0,0,.882-.954l1.53.72a3.623,3.623,0,0,1-.873,1.125,3.776,3.776,0,0,1-1.3.729A5.21,5.21,0,0,1,647.709,27.63Z" fill="#333"/>
      <path d="M663.89,18.271a4.837,4.837,0,0,1,1.844.314,3.5,3.5,0,0,1,1.287.892,3.92,3.92,0,0,1,.792,1.313L666,21.51a2.527,2.527,0,0,0-.747-1.269,1.985,1.985,0,0,0-1.341-.441,2.527,2.527,0,0,0-1.387.369,2.3,2.3,0,0,0-.873,1.071,4.46,4.46,0,0,0-.3,1.728,4.269,4.269,0,0,0,.306,1.71,2.275,2.275,0,0,0,.882,1.062,2.8,2.8,0,0,0,2.43.154,1.951,1.951,0,0,0,.747-.595,2.214,2.214,0,0,0,.4-.945l1.746.594a3.86,3.86,0,0,1-.783,1.413,3.58,3.58,0,0,1-1.323.936,4.643,4.643,0,0,1-1.819.333,4.855,4.855,0,0,1-2.357-.558,3.884,3.884,0,0,1-1.593-1.611,5.225,5.225,0,0,1-.567-2.511,5.231,5.231,0,0,1,.567-2.511,3.9,3.9,0,0,1,1.584-1.611A4.726,4.726,0,0,1,663.89,18.271Z" fill="#333"/>
      <path d="M674.024,18.271a4.717,4.717,0,0,1,2.322.557,3.92,3.92,0,0,1,1.575,1.611,5.231,5.231,0,0,1,.567,2.511,5.225,5.225,0,0,1-.567,2.511,3.92,3.92,0,0,1-1.575,1.611,5.11,5.11,0,0,1-4.644,0,3.977,3.977,0,0,1-1.584-1.611,5.147,5.147,0,0,1-.576-2.511,5.153,5.153,0,0,1,.576-2.511,3.977,3.977,0,0,1,1.584-1.611A4.712,4.712,0,0,1,674.024,18.271Zm0,1.511a2.47,2.47,0,0,0-1.377.369,2.36,2.36,0,0,0-.873,1.072,4.319,4.319,0,0,0-.306,1.727,4.339,4.339,0,0,0,.306,1.719,2.351,2.351,0,0,0,.873,1.08,2.47,2.47,0,0,0,1.377.369,2.426,2.426,0,0,0,1.368-.369,2.373,2.373,0,0,0,.864-1.08,4.339,4.339,0,0,0,.306-1.719,4.319,4.319,0,0,0-.306-1.727,2.382,2.382,0,0,0-.864-1.072A2.426,2.426,0,0,0,674.024,19.782Z" fill="#333"/>
      <path d="M680.918,27.45v-9h1.71l.09,1.512a3.013,3.013,0,0,1,1.251-1.277,3.5,3.5,0,0,1,1.665-.414,3.717,3.717,0,0,1,1.791.44,1.037,1.037,0,1,0,2.025.333,3.424,3.424,0,0,1,1.115-.585,4.08,4.08,0,0,1,1.206-.188,3.735,3.735,0,0,1,1.621.359,2.909,2.909,0,0,1,1.224,1.1,3.473,3.473,0,0,1,.468,1.889V27.45h-1.926V21.924a2.084,2.084,0,0,0-.522-1.584,1.882,1.882,0,0,0-1.332-.486,2.285,2.285,0,0,0-1.161.306,2.24,2.24,0,0,0-.855.909,3.111,3.111,0,0,0-.324,1.485v4.9h-1.926V21.924a2.084,2.084,0,0,0-.522-1.584,1.882,1.882,0,0,0-1.332-.486,2.267,2.267,0,0,0-1.08.289,2.3,2.3,0,0,0-.9.9,3.177,3.177,0,0,0-.36,1.62V27.45Z" fill="#333"/>
      <path d="M698,27.45v-9h1.71l.09,1.512a3.013,3.013,0,0,1,1.251-1.277,3.5,3.5,0,0,1,1.665-.414,3.717,3.717,0,0,1,1.791.44,1.037,1.037,0,1,0,2.025.333,3.424,3.424,0,0,1,1.115-.585,4.082,4.082,0,0,1,1.207-.188,3.733,3.733,0,0,1,1.62.359,2.909,2.909,0,0,1,1.224,1.1,3.473,3.473,0,0,1,.468,1.889V27.45H710.24V21.924a2.084,2.084,0,0,0-.522-1.584,1.882,1.882,0,0,0-1.332-.486,2.285,2.285,0,0,0-1.161.306,2.24,2.24,0,0,0-.855.909,3.111,3.111,0,0,0-.324,1.485v4.9H704.12V21.924a2.084,2.084,0,0,0-.522-1.584,1.882,1.882,0,0,0-1.332-.486,2.267,2.267,0,0,0-1.08.289,2.3,2.3,0,0,0-.9.9,3.177,3.177,0,0,0-.36,1.62V27.45Z" fill="#333"/>
      <path d="M718.286,27.63a4.063,4.063,0,0,1-1.629-.323,2.624,2.624,0,0,1-1.2-1.045,3.486,3.486,0,0,1-.45-1.871V18.45h1.926V23.9a2.174,2.174,0,0,0,.522,1.683,2.13,2.13,0,0,0,1.458.459,2.571,2.571,0,0,0,.873-.152,2.151,2.151,0,0,0,.765-.487,2.235,2.235,0,0,0,.531-.855,3.6,3.6,0,0,0,.188-1.224V18.45H723.2v9h-1.692l-.09-1.458a2.918,2.918,0,0,1-1.26,1.242A4.14,4.14,0,0,1,718.286,27.63Z" fill="#333"/>
      <path d="M726.205,27.45v-9h1.71l.126,2.34-.252-.252a3.407,3.407,0,0,1,.729-1.287,2.818,2.818,0,0,1,1.134-.747,4.151,4.151,0,0,1,1.395-.233,3.906,3.906,0,0,1,1.719.369,2.841,2.841,0,0,1,1.214,1.106,3.545,3.545,0,0,1,.451,1.872V27.45h-1.926V22.212a2.473,2.473,0,0,0-.549-1.845,1.938,1.938,0,0,0-1.377-.513,2.547,2.547,0,0,0-1.152.279,2.271,2.271,0,0,0-.927.891,3.159,3.159,0,0,0-.369,1.638V27.45Z" fill="#333"/>
      <path d="M738.319,16.938a1.349,1.349,0,0,1-.963-.315,1.171,1.171,0,0,1-.333-.891,1.141,1.141,0,0,1,.333-.881,1.37,1.37,0,0,1,.963-.307,1.345,1.345,0,0,1,.946.307,1.141,1.141,0,0,1,.333.881,1.171,1.171,0,0,1-.333.891A1.325,1.325,0,0,1,738.319,16.938Zm.954,1.512v9h-1.925v-9Z" fill="#333"/>
      <path d="M748,18.45v1.512h-6.75V18.45Zm-3.1-2.646V24.75a1.227,1.227,0,0,0,.351.973,1.389,1.389,0,0,0,.945.3,2.134,2.134,0,0,0,.846-.153,2.453,2.453,0,0,0,.666-.423l.432,1.4a3.011,3.011,0,0,1-1.017.567,4.111,4.111,0,0,1-1.341.207,3.891,3.891,0,0,1-1.422-.252,2.035,2.035,0,0,1-1.008-.818,2.843,2.843,0,0,1-.378-1.486v-8.73Z" fill="#333"/>
      <path d="M757.813,18.45l-3.942,10.062a6.839,6.839,0,0,1-.855,1.656,2.743,2.743,0,0,1-1.053.882,3.324,3.324,0,0,1-1.386.27,4.008,4.008,0,0,1-1.2-.171,3.493,3.493,0,0,1-.963-.459l.468-1.494a2.45,2.45,0,0,0,.729.432,2.381,2.381,0,0,0,.837.144,1.528,1.528,0,0,0,.873-.261,2.2,2.2,0,0,0,.693-1.034l.4-.973-.954-2.232-2.808-6.822h2.16l2,5.653.522,1.691.594-1.854,1.89-5.49Z" fill="#333"/>
    </g>
    <g>
      <g>
        <path d="M519.134,120.13H156.155a3,3,0,0,1-3-3v-9a3,3,0,0,1,3-3H519.134Z" fill="#64b5f6"/>
        <rect x="519.134" y="105.13" width="94.851" height="15" fill="#ffb74d"/>
        <path d="M782,120.13H613.984v-15H782a3,3,0,0,1,3,3v9A3,3,0,0,1,782,120.13Z" fill="#999"/>
      </g>
      <g>
        <g>
          <path d="M156.891,142.246a2.575,2.575,0,0,1-2.148-1.045,6.128,6.128,0,0,1,0-6.072,2.74,2.74,0,0,1,4.3,0,6.174,6.174,0,0,1,0,6.072A2.572,2.572,0,0,1,156.891,142.246Zm0-.865a1.622,1.622,0,0,0,1.074-.365,2.231,2.231,0,0,0,.66-1.086,7.123,7.123,0,0,0,0-3.529,2.235,2.235,0,0,0-.66-1.086,1.759,1.759,0,0,0-2.148,0,2.228,2.228,0,0,0-.66,1.086,7.123,7.123,0,0,0,0,3.529,2.223,2.223,0,0,0,.66,1.086A1.616,1.616,0,0,0,156.891,141.381Z" fill="gray"/>
          <path d="M163.011,134.086a1.859,1.859,0,0,1,1.013.269,1.787,1.787,0,0,1,.661.762,2.967,2.967,0,0,1,0,2.305,1.787,1.787,0,0,1-.661.762,2.034,2.034,0,0,1-2.022,0,1.778,1.778,0,0,1-.666-.762,2.967,2.967,0,0,1,0-2.305,1.778,1.778,0,0,1,.666-.762A1.874,1.874,0,0,1,163.011,134.086Zm0,.756a.972.972,0,0,0-.576.168.985.985,0,0,0-.36.486,2.534,2.534,0,0,0,0,1.541.984.984,0,0,0,.36.492,1.082,1.082,0,0,0,1.158,0,1.011,1.011,0,0,0,.354-.492,2.554,2.554,0,0,0,0-1.541,1.013,1.013,0,0,0-.354-.486A.965.965,0,0,0,163.011,134.842Zm-.228,7.283,5.04-7.92h.911l-5.04,7.92Zm5.723-4.248a1.86,1.86,0,0,1,1.015.27,1.807,1.807,0,0,1,.66.763,2.95,2.95,0,0,1,0,2.3,1.807,1.807,0,0,1-.66.763,2.028,2.028,0,0,1-2.022,0,1.773,1.773,0,0,1-.666-.763,2.95,2.95,0,0,1,0-2.3,1.773,1.773,0,0,1,.666-.763A1.861,1.861,0,0,1,168.506,137.877Zm0,.756a.976.976,0,0,0-.575.168,1.01,1.01,0,0,0-.36.486,2.54,2.54,0,0,0,0,1.543,1,1,0,0,0,.36.491,1.08,1.08,0,0,0,1.157,0,1.016,1.016,0,0,0,.354-.491,2.54,2.54,0,0,0,0-1.543,1.025,1.025,0,0,0-.354-.486A.97.97,0,0,0,168.506,138.633Z" fill="gray"/>
        </g>
        <g>
          <path d="M304.7,142.125v-.779q1.188-.876,1.986-1.536a11.722,11.722,0,0,0,1.278-1.2,3.789,3.789,0,0,0,.684-1.025,2.6,2.6,0,0,0,.2-1.015,1.527,1.527,0,0,0-.45-1.145,1.9,1.9,0,0,0-2.538.1,2.357,2.357,0,0,0-.576,1.421l-.84-.5a3.1,3.1,0,0,1,.45-1.225,2.381,2.381,0,0,1,.924-.828,3,3,0,0,1,1.386-.3,3.145,3.145,0,0,1,1.1.18,2.411,2.411,0,0,1,.834.509,2.243,2.243,0,0,1,.534.787,2.636,2.636,0,0,1,.186,1.007,3.2,3.2,0,0,1-.36,1.458,5.566,5.566,0,0,1-1.188,1.494,17.712,17.712,0,0,1-2.244,1.729v.012q.132-.012.366-.018l.468-.013c.156,0,.274,0,.354,0h2.772v.9Z" fill="gray"/>
          <path d="M314.254,142.246a2.767,2.767,0,0,1-1.7-.48,3.067,3.067,0,0,1-.99-1.332l.936-.493a2.339,2.339,0,0,0,.594,1.014,1.633,1.633,0,0,0,1.182.391,2.022,2.022,0,0,0,.942-.2,1.465,1.465,0,0,0,.606-.582,1.8,1.8,0,0,0,.216-.907,2.015,2.015,0,0,0-.2-.942,1.306,1.306,0,0,0-.57-.569,1.971,1.971,0,0,0-.912-.193,3.156,3.156,0,0,0-.714.078,1.969,1.969,0,0,0-.594.246,1.616,1.616,0,0,0-.456.444l-.84-.155.468-4.357h4.452v.9h-3.636l-.312,2.5-.024.107h.024a2.1,2.1,0,0,1,.738-.48,2.888,2.888,0,0,1,1.074-.18,2.62,2.62,0,0,1,1.314.318,2.231,2.231,0,0,1,.87.9,2.778,2.778,0,0,1,.312,1.343,2.854,2.854,0,0,1-.2,1.1,2.326,2.326,0,0,1-.576.834,2.53,2.53,0,0,1-.882.522A3.326,3.326,0,0,1,314.254,142.246Z" fill="gray"/>
        </g>
        <g>
          <path d="M465.671,142.246a2.762,2.762,0,0,1-1.7-.48,3.061,3.061,0,0,1-.991-1.332l.936-.493a2.341,2.341,0,0,0,.6,1.014,1.629,1.629,0,0,0,1.181.391,2.03,2.03,0,0,0,.943-.2,1.471,1.471,0,0,0,.606-.582,1.8,1.8,0,0,0,.215-.907,2.016,2.016,0,0,0-.2-.942,1.313,1.313,0,0,0-.571-.569,1.968,1.968,0,0,0-.912-.193,3.163,3.163,0,0,0-.714.078,1.952,1.952,0,0,0-.593.246,1.6,1.6,0,0,0-.456.444l-.84-.155.468-4.357H468.1v.9h-3.637l-.312,2.5-.023.107h.023a2.094,2.094,0,0,1,.739-.48,2.883,2.883,0,0,1,1.073-.18,2.62,2.62,0,0,1,1.314.318,2.227,2.227,0,0,1,.871.9,2.778,2.778,0,0,1,.312,1.343,2.836,2.836,0,0,1-.205,1.1,2.336,2.336,0,0,1-.575.834,2.544,2.544,0,0,1-.883.522A3.318,3.318,0,0,1,465.671,142.246Z" fill="gray"/>
          <path d="M472.943,142.246A2.576,2.576,0,0,1,470.8,141.2a6.134,6.134,0,0,1,0-6.072,2.741,2.741,0,0,1,4.3,0,6.174,6.174,0,0,1,0,6.072A2.574,2.574,0,0,1,472.943,142.246Zm0-.865a1.623,1.623,0,0,0,1.075-.365,2.23,2.23,0,0,0,.659-1.086,7.123,7.123,0,0,0,0-3.529,2.234,2.234,0,0,0-.659-1.086,1.759,1.759,0,0,0-2.148,0,2.229,2.229,0,0,0-.661,1.086,7.123,7.123,0,0,0,0,3.529,2.224,2.224,0,0,0,.661,1.086A1.615,1.615,0,0,0,472.943,141.381Z" fill="gray"/>
        </g>
        <g>
          <path d="M620.733,134.205h5.831v.9a11.383,11.383,0,0,0-1.626,2.166,8.882,8.882,0,0,0-.917,2.311,10.857,10.857,0,0,0-.288,2.543h-.984a10.338,10.338,0,0,1,.33-2.609,9.935,9.935,0,0,1,1-2.454,10.811,10.811,0,0,1,1.668-2.2l.156.24h-5.172Z" fill="gray"/>
          <path d="M630.429,142.246a2.77,2.77,0,0,1-1.7-.48,3.082,3.082,0,0,1-.99-1.332l.937-.493a2.33,2.33,0,0,0,.594,1.014,1.63,1.63,0,0,0,1.181.391,2.027,2.027,0,0,0,.943-.2,1.469,1.469,0,0,0,.605-.582,1.788,1.788,0,0,0,.217-.907,2.028,2.028,0,0,0-.2-.942,1.308,1.308,0,0,0-.571-.569,1.971,1.971,0,0,0-.912-.193,3.156,3.156,0,0,0-.714.078,1.963,1.963,0,0,0-.593.246,1.619,1.619,0,0,0-.457.444l-.839-.155.467-4.357h4.453v.9h-3.636l-.313,2.5-.023.107h.023a2.112,2.112,0,0,1,.739-.48,2.885,2.885,0,0,1,1.074-.18,2.616,2.616,0,0,1,1.313.318,2.231,2.231,0,0,1,.87.9,2.778,2.778,0,0,1,.312,1.343,2.854,2.854,0,0,1-.2,1.1,2.339,2.339,0,0,1-.576.834,2.53,2.53,0,0,1-.882.522A3.334,3.334,0,0,1,630.429,142.246Z" fill="gray"/>
        </g>
        <g>
          <path d="M769.453,142.125v-5.808c0-.135,0-.282.006-.438s.01-.317.018-.485a4.311,4.311,0,0,1-.948.69,4.44,4.44,0,0,1-1.1.426l-.252-.877a2.118,2.118,0,0,0,.546-.161,6.281,6.281,0,0,0,.7-.349,6.036,6.036,0,0,0,.678-.449,2.441,2.441,0,0,0,.48-.469h.84v7.92Z" fill="gray"/>
          <path d="M775.369,142.246a2.575,2.575,0,0,1-2.148-1.045,6.134,6.134,0,0,1,0-6.072,2.738,2.738,0,0,1,4.3,0,6.174,6.174,0,0,1,0,6.072A2.57,2.57,0,0,1,775.369,142.246Zm0-.865a1.615,1.615,0,0,0,1.073-.365,2.232,2.232,0,0,0,.661-1.086,7.123,7.123,0,0,0,0-3.529,2.236,2.236,0,0,0-.661-1.086,1.757,1.757,0,0,0-2.147,0,2.228,2.228,0,0,0-.66,1.086,7.123,7.123,0,0,0,0,3.529,2.223,2.223,0,0,0,.66,1.086A1.616,1.616,0,0,0,775.369,141.381Z" fill="gray"/>
          <path d="M782.833,142.246a2.575,2.575,0,0,1-2.148-1.045,6.134,6.134,0,0,1,0-6.072,2.738,2.738,0,0,1,4.3,0,6.174,6.174,0,0,1,0,6.072A2.57,2.57,0,0,1,782.833,142.246Zm0-.865a1.615,1.615,0,0,0,1.073-.365,2.223,2.223,0,0,0,.66-1.086,7.092,7.092,0,0,0,0-3.529,2.228,2.228,0,0,0-.66-1.086,1.757,1.757,0,0,0-2.147,0,2.228,2.228,0,0,0-.66,1.086,7.123,7.123,0,0,0,0,3.529,2.223,2.223,0,0,0,.66,1.086A1.616,1.616,0,0,0,782.833,141.381Z" fill="gray"/>
        </g>
        <g>
          <path d="M407.722,153.109a2.172,2.172,0,0,1,1.183.315,2.094,2.094,0,0,1,.77.889,3.447,3.447,0,0,1,0,2.689,2.088,2.088,0,0,1-.77.889,2.372,2.372,0,0,1-2.359,0,2.07,2.07,0,0,1-.777-.889,3.447,3.447,0,0,1,0-2.689,2.076,2.076,0,0,1,.777-.889A2.181,2.181,0,0,1,407.722,153.109Zm0,.882a1.139,1.139,0,0,0-.672.2,1.166,1.166,0,0,0-.42.566,2.96,2.96,0,0,0,0,1.8,1.17,1.17,0,0,0,.42.574,1.262,1.262,0,0,0,1.351,0,1.19,1.19,0,0,0,.413-.574,2.96,2.96,0,0,0,0-1.8,1.186,1.186,0,0,0-.413-.566A1.132,1.132,0,0,0,407.722,153.991Zm-.266,8.5,5.88-9.24H414.4l-5.88,9.24Zm6.678-4.956a2.172,2.172,0,0,1,1.183.315,2.088,2.088,0,0,1,.77.889,3.447,3.447,0,0,1,0,2.689,2.08,2.08,0,0,1-.77.888,2.366,2.366,0,0,1-2.359,0,2.062,2.062,0,0,1-.777-.888,3.447,3.447,0,0,1,0-2.689,2.07,2.07,0,0,1,.777-.889A2.181,2.181,0,0,1,414.134,157.533Zm0,.882a1.139,1.139,0,0,0-.672.2,1.178,1.178,0,0,0-.42.567,2.96,2.96,0,0,0,0,1.8,1.166,1.166,0,0,0,.42.574,1.262,1.262,0,0,0,1.351,0,1.186,1.186,0,0,0,.413-.574,2.96,2.96,0,0,0,0-1.8,1.2,1.2,0,0,0-.413-.567A1.131,1.131,0,0,0,414.134,158.415Z" fill="#4d4d4d"/>
          <path d="M425.894,155.35a3.494,3.494,0,0,1,1.757.433,3.036,3.036,0,0,1,1.2,1.253,4.611,4.611,0,0,1,0,3.906,3.036,3.036,0,0,1-1.2,1.253,3.759,3.759,0,0,1-3.507,0,3.021,3.021,0,0,1-1.2-1.253,4.611,4.611,0,0,1,0-3.906,3.021,3.021,0,0,1,1.2-1.253A3.5,3.5,0,0,1,425.894,155.35Zm0,.965a2.221,2.221,0,0,0-1.218.322,2.093,2.093,0,0,0-.777.918,3.89,3.89,0,0,0,0,2.863,2.094,2.094,0,0,0,.777.924,2.471,2.471,0,0,0,2.436,0,2.094,2.094,0,0,0,.777-.924,3.89,3.89,0,0,0,0-2.863,2.093,2.093,0,0,0-.777-.918A2.221,2.221,0,0,0,425.894,156.315Z" fill="#4d4d4d"/>
          <path d="M435.274,155.489v.966h-4.858v-.966Zm-1.162-3.29a2.714,2.714,0,0,1,.686.084,1.286,1.286,0,0,1,.5.238l-.294.911a1.144,1.144,0,0,0-.364-.162,1.829,1.829,0,0,0-.434-.049,1.4,1.4,0,0,0-.938.287,1.145,1.145,0,0,0-.336.918v8.063h-1.12v-8.176a2.513,2.513,0,0,1,.14-.854,1.745,1.745,0,0,1,.427-.672,1.938,1.938,0,0,1,.721-.433A2.974,2.974,0,0,1,434.112,152.2Z" fill="#4d4d4d"/>
          <path d="M444.906,155.489v.966h-5.068v-.966Zm-2.548-1.987v7.055a.96.96,0,0,0,.294.77,1.121,1.121,0,0,0,.756.252,1.607,1.607,0,0,0,.7-.14,1.881,1.881,0,0,0,.532-.378l.392.938a2.354,2.354,0,0,1-.763.462,2.842,2.842,0,0,1-1.015.168,2.6,2.6,0,0,1-.994-.189,1.579,1.579,0,0,1-.735-.6,2.013,2.013,0,0,1-.287-1.084v-6.945Z" fill="#4d4d4d"/>
          <path d="M446.571,162.489V152.27h1.12v4.269a2.16,2.16,0,0,1,.967-.91,3.09,3.09,0,0,1,1.316-.279,3.2,3.2,0,0,1,1.372.287,2.291,2.291,0,0,1,.987.875,2.76,2.76,0,0,1,.371,1.5v4.479h-1.121V158.4a2.137,2.137,0,0,0-.5-1.617,1.742,1.742,0,0,0-1.225-.455,2.331,2.331,0,0,0-1.007.238,1.954,1.954,0,0,0-.833.777,2.727,2.727,0,0,0-.33,1.435v3.71Z" fill="#4d4d4d"/>
          <path d="M458.164,162.629a3.572,3.572,0,0,1-1.771-.434,3.013,3.013,0,0,1-1.211-1.253,4.611,4.611,0,0,1,0-3.906,3.052,3.052,0,0,1,1.19-1.253,3.4,3.4,0,0,1,1.722-.433,3.161,3.161,0,0,1,1.673.42,2.766,2.766,0,0,1,1.057,1.14,3.547,3.547,0,0,1,.364,1.617c0,.159,0,.3-.015.434a3.087,3.087,0,0,1-.042.35h-5.655v-.994h5.166l-.575.113a2.091,2.091,0,0,0-.552-1.555,1.979,1.979,0,0,0-1.45-.546,2.158,2.158,0,0,0-1.183.316,2.056,2.056,0,0,0-.77.91,3.435,3.435,0,0,0-.273,1.434,3.361,3.361,0,0,0,.281,1.429,2.066,2.066,0,0,0,.791.916,2.279,2.279,0,0,0,1.225.315,2.386,2.386,0,0,0,1.253-.294,2.244,2.244,0,0,0,.777-.8l.881.518a2.918,2.918,0,0,1-1.645,1.365A3.808,3.808,0,0,1,458.164,162.629Z" fill="#4d4d4d"/>
          <path d="M471.8,153.249a3.378,3.378,0,0,1,2.268.728,2.462,2.462,0,0,1,.854,1.974,2.352,2.352,0,0,1-.861,1.94,3.525,3.525,0,0,1-2.275.693l-.1.069h-2.268v3.836H468.3v-9.24Zm-.014,4.355a2.227,2.227,0,0,0,1.477-.414,1.829,1.829,0,0,0,0-2.477,2.233,2.233,0,0,0-1.477-.414h-2.366V157.6Zm.644.223,3.052,4.662h-1.33l-2.66-4.046Z" fill="#4d4d4d"/>
          <path d="M480.087,162.629a3.572,3.572,0,0,1-1.771-.434,3.013,3.013,0,0,1-1.211-1.253,4.611,4.611,0,0,1,0-3.906,3.052,3.052,0,0,1,1.19-1.253,3.4,3.4,0,0,1,1.722-.433,3.161,3.161,0,0,1,1.673.42,2.766,2.766,0,0,1,1.057,1.14,3.547,3.547,0,0,1,.364,1.617c0,.159,0,.3-.014.434s-.024.248-.042.35H477.4v-.994h5.166l-.574.113a2.088,2.088,0,0,0-.553-1.555,1.978,1.978,0,0,0-1.449-.546,2.153,2.153,0,0,0-1.183.316,2.056,2.056,0,0,0-.77.91,3.419,3.419,0,0,0-.273,1.434,3.361,3.361,0,0,0,.28,1.429,2.066,2.066,0,0,0,.791.916,2.279,2.279,0,0,0,1.225.315,2.384,2.384,0,0,0,1.253-.294,2.235,2.235,0,0,0,.777-.8l.882.518a2.981,2.981,0,0,1-.679.826,2.946,2.946,0,0,1-.966.539A3.819,3.819,0,0,1,480.087,162.629Z" fill="#4d4d4d"/>
          <path d="M487.759,162.629a4.129,4.129,0,0,1-1.883-.434,3.1,3.1,0,0,1-1.323-1.232l.952-.686a2.324,2.324,0,0,0,.9,1.008,2.705,2.705,0,0,0,1.435.364,2.034,2.034,0,0,0,1.162-.287.872.872,0,0,0,.231-1.288,1.2,1.2,0,0,0-.721-.357l-1.68-.35a2.643,2.643,0,0,1-1.463-.7,1.755,1.755,0,0,1-.441-1.219,1.81,1.81,0,0,1,.329-1.05,2.294,2.294,0,0,1,.938-.762,3.326,3.326,0,0,1,1.435-.287,3.477,3.477,0,0,1,1.75.406,2.526,2.526,0,0,1,1.064,1.147l-.938.617a1.668,1.668,0,0,0-.77-.9,2.315,2.315,0,0,0-1.106-.287,2.368,2.368,0,0,0-.861.14,1.241,1.241,0,0,0-.546.385.888.888,0,0,0,.021,1.121,1.321,1.321,0,0,0,.784.371l1.75.363a2.418,2.418,0,0,1,1.372.645,1.6,1.6,0,0,1,.392,1.091,1.952,1.952,0,0,1-.35,1.155,2.216,2.216,0,0,1-.98.763A3.7,3.7,0,0,1,487.759,162.629Z" fill="#4d4d4d"/>
          <path d="M492.617,165.43v-9.941h.98l.1,1.708-.154-.195a2.4,2.4,0,0,1,.546-.861,2.57,2.57,0,0,1,.882-.582,2.972,2.972,0,0,1,1.12-.209,3,3,0,0,1,1.575.433,3.147,3.147,0,0,1,1.155,1.246,4.115,4.115,0,0,1,.434,1.96,4.064,4.064,0,0,1-.441,1.953,3.165,3.165,0,0,1-1.169,1.253,3.063,3.063,0,0,1-1.6.434,2.7,2.7,0,0,1-1.519-.427,2.41,2.41,0,0,1-.931-1.085l.14-.21v4.523Zm3.318-3.781a1.956,1.956,0,0,0,1.617-.727,3.013,3.013,0,0,0,.581-1.933,3.061,3.061,0,0,0-.567-1.932,1.9,1.9,0,0,0-1.589-.728,2.105,2.105,0,0,0-1.176.329,2.187,2.187,0,0,0-.784.924,3.274,3.274,0,0,0-.28,1.407,3.359,3.359,0,0,0,.273,1.4,2.138,2.138,0,0,0,.77.931A2.045,2.045,0,0,0,495.935,161.649Z" fill="#4d4d4d"/>
          <path d="M504.293,155.35a3.494,3.494,0,0,1,1.757.433,3.036,3.036,0,0,1,1.2,1.253,4.611,4.611,0,0,1,0,3.906,3.036,3.036,0,0,1-1.2,1.253,3.759,3.759,0,0,1-3.507,0,3.021,3.021,0,0,1-1.2-1.253,4.611,4.611,0,0,1,0-3.906,3.021,3.021,0,0,1,1.2-1.253A3.5,3.5,0,0,1,504.293,155.35Zm0,.965a2.221,2.221,0,0,0-1.218.322,2.093,2.093,0,0,0-.777.918,3.89,3.89,0,0,0,0,2.863,2.094,2.094,0,0,0,.777.924,2.471,2.471,0,0,0,2.436,0,2.094,2.094,0,0,0,.777-.924,3.89,3.89,0,0,0,0-2.863,2.093,2.093,0,0,0-.777-.918A2.221,2.221,0,0,0,504.293,156.315Z" fill="#4d4d4d"/>
          <path d="M509.794,162.489v-7h.981l.1,1.568-.182-.154a2.408,2.408,0,0,1,.6-.9,2.272,2.272,0,0,1,.875-.5,3.422,3.422,0,0,1,1.03-.154,3.2,3.2,0,0,1,1.372.287,2.291,2.291,0,0,1,.987.875,2.76,2.76,0,0,1,.371,1.5v4.479h-1.12V158.4a2.137,2.137,0,0,0-.5-1.617,1.746,1.746,0,0,0-1.226-.455,2.337,2.337,0,0,0-1.007.238,1.963,1.963,0,0,0-.833.771,2.684,2.684,0,0,0-.329,1.428v3.723Z" fill="#4d4d4d"/>
          <path d="M521.191,162.629a3.061,3.061,0,0,1-1.6-.434,3.108,3.108,0,0,1-1.162-1.253,4.11,4.11,0,0,1-.434-1.953,3.941,3.941,0,0,1,.461-1.973,3.219,3.219,0,0,1,2.843-1.666,2.548,2.548,0,0,1,1.5.447,2.126,2.126,0,0,1,.847,1.19l-.14.1V152.27h1.12v10.219h-.98l-.1-1.694.153-.084a2.029,2.029,0,0,1-.468,1.043,2.415,2.415,0,0,1-.91.651A2.935,2.935,0,0,1,521.191,162.629Zm.112-.98a2.041,2.041,0,0,0,1.169-.336,2.169,2.169,0,0,0,.77-.959,3.62,3.62,0,0,0,.273-1.463,3.163,3.163,0,0,0-.273-1.371,1.985,1.985,0,0,0-1.883-1.191,2,2,0,0,0-1.652.728,2.979,2.979,0,0,0-.588,1.932,3.034,3.034,0,0,0,.574,1.933A1.935,1.935,0,0,0,521.3,161.649Z" fill="#4d4d4d"/>
          <path d="M530.165,162.629a3.572,3.572,0,0,1-1.771-.434,3.007,3.007,0,0,1-1.211-1.253,4.611,4.611,0,0,1,0-3.906,3.052,3.052,0,0,1,1.19-1.253,3.4,3.4,0,0,1,1.722-.433,3.161,3.161,0,0,1,1.673.42,2.772,2.772,0,0,1,1.057,1.14,3.547,3.547,0,0,1,.363,1.617c0,.159,0,.3-.014.434a3.087,3.087,0,0,1-.042.35h-5.655v-.994h5.166l-.575.113a2.091,2.091,0,0,0-.552-1.555,1.981,1.981,0,0,0-1.45-.546,2.158,2.158,0,0,0-1.183.316,2.056,2.056,0,0,0-.77.91,3.435,3.435,0,0,0-.273,1.434,3.361,3.361,0,0,0,.281,1.429,2.066,2.066,0,0,0,.791.916,2.279,2.279,0,0,0,1.225.315,2.386,2.386,0,0,0,1.253-.294,2.244,2.244,0,0,0,.777-.8l.881.518a2.918,2.918,0,0,1-1.645,1.365A3.808,3.808,0,0,1,530.165,162.629Z" fill="#4d4d4d"/>
          <path d="M535.316,162.489v-7h.981l.1,1.568-.182-.154a2.4,2.4,0,0,1,.6-.9,2.272,2.272,0,0,1,.875-.5,3.422,3.422,0,0,1,1.03-.154,3.2,3.2,0,0,1,1.372.287,2.291,2.291,0,0,1,.987.875,2.76,2.76,0,0,1,.371,1.5v4.479h-1.12V158.4a2.137,2.137,0,0,0-.5-1.617,1.746,1.746,0,0,0-1.226-.455,2.337,2.337,0,0,0-1.007.238,1.963,1.963,0,0,0-.833.771,2.684,2.684,0,0,0-.329,1.428v3.723Z" fill="#4d4d4d"/>
          <path d="M548.084,155.489v.966h-5.067v-.966Zm-2.547-1.987v7.055a.956.956,0,0,0,.294.77,1.116,1.116,0,0,0,.755.252,1.612,1.612,0,0,0,.7-.14,1.876,1.876,0,0,0,.531-.378l.392.938a2.339,2.339,0,0,1-.762.462,2.846,2.846,0,0,1-1.015.168,2.607,2.607,0,0,1-1-.189,1.576,1.576,0,0,1-.734-.6,2,2,0,0,1-.287-1.084v-6.945Z" fill="#4d4d4d"/>
          <path d="M552.27,162.629a4.129,4.129,0,0,1-1.883-.434,3.1,3.1,0,0,1-1.323-1.232l.952-.686a2.324,2.324,0,0,0,.9,1.008,2.705,2.705,0,0,0,1.435.364,2.032,2.032,0,0,0,1.162-.287.872.872,0,0,0,.231-1.288,1.2,1.2,0,0,0-.721-.357l-1.68-.35a2.643,2.643,0,0,1-1.463-.7,1.755,1.755,0,0,1-.441-1.219,1.81,1.81,0,0,1,.329-1.05,2.294,2.294,0,0,1,.938-.762,3.326,3.326,0,0,1,1.435-.287,3.477,3.477,0,0,1,1.75.406,2.521,2.521,0,0,1,1.064,1.147l-.938.617a1.668,1.668,0,0,0-.77-.9,2.312,2.312,0,0,0-1.106-.287,2.368,2.368,0,0,0-.861.14,1.241,1.241,0,0,0-.546.385.888.888,0,0,0,.021,1.121,1.324,1.324,0,0,0,.784.371l1.75.363a2.418,2.418,0,0,1,1.372.645,1.6,1.6,0,0,1,.392,1.091,1.952,1.952,0,0,1-.35,1.155,2.21,2.21,0,0,1-.98.763A3.7,3.7,0,0,1,552.27,162.629Z" fill="#4d4d4d"/>
        </g>
        <g>
          <line x1="153.181" y1="130.327" x2="153.181" y2="126.327" fill="none" stroke="#ccc" stroke-miterlimit="10"/>
          <line x1="311.132" y1="130.327" x2="311.132" y2="126.327" fill="none" stroke="#ccc" stroke-miterlimit="10"/>
          <line x1="469.084" y1="130.327" x2="469.084" y2="126.327" fill="none" stroke="#ccc" stroke-miterlimit="10"/>
          <line x1="627.049" y1="130.327" x2="627.049" y2="126.327" fill="none" stroke="#ccc" stroke-miterlimit="10"/>
          <line x1="785" y1="130.327" x2="785" y2="126.327" fill="none" stroke="#ccc" stroke-miterlimit="10"/>
          <line x1="153" y1="126.5" x2="785" y2="126.5" fill="none" stroke="#ccc" stroke-miterlimit="10"/>
        </g>
      </g>
    </g>
    <g>
      <rect x="153.299" y="59.987" width="10.211" height="10.211" rx="3" fill="#64b5f6"/>
      <rect x="244.799" y="59.987" width="10.211" height="10.211" rx="3" fill="#ffb74d"/>
      <g>
        <path d="M178.285,64.175a1.414,1.414,0,0,0-.361-1.038,1.364,1.364,0,0,0-1.019-.366,1.952,1.952,0,0,0-1.056.27,1.582,1.582,0,0,0-.637.869l-.779-.479a2.107,2.107,0,0,1,.887-1.086,2.925,2.925,0,0,1,1.609-.414,3.022,3.022,0,0,1,1.175.221,1.857,1.857,0,0,1,.834.672,2.015,2.015,0,0,1,.307,1.158v2.905c0,.288.151.431.456.431a1.656,1.656,0,0,0,.444-.059l-.048.756a1.4,1.4,0,0,1-.624.12,1.425,1.425,0,0,1-.624-.132.975.975,0,0,1-.432-.4,1.329,1.329,0,0,1-.156-.678V66.8l.239.036a1.581,1.581,0,0,1-.491.762,2.275,2.275,0,0,1-.78.432,2.8,2.8,0,0,1-.853.138,2.627,2.627,0,0,1-.983-.181,1.6,1.6,0,0,1-.726-.545,1.616,1.616,0,0,1,.18-2.016,2.4,2.4,0,0,1,1.254-.594l2.376-.468v.791l-1.933.4a2.205,2.205,0,0,0-.876.336.708.708,0,0,0-.288.6.744.744,0,0,0,.294.607,1.313,1.313,0,0,0,.835.233,2.389,2.389,0,0,0,.665-.09,1.738,1.738,0,0,0,.571-.275,1.315,1.315,0,0,0,.4-.469,1.454,1.454,0,0,0,.144-.666Z" fill="gray"/>
        <path d="M181.573,68.051v-6h.84L182.5,63.4l-.157-.132a2.086,2.086,0,0,1,.516-.775,1.99,1.99,0,0,1,.75-.426,3.006,3.006,0,0,1,.883-.131,2.757,2.757,0,0,1,1.176.246,1.97,1.97,0,0,1,.846.75,2.368,2.368,0,0,1,.318,1.284v3.84h-.96v-3.5a1.829,1.829,0,0,0-.427-1.387,1.492,1.492,0,0,0-1.049-.389,2.009,2.009,0,0,0-.865.2,1.688,1.688,0,0,0-.714.66,2.311,2.311,0,0,0-.281,1.224v3.192Z" fill="gray"/>
        <path d="M192.5,64.175a1.418,1.418,0,0,0-.36-1.038,1.365,1.365,0,0,0-1.019-.366,1.956,1.956,0,0,0-1.057.27,1.576,1.576,0,0,0-.636.869l-.78-.479a2.109,2.109,0,0,1,.888-1.086,2.921,2.921,0,0,1,1.608-.414,3.024,3.024,0,0,1,1.176.221,1.863,1.863,0,0,1,.834.672,2.023,2.023,0,0,1,.306,1.158v2.905c0,.288.152.431.456.431a1.65,1.65,0,0,0,.444-.059l-.048.756a1.4,1.4,0,0,1-.624.12,1.429,1.429,0,0,1-.624-.132.975.975,0,0,1-.432-.4,1.339,1.339,0,0,1-.156-.678V66.8l.24.036a1.588,1.588,0,0,1-.491.762,2.279,2.279,0,0,1-.781.432,2.789,2.789,0,0,1-.852.138,2.636,2.636,0,0,1-.984-.181,1.607,1.607,0,0,1-.726-.545,1.62,1.62,0,0,1,.18-2.016,2.408,2.408,0,0,1,1.254-.594l2.376-.468v.791l-1.932.4a2.205,2.205,0,0,0-.876.336.706.706,0,0,0-.288.6.741.741,0,0,0,.294.607,1.311,1.311,0,0,0,.835.233,2.394,2.394,0,0,0,.665-.09,1.733,1.733,0,0,0,.57-.275,1.305,1.305,0,0,0,.4-.469,1.441,1.441,0,0,0,.144-.666Z" fill="gray"/>
        <path d="M196.7,59.291v7.236a.9.9,0,0,0,.168.629.72.72,0,0,0,.54.174,1.878,1.878,0,0,0,.4-.035,3.661,3.661,0,0,0,.42-.133l-.156.841a1.906,1.906,0,0,1-.42.126,2.671,2.671,0,0,1-.468.042,1.384,1.384,0,0,1-1.086-.4,1.777,1.777,0,0,1-.354-1.213V59.291Z" fill="gray"/>
        <path d="M204.1,62.051l-2.82,7.008a3.566,3.566,0,0,1-.5.929,1.614,1.614,0,0,1-.6.492,1.823,1.823,0,0,1-.761.151,2.355,2.355,0,0,1-.75-.114,2.21,2.21,0,0,1-.606-.306l.263-.84a1.617,1.617,0,0,0,.51.318,1.5,1.5,0,0,0,.534.1,1.017,1.017,0,0,0,.589-.192,1.683,1.683,0,0,0,.5-.781l.312-.779-.6-1.428-1.908-4.56h1.092l1.5,3.912.373,1.068.431-1.188,1.4-3.792Z" fill="gray"/>
        <path d="M208.956,62.051v.828h-4.344v-.828Zm-2.184-1.7V66.4a.823.823,0,0,0,.252.66.961.961,0,0,0,.648.216,1.384,1.384,0,0,0,.6-.121,1.617,1.617,0,0,0,.456-.324l.336.805a2.03,2.03,0,0,1-.654.4,2.434,2.434,0,0,1-.87.144,2.228,2.228,0,0,1-.852-.162,1.353,1.353,0,0,1-.63-.517,1.723,1.723,0,0,1-.246-.93V60.611Z" fill="gray"/>
        <path d="M210.864,60.9a.679.679,0,1,1,.522-.2A.705.705,0,0,1,210.864,60.9Zm.48,1.153v6h-.96v-6Z" fill="gray"/>
        <path d="M216.06,61.931a2.909,2.909,0,0,1,1.1.192,2.364,2.364,0,0,1,.822.552,2.863,2.863,0,0,1,.564.852l-.912.432a1.816,1.816,0,0,0-.582-.883,1.6,1.6,0,0,0-1.014-.3,1.908,1.908,0,0,0-1.032.27,1.715,1.715,0,0,0-.66.779,3.418,3.418,0,0,0,0,2.455,1.713,1.713,0,0,0,.66.786,1.916,1.916,0,0,0,1.032.269,2.1,2.1,0,0,0,.81-.142,1.426,1.426,0,0,0,.564-.421,1.575,1.575,0,0,0,.306-.672l.888.311a2.922,2.922,0,0,1-.558.949,2.367,2.367,0,0,1-.852.606,2.9,2.9,0,0,1-1.134.21,3,3,0,0,1-1.5-.372,2.6,2.6,0,0,1-1.032-1.074,3.952,3.952,0,0,1,0-3.348A2.591,2.591,0,0,1,214.56,62.3,3,3,0,0,1,216.06,61.931Z" fill="gray"/>
        <path d="M223.8,64.175a1.418,1.418,0,0,0-.36-1.038,1.366,1.366,0,0,0-1.02-.366,1.955,1.955,0,0,0-1.056.27,1.576,1.576,0,0,0-.636.869l-.78-.479a2.109,2.109,0,0,1,.888-1.086,2.921,2.921,0,0,1,1.608-.414,3.024,3.024,0,0,1,1.176.221,1.863,1.863,0,0,1,.834.672,2.023,2.023,0,0,1,.306,1.158v2.905c0,.288.152.431.456.431a1.65,1.65,0,0,0,.444-.059l-.048.756a1.4,1.4,0,0,1-.624.12,1.429,1.429,0,0,1-.624-.132.975.975,0,0,1-.432-.4,1.339,1.339,0,0,1-.156-.678V66.8l.24.036a1.59,1.59,0,0,1-.492.762,2.266,2.266,0,0,1-.78.432,2.789,2.789,0,0,1-.852.138,2.636,2.636,0,0,1-.984-.181,1.607,1.607,0,0,1-.726-.545,1.62,1.62,0,0,1,.18-2.016,2.408,2.408,0,0,1,1.254-.594l2.376-.468v.791l-1.932.4a2.205,2.205,0,0,0-.876.336.706.706,0,0,0-.288.6.741.741,0,0,0,.294.607,1.31,1.31,0,0,0,.834.233,2.4,2.4,0,0,0,.666-.09,1.733,1.733,0,0,0,.57-.275,1.305,1.305,0,0,0,.4-.469,1.441,1.441,0,0,0,.144-.666Z" fill="gray"/>
        <path d="M228,59.291v7.236a.909.909,0,0,0,.167.629.722.722,0,0,0,.541.174,1.878,1.878,0,0,0,.4-.035,3.6,3.6,0,0,0,.419-.133l-.155.841a1.906,1.906,0,0,1-.42.126,2.682,2.682,0,0,1-.469.042,1.382,1.382,0,0,1-1.085-.4,1.777,1.777,0,0,1-.354-1.213V59.291Z" fill="gray"/>
      </g>
      <g>
        <path d="M266.658,61.931a2.909,2.909,0,0,1,1.1.192,2.364,2.364,0,0,1,.822.552,2.863,2.863,0,0,1,.564.852l-.912.432a1.816,1.816,0,0,0-.582-.883,1.6,1.6,0,0,0-1.014-.3,1.908,1.908,0,0,0-1.032.27,1.715,1.715,0,0,0-.66.779,3.418,3.418,0,0,0,0,2.455,1.713,1.713,0,0,0,.66.786,1.916,1.916,0,0,0,1.032.269,2.1,2.1,0,0,0,.81-.142,1.426,1.426,0,0,0,.564-.421,1.575,1.575,0,0,0,.306-.672l.888.311a2.922,2.922,0,0,1-.558.949,2.367,2.367,0,0,1-.852.606,2.9,2.9,0,0,1-1.134.21,3,3,0,0,1-1.5-.372,2.6,2.6,0,0,1-1.032-1.074,3.952,3.952,0,0,1,0-3.348,2.591,2.591,0,0,1,1.032-1.074A3,3,0,0,1,266.658,61.931Z" fill="gray"/>
        <path d="M270.9,68.051v-6h.779l.132.984a1.761,1.761,0,0,1,.738-.828,2.361,2.361,0,0,1,1.183-.276,2.685,2.685,0,0,1,.341.024.9.9,0,0,1,.318.1l-.168.876a1.516,1.516,0,0,0-.288-.072,3.087,3.087,0,0,0-.444-.025,1.494,1.494,0,0,0-.75.217,1.705,1.705,0,0,0-.63.654,2.2,2.2,0,0,0-.252,1.11v3.24Z" fill="gray"/>
        <path d="M278.106,68.171a3.06,3.06,0,0,1-1.518-.372,2.586,2.586,0,0,1-1.038-1.074,3.953,3.953,0,0,1,0-3.348,2.613,2.613,0,0,1,1.02-1.074,2.911,2.911,0,0,1,1.476-.372,2.716,2.716,0,0,1,1.434.36,2.373,2.373,0,0,1,.906.978,3.03,3.03,0,0,1,.312,1.385c0,.137,0,.261-.012.373a2.789,2.789,0,0,1-.036.3H275.8v-.851h4.428l-.492.095a1.79,1.79,0,0,0-.474-1.332,1.7,1.7,0,0,0-1.242-.467,1.854,1.854,0,0,0-1.014.27,1.764,1.764,0,0,0-.66.779,2.939,2.939,0,0,0-.234,1.231,2.88,2.88,0,0,0,.24,1.224,1.772,1.772,0,0,0,.678.786,1.971,1.971,0,0,0,1.05.269,2.042,2.042,0,0,0,1.074-.252,1.913,1.913,0,0,0,.666-.683l.756.444a2.509,2.509,0,0,1-1.41,1.17A3.271,3.271,0,0,1,278.106,68.171Z" fill="gray"/>
        <path d="M286.026,64.175a1.418,1.418,0,0,0-.36-1.038,1.366,1.366,0,0,0-1.02-.366,1.955,1.955,0,0,0-1.056.27,1.576,1.576,0,0,0-.636.869l-.78-.479a2.109,2.109,0,0,1,.888-1.086,2.921,2.921,0,0,1,1.608-.414,3.024,3.024,0,0,1,1.176.221,1.863,1.863,0,0,1,.834.672,2.023,2.023,0,0,1,.306,1.158v2.905c0,.288.152.431.456.431a1.65,1.65,0,0,0,.444-.059l-.048.756a1.4,1.4,0,0,1-.624.12A1.429,1.429,0,0,1,286.59,68a.975.975,0,0,1-.432-.4,1.339,1.339,0,0,1-.156-.678V66.8l.24.036a1.59,1.59,0,0,1-.492.762,2.266,2.266,0,0,1-.78.432,2.789,2.789,0,0,1-.852.138,2.636,2.636,0,0,1-.984-.181,1.607,1.607,0,0,1-.726-.545,1.62,1.62,0,0,1,.18-2.016,2.408,2.408,0,0,1,1.254-.594l2.376-.468v.791l-1.932.4a2.205,2.205,0,0,0-.876.336.706.706,0,0,0-.288.6.741.741,0,0,0,.294.607,1.31,1.31,0,0,0,.834.233,2.4,2.4,0,0,0,.666-.09,1.733,1.733,0,0,0,.57-.275,1.305,1.305,0,0,0,.4-.469,1.441,1.441,0,0,0,.144-.666Z" fill="gray"/>
        <path d="M292.674,62.051v.828H288.33v-.828Zm-2.184-1.7V66.4a.823.823,0,0,0,.252.66.961.961,0,0,0,.648.216,1.384,1.384,0,0,0,.6-.121,1.617,1.617,0,0,0,.456-.324l.336.805a2.03,2.03,0,0,1-.654.4,2.434,2.434,0,0,1-.87.144,2.228,2.228,0,0,1-.852-.162,1.353,1.353,0,0,1-.63-.517,1.723,1.723,0,0,1-.246-.93V60.611Z" fill="gray"/>
        <path d="M294.582,60.9a.679.679,0,1,1,.522-.2A.705.705,0,0,1,294.582,60.9Zm.48,1.153v6h-.96v-6Z" fill="gray"/>
        <path d="M301.266,62.051h1.008l-2.5,6h-.96l-2.5-6h1.092l1.9,5.027Z" fill="gray"/>
        <path d="M306.042,68.171a3.06,3.06,0,0,1-1.518-.372,2.586,2.586,0,0,1-1.038-1.074,3.953,3.953,0,0,1,0-3.348,2.613,2.613,0,0,1,1.02-1.074,2.911,2.911,0,0,1,1.476-.372,2.716,2.716,0,0,1,1.434.36,2.373,2.373,0,0,1,.906.978,3.03,3.03,0,0,1,.312,1.385c0,.137,0,.261-.012.373a2.789,2.789,0,0,1-.036.3h-4.848v-.851h4.428l-.492.095a1.79,1.79,0,0,0-.474-1.332,1.7,1.7,0,0,0-1.242-.467,1.854,1.854,0,0,0-1.014.27,1.764,1.764,0,0,0-.66.779,2.939,2.939,0,0,0-.234,1.231,2.88,2.88,0,0,0,.24,1.224,1.772,1.772,0,0,0,.678.786,1.971,1.971,0,0,0,1.05.269,2.042,2.042,0,0,0,1.074-.252,1.913,1.913,0,0,0,.666-.683l.756.444a2.509,2.509,0,0,1-1.41,1.17A3.271,3.271,0,0,1,306.042,68.171Z" fill="gray"/>
      </g>
      <rect x="325.799" y="59.987" width="10.211" height="10.211" rx="3" fill="#999"/>
      <g>
        <path d="M347.346,68.171a2.756,2.756,0,0,1-1.086-.216,1.832,1.832,0,0,1-.828-.7,2.277,2.277,0,0,1-.318-1.267V62.051h.96v3.683a1.6,1.6,0,0,0,.4,1.254,1.65,1.65,0,0,0,1.116.342,1.974,1.974,0,0,0,.66-.113,1.611,1.611,0,0,0,.582-.36,1.727,1.727,0,0,0,.408-.63,2.506,2.506,0,0,0,.15-.913V62.051h.96v6h-.84l-.06-.912a1.865,1.865,0,0,1-.846.786A2.972,2.972,0,0,1,347.346,68.171Z" fill="gray"/>
        <path d="M352.578,68.051v-6h.84L353.5,63.4l-.156-.132a2.074,2.074,0,0,1,.516-.775,1.982,1.982,0,0,1,.75-.426,3,3,0,0,1,.882-.131,2.751,2.751,0,0,1,1.176.246,1.964,1.964,0,0,1,.846.75,2.368,2.368,0,0,1,.318,1.284v3.84h-.96v-3.5a1.833,1.833,0,0,0-.426-1.387,1.5,1.5,0,0,0-1.05-.389,2.008,2.008,0,0,0-.864.2,1.682,1.682,0,0,0-.714.66,2.31,2.31,0,0,0-.282,1.224v3.192Z" fill="gray"/>
        <path d="M360.966,59.291v8.76h-.96v-8.76Zm4.307,2.76-2.591,2.592-.228.228-1.968,1.968v-1.2l3.576-3.588Zm-2.507,2.1,2.651,3.9h-1.164l-2.292-3.36Z" fill="gray"/>
        <path d="M366.81,68.051v-6h.84l.084,1.344-.156-.132a2.074,2.074,0,0,1,.516-.775,1.982,1.982,0,0,1,.75-.426,3,3,0,0,1,.882-.131,2.751,2.751,0,0,1,1.176.246,1.964,1.964,0,0,1,.846.75,2.368,2.368,0,0,1,.318,1.284v3.84h-.96v-3.5a1.833,1.833,0,0,0-.426-1.387,1.5,1.5,0,0,0-1.05-.389,2.008,2.008,0,0,0-.864.2,1.682,1.682,0,0,0-.714.66,2.31,2.31,0,0,0-.282,1.224v3.192Z" fill="gray"/>
        <path d="M376.722,61.931a2.992,2.992,0,0,1,1.506.372,2.6,2.6,0,0,1,1.025,1.074,3.952,3.952,0,0,1,0,3.348,2.605,2.605,0,0,1-1.025,1.074,3.222,3.222,0,0,1-3.006,0,2.6,2.6,0,0,1-1.033-1.074,3.953,3.953,0,0,1,0-3.348,2.6,2.6,0,0,1,1.033-1.074A3,3,0,0,1,376.722,61.931Zm0,.828a1.9,1.9,0,0,0-1.044.276,1.783,1.783,0,0,0-.666.785,3.323,3.323,0,0,0,0,2.455,1.772,1.772,0,0,0,.666.791,2.106,2.106,0,0,0,2.088,0,1.785,1.785,0,0,0,.666-.791,3.337,3.337,0,0,0,0-2.455,1.8,1.8,0,0,0-.666-.785A1.91,1.91,0,0,0,376.722,62.759Z" fill="gray"/>
        <path d="M388.77,62.051h1.067l-2.087,6h-.96L385.1,63.275l-1.6,4.776h-.959l-2.088-6h1.067l1.512,4.884,1.633-4.884h.959l1.632,4.884Z" fill="gray"/>
        <path d="M391.278,68.051v-6h.84L392.2,63.4l-.157-.132a2.076,2.076,0,0,1,.517-.775,1.975,1.975,0,0,1,.75-.426,3,3,0,0,1,.882-.131,2.754,2.754,0,0,1,1.176.246,1.97,1.97,0,0,1,.846.75,2.368,2.368,0,0,1,.318,1.284v3.84h-.96v-3.5a1.829,1.829,0,0,0-.427-1.387,1.492,1.492,0,0,0-1.049-.389,2.012,2.012,0,0,0-.865.2,1.686,1.686,0,0,0-.713.66,2.31,2.31,0,0,0-.282,1.224v3.192Z" fill="gray"/>
      </g>
    </g>
    <g>
      <path d="M157.3,99.953a3.559,3.559,0,0,1-2.023-.532,3.615,3.615,0,0,1-1.253-1.54l1.4-.729a2.622,2.622,0,0,0,.637,1.1,1.718,1.718,0,0,0,1.267.428,2.124,2.124,0,0,0,1-.218,1.532,1.532,0,0,0,.637-.616,1.935,1.935,0,0,0,.224-.959,2.07,2.07,0,0,0-.209-.98,1.4,1.4,0,0,0-.6-.595,2.121,2.121,0,0,0-.98-.2,3.236,3.236,0,0,0-.756.084,2.132,2.132,0,0,0-.63.259,1.787,1.787,0,0,0-.489.455l-1.233-.238.56-5.1h5.376v1.289h-4.186l-.336,2.6-.028.154h.028a2.17,2.17,0,0,1,.833-.547,3.394,3.394,0,0,1,1.211-.2,3.038,3.038,0,0,1,1.54.371,2.645,2.645,0,0,1,1.008,1.029,3.1,3.1,0,0,1,.364,1.526,3.375,3.375,0,0,1-.252,1.343,2.73,2.73,0,0,1-.714,1,3.067,3.067,0,0,1-1.071.609A4.169,4.169,0,0,1,157.3,99.953Z" fill="gray"/>
      <path d="M165.768,90.447a4.062,4.062,0,0,1,1.631.3,2.441,2.441,0,0,1,1.071.848,2.25,2.25,0,0,1,.378,1.315,2.28,2.28,0,0,1-.343,1.253,2.13,2.13,0,0,1-1,.818V95a2.848,2.848,0,0,1,1.267.875,2.211,2.211,0,0,1,.469,1.435,2.346,2.346,0,0,1-.427,1.407,2.72,2.72,0,0,1-1.2.917,5.424,5.424,0,0,1-3.682,0,2.764,2.764,0,0,1-1.211-.917,2.324,2.324,0,0,1-.434-1.407,2.24,2.24,0,0,1,.462-1.428A2.761,2.761,0,0,1,164.032,95v-.015a2.159,2.159,0,0,1-1.358-2.071,2.218,2.218,0,0,1,.385-1.315,2.483,2.483,0,0,1,1.085-.848A4.078,4.078,0,0,1,165.768,90.447Zm0,8.246a2.717,2.717,0,0,0,1.05-.181,1.48,1.48,0,0,0,.672-.533,1.43,1.43,0,0,0,.238-.827,1.373,1.373,0,0,0-.245-.818,1.54,1.54,0,0,0-.679-.525,2.677,2.677,0,0,0-1.036-.182,2.745,2.745,0,0,0-1.036.182,1.516,1.516,0,0,0-.693.532,1.51,1.51,0,0,0-.007,1.638,1.474,1.474,0,0,0,.686.533A2.788,2.788,0,0,0,165.768,98.693Zm-.014-6.986a1.8,1.8,0,0,0-1.169.357,1.215,1.215,0,0,0-.441,1,1.193,1.193,0,0,0,.448.988,1.832,1.832,0,0,0,1.176.357,1.8,1.8,0,0,0,1.169-.357,1.2,1.2,0,0,0,.441-.988,1.233,1.233,0,0,0-.434-.994A1.8,1.8,0,0,0,165.754,91.707Z" fill="gray"/>
      <path d="M172.95,90.434a2.328,2.328,0,0,1,1.239.321,2.166,2.166,0,0,1,.812.9,3.34,3.34,0,0,1,0,2.709,2.145,2.145,0,0,1-.812.905,2.538,2.538,0,0,1-2.471,0,2.128,2.128,0,0,1-.819-.905,3.34,3.34,0,0,1,0-2.709,2.149,2.149,0,0,1,.819-.9A2.335,2.335,0,0,1,172.95,90.434Zm0,1.091a1.032,1.032,0,0,0-.6.175,1.044,1.044,0,0,0-.378.5,2.612,2.612,0,0,0,0,1.6,1.008,1.008,0,0,0,.378.5,1.059,1.059,0,0,0,.6.168,1.087,1.087,0,0,0,.616-.168,1.008,1.008,0,0,0,.378-.5,2.612,2.612,0,0,0,0-1.6,1.064,1.064,0,0,0-.371-.5A1.052,1.052,0,0,0,172.95,91.525Zm-.364,8.287,6.048-9.24h1.288l-6.034,9.24Zm6.972-5.011a2.32,2.32,0,0,1,1.239.322,2.161,2.161,0,0,1,.812.9,3.34,3.34,0,0,1,0,2.709,2.166,2.166,0,0,1-.812.9,2.531,2.531,0,0,1-2.471,0,2.142,2.142,0,0,1-.819-.9,3.34,3.34,0,0,1,0-2.709,2.137,2.137,0,0,1,.819-.9A2.327,2.327,0,0,1,179.558,94.8Zm0,1.106a1.059,1.059,0,0,0-.6.168,1.019,1.019,0,0,0-.378.5,2.612,2.612,0,0,0,0,1.6,1.054,1.054,0,0,0,.378.511,1.025,1.025,0,0,0,.6.175.989.989,0,0,0,.994-.686,2.231,2.231,0,0,0,.126-.784,2.32,2.32,0,0,0-.126-.812,1.03,1.03,0,0,0-.371-.5A1.077,1.077,0,0,0,179.558,95.907Z" fill="gray"/>
    </g>
    <g>
      <path d="M518.122,99.812V93.471c0-.187,0-.38.007-.58s.012-.414.021-.638a4.887,4.887,0,0,1-1.085.791,4.746,4.746,0,0,1-1.253.47l-.28-1.3a3.145,3.145,0,0,0,.686-.195,6.726,6.726,0,0,0,.812-.393,6.091,6.091,0,0,0,.77-.512,2.792,2.792,0,0,0,.546-.539h1.26v9.24Z" fill="gray"/>
      <path d="M524.926,99.953a3.559,3.559,0,0,1-2.023-.532,3.615,3.615,0,0,1-1.253-1.54l1.4-.729a2.622,2.622,0,0,0,.637,1.1,1.718,1.718,0,0,0,1.267.428,2.124,2.124,0,0,0,1-.218,1.538,1.538,0,0,0,.637-.616,1.935,1.935,0,0,0,.224-.959,2.057,2.057,0,0,0-.21-.98,1.4,1.4,0,0,0-.6-.595,2.121,2.121,0,0,0-.98-.2,3.23,3.23,0,0,0-.756.084,2.132,2.132,0,0,0-.63.259,1.8,1.8,0,0,0-.49.455l-1.232-.238.56-5.1h5.376v1.289h-4.186l-.336,2.6-.028.154h.028a2.17,2.17,0,0,1,.833-.547,3.394,3.394,0,0,1,1.211-.2,3.038,3.038,0,0,1,1.54.371,2.645,2.645,0,0,1,1.008,1.029,3.1,3.1,0,0,1,.364,1.526,3.375,3.375,0,0,1-.252,1.343,2.73,2.73,0,0,1-.714,1,3.067,3.067,0,0,1-1.071.609A4.169,4.169,0,0,1,524.926,99.953Z" fill="gray"/>
      <path d="M531.912,90.434a2.328,2.328,0,0,1,1.239.321,2.166,2.166,0,0,1,.812.9,3.34,3.34,0,0,1,0,2.709,2.145,2.145,0,0,1-.812.905,2.538,2.538,0,0,1-2.471,0,2.128,2.128,0,0,1-.819-.905,3.34,3.34,0,0,1,0-2.709,2.149,2.149,0,0,1,.819-.9A2.338,2.338,0,0,1,531.912,90.434Zm0,1.091a.992.992,0,0,0-.98.679,2.612,2.612,0,0,0,0,1.6,1.008,1.008,0,0,0,.378.5,1.061,1.061,0,0,0,.6.168,1.085,1.085,0,0,0,.616-.168,1.008,1.008,0,0,0,.378-.5,2.612,2.612,0,0,0,0-1.6,1.064,1.064,0,0,0-.371-.5A1.05,1.05,0,0,0,531.912,91.525Zm-.364,8.287,6.048-9.24h1.288l-6.034,9.24ZM538.52,94.8a2.32,2.32,0,0,1,1.239.322,2.154,2.154,0,0,1,.812.9,3.34,3.34,0,0,1,0,2.709,2.159,2.159,0,0,1-.812.9,2.531,2.531,0,0,1-2.471,0,2.142,2.142,0,0,1-.819-.9,3.34,3.34,0,0,1,0-2.709,2.137,2.137,0,0,1,.819-.9A2.329,2.329,0,0,1,538.52,94.8Zm0,1.106a1.061,1.061,0,0,0-.6.168,1.019,1.019,0,0,0-.378.5,2.612,2.612,0,0,0,0,1.6,1.054,1.054,0,0,0,.378.511,1.027,1.027,0,0,0,.6.175.989.989,0,0,0,.994-.686,2.231,2.231,0,0,0,.126-.784,2.32,2.32,0,0,0-.126-.812,1.03,1.03,0,0,0-.371-.5A1.077,1.077,0,0,0,538.52,95.907Z" fill="gray"/>
    </g>
    <g>
      <path d="M615.26,99.812V98.721q1.329-.953,2.233-1.68a12.038,12.038,0,0,0,1.449-1.344,4.6,4.6,0,0,0,.791-1.17,2.76,2.76,0,0,0,.246-1.127,1.628,1.628,0,0,0-.463-1.2,1.969,1.969,0,0,0-2.666.119,2.593,2.593,0,0,0-.582,1.588l-1.3-.6a3.433,3.433,0,0,1,.517-1.526,2.794,2.794,0,0,1,1.141-.994,3.794,3.794,0,0,1,1.674-.349,3.922,3.922,0,0,1,1.379.223,2.853,2.853,0,0,1,1,.622,2.755,2.755,0,0,1,.623.932,2.986,2.986,0,0,1,.217,1.135,3.587,3.587,0,0,1-.434,1.7,6.363,6.363,0,0,1-1.371,1.673,18.68,18.68,0,0,1-2.465,1.834v.028a3.468,3.468,0,0,1,.463-.035l.588-.014c.2,0,.353-.007.475-.007h2.912v1.287Z" fill="gray"/>
      <path d="M622.765,90.572h7.042v1.246a12.14,12.14,0,0,0-1.876,2.472,9.861,9.861,0,0,0-1.03,2.632,12.826,12.826,0,0,0-.315,2.89h-1.512a11.766,11.766,0,0,1,.385-3,10.931,10.931,0,0,1,1.176-2.8,12.193,12.193,0,0,1,2-2.513l.279.378h-6.145Z" fill="gray"/>
      <path d="M633.139,90.434a2.327,2.327,0,0,1,1.238.321,2.166,2.166,0,0,1,.812.9,3.329,3.329,0,0,1,0,2.709,2.145,2.145,0,0,1-.812.905,2.538,2.538,0,0,1-2.471,0,2.119,2.119,0,0,1-.818-.905,3.34,3.34,0,0,1,0-2.709,2.14,2.14,0,0,1,.818-.9A2.341,2.341,0,0,1,633.139,90.434Zm0,1.091a1.033,1.033,0,0,0-.6.175,1.044,1.044,0,0,0-.378.5,2.612,2.612,0,0,0,0,1.6,1.008,1.008,0,0,0,.378.5,1.06,1.06,0,0,0,.6.168,1.084,1.084,0,0,0,.615-.168,1.009,1.009,0,0,0,.379-.5,2.632,2.632,0,0,0,0-1.6,1.07,1.07,0,0,0-.371-.5A1.052,1.052,0,0,0,633.139,91.525Zm-.365,8.287,6.048-9.24h1.288l-6.034,9.24Zm6.972-5.011a2.317,2.317,0,0,1,1.239.322,2.154,2.154,0,0,1,.812.9,3.34,3.34,0,0,1,0,2.709,2.159,2.159,0,0,1-.812.9,2.531,2.531,0,0,1-2.471,0,2.148,2.148,0,0,1-.819-.9,3.34,3.34,0,0,1,0-2.709,2.144,2.144,0,0,1,.819-.9A2.329,2.329,0,0,1,639.746,94.8Zm0,1.106a1.055,1.055,0,0,0-.6.168,1.021,1.021,0,0,0-.379.5,2.632,2.632,0,0,0,0,1.6,1.056,1.056,0,0,0,.379.511,1.022,1.022,0,0,0,.6.175.989.989,0,0,0,.994-.686,2.231,2.231,0,0,0,.126-.784,2.32,2.32,0,0,0-.126-.812,1.03,1.03,0,0,0-.371-.5A1.077,1.077,0,0,0,639.746,95.907Z" fill="gray"/>
    </g>
  </g>
</svg>
