<svg xmlns="http://www.w3.org/2000/svg" viewBox="0 0 940 198">
  <g id="background">
    <rect x="2" width="936" height="198" fill="#fff"/>
    <rect x="137" y="44" width="666" height="136" rx="5" fill="#f5f5f5"/>
  </g>
  <g id="texts">
    <g>
      <path d="M143.156,15.391a5.092,5.092,0,0,1,1.692.26,3.361,3.361,0,0,1,1.287.819,4.364,4.364,0,0,1,.909,1.458l-1.692.81a2.559,2.559,0,0,0-.8-1.223,2.334,2.334,0,0,0-1.521-.451,2.28,2.28,0,0,0-1.242.342,2.9,2.9,0,0,0-.918.963,5.012,5.012,0,0,0-.576,1.458,7.848,7.848,0,0,0-.2,1.809v.324l.072.036a2.291,2.291,0,0,1,.711-1.161,3.425,3.425,0,0,1,1.161-.657,4.02,4.02,0,0,1,1.278-.216,4.425,4.425,0,0,1,2.07.459,3.36,3.36,0,0,1,1.377,1.306,4.339,4.339,0,0,1-.027,4.076,3.53,3.53,0,0,1-1.449,1.35,4.806,4.806,0,0,1-2.223.477,4.323,4.323,0,0,1-2.574-.756,4.714,4.714,0,0,1-1.62-2.124,8.44,8.44,0,0,1-.558-3.2,8.02,8.02,0,0,1,.639-3.4,4.71,4.71,0,0,1,1.737-2.062A4.523,4.523,0,0,1,143.156,15.391Zm-.126,6.173a2.52,2.52,0,0,0-1.206.279,2.1,2.1,0,0,0-.819.765,2.136,2.136,0,0,0-.3,1.134,2.1,2.1,0,0,0,.315,1.134,2.327,2.327,0,0,0,2.007,1.1,2.353,2.353,0,0,0,1.71-.6,2.18,2.18,0,0,0,.612-1.638,2.391,2.391,0,0,0-.27-1.161,1.8,1.8,0,0,0-.783-.756A2.78,2.78,0,0,0,143.03,21.564Z" fill="#333"/>
      <path d="M153.884,27.63a4.022,4.022,0,0,1-3.357-1.557,7.308,7.308,0,0,1-1.215-4.563,7.31,7.31,0,0,1,1.215-4.563,4.419,4.419,0,0,1,6.732,0,7.31,7.31,0,0,1,1.215,4.563,7.308,7.308,0,0,1-1.215,4.563A4.041,4.041,0,0,1,153.884,27.63Zm0-1.638a2.166,2.166,0,0,0,1.449-.5A3.028,3.028,0,0,0,156.215,24a8.883,8.883,0,0,0,.3-2.493,8.885,8.885,0,0,0-.3-2.492,3.036,3.036,0,0,0-.882-1.5,2.368,2.368,0,0,0-2.9,0,2.984,2.984,0,0,0-.873,1.5,9.147,9.147,0,0,0-.288,2.492A9.145,9.145,0,0,0,151.562,24a2.976,2.976,0,0,0,.873,1.494A2.166,2.166,0,0,0,153.884,25.992Z" fill="#333"/>
      <path d="M163.208,15.391a2.986,2.986,0,0,1,1.593.413,2.782,2.782,0,0,1,1.044,1.152,4.294,4.294,0,0,1,0,3.483A2.773,2.773,0,0,1,164.8,21.6a3.254,3.254,0,0,1-3.177,0,2.734,2.734,0,0,1-1.053-1.162,4.294,4.294,0,0,1,0-3.483,2.743,2.743,0,0,1,1.053-1.152A3,3,0,0,1,163.208,15.391Zm0,1.4a1.314,1.314,0,0,0-.774.226,1.347,1.347,0,0,0-.486.647,3.362,3.362,0,0,0,0,2.062,1.293,1.293,0,0,0,.486.647,1.353,1.353,0,0,0,.774.216,1.388,1.388,0,0,0,.792-.216,1.3,1.3,0,0,0,.486-.647,3.382,3.382,0,0,0,0-2.062,1.383,1.383,0,0,0-.477-.647A1.34,1.34,0,0,0,163.208,16.794ZM162.74,27.45l7.776-11.88h1.656l-7.758,11.88Zm8.964-6.444a3,3,0,0,1,1.593.414,2.763,2.763,0,0,1,1.044,1.161,4.3,4.3,0,0,1,0,3.483,2.769,2.769,0,0,1-1.044,1.152,3.254,3.254,0,0,1-3.177,0,2.752,2.752,0,0,1-1.054-1.152,4.3,4.3,0,0,1,0-3.483,2.747,2.747,0,0,1,1.054-1.161A3.008,3.008,0,0,1,171.7,21.006Zm0,1.422a1.353,1.353,0,0,0-.774.217,1.29,1.29,0,0,0-.486.638,3.359,3.359,0,0,0,0,2.061,1.343,1.343,0,0,0,.486.657,1.321,1.321,0,0,0,.774.226A1.355,1.355,0,0,0,172.5,26a1.341,1.341,0,0,0,.485-.657,2.834,2.834,0,0,0,.163-1.008,2.961,2.961,0,0,0-.163-1.044,1.308,1.308,0,0,0-.476-.647A1.381,1.381,0,0,0,171.7,22.428Z" fill="#333"/>
      <path d="M193.771,18.45h2.088l-3.024,9h-2.106l-2.268-6.678L186.32,27.45h-2.107l-3-9h2.07l2.052,7.111,2.232-7.111h1.926l2.232,7.111Z" fill="#333"/>
      <path d="M201.35,18.271a4.715,4.715,0,0,1,2.322.557,3.92,3.92,0,0,1,1.575,1.611,5.231,5.231,0,0,1,.566,2.511,5.225,5.225,0,0,1-.566,2.511,3.92,3.92,0,0,1-1.575,1.611,5.11,5.11,0,0,1-4.644,0,3.971,3.971,0,0,1-1.584-1.611,5.158,5.158,0,0,1-.576-2.511,5.164,5.164,0,0,1,.576-2.511,3.971,3.971,0,0,1,1.584-1.611A4.715,4.715,0,0,1,201.35,18.271Zm0,1.511a2.47,2.47,0,0,0-1.377.369,2.36,2.36,0,0,0-.873,1.072,4.319,4.319,0,0,0-.306,1.727,4.339,4.339,0,0,0,.306,1.719,2.351,2.351,0,0,0,.873,1.08,2.47,2.47,0,0,0,1.377.369,2.426,2.426,0,0,0,1.368-.369,2.386,2.386,0,0,0,.864-1.08,4.339,4.339,0,0,0,.306-1.719,4.319,4.319,0,0,0-.306-1.727,2.4,2.4,0,0,0-.864-1.072A2.426,2.426,0,0,0,201.35,19.782Z" fill="#333"/>
      <path d="M208.244,27.45v-9h1.637l.181,1.62a2.793,2.793,0,0,1,1.07-1.341,3.172,3.172,0,0,1,1.756-.458,3.287,3.287,0,0,1,.54.044,1.671,1.671,0,0,1,.449.135l-.27,1.693a2.859,2.859,0,0,0-.44-.118,3.79,3.79,0,0,0-.658-.045,2.248,2.248,0,0,0-1.1.3,2.344,2.344,0,0,0-.891.891,2.939,2.939,0,0,0-.352,1.513V27.45Z" fill="#333"/>
      <path d="M217.621,14.4V27.45H215.7V14.4Zm6.57,4.05-4.014,4.1-.414.288-2.826,2.934-.018-2.2,4.986-5.13Zm-3.78,3.025,4,5.975h-2.232l-3.2-4.878Z" fill="#333"/>
      <path d="M229.447,27.63a5.748,5.748,0,0,1-2.466-.522,4.251,4.251,0,0,1-1.764-1.476l1.332-1.152a2.99,2.99,0,0,0,1.143,1.179,3.462,3.462,0,0,0,1.791.442,2.57,2.57,0,0,0,1.314-.289.919.919,0,0,0,.261-1.413,1.61,1.61,0,0,0-.855-.405l-1.89-.395a3.852,3.852,0,0,1-2.052-.928,2.259,2.259,0,0,1-.612-1.629,2.373,2.373,0,0,1,.432-1.368,3.034,3.034,0,0,1,1.269-1.017,4.753,4.753,0,0,1,2.007-.386,5.12,5.12,0,0,1,2.3.476,3.374,3.374,0,0,1,1.458,1.359l-1.332,1.117a2.271,2.271,0,0,0-1.008-1.072,2.935,2.935,0,0,0-1.386-.351,3.051,3.051,0,0,0-.99.144,1.424,1.424,0,0,0-.63.4.886.886,0,0,0-.216.595.861.861,0,0,0,.27.629,1.95,1.95,0,0,0,.972.415l2.052.431a3.188,3.188,0,0,1,1.827.856,2.138,2.138,0,0,1,.531,1.466,2.624,2.624,0,0,1-.45,1.521,2.9,2.9,0,0,1-1.3,1.018A5.148,5.148,0,0,1,229.447,27.63Z" fill="#333"/>
      <path d="M246.583,18.45v1.512H240.1V18.45Zm-1.656-4.176a4.068,4.068,0,0,1,1.017.118,1.736,1.736,0,0,1,.693.314l-.36,1.386a1.543,1.543,0,0,0-.45-.189,2.384,2.384,0,0,0-.576-.063,1.791,1.791,0,0,0-1.161.343,1.35,1.35,0,0,0-.423,1.115v1.314l.054.487V27.45H241.8v-10.3A3.391,3.391,0,0,1,242,15.931a2.3,2.3,0,0,1,.621-.91,2.75,2.75,0,0,1,1-.558A4.231,4.231,0,0,1,244.927,14.274Z" fill="#333"/>
      <path d="M251.515,27.63a4.066,4.066,0,0,1-1.629-.323,2.624,2.624,0,0,1-1.2-1.045,3.486,3.486,0,0,1-.45-1.871V18.45h1.926V23.9a2.178,2.178,0,0,0,.522,1.683,2.13,2.13,0,0,0,1.458.459,2.571,2.571,0,0,0,.873-.152,2.143,2.143,0,0,0,.765-.487,2.223,2.223,0,0,0,.531-.855,3.594,3.594,0,0,0,.189-1.224V18.45h1.926v9h-1.692l-.09-1.458a2.918,2.918,0,0,1-1.26,1.242A4.14,4.14,0,0,1,251.515,27.63Z" fill="#333"/>
      <path d="M261.307,14.4V24.931a1.365,1.365,0,0,0,.234.918,1.017,1.017,0,0,0,.774.252,2.934,2.934,0,0,0,.549-.045,3.984,3.984,0,0,0,.567-.172l-.216,1.44a3.111,3.111,0,0,1-.7.225,3.872,3.872,0,0,1-.792.081,2.29,2.29,0,0,1-1.773-.621,2.772,2.772,0,0,1-.567-1.917V14.4Z" fill="#333"/>
      <path d="M266.923,14.4V24.931a1.365,1.365,0,0,0,.234.918,1.017,1.017,0,0,0,.774.252,2.934,2.934,0,0,0,.549-.045,3.984,3.984,0,0,0,.567-.172l-.216,1.44a3.111,3.111,0,0,1-.7.225,3.872,3.872,0,0,1-.792.081,2.29,2.29,0,0,1-1.773-.621A2.772,2.772,0,0,1,265,25.092V14.4Z" fill="#333"/>
      <path d="M276.121,21.816V23.6h-6.138V21.816Z" fill="#333"/>
      <path d="M284.509,18.45v1.512h-6.75V18.45Zm-3.1-2.646V24.75a1.227,1.227,0,0,0,.351.973,1.387,1.387,0,0,0,.945.3,2.134,2.134,0,0,0,.846-.153,2.453,2.453,0,0,0,.666-.423l.432,1.4a3.011,3.011,0,0,1-1.017.567,4.111,4.111,0,0,1-1.341.207,3.891,3.891,0,0,1-1.422-.252,2.031,2.031,0,0,1-1.008-.818,2.843,2.843,0,0,1-.378-1.486v-8.73Z" fill="#333"/>
      <path d="M287.389,16.938a1.349,1.349,0,0,1-.963-.315,1.167,1.167,0,0,1-.333-.891,1.137,1.137,0,0,1,.333-.881,1.37,1.37,0,0,1,.963-.307,1.342,1.342,0,0,1,.945.307,1.137,1.137,0,0,1,.333.881,1.167,1.167,0,0,1-.333.891A1.322,1.322,0,0,1,287.389,16.938Zm.954,1.512v9h-1.926v-9Z" fill="#333"/>
      <path d="M291.349,27.45v-9h1.71l.09,1.512a3.019,3.019,0,0,1,1.251-1.277,3.5,3.5,0,0,1,1.665-.414,3.717,3.717,0,0,1,1.791.44,2.818,2.818,0,0,1,1.233,1.323,2.8,2.8,0,0,1,.792-.99A3.429,3.429,0,0,1,301,18.459a4.07,4.07,0,0,1,1.206-.188,3.733,3.733,0,0,1,1.62.359,2.909,2.909,0,0,1,1.224,1.1,3.473,3.473,0,0,1,.468,1.889V27.45h-1.926V21.924a2.08,2.08,0,0,0-.522-1.584,1.882,1.882,0,0,0-1.332-.486,2.285,2.285,0,0,0-1.161.306,2.24,2.24,0,0,0-.855.909,3.111,3.111,0,0,0-.324,1.485v4.9h-1.926V21.924a2.08,2.08,0,0,0-.522-1.584,1.882,1.882,0,0,0-1.332-.486,2.267,2.267,0,0,0-1.08.289,2.311,2.311,0,0,0-.9.9,3.177,3.177,0,0,0-.36,1.62V27.45Z" fill="#333"/>
      <path d="M312.391,27.63a4.9,4.9,0,0,1-2.376-.558,3.892,3.892,0,0,1-1.594-1.611,5.225,5.225,0,0,1-.567-2.511,5.231,5.231,0,0,1,.567-2.511A3.916,3.916,0,0,1,310,18.828a4.634,4.634,0,0,1,2.286-.557,4.326,4.326,0,0,1,2.232.54,3.6,3.6,0,0,1,1.4,1.475,4.529,4.529,0,0,1,.486,2.124q0,.324-.017.612c-.012.192-.031.36-.054.5H309.1V22.05h6.389l-.953.288a2.661,2.661,0,0,0-.613-1.881,2.177,2.177,0,0,0-1.673-.657,2.5,2.5,0,0,0-1.351.36,2.274,2.274,0,0,0-.881,1.071,4.39,4.39,0,0,0-.307,1.737,4.044,4.044,0,0,0,.325,1.71,2.354,2.354,0,0,0,.918,1.062,2.653,2.653,0,0,0,1.4.361,2.758,2.758,0,0,0,1.458-.343,2.406,2.406,0,0,0,.882-.954l1.531.72a3.653,3.653,0,0,1-.873,1.125,3.79,3.79,0,0,1-1.306.729A5.208,5.208,0,0,1,312.391,27.63Z" fill="#333"/>
      <path d="M335.736,18.45h2.088l-3.024,9h-2.106l-2.268-6.678-2.141,6.678h-2.107l-3.006-9h2.071l2.051,7.111,2.232-7.111h1.927l2.232,7.111Z" fill="#333"/>
      <path d="M339.679,27.45V14.4H341.6v5.491a2.81,2.81,0,0,1,1.215-1.234,3.718,3.718,0,0,1,1.7-.386,3.912,3.912,0,0,1,1.719.369,2.85,2.85,0,0,1,1.215,1.106,3.554,3.554,0,0,1,.45,1.872V27.45h-1.926V22.23a2.515,2.515,0,0,0-.549-1.854,1.923,1.923,0,0,0-1.377-.522,2.563,2.563,0,0,0-1.143.279,2.236,2.236,0,0,0-.936.9,3.245,3.245,0,0,0-.37,1.665V27.45Z" fill="#333"/>
      <path d="M351.792,16.938a1.349,1.349,0,0,1-.963-.315,1.167,1.167,0,0,1-.333-.891,1.137,1.137,0,0,1,.333-.881,1.37,1.37,0,0,1,.963-.307,1.342,1.342,0,0,1,.945.307,1.137,1.137,0,0,1,.333.881,1.167,1.167,0,0,1-.333.891A1.322,1.322,0,0,1,351.792,16.938Zm.954,1.512v9H350.82v-9Z" fill="#333"/>
      <path d="M357.625,14.4V24.931a1.365,1.365,0,0,0,.233.918,1.017,1.017,0,0,0,.774.252,2.934,2.934,0,0,0,.549-.045,4.03,4.03,0,0,0,.568-.172l-.217,1.44a3.111,3.111,0,0,1-.7.225,3.872,3.872,0,0,1-.792.081,2.29,2.29,0,0,1-1.773-.621,2.772,2.772,0,0,1-.567-1.917V14.4Z" fill="#333"/>
      <path d="M365.328,27.63a4.9,4.9,0,0,1-2.376-.558,3.89,3.89,0,0,1-1.593-1.611,5.225,5.225,0,0,1-.567-2.511,5.231,5.231,0,0,1,.567-2.511,3.92,3.92,0,0,1,1.575-1.611,4.64,4.64,0,0,1,2.286-.557,4.321,4.321,0,0,1,2.232.54,3.606,3.606,0,0,1,1.4,1.475,4.541,4.541,0,0,1,.486,2.124q0,.324-.018.612a5,5,0,0,1-.054.5h-7.236V22.05h6.39l-.954.288a2.661,2.661,0,0,0-.612-1.881,2.18,2.18,0,0,0-1.674-.657,2.494,2.494,0,0,0-1.35.36,2.281,2.281,0,0,0-.882,1.071,4.391,4.391,0,0,0-.306,1.737,4.06,4.06,0,0,0,.324,1.71,2.354,2.354,0,0,0,.918,1.062,2.657,2.657,0,0,0,1.4.361,2.76,2.76,0,0,0,1.458-.343,2.421,2.421,0,0,0,.882-.954l1.53.72a3.623,3.623,0,0,1-.873,1.125,3.776,3.776,0,0,1-1.305.729A5.21,5.21,0,0,1,365.328,27.63Z" fill="#333"/>
      <path d="M377.622,27.45v-9h1.71l.09,1.512a3.019,3.019,0,0,1,1.251-1.277,3.5,3.5,0,0,1,1.665-.414,3.717,3.717,0,0,1,1.791.44,2.818,2.818,0,0,1,1.233,1.323,2.8,2.8,0,0,1,.792-.99,3.429,3.429,0,0,1,1.116-.585,4.07,4.07,0,0,1,1.206-.188,3.733,3.733,0,0,1,1.62.359,2.909,2.909,0,0,1,1.224,1.1,3.473,3.473,0,0,1,.468,1.889V27.45h-1.926V21.924a2.08,2.08,0,0,0-.522-1.584,1.882,1.882,0,0,0-1.332-.486,2.285,2.285,0,0,0-1.161.306,2.24,2.24,0,0,0-.855.909,3.111,3.111,0,0,0-.324,1.485v4.9h-1.926V21.924a2.08,2.08,0,0,0-.522-1.584,1.882,1.882,0,0,0-1.332-.486,2.267,2.267,0,0,0-1.08.289,2.311,2.311,0,0,0-.9.9,3.177,3.177,0,0,0-.36,1.62V27.45Z" fill="#333"/>
      <path d="M398.609,18.271a4.721,4.721,0,0,1,2.323.557,3.917,3.917,0,0,1,1.574,1.611,5.231,5.231,0,0,1,.567,2.511,5.225,5.225,0,0,1-.567,2.511,3.917,3.917,0,0,1-1.574,1.611,5.11,5.11,0,0,1-4.644,0,3.965,3.965,0,0,1-1.584-1.611,5.147,5.147,0,0,1-.577-2.511,5.153,5.153,0,0,1,.577-2.511,3.965,3.965,0,0,1,1.584-1.611A4.708,4.708,0,0,1,398.609,18.271Zm0,1.511a2.47,2.47,0,0,0-1.377.369,2.36,2.36,0,0,0-.873,1.072,4.32,4.32,0,0,0-.305,1.727,4.339,4.339,0,0,0,.305,1.719,2.351,2.351,0,0,0,.873,1.08,2.47,2.47,0,0,0,1.377.369,2.432,2.432,0,0,0,1.369-.369,2.378,2.378,0,0,0,.863-1.08,4.339,4.339,0,0,0,.306-1.719,4.319,4.319,0,0,0-.306-1.727,2.386,2.386,0,0,0-.863-1.072A2.432,2.432,0,0,0,398.609,19.782Z" fill="#333"/>
      <path d="M405.5,27.45v-9h1.638l.18,1.62a2.8,2.8,0,0,1,1.071-1.341,3.17,3.17,0,0,1,1.755-.458,3.3,3.3,0,0,1,.541.044,1.671,1.671,0,0,1,.449.135l-.27,1.693a2.873,2.873,0,0,0-.441-.118,3.778,3.778,0,0,0-.657-.045,2.255,2.255,0,0,0-1.1.3,2.358,2.358,0,0,0-.891.891,2.939,2.939,0,0,0-.351,1.513V27.45Z" fill="#333"/>
      <path d="M416.682,27.63a4.9,4.9,0,0,1-2.376-.558,3.892,3.892,0,0,1-1.594-1.611,5.225,5.225,0,0,1-.566-2.511,5.231,5.231,0,0,1,.566-2.511,3.916,3.916,0,0,1,1.576-1.611,4.634,4.634,0,0,1,2.286-.557,4.326,4.326,0,0,1,2.232.54,3.6,3.6,0,0,1,1.4,1.475,4.529,4.529,0,0,1,.486,2.124q0,.324-.017.612c-.012.192-.031.36-.054.5h-7.236V22.05h6.389l-.953.288a2.661,2.661,0,0,0-.613-1.881,2.177,2.177,0,0,0-1.673-.657,2.489,2.489,0,0,0-1.35.36,2.27,2.27,0,0,0-.882,1.071A4.391,4.391,0,0,0,414,22.968a4.045,4.045,0,0,0,.324,1.71,2.354,2.354,0,0,0,.918,1.062,2.655,2.655,0,0,0,1.4.361,2.763,2.763,0,0,0,1.458-.343,2.411,2.411,0,0,0,.881-.954l1.531.72a3.653,3.653,0,0,1-.873,1.125,3.79,3.79,0,0,1-1.306.729A5.208,5.208,0,0,1,416.682,27.63Z" fill="#333"/>
      <path d="M434.411,18.45v1.512h-6.75V18.45Zm-3.1-2.646V24.75a1.224,1.224,0,0,0,.352.973,1.383,1.383,0,0,0,.944.3,2.139,2.139,0,0,0,.847-.153,2.483,2.483,0,0,0,.666-.423l.431,1.4a3.015,3.015,0,0,1-1.016.567,4.121,4.121,0,0,1-1.342.207,3.9,3.9,0,0,1-1.422-.252,2.024,2.024,0,0,1-1.007-.818,2.834,2.834,0,0,1-.379-1.486v-8.73Z" fill="#333"/>
      <path d="M436.391,27.45V14.4h1.926v5.491a2.8,2.8,0,0,1,1.215-1.234,3.713,3.713,0,0,1,1.7-.386,3.906,3.906,0,0,1,1.719.369,2.844,2.844,0,0,1,1.215,1.106,3.545,3.545,0,0,1,.45,1.872V27.45h-1.926V22.23a2.51,2.51,0,0,0-.549-1.854,1.919,1.919,0,0,0-1.377-.522,2.566,2.566,0,0,0-1.143.279,2.242,2.242,0,0,0-.936.9,3.246,3.246,0,0,0-.369,1.665V27.45Z" fill="#333"/>
      <path d="M452.735,21.672a1.886,1.886,0,0,0-.5-1.395,1.836,1.836,0,0,0-1.359-.5,2.47,2.47,0,0,0-1.386.378,2.192,2.192,0,0,0-.846,1.224l-1.62-.684a3.225,3.225,0,0,1,1.341-1.763,4.565,4.565,0,0,1,2.583-.666,4.854,4.854,0,0,1,1.908.35,2.909,2.909,0,0,1,1.305,1.053,3.141,3.141,0,0,1,.477,1.8v4.013a.588.588,0,0,0,.666.666,2.221,2.221,0,0,0,.63-.09l-.108,1.332a2.418,2.418,0,0,1-1.044.2,2.491,2.491,0,0,1-1.035-.207,1.6,1.6,0,0,1-.72-.63,1.969,1.969,0,0,1-.261-1.053v-.126l.4-.017a2.2,2.2,0,0,1-.666,1.161,3.284,3.284,0,0,1-1.17.683,4.192,4.192,0,0,1-1.35.225,4.066,4.066,0,0,1-1.521-.27,2.2,2.2,0,0,1-1.449-2.177,2.229,2.229,0,0,1,.657-1.657,3.536,3.536,0,0,1,1.863-.881l3.492-.685-.018,1.351-2.538.521a2.938,2.938,0,0,0-1.134.414.912.912,0,0,0-.378.792.956.956,0,0,0,.387.8,1.657,1.657,0,0,0,1.035.3,3.469,3.469,0,0,0,.873-.108,2.283,2.283,0,0,0,.765-.351,1.63,1.63,0,0,0,.531-.63,2.094,2.094,0,0,0,.189-.927Z" fill="#333"/>
      <path d="M457.793,27.45v-9h1.71l.126,2.34-.252-.252a3.407,3.407,0,0,1,.729-1.287,2.818,2.818,0,0,1,1.134-.747,4.151,4.151,0,0,1,1.395-.233,3.906,3.906,0,0,1,1.719.369,2.844,2.844,0,0,1,1.215,1.106,3.545,3.545,0,0,1,.45,1.872V27.45h-1.926V22.212a2.473,2.473,0,0,0-.549-1.845,1.938,1.938,0,0,0-1.377-.513,2.547,2.547,0,0,0-1.152.279,2.265,2.265,0,0,0-.927.891,3.159,3.159,0,0,0-.369,1.638V27.45Z" fill="#333"/>
      <path d="M476.657,27.45V19.3q0-.358.009-.747c.006-.258.015-.53.027-.819a6.235,6.235,0,0,1-1.395,1.017,6.147,6.147,0,0,1-1.611.6l-.36-1.675a3.925,3.925,0,0,0,.882-.252,8.671,8.671,0,0,0,2.034-1.16,3.694,3.694,0,0,0,.7-.694h1.62V27.45Z" fill="#333"/>
      <path d="M487.835,14.4l-5.364,14.31h-1.8l5.364-14.31Z" fill="#333"/>
      <path d="M493.541,27.63a5.5,5.5,0,0,1-2.907-.747,3.771,3.771,0,0,1-1.683-2.1l1.872-.882a3.187,3.187,0,0,0,.5,1.117,2.15,2.15,0,0,0,.9.71,3.458,3.458,0,0,0,1.386.244,2.557,2.557,0,0,0,1.188-.252,1.8,1.8,0,0,0,.746-.7,2.012,2.012,0,0,0,.262-1.027,1.986,1.986,0,0,0-.226-.99,1.3,1.3,0,0,0-.7-.576,3.511,3.511,0,0,0-1.215-.18q-.217,0-.441.009c-.151.007-.309.021-.477.045V20.683c.107.011.212.02.314.026s.2.009.3.009a2.427,2.427,0,0,0,1.674-.468,1.9,1.9,0,0,0,.5-1.458,1.631,1.631,0,0,0-.514-1.3,2.154,2.154,0,0,0-1.466-.45,2.33,2.33,0,0,0-1.539.459,2.844,2.844,0,0,0-.837,1.323l-1.765-.738a3.509,3.509,0,0,1,.847-1.44,4,4,0,0,1,1.466-.945,5.341,5.341,0,0,1,1.917-.333,4.9,4.9,0,0,1,2.134.414,2.9,2.9,0,0,1,1.278,1.134,3.115,3.115,0,0,1,.422,1.6,3.311,3.311,0,0,1-.2,1.2,2.819,2.819,0,0,1-.532.883,2.514,2.514,0,0,1-.719.566,2.767,2.767,0,0,1-.784.27v.037a2.63,2.63,0,0,1,.963.207,2.668,2.668,0,0,1,.792.521,2.365,2.365,0,0,1,.55.8,2.606,2.606,0,0,1,.2,1.026,3.32,3.32,0,0,1-.54,1.89,3.6,3.6,0,0,1-1.484,1.261A5.046,5.046,0,0,1,493.541,27.63Z" fill="#333"/>
      <path d="M511.36,21.672a1.89,1.89,0,0,0-.494-1.395,1.839,1.839,0,0,0-1.36-.5,2.464,2.464,0,0,0-1.385.378,2.194,2.194,0,0,0-.847,1.224l-1.619-.684A3.22,3.22,0,0,1,507,18.937a4.562,4.562,0,0,1,2.583-.666,4.849,4.849,0,0,1,1.907.35,2.907,2.907,0,0,1,1.306,1.053,3.149,3.149,0,0,1,.477,1.8v4.013a.588.588,0,0,0,.666.666,2.219,2.219,0,0,0,.629-.09l-.107,1.332a2.421,2.421,0,0,1-1.044.2,2.5,2.5,0,0,1-1.036-.207,1.6,1.6,0,0,1-.719-.63A1.96,1.96,0,0,1,511.4,25.7v-.126l.4-.017a2.2,2.2,0,0,1-.666,1.161,3.28,3.28,0,0,1-1.169.683,4.2,4.2,0,0,1-1.351.225,4.069,4.069,0,0,1-1.521-.27,2.2,2.2,0,0,1-1.448-2.177,2.228,2.228,0,0,1,.656-1.657,3.539,3.539,0,0,1,1.864-.881l3.491-.685-.018,1.351-2.537.521a2.937,2.937,0,0,0-1.135.414.913.913,0,0,0-.377.792.953.953,0,0,0,.387.8,1.654,1.654,0,0,0,1.034.3,3.469,3.469,0,0,0,.873-.108,2.288,2.288,0,0,0,.766-.351,1.636,1.636,0,0,0,.53-.63,2.094,2.094,0,0,0,.189-.927Z" fill="#333"/>
      <path d="M516.418,27.45v-9h1.638l.18,1.62a2.8,2.8,0,0,1,1.071-1.341,3.17,3.17,0,0,1,1.755-.458,3.3,3.3,0,0,1,.541.044,1.671,1.671,0,0,1,.449.135l-.27,1.693a2.873,2.873,0,0,0-.441-.118,3.778,3.778,0,0,0-.657-.045,2.255,2.255,0,0,0-1.1.3,2.358,2.358,0,0,0-.891.891,2.939,2.939,0,0,0-.351,1.513V27.45Z" fill="#333"/>
      <path d="M527.6,27.63a4.9,4.9,0,0,1-2.376-.558,3.892,3.892,0,0,1-1.594-1.611,5.237,5.237,0,0,1-.566-2.511,5.242,5.242,0,0,1,.566-2.511,3.916,3.916,0,0,1,1.576-1.611,4.637,4.637,0,0,1,2.286-.557,4.326,4.326,0,0,1,2.232.54,3.606,3.606,0,0,1,1.4,1.475,4.541,4.541,0,0,1,.485,2.124q0,.324-.017.612c-.012.192-.031.36-.054.5H524.3V22.05h6.389l-.953.288a2.661,2.661,0,0,0-.613-1.881,2.177,2.177,0,0,0-1.673-.657,2.492,2.492,0,0,0-1.35.36,2.27,2.27,0,0,0-.882,1.071,4.391,4.391,0,0,0-.306,1.737,4.045,4.045,0,0,0,.324,1.71,2.354,2.354,0,0,0,.918,1.062,2.657,2.657,0,0,0,1.4.361,2.763,2.763,0,0,0,1.458-.343,2.411,2.411,0,0,0,.881-.954l1.531.72a3.653,3.653,0,0,1-.873,1.125,3.79,3.79,0,0,1-1.306.729A5.2,5.2,0,0,1,527.6,27.63Z" fill="#333"/>
      <path d="M539.89,27.45v-9h1.71l.126,2.34-.252-.252a3.407,3.407,0,0,1,.729-1.287,2.818,2.818,0,0,1,1.134-.747,4.151,4.151,0,0,1,1.395-.233,3.906,3.906,0,0,1,1.719.369,2.844,2.844,0,0,1,1.215,1.106,3.545,3.545,0,0,1,.45,1.872V27.45H546.19V22.212a2.473,2.473,0,0,0-.549-1.845,1.938,1.938,0,0,0-1.377-.513,2.547,2.547,0,0,0-1.152.279,2.271,2.271,0,0,0-.927.891,3.159,3.159,0,0,0-.369,1.638V27.45Z" fill="#333"/>
      <path d="M554.938,18.271a4.715,4.715,0,0,1,2.322.557,3.92,3.92,0,0,1,1.575,1.611,5.231,5.231,0,0,1,.567,2.511,5.225,5.225,0,0,1-.567,2.511,3.92,3.92,0,0,1-1.575,1.611,5.11,5.11,0,0,1-4.644,0,3.977,3.977,0,0,1-1.584-1.611,5.158,5.158,0,0,1-.576-2.511,5.164,5.164,0,0,1,.576-2.511,3.977,3.977,0,0,1,1.584-1.611A4.715,4.715,0,0,1,554.938,18.271Zm0,1.511a2.47,2.47,0,0,0-1.377.369,2.36,2.36,0,0,0-.873,1.072,4.319,4.319,0,0,0-.306,1.727,4.339,4.339,0,0,0,.306,1.719,2.351,2.351,0,0,0,.873,1.08,2.47,2.47,0,0,0,1.377.369,2.426,2.426,0,0,0,1.368-.369,2.373,2.373,0,0,0,.864-1.08,4.339,4.339,0,0,0,.306-1.719,4.319,4.319,0,0,0-.306-1.727,2.382,2.382,0,0,0-.864-1.072A2.426,2.426,0,0,0,554.938,19.782Z" fill="#333"/>
      <path d="M561.832,27.45v-9h1.71l.125,2.34-.251-.252a3.406,3.406,0,0,1,.728-1.287,2.815,2.815,0,0,1,1.135-.747,4.141,4.141,0,0,1,1.394-.233,3.906,3.906,0,0,1,1.719.369,2.844,2.844,0,0,1,1.215,1.106,3.545,3.545,0,0,1,.45,1.872V27.45h-1.926V22.212a2.474,2.474,0,0,0-.548-1.845,1.942,1.942,0,0,0-1.377-.513,2.548,2.548,0,0,0-1.153.279,2.277,2.277,0,0,0-.927.891,3.159,3.159,0,0,0-.369,1.638V27.45Z" fill="#333"/>
      <path d="M579.184,21.816V23.6h-6.138V21.816Z" fill="#333"/>
      <path d="M587.32,18.45v1.512h-6.48V18.45Zm-1.656-4.176a4.068,4.068,0,0,1,1.017.118,1.736,1.736,0,0,1,.693.314l-.36,1.386a1.555,1.555,0,0,0-.45-.189,2.384,2.384,0,0,0-.576-.063,1.791,1.791,0,0,0-1.161.343A1.347,1.347,0,0,0,584.4,17.3v1.314l.054.487V27.45h-1.926v-10.3a3.391,3.391,0,0,1,.207-1.223,2.282,2.282,0,0,1,.621-.91,2.75,2.75,0,0,1,1-.558A4.231,4.231,0,0,1,585.664,14.274Z" fill="#333"/>
      <path d="M592.251,27.63a4.061,4.061,0,0,1-1.628-.323,2.627,2.627,0,0,1-1.2-1.045,3.486,3.486,0,0,1-.45-1.871V18.45H590.9V23.9a2.178,2.178,0,0,0,.522,1.683,2.13,2.13,0,0,0,1.458.459,2.571,2.571,0,0,0,.873-.152,2.134,2.134,0,0,0,.765-.487,2.223,2.223,0,0,0,.531-.855,3.594,3.594,0,0,0,.189-1.224V18.45h1.927v9h-1.693l-.09-1.458a2.916,2.916,0,0,1-1.259,1.242A4.147,4.147,0,0,1,592.251,27.63Z" fill="#333"/>
      <path d="M602.043,14.4V24.931a1.37,1.37,0,0,0,.234.918,1.017,1.017,0,0,0,.774.252,2.934,2.934,0,0,0,.549-.045,3.984,3.984,0,0,0,.567-.172l-.215,1.44a3.144,3.144,0,0,1-.7.225,3.886,3.886,0,0,1-.792.081,2.291,2.291,0,0,1-1.774-.621,2.772,2.772,0,0,1-.566-1.917V14.4Z" fill="#333"/>
      <path d="M607.66,14.4V24.931a1.365,1.365,0,0,0,.234.918,1.017,1.017,0,0,0,.774.252,2.941,2.941,0,0,0,.549-.045,3.984,3.984,0,0,0,.567-.172l-.216,1.44a3.128,3.128,0,0,1-.7.225,3.872,3.872,0,0,1-.792.081,2.29,2.29,0,0,1-1.773-.621,2.772,2.772,0,0,1-.567-1.917V14.4Z" fill="#333"/>
      <path d="M616.786,18.45v1.512h-6.75V18.45Zm-3.1-2.646V24.75a1.231,1.231,0,0,0,.351.973,1.389,1.389,0,0,0,.945.3,2.13,2.13,0,0,0,.846-.153,2.453,2.453,0,0,0,.666-.423l.433,1.4a3.025,3.025,0,0,1-1.018.567,4.111,4.111,0,0,1-1.341.207,3.9,3.9,0,0,1-1.422-.252,2.028,2.028,0,0,1-1.007-.818,2.824,2.824,0,0,1-.378-1.486v-8.73Z" fill="#333"/>
      <path d="M619.666,16.938a1.349,1.349,0,0,1-.963-.315,1.167,1.167,0,0,1-.333-.891,1.137,1.137,0,0,1,.333-.881,1.37,1.37,0,0,1,.963-.307,1.342,1.342,0,0,1,.945.307,1.137,1.137,0,0,1,.333.881,1.167,1.167,0,0,1-.333.891A1.322,1.322,0,0,1,619.666,16.938Zm.954,1.512v9h-1.926v-9Z" fill="#333"/>
      <path d="M623.626,27.45v-9h1.71l.09,1.512a3.013,3.013,0,0,1,1.251-1.277,3.5,3.5,0,0,1,1.665-.414,3.717,3.717,0,0,1,1.791.44,1.037,1.037,0,1,0,2.025.333,3.424,3.424,0,0,1,1.115-.585,4.08,4.08,0,0,1,1.206-.188,3.735,3.735,0,0,1,1.621.359,2.909,2.909,0,0,1,1.224,1.1,3.473,3.473,0,0,1,.468,1.889V27.45h-1.926V21.924a2.084,2.084,0,0,0-.522-1.584,1.882,1.882,0,0,0-1.332-.486,2.285,2.285,0,0,0-1.161.306,2.24,2.24,0,0,0-.855.909,3.111,3.111,0,0,0-.324,1.485v4.9h-1.926V21.924a2.084,2.084,0,0,0-.522-1.584,1.882,1.882,0,0,0-1.332-.486,2.267,2.267,0,0,0-1.08.289,2.3,2.3,0,0,0-.9.9,3.177,3.177,0,0,0-.36,1.62V27.45Z" fill="#333"/>
      <path d="M644.668,27.63a4.9,4.9,0,0,1-2.376-.558,3.884,3.884,0,0,1-1.593-1.611,5.225,5.225,0,0,1-.567-2.511,5.231,5.231,0,0,1,.567-2.511,3.923,3.923,0,0,1,1.574-1.611,4.644,4.644,0,0,1,2.287-.557,4.321,4.321,0,0,1,2.232.54,3.606,3.606,0,0,1,1.4,1.475,4.541,4.541,0,0,1,.486,2.124q0,.324-.018.612c-.013.192-.03.36-.054.5h-7.236V22.05h6.39l-.954.288a2.665,2.665,0,0,0-.612-1.881,2.182,2.182,0,0,0-1.675-.657,2.493,2.493,0,0,0-1.349.36,2.281,2.281,0,0,0-.882,1.071,4.391,4.391,0,0,0-.306,1.737,4.06,4.06,0,0,0,.324,1.71,2.348,2.348,0,0,0,.918,1.062,2.657,2.657,0,0,0,1.4.361,2.763,2.763,0,0,0,1.458-.343,2.421,2.421,0,0,0,.882-.954l1.53.72a3.623,3.623,0,0,1-.873,1.125,3.776,3.776,0,0,1-1.305.729A5.21,5.21,0,0,1,644.668,27.63Z" fill="#333"/>
    </g>
    <g>
      <g>
        <path d="M540,117.13H156.155a3,3,0,0,1-3-3v-9a3,3,0,0,1,3-3H540Z" fill="#e57373"/>
        <path d="M782,117h-5V102h5a3,3,0,0,1,3,3v9A3,3,0,0,1,782,117Z" fill="#999"/>
        <rect x="540" y="102.131" width="237" height="15" fill="#f5c7c7"/>
      </g>
      <g>
        <g>
          <path d="M156.891,139.246a2.575,2.575,0,0,1-2.148-1.045,6.128,6.128,0,0,1,0-6.072,2.74,2.74,0,0,1,4.3,0,6.174,6.174,0,0,1,0,6.072A2.572,2.572,0,0,1,156.891,139.246Zm0-.865a1.622,1.622,0,0,0,1.074-.365,2.231,2.231,0,0,0,.66-1.086,7.123,7.123,0,0,0,0-3.529,2.235,2.235,0,0,0-.66-1.086,1.759,1.759,0,0,0-2.148,0,2.228,2.228,0,0,0-.66,1.086,7.123,7.123,0,0,0,0,3.529,2.223,2.223,0,0,0,.66,1.086A1.616,1.616,0,0,0,156.891,138.381Z" fill="gray"/>
          <path d="M163.011,131.086a1.859,1.859,0,0,1,1.013.269,1.787,1.787,0,0,1,.661.762,2.967,2.967,0,0,1,0,2.305,1.787,1.787,0,0,1-.661.762,2.034,2.034,0,0,1-2.022,0,1.778,1.778,0,0,1-.666-.762,2.967,2.967,0,0,1,0-2.305,1.778,1.778,0,0,1,.666-.762A1.874,1.874,0,0,1,163.011,131.086Zm0,.756a.972.972,0,0,0-.576.168.985.985,0,0,0-.36.486,2.534,2.534,0,0,0,0,1.541.984.984,0,0,0,.36.492,1.082,1.082,0,0,0,1.158,0,1.011,1.011,0,0,0,.354-.492,2.554,2.554,0,0,0,0-1.541,1.013,1.013,0,0,0-.354-.486A.965.965,0,0,0,163.011,131.842Zm-.228,7.283,5.04-7.92h.911l-5.04,7.92Zm5.723-4.248a1.86,1.86,0,0,1,1.015.27,1.807,1.807,0,0,1,.66.763,2.95,2.95,0,0,1,0,2.3,1.807,1.807,0,0,1-.66.763,2.028,2.028,0,0,1-2.022,0,1.773,1.773,0,0,1-.666-.763,2.95,2.95,0,0,1,0-2.3,1.773,1.773,0,0,1,.666-.763A1.861,1.861,0,0,1,168.506,134.877Zm0,.756a.976.976,0,0,0-.575.168,1.01,1.01,0,0,0-.36.486,2.54,2.54,0,0,0,0,1.543,1,1,0,0,0,.36.491,1.08,1.08,0,0,0,1.157,0,1.016,1.016,0,0,0,.354-.491,2.54,2.54,0,0,0,0-1.543,1.025,1.025,0,0,0-.354-.486A.97.97,0,0,0,168.506,135.633Z" fill="gray"/>
        </g>
        <g>
          <path d="M304.7,139.125v-.779q1.188-.876,1.986-1.536a11.722,11.722,0,0,0,1.278-1.2,3.789,3.789,0,0,0,.684-1.025,2.6,2.6,0,0,0,.2-1.015,1.527,1.527,0,0,0-.45-1.145,1.9,1.9,0,0,0-2.538.1,2.357,2.357,0,0,0-.576,1.421l-.84-.5a3.1,3.1,0,0,1,.45-1.225,2.381,2.381,0,0,1,.924-.828,3,3,0,0,1,1.386-.3,3.145,3.145,0,0,1,1.1.18,2.411,2.411,0,0,1,.834.509,2.243,2.243,0,0,1,.534.787,2.636,2.636,0,0,1,.186,1.007,3.2,3.2,0,0,1-.36,1.458,5.566,5.566,0,0,1-1.188,1.494,17.712,17.712,0,0,1-2.244,1.729v.012q.132-.012.366-.018l.468-.013c.156,0,.274,0,.354,0h2.772v.9Z" fill="gray"/>
          <path d="M314.254,139.246a2.767,2.767,0,0,1-1.7-.48,3.067,3.067,0,0,1-.99-1.332l.936-.493a2.339,2.339,0,0,0,.594,1.014,1.633,1.633,0,0,0,1.182.391,2.022,2.022,0,0,0,.942-.2,1.465,1.465,0,0,0,.606-.582,1.8,1.8,0,0,0,.216-.907,2.015,2.015,0,0,0-.2-.942,1.306,1.306,0,0,0-.57-.569,1.971,1.971,0,0,0-.912-.193,3.156,3.156,0,0,0-.714.078,1.969,1.969,0,0,0-.594.246,1.616,1.616,0,0,0-.456.444l-.84-.155.468-4.357h4.452v.9h-3.636l-.312,2.5-.024.107h.024a2.1,2.1,0,0,1,.738-.48,2.888,2.888,0,0,1,1.074-.18,2.62,2.62,0,0,1,1.314.318,2.231,2.231,0,0,1,.87.9,2.778,2.778,0,0,1,.312,1.343,2.854,2.854,0,0,1-.2,1.1,2.326,2.326,0,0,1-.576.834,2.53,2.53,0,0,1-.882.522A3.326,3.326,0,0,1,314.254,139.246Z" fill="gray"/>
        </g>
        <g>
          <path d="M465.671,139.246a2.762,2.762,0,0,1-1.7-.48,3.061,3.061,0,0,1-.991-1.332l.936-.493a2.341,2.341,0,0,0,.6,1.014,1.629,1.629,0,0,0,1.181.391,2.03,2.03,0,0,0,.943-.2,1.471,1.471,0,0,0,.606-.582,1.8,1.8,0,0,0,.215-.907,2.016,2.016,0,0,0-.2-.942,1.313,1.313,0,0,0-.571-.569,1.968,1.968,0,0,0-.912-.193,3.163,3.163,0,0,0-.714.078,1.952,1.952,0,0,0-.593.246,1.6,1.6,0,0,0-.456.444l-.84-.155.468-4.357H468.1v.9h-3.637l-.312,2.5-.023.107h.023a2.094,2.094,0,0,1,.739-.48,2.883,2.883,0,0,1,1.073-.18,2.62,2.62,0,0,1,1.314.318,2.227,2.227,0,0,1,.871.9,2.778,2.778,0,0,1,.312,1.343,2.836,2.836,0,0,1-.205,1.1,2.336,2.336,0,0,1-.575.834,2.544,2.544,0,0,1-.883.522A3.318,3.318,0,0,1,465.671,139.246Z" fill="gray"/>
          <path d="M472.943,139.246A2.576,2.576,0,0,1,470.8,138.2a6.134,6.134,0,0,1,0-6.072,2.741,2.741,0,0,1,4.3,0,6.174,6.174,0,0,1,0,6.072A2.574,2.574,0,0,1,472.943,139.246Zm0-.865a1.623,1.623,0,0,0,1.075-.365,2.23,2.23,0,0,0,.659-1.086,7.123,7.123,0,0,0,0-3.529,2.234,2.234,0,0,0-.659-1.086,1.759,1.759,0,0,0-2.148,0,2.229,2.229,0,0,0-.661,1.086,7.123,7.123,0,0,0,0,3.529,2.224,2.224,0,0,0,.661,1.086A1.615,1.615,0,0,0,472.943,138.381Z" fill="gray"/>
        </g>
        <g>
          <path d="M620.733,131.205h5.831v.9a11.383,11.383,0,0,0-1.626,2.166,8.882,8.882,0,0,0-.917,2.311,10.857,10.857,0,0,0-.288,2.543h-.984a10.338,10.338,0,0,1,.33-2.609,9.935,9.935,0,0,1,1-2.454,10.811,10.811,0,0,1,1.668-2.2l.156.24h-5.172Z" fill="gray"/>
          <path d="M630.429,139.246a2.77,2.77,0,0,1-1.7-.48,3.082,3.082,0,0,1-.99-1.332l.937-.493a2.33,2.33,0,0,0,.594,1.014,1.63,1.63,0,0,0,1.181.391,2.027,2.027,0,0,0,.943-.2,1.469,1.469,0,0,0,.605-.582,1.788,1.788,0,0,0,.217-.907,2.028,2.028,0,0,0-.2-.942,1.308,1.308,0,0,0-.571-.569,1.971,1.971,0,0,0-.912-.193,3.156,3.156,0,0,0-.714.078,1.963,1.963,0,0,0-.593.246,1.619,1.619,0,0,0-.457.444l-.839-.155.467-4.357h4.453v.9h-3.636l-.313,2.5-.023.107h.023a2.112,2.112,0,0,1,.739-.48,2.885,2.885,0,0,1,1.074-.18,2.616,2.616,0,0,1,1.313.318,2.231,2.231,0,0,1,.87.9,2.778,2.778,0,0,1,.312,1.343,2.854,2.854,0,0,1-.2,1.1,2.339,2.339,0,0,1-.576.834,2.53,2.53,0,0,1-.882.522A3.334,3.334,0,0,1,630.429,139.246Z" fill="gray"/>
        </g>
        <g>
          <path d="M769.453,139.125v-5.808c0-.135,0-.282.006-.438s.01-.317.018-.485a4.311,4.311,0,0,1-.948.69,4.44,4.44,0,0,1-1.1.426l-.252-.877a2.118,2.118,0,0,0,.546-.161,6.281,6.281,0,0,0,.7-.349,6.036,6.036,0,0,0,.678-.449,2.441,2.441,0,0,0,.48-.469h.84v7.92Z" fill="gray"/>
          <path d="M775.369,139.246a2.575,2.575,0,0,1-2.148-1.045,6.134,6.134,0,0,1,0-6.072,2.738,2.738,0,0,1,4.3,0,6.174,6.174,0,0,1,0,6.072A2.57,2.57,0,0,1,775.369,139.246Zm0-.865a1.615,1.615,0,0,0,1.073-.365,2.232,2.232,0,0,0,.661-1.086,7.123,7.123,0,0,0,0-3.529,2.236,2.236,0,0,0-.661-1.086,1.757,1.757,0,0,0-2.147,0,2.228,2.228,0,0,0-.66,1.086,7.123,7.123,0,0,0,0,3.529,2.223,2.223,0,0,0,.66,1.086A1.616,1.616,0,0,0,775.369,138.381Z" fill="gray"/>
          <path d="M782.833,139.246a2.575,2.575,0,0,1-2.148-1.045,6.134,6.134,0,0,1,0-6.072,2.738,2.738,0,0,1,4.3,0,6.174,6.174,0,0,1,0,6.072A2.57,2.57,0,0,1,782.833,139.246Zm0-.865a1.615,1.615,0,0,0,1.073-.365,2.223,2.223,0,0,0,.66-1.086,7.092,7.092,0,0,0,0-3.529,2.228,2.228,0,0,0-.66-1.086,1.757,1.757,0,0,0-2.147,0,2.228,2.228,0,0,0-.66,1.086,7.123,7.123,0,0,0,0,3.529,2.223,2.223,0,0,0,.66,1.086A1.616,1.616,0,0,0,782.833,138.381Z" fill="gray"/>
        </g>
        <g>
          <path d="M396.722,153.109a2.172,2.172,0,0,1,1.183.315,2.094,2.094,0,0,1,.77.889,3.447,3.447,0,0,1,0,2.689,2.088,2.088,0,0,1-.77.889,2.372,2.372,0,0,1-2.359,0,2.07,2.07,0,0,1-.777-.889,3.447,3.447,0,0,1,0-2.689,2.076,2.076,0,0,1,.777-.889A2.181,2.181,0,0,1,396.722,153.109Zm0,.882a1.139,1.139,0,0,0-.672.2,1.166,1.166,0,0,0-.42.566,2.96,2.96,0,0,0,0,1.8,1.17,1.17,0,0,0,.42.574,1.262,1.262,0,0,0,1.351,0,1.19,1.19,0,0,0,.413-.574,2.96,2.96,0,0,0,0-1.8,1.186,1.186,0,0,0-.413-.566A1.132,1.132,0,0,0,396.722,153.991Zm-.266,8.5,5.88-9.24H403.4l-5.88,9.24Zm6.678-4.956a2.172,2.172,0,0,1,1.183.315,2.088,2.088,0,0,1,.77.889,3.447,3.447,0,0,1,0,2.689,2.08,2.08,0,0,1-.77.888,2.366,2.366,0,0,1-2.359,0,2.062,2.062,0,0,1-.777-.888,3.447,3.447,0,0,1,0-2.689,2.07,2.07,0,0,1,.777-.889A2.181,2.181,0,0,1,403.134,157.533Zm0,.882a1.139,1.139,0,0,0-.672.2,1.178,1.178,0,0,0-.42.567,2.96,2.96,0,0,0,0,1.8,1.166,1.166,0,0,0,.42.574,1.262,1.262,0,0,0,1.351,0,1.186,1.186,0,0,0,.413-.574,2.96,2.96,0,0,0,0-1.8,1.2,1.2,0,0,0-.413-.567A1.131,1.131,0,0,0,403.134,158.415Z" fill="#4d4d4d"/>
          <path d="M414.894,155.35a3.494,3.494,0,0,1,1.757.433,3.036,3.036,0,0,1,1.2,1.253,4.611,4.611,0,0,1,0,3.906,3.036,3.036,0,0,1-1.2,1.253,3.759,3.759,0,0,1-3.507,0,3.021,3.021,0,0,1-1.2-1.253,4.611,4.611,0,0,1,0-3.906,3.021,3.021,0,0,1,1.2-1.253A3.5,3.5,0,0,1,414.894,155.35Zm0,.965a2.221,2.221,0,0,0-1.218.322,2.093,2.093,0,0,0-.777.918,3.89,3.89,0,0,0,0,2.863,2.094,2.094,0,0,0,.777.924,2.471,2.471,0,0,0,2.436,0,2.094,2.094,0,0,0,.777-.924,3.89,3.89,0,0,0,0-2.863,2.093,2.093,0,0,0-.777-.918A2.221,2.221,0,0,0,414.894,156.315Z" fill="#4d4d4d"/>
          <path d="M424.274,155.489v.966h-4.858v-.966Zm-1.162-3.29a2.714,2.714,0,0,1,.686.084,1.286,1.286,0,0,1,.5.238l-.294.911a1.144,1.144,0,0,0-.364-.162,1.829,1.829,0,0,0-.434-.049,1.4,1.4,0,0,0-.938.287,1.145,1.145,0,0,0-.336.918v8.063h-1.12v-8.176a2.513,2.513,0,0,1,.14-.854,1.745,1.745,0,0,1,.427-.672,1.938,1.938,0,0,1,.721-.433A2.974,2.974,0,0,1,423.112,152.2Z" fill="#4d4d4d"/>
          <path d="M433.906,155.489v.966h-5.068v-.966Zm-2.548-1.987v7.055a.96.96,0,0,0,.294.77,1.121,1.121,0,0,0,.756.252,1.607,1.607,0,0,0,.7-.14,1.881,1.881,0,0,0,.532-.378l.392.938a2.354,2.354,0,0,1-.763.462,2.842,2.842,0,0,1-1.015.168,2.6,2.6,0,0,1-.994-.189,1.579,1.579,0,0,1-.735-.6,2.013,2.013,0,0,1-.287-1.084v-6.945Z" fill="#4d4d4d"/>
          <path d="M435.571,162.489V152.27h1.12v4.269a2.16,2.16,0,0,1,.967-.91,3.09,3.09,0,0,1,1.316-.279,3.2,3.2,0,0,1,1.372.287,2.291,2.291,0,0,1,.987.875,2.76,2.76,0,0,1,.371,1.5v4.479h-1.121V158.4a2.137,2.137,0,0,0-.5-1.617,1.742,1.742,0,0,0-1.225-.455,2.331,2.331,0,0,0-1.007.238,1.954,1.954,0,0,0-.833.777,2.727,2.727,0,0,0-.33,1.435v3.71Z" fill="#4d4d4d"/>
          <path d="M447.164,162.629a3.572,3.572,0,0,1-1.771-.434,3.013,3.013,0,0,1-1.211-1.253,4.611,4.611,0,0,1,0-3.906,3.052,3.052,0,0,1,1.19-1.253,3.4,3.4,0,0,1,1.722-.433,3.161,3.161,0,0,1,1.673.42,2.766,2.766,0,0,1,1.057,1.14,3.547,3.547,0,0,1,.364,1.617c0,.159,0,.3-.015.434a3.087,3.087,0,0,1-.042.35h-5.655v-.994h5.166l-.575.113a2.091,2.091,0,0,0-.552-1.555,1.979,1.979,0,0,0-1.45-.546,2.158,2.158,0,0,0-1.183.316,2.056,2.056,0,0,0-.77.91,3.435,3.435,0,0,0-.273,1.434,3.361,3.361,0,0,0,.281,1.429,2.066,2.066,0,0,0,.791.916,2.279,2.279,0,0,0,1.225.315,2.386,2.386,0,0,0,1.253-.294,2.244,2.244,0,0,0,.777-.8l.881.518a2.918,2.918,0,0,1-1.645,1.365A3.808,3.808,0,0,1,447.164,162.629Z" fill="#4d4d4d"/>
          <path d="M460.8,153.249a3.378,3.378,0,0,1,2.268.728,2.462,2.462,0,0,1,.854,1.974,2.352,2.352,0,0,1-.861,1.94,3.525,3.525,0,0,1-2.275.693l-.1.069h-2.268v3.836H457.3v-9.24Zm-.014,4.355a2.227,2.227,0,0,0,1.477-.414,1.829,1.829,0,0,0,0-2.477,2.233,2.233,0,0,0-1.477-.414h-2.366V157.6Zm.644.223,3.052,4.662h-1.33l-2.66-4.046Z" fill="#4d4d4d"/>
          <path d="M469.087,162.629a3.572,3.572,0,0,1-1.771-.434,3.013,3.013,0,0,1-1.211-1.253,4.611,4.611,0,0,1,0-3.906,3.052,3.052,0,0,1,1.19-1.253,3.4,3.4,0,0,1,1.722-.433,3.161,3.161,0,0,1,1.673.42,2.766,2.766,0,0,1,1.057,1.14,3.547,3.547,0,0,1,.364,1.617c0,.159,0,.3-.014.434s-.024.248-.042.35H466.4v-.994h5.166l-.574.113a2.088,2.088,0,0,0-.553-1.555,1.978,1.978,0,0,0-1.449-.546,2.153,2.153,0,0,0-1.183.316,2.056,2.056,0,0,0-.77.91,3.419,3.419,0,0,0-.273,1.434,3.361,3.361,0,0,0,.28,1.429,2.066,2.066,0,0,0,.791.916,2.279,2.279,0,0,0,1.225.315,2.384,2.384,0,0,0,1.253-.294,2.235,2.235,0,0,0,.777-.8l.882.518a2.981,2.981,0,0,1-.679.826,2.946,2.946,0,0,1-.966.539A3.819,3.819,0,0,1,469.087,162.629Z" fill="#4d4d4d"/>
          <path d="M476.759,162.629a4.129,4.129,0,0,1-1.883-.434,3.1,3.1,0,0,1-1.323-1.232l.952-.686a2.324,2.324,0,0,0,.9,1.008,2.705,2.705,0,0,0,1.435.364,2.034,2.034,0,0,0,1.162-.287.872.872,0,0,0,.231-1.288,1.2,1.2,0,0,0-.721-.357l-1.68-.35a2.643,2.643,0,0,1-1.463-.7,1.755,1.755,0,0,1-.441-1.219,1.81,1.81,0,0,1,.329-1.05,2.294,2.294,0,0,1,.938-.762,3.326,3.326,0,0,1,1.435-.287,3.477,3.477,0,0,1,1.75.406,2.526,2.526,0,0,1,1.064,1.147l-.938.617a1.668,1.668,0,0,0-.77-.9,2.315,2.315,0,0,0-1.106-.287,2.368,2.368,0,0,0-.861.14,1.241,1.241,0,0,0-.546.385.888.888,0,0,0,.021,1.121,1.321,1.321,0,0,0,.784.371l1.75.363a2.418,2.418,0,0,1,1.372.645,1.6,1.6,0,0,1,.392,1.091,1.952,1.952,0,0,1-.35,1.155,2.216,2.216,0,0,1-.98.763A3.7,3.7,0,0,1,476.759,162.629Z" fill="#4d4d4d"/>
          <path d="M481.617,165.43v-9.941h.98l.1,1.708-.154-.195a2.4,2.4,0,0,1,.546-.861,2.57,2.57,0,0,1,.882-.582,2.972,2.972,0,0,1,1.12-.209,3,3,0,0,1,1.575.433,3.147,3.147,0,0,1,1.155,1.246,4.115,4.115,0,0,1,.434,1.96,4.064,4.064,0,0,1-.441,1.953,3.165,3.165,0,0,1-1.169,1.253,3.063,3.063,0,0,1-1.6.434,2.7,2.7,0,0,1-1.519-.427,2.41,2.41,0,0,1-.931-1.085l.14-.21v4.523Zm3.318-3.781a1.956,1.956,0,0,0,1.617-.727,3.013,3.013,0,0,0,.581-1.933,3.061,3.061,0,0,0-.567-1.932,1.9,1.9,0,0,0-1.589-.728,2.105,2.105,0,0,0-1.176.329,2.187,2.187,0,0,0-.784.924,3.274,3.274,0,0,0-.28,1.407,3.359,3.359,0,0,0,.273,1.4,2.138,2.138,0,0,0,.77.931A2.045,2.045,0,0,0,484.935,161.649Z" fill="#4d4d4d"/>
          <path d="M493.293,155.35a3.494,3.494,0,0,1,1.757.433,3.036,3.036,0,0,1,1.2,1.253,4.611,4.611,0,0,1,0,3.906,3.036,3.036,0,0,1-1.2,1.253,3.759,3.759,0,0,1-3.507,0,3.021,3.021,0,0,1-1.2-1.253,4.611,4.611,0,0,1,0-3.906,3.021,3.021,0,0,1,1.2-1.253A3.5,3.5,0,0,1,493.293,155.35Zm0,.965a2.221,2.221,0,0,0-1.218.322,2.093,2.093,0,0,0-.777.918,3.89,3.89,0,0,0,0,2.863,2.094,2.094,0,0,0,.777.924,2.471,2.471,0,0,0,2.436,0,2.094,2.094,0,0,0,.777-.924,3.89,3.89,0,0,0,0-2.863,2.093,2.093,0,0,0-.777-.918A2.221,2.221,0,0,0,493.293,156.315Z" fill="#4d4d4d"/>
          <path d="M498.794,162.489v-7h.981l.1,1.568-.182-.154a2.408,2.408,0,0,1,.6-.9,2.272,2.272,0,0,1,.875-.5,3.422,3.422,0,0,1,1.03-.154,3.2,3.2,0,0,1,1.372.287,2.291,2.291,0,0,1,.987.875,2.76,2.76,0,0,1,.371,1.5v4.479h-1.12V158.4a2.137,2.137,0,0,0-.5-1.617,1.746,1.746,0,0,0-1.226-.455,2.337,2.337,0,0,0-1.007.238,1.963,1.963,0,0,0-.833.771,2.684,2.684,0,0,0-.329,1.428v3.723Z" fill="#4d4d4d"/>
          <path d="M510.191,162.629a3.061,3.061,0,0,1-1.6-.434,3.108,3.108,0,0,1-1.162-1.253,4.11,4.11,0,0,1-.434-1.953,3.941,3.941,0,0,1,.461-1.973,3.219,3.219,0,0,1,2.843-1.666,2.548,2.548,0,0,1,1.5.447,2.126,2.126,0,0,1,.847,1.19l-.14.1V152.27h1.12v10.219h-.98l-.1-1.694.153-.084a2.029,2.029,0,0,1-.468,1.043,2.415,2.415,0,0,1-.91.651A2.935,2.935,0,0,1,510.191,162.629Zm.112-.98a2.041,2.041,0,0,0,1.169-.336,2.169,2.169,0,0,0,.77-.959,3.62,3.62,0,0,0,.273-1.463,3.163,3.163,0,0,0-.273-1.371,1.985,1.985,0,0,0-1.883-1.191,2,2,0,0,0-1.652.728,2.979,2.979,0,0,0-.588,1.932,3.034,3.034,0,0,0,.574,1.933A1.935,1.935,0,0,0,510.3,161.649Z" fill="#4d4d4d"/>
          <path d="M519.165,162.629a3.572,3.572,0,0,1-1.771-.434,3.007,3.007,0,0,1-1.211-1.253,4.611,4.611,0,0,1,0-3.906,3.052,3.052,0,0,1,1.19-1.253,3.4,3.4,0,0,1,1.722-.433,3.161,3.161,0,0,1,1.673.42,2.772,2.772,0,0,1,1.057,1.14,3.547,3.547,0,0,1,.363,1.617c0,.159,0,.3-.014.434a3.087,3.087,0,0,1-.042.35h-5.655v-.994h5.166l-.575.113a2.091,2.091,0,0,0-.552-1.555,1.981,1.981,0,0,0-1.45-.546,2.158,2.158,0,0,0-1.183.316,2.056,2.056,0,0,0-.77.91,3.435,3.435,0,0,0-.273,1.434,3.361,3.361,0,0,0,.281,1.429,2.066,2.066,0,0,0,.791.916,2.279,2.279,0,0,0,1.225.315,2.386,2.386,0,0,0,1.253-.294,2.244,2.244,0,0,0,.777-.8l.881.518a2.918,2.918,0,0,1-1.645,1.365A3.808,3.808,0,0,1,519.165,162.629Z" fill="#4d4d4d"/>
          <path d="M524.316,162.489v-7h.981l.1,1.568-.182-.154a2.4,2.4,0,0,1,.6-.9,2.272,2.272,0,0,1,.875-.5,3.422,3.422,0,0,1,1.03-.154,3.2,3.2,0,0,1,1.372.287,2.291,2.291,0,0,1,.987.875,2.76,2.76,0,0,1,.371,1.5v4.479h-1.12V158.4a2.137,2.137,0,0,0-.5-1.617,1.746,1.746,0,0,0-1.226-.455,2.337,2.337,0,0,0-1.007.238,1.963,1.963,0,0,0-.833.771,2.684,2.684,0,0,0-.329,1.428v3.723Z" fill="#4d4d4d"/>
          <path d="M537.084,155.489v.966h-5.067v-.966Zm-2.547-1.987v7.055a.956.956,0,0,0,.294.77,1.116,1.116,0,0,0,.755.252,1.612,1.612,0,0,0,.7-.14,1.876,1.876,0,0,0,.531-.378l.392.938a2.339,2.339,0,0,1-.762.462,2.846,2.846,0,0,1-1.015.168,2.607,2.607,0,0,1-1-.189,1.576,1.576,0,0,1-.734-.6,2,2,0,0,1-.287-1.084v-6.945Z" fill="#4d4d4d"/>
          <path d="M541.27,162.629a4.129,4.129,0,0,1-1.883-.434,3.1,3.1,0,0,1-1.323-1.232l.952-.686a2.324,2.324,0,0,0,.9,1.008,2.705,2.705,0,0,0,1.435.364,2.032,2.032,0,0,0,1.162-.287.872.872,0,0,0,.231-1.288,1.2,1.2,0,0,0-.721-.357l-1.68-.35a2.643,2.643,0,0,1-1.463-.7,1.755,1.755,0,0,1-.441-1.219,1.81,1.81,0,0,1,.329-1.05,2.294,2.294,0,0,1,.938-.762,3.326,3.326,0,0,1,1.435-.287,3.477,3.477,0,0,1,1.75.406,2.521,2.521,0,0,1,1.064,1.147l-.938.617a1.668,1.668,0,0,0-.77-.9,2.312,2.312,0,0,0-1.106-.287,2.368,2.368,0,0,0-.861.14,1.241,1.241,0,0,0-.546.385.888.888,0,0,0,.021,1.121,1.324,1.324,0,0,0,.784.371l1.75.363a2.418,2.418,0,0,1,1.372.645,1.6,1.6,0,0,1,.392,1.091,1.952,1.952,0,0,1-.35,1.155,2.21,2.21,0,0,1-.98.763A3.7,3.7,0,0,1,541.27,162.629Z" fill="#4d4d4d"/>
        </g>
        <g>
          <line x1="153.181" y1="127.327" x2="153.181" y2="123.327" fill="none" stroke="#ccc" stroke-miterlimit="10"/>
          <line x1="311.132" y1="127.327" x2="311.132" y2="123.327" fill="none" stroke="#ccc" stroke-miterlimit="10"/>
          <line x1="469.084" y1="127.327" x2="469.084" y2="123.327" fill="none" stroke="#ccc" stroke-miterlimit="10"/>
          <line x1="627.049" y1="127.327" x2="627.049" y2="123.327" fill="none" stroke="#ccc" stroke-miterlimit="10"/>
          <line x1="785" y1="127.327" x2="785" y2="123.327" fill="none" stroke="#ccc" stroke-miterlimit="10"/>
          <line x1="153" y1="123.5" x2="785" y2="123.5" fill="none" stroke="#ccc" stroke-miterlimit="10"/>
        </g>
      </g>
    </g>
    <g>
      <rect x="153.299" y="58.987" width="10.211" height="10.211" rx="3" fill="#e57373"/>
      <rect x="244.799" y="58.987" width="10.211" height="10.211" rx="3" fill="#f5c7c7"/>
      <g>
        <path d="M178.285,63.175a1.414,1.414,0,0,0-.361-1.038,1.364,1.364,0,0,0-1.019-.366,1.952,1.952,0,0,0-1.056.27,1.582,1.582,0,0,0-.637.869l-.779-.479a2.107,2.107,0,0,1,.887-1.086,2.925,2.925,0,0,1,1.609-.414,3.022,3.022,0,0,1,1.175.221,1.857,1.857,0,0,1,.834.672,2.015,2.015,0,0,1,.307,1.158v2.905c0,.288.151.431.456.431a1.656,1.656,0,0,0,.444-.059l-.048.756a1.4,1.4,0,0,1-.624.12,1.425,1.425,0,0,1-.624-.132.975.975,0,0,1-.432-.4,1.329,1.329,0,0,1-.156-.678V65.8l.239.036a1.581,1.581,0,0,1-.491.762,2.275,2.275,0,0,1-.78.432,2.8,2.8,0,0,1-.853.138,2.627,2.627,0,0,1-.983-.181,1.6,1.6,0,0,1-.726-.545,1.616,1.616,0,0,1,.18-2.016,2.4,2.4,0,0,1,1.254-.594l2.376-.468v.791l-1.933.4a2.205,2.205,0,0,0-.876.336.708.708,0,0,0-.288.6.744.744,0,0,0,.294.607,1.313,1.313,0,0,0,.835.233,2.389,2.389,0,0,0,.665-.09,1.738,1.738,0,0,0,.571-.275,1.315,1.315,0,0,0,.4-.469,1.454,1.454,0,0,0,.144-.666Z" fill="gray"/>
        <path d="M183.732,67.171a3.527,3.527,0,0,1-1.613-.372,2.658,2.658,0,0,1-1.135-1.057l.817-.588a1.993,1.993,0,0,0,.774.865,2.313,2.313,0,0,0,1.23.311,1.747,1.747,0,0,0,1-.245.749.749,0,0,0,.2-1.1,1.028,1.028,0,0,0-.619-.305l-1.44-.3a2.254,2.254,0,0,1-1.253-.6,1.507,1.507,0,0,1-.378-1.045,1.552,1.552,0,0,1,.281-.9,1.972,1.972,0,0,1,.805-.653,2.857,2.857,0,0,1,1.23-.246,3,3,0,0,1,1.5.348,2.178,2.178,0,0,1,.912.984l-.805.528a1.429,1.429,0,0,0-.659-.774,1.982,1.982,0,0,0-.948-.246,2.016,2.016,0,0,0-.738.12,1.067,1.067,0,0,0-.469.33.764.764,0,0,0-.162.474.751.751,0,0,0,.181.486,1.114,1.114,0,0,0,.671.318l1.5.312a2.076,2.076,0,0,1,1.177.552,1.377,1.377,0,0,1,.336.936,1.67,1.67,0,0,1-.3.99,1.9,1.9,0,0,1-.84.654A3.18,3.18,0,0,1,183.732,67.171Z" fill="gray"/>
        <path d="M190.38,60.931a2.992,2.992,0,0,1,1.506.372,2.6,2.6,0,0,1,1.026,1.074,3.953,3.953,0,0,1,0,3.348,2.608,2.608,0,0,1-1.026,1.074,3.222,3.222,0,0,1-3.006,0,2.6,2.6,0,0,1-1.032-1.074,3.953,3.953,0,0,1,0-3.348A2.591,2.591,0,0,1,188.88,61.3,3,3,0,0,1,190.38,60.931Zm0,.828a1.91,1.91,0,0,0-1.044.276,1.789,1.789,0,0,0-.666.785,3.337,3.337,0,0,0,0,2.455,1.778,1.778,0,0,0,.666.791,2.106,2.106,0,0,0,2.088,0,1.778,1.778,0,0,0,.666-.791,3.337,3.337,0,0,0,0-2.455,1.789,1.789,0,0,0-.666-.785A1.907,1.907,0,0,0,190.38,61.759Z" fill="gray"/>
        <path d="M197.581,60.931a2.913,2.913,0,0,1,1.1.192,2.35,2.35,0,0,1,.821.552,2.863,2.863,0,0,1,.564.852l-.912.432a1.809,1.809,0,0,0-.582-.883,1.6,1.6,0,0,0-1.013-.3,1.909,1.909,0,0,0-1.033.27,1.715,1.715,0,0,0-.66.779,3.418,3.418,0,0,0,0,2.455,1.713,1.713,0,0,0,.66.786,1.917,1.917,0,0,0,1.033.269,2.1,2.1,0,0,0,.81-.142,1.44,1.44,0,0,0,.564-.421,1.574,1.574,0,0,0,.3-.672l.889.311a2.941,2.941,0,0,1-.559.949,2.358,2.358,0,0,1-.852.606,2.894,2.894,0,0,1-1.133.21,3,3,0,0,1-1.5-.372,2.6,2.6,0,0,1-1.033-1.074,3.953,3.953,0,0,1,0-3.348,2.593,2.593,0,0,1,1.033-1.074A3,3,0,0,1,197.581,60.931Z" fill="gray"/>
        <path d="M202.3,59.9a.679.679,0,1,1,.522-.2A.705.705,0,0,1,202.3,59.9Zm.48,1.153v6h-.96v-6Z" fill="gray"/>
        <path d="M208.512,63.175a1.418,1.418,0,0,0-.36-1.038,1.366,1.366,0,0,0-1.02-.366,1.955,1.955,0,0,0-1.056.27,1.576,1.576,0,0,0-.636.869l-.78-.479a2.109,2.109,0,0,1,.888-1.086,2.921,2.921,0,0,1,1.608-.414,3.024,3.024,0,0,1,1.176.221,1.863,1.863,0,0,1,.834.672,2.023,2.023,0,0,1,.306,1.158v2.905c0,.288.152.431.456.431a1.65,1.65,0,0,0,.444-.059l-.048.756a1.4,1.4,0,0,1-.624.12,1.429,1.429,0,0,1-.624-.132.975.975,0,0,1-.432-.4,1.339,1.339,0,0,1-.156-.678V65.8l.24.036a1.59,1.59,0,0,1-.492.762,2.266,2.266,0,0,1-.78.432,2.789,2.789,0,0,1-.852.138,2.636,2.636,0,0,1-.984-.181,1.607,1.607,0,0,1-.726-.545,1.62,1.62,0,0,1,.18-2.016,2.408,2.408,0,0,1,1.254-.594l2.376-.468v.791l-1.932.4a2.205,2.205,0,0,0-.876.336.706.706,0,0,0-.288.6.741.741,0,0,0,.294.607,1.31,1.31,0,0,0,.834.233,2.4,2.4,0,0,0,.666-.09,1.733,1.733,0,0,0,.57-.275,1.305,1.305,0,0,0,.4-.469,1.441,1.441,0,0,0,.144-.666Z" fill="gray"/>
        <path d="M215.16,61.051v.828h-4.344v-.828Zm-2.183-1.7V65.4a.823.823,0,0,0,.252.66.956.956,0,0,0,.647.216,1.392,1.392,0,0,0,.6-.121,1.612,1.612,0,0,0,.455-.324l.337.805a2.046,2.046,0,0,1-.655.4,2.434,2.434,0,0,1-.87.144,2.22,2.22,0,0,1-.851-.162,1.351,1.351,0,0,1-.631-.517,1.723,1.723,0,0,1-.246-.93V59.611Z" fill="gray"/>
        <path d="M219.1,67.171a3.06,3.06,0,0,1-1.518-.372,2.586,2.586,0,0,1-1.038-1.074,3.953,3.953,0,0,1,0-3.348,2.613,2.613,0,0,1,1.02-1.074,2.911,2.911,0,0,1,1.476-.372,2.716,2.716,0,0,1,1.434.36,2.373,2.373,0,0,1,.906.978,3.03,3.03,0,0,1,.312,1.385c0,.137,0,.261-.012.373a2.789,2.789,0,0,1-.036.3h-4.848v-.851h4.428l-.492.095a1.79,1.79,0,0,0-.474-1.332,1.7,1.7,0,0,0-1.242-.467,1.854,1.854,0,0,0-1.014.27,1.764,1.764,0,0,0-.66.779,2.939,2.939,0,0,0-.234,1.231,2.88,2.88,0,0,0,.24,1.224,1.772,1.772,0,0,0,.678.786,1.971,1.971,0,0,0,1.05.269,2.042,2.042,0,0,0,1.074-.252,1.913,1.913,0,0,0,.666-.683l.756.444a2.509,2.509,0,0,1-1.41,1.17A3.271,3.271,0,0,1,219.1,67.171Z" fill="gray"/>
      </g>
      <g>
        <path d="M264.654,59.9a.679.679,0,1,1,.522-.2A.705.705,0,0,1,264.654,59.9Zm.48,1.153v6h-.96v-6Z" fill="gray"/>
        <path d="M267.366,67.051v-6h.84l.084,1.344-.156-.132a2.074,2.074,0,0,1,.516-.775,1.982,1.982,0,0,1,.75-.426,3,3,0,0,1,.882-.131,2.751,2.751,0,0,1,1.176.246,1.964,1.964,0,0,1,.846.75,2.368,2.368,0,0,1,.318,1.284v3.84h-.96v-3.5a1.833,1.833,0,0,0-.426-1.387,1.5,1.5,0,0,0-1.05-.389,2.008,2.008,0,0,0-.864.2,1.682,1.682,0,0,0-.714.66,2.31,2.31,0,0,0-.282,1.224v3.192Z" fill="gray"/>
        <path d="M277.134,67.171a2.622,2.622,0,0,1-1.368-.372,2.671,2.671,0,0,1-1-1.074,3.518,3.518,0,0,1-.372-1.674,3.369,3.369,0,0,1,.4-1.692,2.748,2.748,0,0,1,1.044-1.062,2.781,2.781,0,0,1,1.391-.366,2.192,2.192,0,0,1,1.291.383,1.818,1.818,0,0,1,.726,1.021l-.12.084V58.291h.96v8.76h-.84l-.084-1.452.132-.072a1.751,1.751,0,0,1-.4.894,2.066,2.066,0,0,1-.78.558A2.541,2.541,0,0,1,277.134,67.171Zm.095-.841a1.754,1.754,0,0,0,1-.287,1.871,1.871,0,0,0,.66-.822,3.1,3.1,0,0,0,.234-1.254,2.717,2.717,0,0,0-.234-1.176,1.7,1.7,0,0,0-1.614-1.02,1.716,1.716,0,0,0-1.416.624,2.556,2.556,0,0,0-.5,1.656,2.6,2.6,0,0,0,.492,1.656A1.656,1.656,0,0,0,277.229,66.33Z" fill="gray"/>
        <path d="M284.826,67.171a3.054,3.054,0,0,1-1.518-.372,2.586,2.586,0,0,1-1.038-1.074,3.943,3.943,0,0,1,0-3.348,2.607,2.607,0,0,1,1.02-1.074,2.911,2.911,0,0,1,1.476-.372,2.716,2.716,0,0,1,1.434.36,2.37,2.37,0,0,1,.905.978,3.03,3.03,0,0,1,.312,1.385c0,.137,0,.261-.011.373s-.02.211-.036.3h-4.849v-.851h4.429l-.492.095a1.79,1.79,0,0,0-.474-1.332,1.7,1.7,0,0,0-1.242-.467,1.854,1.854,0,0,0-1.014.27,1.758,1.758,0,0,0-.66.779,2.939,2.939,0,0,0-.235,1.231,2.88,2.88,0,0,0,.241,1.224,1.764,1.764,0,0,0,.677.786,1.974,1.974,0,0,0,1.051.269,2.036,2.036,0,0,0,1.073-.252,1.908,1.908,0,0,0,.667-.683l.756.444a2.509,2.509,0,0,1-1.41,1.17A3.271,3.271,0,0,1,284.826,67.171Z" fill="gray"/>
        <path d="M289.242,69.57V61.051h.84l.084,1.464-.132-.168a2.055,2.055,0,0,1,.468-.738,2.176,2.176,0,0,1,.756-.5,2.512,2.512,0,0,1,.96-.18,2.57,2.57,0,0,1,1.35.372,2.688,2.688,0,0,1,.99,1.068,3.521,3.521,0,0,1,.372,1.68,3.483,3.483,0,0,1-.378,1.674,2.713,2.713,0,0,1-1,1.074,2.622,2.622,0,0,1-1.368.372,2.32,2.32,0,0,1-1.3-.366,2.073,2.073,0,0,1-.8-.93l.12-.18V69.57Zm2.844-3.24a1.673,1.673,0,0,0,1.386-.623,2.58,2.58,0,0,0,.5-1.656,2.622,2.622,0,0,0-.486-1.656,1.628,1.628,0,0,0-1.362-.624,1.8,1.8,0,0,0-1.008.282,1.865,1.865,0,0,0-.672.792,2.812,2.812,0,0,0-.24,1.206,2.884,2.884,0,0,0,.234,1.2,1.841,1.841,0,0,0,.66.8A1.759,1.759,0,0,0,292.086,66.33Z" fill="gray"/>
        <path d="M299.274,67.171a3.06,3.06,0,0,1-1.518-.372,2.586,2.586,0,0,1-1.038-1.074,3.953,3.953,0,0,1,0-3.348,2.613,2.613,0,0,1,1.02-1.074,2.911,2.911,0,0,1,1.476-.372,2.716,2.716,0,0,1,1.434.36,2.373,2.373,0,0,1,.906.978,3.03,3.03,0,0,1,.312,1.385c0,.137,0,.261-.012.373a2.789,2.789,0,0,1-.036.3H296.97v-.851H301.4l-.492.095a1.79,1.79,0,0,0-.474-1.332,1.7,1.7,0,0,0-1.242-.467,1.854,1.854,0,0,0-1.014.27,1.764,1.764,0,0,0-.66.779,2.939,2.939,0,0,0-.234,1.231,2.88,2.88,0,0,0,.24,1.224,1.772,1.772,0,0,0,.678.786,1.971,1.971,0,0,0,1.05.269,2.042,2.042,0,0,0,1.074-.252,1.913,1.913,0,0,0,.666-.683l.756.444a2.509,2.509,0,0,1-1.41,1.17A3.271,3.271,0,0,1,299.274,67.171Z" fill="gray"/>
        <path d="M303.69,67.051v-6h.84l.084,1.344-.156-.132a2.062,2.062,0,0,1,.516-.775,1.975,1.975,0,0,1,.75-.426,3,3,0,0,1,.882-.131,2.751,2.751,0,0,1,1.176.246,1.964,1.964,0,0,1,.846.75,2.368,2.368,0,0,1,.318,1.284v3.84h-.96v-3.5a1.833,1.833,0,0,0-.426-1.387,1.5,1.5,0,0,0-1.05-.389,2.008,2.008,0,0,0-.864.2,1.682,1.682,0,0,0-.714.66,2.31,2.31,0,0,0-.282,1.224v3.192Z" fill="gray"/>
        <path d="M313.458,67.171a2.623,2.623,0,0,1-1.369-.372,2.671,2.671,0,0,1-1-1.074,3.53,3.53,0,0,1-.371-1.674,3.369,3.369,0,0,1,.4-1.692,2.734,2.734,0,0,1,1.044-1.062,2.778,2.778,0,0,1,1.391-.366,2.191,2.191,0,0,1,1.29.383,1.809,1.809,0,0,1,.726,1.021l-.119.084V58.291h.96v8.76h-.841l-.084-1.452.133-.072a1.752,1.752,0,0,1-.4.894,2.063,2.063,0,0,1-.779.558A2.549,2.549,0,0,1,313.458,67.171Zm.095-.841a1.756,1.756,0,0,0,1-.287,1.869,1.869,0,0,0,.659-.822,3.087,3.087,0,0,0,.235-1.254,2.7,2.7,0,0,0-.235-1.176,1.7,1.7,0,0,0-1.613-1.02,1.715,1.715,0,0,0-1.416.624,2.556,2.556,0,0,0-.5,1.656,2.6,2.6,0,0,0,.491,1.656A1.656,1.656,0,0,0,313.553,66.33Z" fill="gray"/>
        <path d="M321.149,67.171a3.06,3.06,0,0,1-1.518-.372,2.592,2.592,0,0,1-1.038-1.074,3.953,3.953,0,0,1,0-3.348,2.613,2.613,0,0,1,1.02-1.074,2.914,2.914,0,0,1,1.476-.372,2.716,2.716,0,0,1,1.434.36,2.373,2.373,0,0,1,.906.978,3.03,3.03,0,0,1,.312,1.385c0,.137,0,.261-.012.373a2.789,2.789,0,0,1-.036.3h-4.848v-.851h4.428l-.492.095a1.79,1.79,0,0,0-.473-1.332,1.7,1.7,0,0,0-1.243-.467,1.854,1.854,0,0,0-1.014.27,1.756,1.756,0,0,0-.659.779,2.923,2.923,0,0,0-.235,1.231,2.88,2.88,0,0,0,.24,1.224,1.772,1.772,0,0,0,.678.786,1.971,1.971,0,0,0,1.05.269,2.042,2.042,0,0,0,1.074-.252,1.9,1.9,0,0,0,.666-.683l.757.444a2.506,2.506,0,0,1-1.411,1.17A3.262,3.262,0,0,1,321.149,67.171Z" fill="gray"/>
        <path d="M325.566,67.051v-6h.84l.084,1.344-.157-.132a2.076,2.076,0,0,1,.517-.775,1.975,1.975,0,0,1,.75-.426,3,3,0,0,1,.882-.131,2.751,2.751,0,0,1,1.176.246,1.964,1.964,0,0,1,.846.75,2.368,2.368,0,0,1,.318,1.284v3.84h-.96v-3.5a1.833,1.833,0,0,0-.426-1.387,1.5,1.5,0,0,0-1.05-.389,2.016,2.016,0,0,0-.865.2,1.686,1.686,0,0,0-.713.66,2.31,2.31,0,0,0-.282,1.224v3.192Z" fill="gray"/>
        <path d="M336.509,61.051v.828h-4.343v-.828Zm-2.183-1.7V65.4a.823.823,0,0,0,.252.66.959.959,0,0,0,.648.216,1.387,1.387,0,0,0,.6-.121,1.6,1.6,0,0,0,.455-.324l.337.805a2.046,2.046,0,0,1-.655.4,2.434,2.434,0,0,1-.87.144,2.223,2.223,0,0,1-.851-.162,1.361,1.361,0,0,1-.631-.517,1.74,1.74,0,0,1-.246-.93V59.611Z" fill="gray"/>
      </g>
      <rect x="352.799" y="58.987" width="10.211" height="10.211" rx="3" fill="#999"/>
      <g>
        <path d="M375.678,63.175a1.418,1.418,0,0,0-.36-1.038,1.366,1.366,0,0,0-1.02-.366,1.955,1.955,0,0,0-1.056.27,1.576,1.576,0,0,0-.636.869l-.78-.479a2.109,2.109,0,0,1,.888-1.086,2.921,2.921,0,0,1,1.608-.414,3.024,3.024,0,0,1,1.176.221,1.863,1.863,0,0,1,.834.672,2.023,2.023,0,0,1,.306,1.158v2.905c0,.288.152.431.456.431a1.65,1.65,0,0,0,.444-.059l-.048.756a1.4,1.4,0,0,1-.624.12,1.429,1.429,0,0,1-.624-.132.975.975,0,0,1-.432-.4,1.339,1.339,0,0,1-.156-.678V65.8l.24.036a1.59,1.59,0,0,1-.492.762,2.266,2.266,0,0,1-.78.432,2.789,2.789,0,0,1-.852.138,2.636,2.636,0,0,1-.984-.181,1.607,1.607,0,0,1-.726-.545,1.62,1.62,0,0,1,.18-2.016,2.408,2.408,0,0,1,1.254-.594l2.376-.468v.791l-1.932.4a2.205,2.205,0,0,0-.876.336.706.706,0,0,0-.288.6.741.741,0,0,0,.294.607,1.31,1.31,0,0,0,.834.233,2.4,2.4,0,0,0,.666-.09,1.733,1.733,0,0,0,.57-.275,1.305,1.305,0,0,0,.4-.469,1.441,1.441,0,0,0,.144-.666Z" fill="gray"/>
        <path d="M378.966,67.051v-6h.84l.06.935a1.971,1.971,0,0,1,.846-.8,2.444,2.444,0,0,1,1.074-.252,2.6,2.6,0,0,1,1.2.288,1.932,1.932,0,0,1,.864.888,1.731,1.731,0,0,1,.54-.666,2.508,2.508,0,0,1,.762-.384,2.7,2.7,0,0,1,.786-.126,2.6,2.6,0,0,1,1.1.24,2.044,2.044,0,0,1,.858.743,2.3,2.3,0,0,1,.336,1.3v3.84h-.96V63.307a1.5,1.5,0,0,0-.408-1.176,1.469,1.469,0,0,0-1.008-.36,1.767,1.767,0,0,0-.876.228,1.674,1.674,0,0,0-.654.672,2.224,2.224,0,0,0-.246,1.092v3.288h-.96V63.307a1.5,1.5,0,0,0-.408-1.176,1.469,1.469,0,0,0-1.008-.36,1.794,1.794,0,0,0-.81.209,1.73,1.73,0,0,0-.69.666,2.306,2.306,0,0,0-.276,1.2v3.2Z" fill="gray"/>
        <path d="M393.342,67.171a2.392,2.392,0,0,1-.936-.181,2.191,2.191,0,0,1-1.212-1.235l.132-.168-.084,1.464h-.84v-8.76h.96v4.115l-.12-.179a2.058,2.058,0,0,1,.81-.93,2.357,2.357,0,0,1,1.3-.366,2.622,2.622,0,0,1,1.368.372,2.674,2.674,0,0,1,1,1.068,3.521,3.521,0,0,1,.372,1.68,3.483,3.483,0,0,1-.378,1.674,2.713,2.713,0,0,1-1,1.074A2.622,2.622,0,0,1,393.342,67.171Zm-.1-.841a1.673,1.673,0,0,0,1.386-.623,3.018,3.018,0,0,0,.006-3.312,1.657,1.657,0,0,0-1.38-.624,1.725,1.725,0,0,0-.99.288,1.929,1.929,0,0,0-.666.8,3.172,3.172,0,0,0-.006,2.406,1.806,1.806,0,0,0,.66.786A1.788,1.788,0,0,0,393.246,66.33Z" fill="gray"/>
        <path d="M398.406,59.9a.679.679,0,1,1,.522-.2A.705.705,0,0,1,398.406,59.9Zm.48,1.153v6h-.96v-6Z" fill="gray"/>
        <path d="M404.346,66.283a2.056,2.056,0,0,1,1.332.39,1.27,1.27,0,0,1,.48,1.038,1.468,1.468,0,0,1-.39,1.019,2.506,2.506,0,0,1-1.044.666,4.318,4.318,0,0,1-1.47.235,3.77,3.77,0,0,1-2.118-.481,1.381,1.381,0,0,1-.7-1.151,1.3,1.3,0,0,1,.318-.858,1.464,1.464,0,0,1,1.074-.426l-.084.18a1.626,1.626,0,0,1-.69-.366.966.966,0,0,1-.282-.75,1.136,1.136,0,0,1,.366-.846,1.829,1.829,0,0,1,1.086-.439l.636.324h-.12a1.419,1.419,0,0,0-.834.3.7.7,0,0,0-.246.51.555.555,0,0,0,.246.5,1.249,1.249,0,0,0,.69.162Zm-1.188-5.352a3.013,3.013,0,0,1,1.278.258,2.091,2.091,0,0,1,.87.713,1.935,1.935,0,0,1,0,2.107,2.076,2.076,0,0,1-.87.72,3.028,3.028,0,0,1-1.278.257,2.644,2.644,0,0,1-1.824-.569,1.87,1.87,0,0,1-.636-1.458,1.805,1.805,0,0,1,.318-1.057,2.143,2.143,0,0,1,.87-.713A2.973,2.973,0,0,1,403.158,60.931Zm.084,7.895a3.832,3.832,0,0,0,1.146-.143,1.558,1.558,0,0,0,.666-.372.709.709,0,0,0,.216-.493.61.61,0,0,0-.258-.515,1.634,1.634,0,0,0-.93-.192h-1.848a1.049,1.049,0,0,0-.648.2.645.645,0,0,0-.264.546.792.792,0,0,0,.51.707A3.106,3.106,0,0,0,403.242,68.826Zm-.084-7.115a1.594,1.594,0,0,0-1.044.342,1.181,1.181,0,0,0,0,1.806,1.74,1.74,0,0,0,2.088,0,1.181,1.181,0,0,0,0-1.806A1.594,1.594,0,0,0,403.158,61.711Zm3.012-1.764.216.852H406.3a1.509,1.509,0,0,0-.906.234.869.869,0,0,0-.318.75l-.588-.3a1.512,1.512,0,0,1,.216-.815,1.438,1.438,0,0,1,.588-.534,1.8,1.8,0,0,1,.816-.186h.06Z" fill="gray"/>
        <path d="M409.674,67.171a2.756,2.756,0,0,1-1.086-.216,1.832,1.832,0,0,1-.828-.7,2.277,2.277,0,0,1-.318-1.267V61.051h.96v3.683a1.6,1.6,0,0,0,.4,1.254,1.65,1.65,0,0,0,1.116.342,1.974,1.974,0,0,0,.66-.113,1.62,1.62,0,0,0,.582-.36,1.74,1.74,0,0,0,.408-.63,2.506,2.506,0,0,0,.15-.913V61.051h.96v6h-.84l-.06-.912a1.87,1.87,0,0,1-.846.786A2.972,2.972,0,0,1,409.674,67.171Z" fill="gray"/>
        <path d="M417.39,60.931a3,3,0,0,1,1.506.372,2.6,2.6,0,0,1,1.025,1.074,3.952,3.952,0,0,1,0,3.348A2.605,2.605,0,0,1,418.9,66.8a3.222,3.222,0,0,1-3.006,0,2.6,2.6,0,0,1-1.033-1.074,3.953,3.953,0,0,1,0-3.348A2.593,2.593,0,0,1,415.89,61.3,3,3,0,0,1,417.39,60.931Zm0,.828a1.9,1.9,0,0,0-1.044.276,1.783,1.783,0,0,0-.666.785,3.323,3.323,0,0,0,0,2.455,1.772,1.772,0,0,0,.666.791,2.106,2.106,0,0,0,2.088,0,1.785,1.785,0,0,0,.666-.791,3.35,3.35,0,0,0,0-2.455,1.8,1.8,0,0,0-.666-.785A1.91,1.91,0,0,0,417.39,61.759Z" fill="gray"/>
        <path d="M424.277,67.171a2.756,2.756,0,0,1-1.086-.216,1.832,1.832,0,0,1-.828-.7,2.277,2.277,0,0,1-.318-1.267V61.051h.96v3.683a1.6,1.6,0,0,0,.4,1.254,1.65,1.65,0,0,0,1.116.342,1.974,1.974,0,0,0,.66-.113,1.611,1.611,0,0,0,.582-.36,1.727,1.727,0,0,0,.408-.63,2.506,2.506,0,0,0,.15-.913V61.051h.96v6h-.839l-.061-.912a1.865,1.865,0,0,1-.846.786A2.972,2.972,0,0,1,424.277,67.171Z" fill="gray"/>
        <path d="M431.669,67.171a3.527,3.527,0,0,1-1.613-.372,2.658,2.658,0,0,1-1.135-1.057l.817-.588a1.993,1.993,0,0,0,.774.865,2.313,2.313,0,0,0,1.23.311,1.747,1.747,0,0,0,1-.245.749.749,0,0,0,.2-1.1,1.028,1.028,0,0,0-.619-.305l-1.44-.3a2.254,2.254,0,0,1-1.253-.6,1.507,1.507,0,0,1-.378-1.045,1.552,1.552,0,0,1,.281-.9,1.972,1.972,0,0,1,.805-.653,2.857,2.857,0,0,1,1.23-.246,3,3,0,0,1,1.5.348,2.178,2.178,0,0,1,.912.984l-.805.528a1.429,1.429,0,0,0-.659-.774,1.982,1.982,0,0,0-.948-.246,2.016,2.016,0,0,0-.738.12,1.067,1.067,0,0,0-.469.33.764.764,0,0,0-.162.474.751.751,0,0,0,.181.486,1.114,1.114,0,0,0,.671.318l1.5.312a2.076,2.076,0,0,1,1.177.552,1.377,1.377,0,0,1,.336.936,1.67,1.67,0,0,1-.3.99,1.9,1.9,0,0,1-.84.654A3.18,3.18,0,0,1,431.669,67.171Z" fill="gray"/>
      </g>
    </g>
    <g>
      <path d="M157.886,88.434a3.92,3.92,0,0,1,1.316.2,2.591,2.591,0,0,1,1,.636,3.364,3.364,0,0,1,.707,1.134l-1.316.63a1.993,1.993,0,0,0-.623-.952,1.816,1.816,0,0,0-1.183-.351,1.77,1.77,0,0,0-.966.267,2.247,2.247,0,0,0-.714.749,3.9,3.9,0,0,0-.448,1.134,6.14,6.14,0,0,0-.154,1.407v.252l.056.027a1.777,1.777,0,0,1,.553-.9,2.675,2.675,0,0,1,.9-.511,3.135,3.135,0,0,1,.994-.169,3.429,3.429,0,0,1,1.61.358,2.6,2.6,0,0,1,1.071,1.015,3.376,3.376,0,0,1-.021,3.171,2.753,2.753,0,0,1-1.127,1.05,3.743,3.743,0,0,1-1.729.371,3.363,3.363,0,0,1-2-.588,3.67,3.67,0,0,1-1.26-1.652,6.575,6.575,0,0,1-.434-2.492,6.245,6.245,0,0,1,.5-2.646,3.657,3.657,0,0,1,1.351-1.6A3.515,3.515,0,0,1,157.886,88.434Zm-.1,4.8a1.971,1.971,0,0,0-.938.218,1.639,1.639,0,0,0-.637.595,1.659,1.659,0,0,0-.231.883,1.63,1.63,0,0,0,.245.881,1.968,1.968,0,0,0,2.891.392,1.689,1.689,0,0,0,.476-1.273,1.867,1.867,0,0,0-.21-.905,1.4,1.4,0,0,0-.609-.587A2.166,2.166,0,0,0,157.788,93.234Z" fill="gray"/>
      <path d="M166.23,97.953a3.128,3.128,0,0,1-2.611-1.211,7.135,7.135,0,0,1,0-7.1,3.435,3.435,0,0,1,5.236,0,7.135,7.135,0,0,1,0,7.1A3.144,3.144,0,0,1,166.23,97.953Zm0-1.273a1.683,1.683,0,0,0,1.127-.386,2.359,2.359,0,0,0,.686-1.162,8.253,8.253,0,0,0,0-3.878,2.359,2.359,0,0,0-.686-1.162,1.842,1.842,0,0,0-2.254,0,2.316,2.316,0,0,0-.679,1.162,8.5,8.5,0,0,0,0,3.878,2.316,2.316,0,0,0,.679,1.162A1.683,1.683,0,0,0,166.23,96.68Z" fill="gray"/>
      <path d="M173.482,88.434a2.328,2.328,0,0,1,1.239.321,2.166,2.166,0,0,1,.812.9,3.34,3.34,0,0,1,0,2.709,2.145,2.145,0,0,1-.812.905,2.538,2.538,0,0,1-2.471,0,2.128,2.128,0,0,1-.819-.905,3.34,3.34,0,0,1,0-2.709,2.149,2.149,0,0,1,.819-.9A2.335,2.335,0,0,1,173.482,88.434Zm0,1.091a.992.992,0,0,0-.98.679,2.612,2.612,0,0,0,0,1.6,1.008,1.008,0,0,0,.378.5,1.061,1.061,0,0,0,.6.168,1.085,1.085,0,0,0,.616-.168,1.008,1.008,0,0,0,.378-.5,2.612,2.612,0,0,0,0-1.6,1.064,1.064,0,0,0-.371-.5A1.052,1.052,0,0,0,173.482,89.525Zm-.364,8.287,6.048-9.24h1.288l-6.034,9.24ZM180.09,92.8a2.32,2.32,0,0,1,1.239.322,2.154,2.154,0,0,1,.812.9,3.34,3.34,0,0,1,0,2.709,2.159,2.159,0,0,1-.812.9,2.531,2.531,0,0,1-2.471,0,2.142,2.142,0,0,1-.819-.9,3.34,3.34,0,0,1,0-2.709,2.137,2.137,0,0,1,.819-.9A2.327,2.327,0,0,1,180.09,92.8Zm0,1.106a1.059,1.059,0,0,0-.6.168,1.019,1.019,0,0,0-.378.5,2.612,2.612,0,0,0,0,1.6,1.054,1.054,0,0,0,.378.511,1.025,1.025,0,0,0,.6.175.989.989,0,0,0,.994-.686,2.231,2.231,0,0,0,.126-.784,2.32,2.32,0,0,0-.126-.812,1.03,1.03,0,0,0-.371-.5A1.077,1.077,0,0,0,180.09,93.907Z" fill="gray"/>
    </g>
    <g>
      <path d="M543.382,97.953a4.272,4.272,0,0,1-2.261-.581,2.944,2.944,0,0,1-1.309-1.631l1.456-.686a2.477,2.477,0,0,0,.392.868,1.685,1.685,0,0,0,.7.554,2.722,2.722,0,0,0,1.078.188,1.985,1.985,0,0,0,.924-.2,1.4,1.4,0,0,0,.581-.546,1.555,1.555,0,0,0,.2-.8,1.536,1.536,0,0,0-.175-.77,1.014,1.014,0,0,0-.546-.448,2.717,2.717,0,0,0-.945-.139c-.112,0-.226,0-.343,0s-.24.018-.371.036v-1.26c.084.01.166.016.245.021s.156.007.231.007a1.89,1.89,0,0,0,1.3-.364,1.476,1.476,0,0,0,.392-1.134,1.275,1.275,0,0,0-.4-1.009,1.683,1.683,0,0,0-1.141-.349,1.815,1.815,0,0,0-1.2.357,2.217,2.217,0,0,0-.651,1.029l-1.372-.574a2.726,2.726,0,0,1,.658-1.12,3.112,3.112,0,0,1,1.141-.735,4.168,4.168,0,0,1,1.491-.259,3.788,3.788,0,0,1,1.659.322,2.247,2.247,0,0,1,.994.882,2.417,2.417,0,0,1,.329,1.246,2.569,2.569,0,0,1-.154.931,2.183,2.183,0,0,1-.413.686,1.955,1.955,0,0,1-.56.441,2.2,2.2,0,0,1-.609.21v.028a2.038,2.038,0,0,1,1.365.567,1.825,1.825,0,0,1,.427.623,2.019,2.019,0,0,1,.154.8,2.589,2.589,0,0,1-.42,1.471,2.815,2.815,0,0,1-1.155.981A3.933,3.933,0,0,1,543.382,97.953Z" fill="gray"/>
      <path d="M547.513,88.572h7.042v1.246a12.177,12.177,0,0,0-1.876,2.472,9.861,9.861,0,0,0-1.03,2.632,12.826,12.826,0,0,0-.315,2.89h-1.512a11.723,11.723,0,0,1,.386-3,10.928,10.928,0,0,1,1.175-2.8,12.255,12.255,0,0,1,2-2.513l.281.378h-6.146Z" fill="gray"/>
      <path d="M557.886,88.434a2.328,2.328,0,0,1,1.239.321,2.175,2.175,0,0,1,.813.9,3.35,3.35,0,0,1,0,2.709,2.153,2.153,0,0,1-.813.905,2.538,2.538,0,0,1-2.471,0,2.128,2.128,0,0,1-.819-.905,3.34,3.34,0,0,1,0-2.709,2.149,2.149,0,0,1,.819-.9A2.338,2.338,0,0,1,557.886,88.434Zm0,1.091a.992.992,0,0,0-.98.679,2.612,2.612,0,0,0,0,1.6,1.008,1.008,0,0,0,.378.5,1.061,1.061,0,0,0,.6.168,1.085,1.085,0,0,0,.616-.168,1.008,1.008,0,0,0,.378-.5,2.612,2.612,0,0,0,0-1.6,1.064,1.064,0,0,0-.371-.5A1.05,1.05,0,0,0,557.886,89.525Zm-.364,8.287,6.048-9.24h1.288l-6.034,9.24Zm6.972-5.011a2.32,2.32,0,0,1,1.239.322,2.154,2.154,0,0,1,.812.9,3.34,3.34,0,0,1,0,2.709,2.159,2.159,0,0,1-.812.9,2.531,2.531,0,0,1-2.471,0,2.142,2.142,0,0,1-.819-.9,3.34,3.34,0,0,1,0-2.709,2.137,2.137,0,0,1,.819-.9A2.329,2.329,0,0,1,564.494,92.8Zm0,1.106a1.061,1.061,0,0,0-.6.168,1.019,1.019,0,0,0-.378.5,2.612,2.612,0,0,0,0,1.6,1.054,1.054,0,0,0,.378.511,1.027,1.027,0,0,0,.6.175.989.989,0,0,0,.994-.686,2.231,2.231,0,0,0,.126-.784,2.32,2.32,0,0,0-.126-.812,1.03,1.03,0,0,0-.371-.5A1.077,1.077,0,0,0,564.494,93.907Z" fill="gray"/>
    </g>
    <g>
      <path d="M768.858,97.953a4.266,4.266,0,0,1-2.26-.581,2.935,2.935,0,0,1-1.309-1.631l1.455-.686a2.461,2.461,0,0,0,.393.868,1.676,1.676,0,0,0,.7.554,2.719,2.719,0,0,0,1.078.188,1.985,1.985,0,0,0,.924-.2,1.409,1.409,0,0,0,.582-.546,1.565,1.565,0,0,0,.2-.8,1.536,1.536,0,0,0-.176-.77,1.014,1.014,0,0,0-.546-.448,2.715,2.715,0,0,0-.944-.139c-.113,0-.227,0-.344,0s-.24.018-.371.036v-1.26c.084.01.166.016.245.021s.157.007.232.007a1.9,1.9,0,0,0,1.3-.364,1.483,1.483,0,0,0,.391-1.134,1.277,1.277,0,0,0-.4-1.009,1.685,1.685,0,0,0-1.141-.349,1.811,1.811,0,0,0-1.2.357,2.218,2.218,0,0,0-.652,1.029l-1.372-.574a2.717,2.717,0,0,1,.659-1.12,3.1,3.1,0,0,1,1.14-.735,4.164,4.164,0,0,1,1.491-.259,3.8,3.8,0,0,1,1.66.322,2.253,2.253,0,0,1,.994.882,2.426,2.426,0,0,1,.328,1.246,2.592,2.592,0,0,1-.153.931,2.2,2.2,0,0,1-.414.686,1.942,1.942,0,0,1-.56.441,2.193,2.193,0,0,1-.609.21v.028a2.033,2.033,0,0,1,1.365.567,1.825,1.825,0,0,1,.427.623,2.019,2.019,0,0,1,.155.8,2.6,2.6,0,0,1-.42,1.471,2.821,2.821,0,0,1-1.155.981A3.941,3.941,0,0,1,768.858,97.953Z" fill="gray"/>
      <path d="M775.816,88.434a2.332,2.332,0,0,1,1.24.321,2.17,2.17,0,0,1,.811.9,3.34,3.34,0,0,1,0,2.709,2.149,2.149,0,0,1-.811.905,2.54,2.54,0,0,1-2.472,0,2.126,2.126,0,0,1-.818-.905,3.34,3.34,0,0,1,0-2.709,2.146,2.146,0,0,1,.818-.9A2.34,2.34,0,0,1,775.816,88.434Zm0,1.091a1.031,1.031,0,0,0-.6.175,1.045,1.045,0,0,0-.379.5,2.632,2.632,0,0,0,0,1.6,1.009,1.009,0,0,0,.379.5,1.057,1.057,0,0,0,.6.168,1.088,1.088,0,0,0,.617-.168,1.008,1.008,0,0,0,.378-.5,2.612,2.612,0,0,0,0-1.6.981.981,0,0,0-1-.679Zm-.363,8.287,6.047-9.24h1.289l-6.035,9.24Zm6.971-5.011a2.326,2.326,0,0,1,1.24.322,2.161,2.161,0,0,1,.812.9,3.35,3.35,0,0,1,0,2.709,2.166,2.166,0,0,1-.812.9,2.533,2.533,0,0,1-2.472,0,2.148,2.148,0,0,1-.819-.9,3.34,3.34,0,0,1,0-2.709,2.144,2.144,0,0,1,.819-.9A2.329,2.329,0,0,1,782.424,92.8Zm0,1.106a1.061,1.061,0,0,0-.6.168,1.019,1.019,0,0,0-.378.5,2.612,2.612,0,0,0,0,1.6,1.054,1.054,0,0,0,.378.511,1.027,1.027,0,0,0,.6.175.986.986,0,0,0,.994-.686,2.23,2.23,0,0,0,.127-.784,2.319,2.319,0,0,0-.127-.812,1.024,1.024,0,0,0-.371-.5A1.075,1.075,0,0,0,782.424,93.907Z" fill="gray"/>
    </g>
  </g>
</svg>
