<svg xmlns="http://www.w3.org/2000/svg" viewBox="0 0 375 153">
  <g id="background">
    <rect x="9" y="8" width="360" height="136" rx="5" fill="#f5f5f5"/>
  </g>
  <g id="texts">
    <g>
      <g>
        <path d="M226.838,81.13H19.354c-.895,0-1.621-1.343-1.621-3v-9c0-1.656.726-3,1.621-3H226.838Z" fill="#e57373"/>
        <path d="M357.649,81h-2.7V66h2.7c.895,0,1.621,1.343,1.621,3v9C359.27,79.657,358.544,81,357.649,81Z" fill="#999"/>
        <rect x="226.838" y="66.131" width="128.108" height="15" fill="#b3ddb5"/>
      </g>
      <g>
        <g>
          <path d="M21.891,103.246a2.575,2.575,0,0,1-2.148-1.045,6.128,6.128,0,0,1,0-6.072,2.74,2.74,0,0,1,4.3,0,6.174,6.174,0,0,1,0,6.072A2.572,2.572,0,0,1,21.891,103.246Zm0-.865a1.622,1.622,0,0,0,1.074-.365,2.231,2.231,0,0,0,.66-1.086,7.123,7.123,0,0,0,0-3.529,2.235,2.235,0,0,0-.66-1.086,1.759,1.759,0,0,0-2.148,0,2.228,2.228,0,0,0-.66,1.086,7.123,7.123,0,0,0,0,3.529,2.223,2.223,0,0,0,.66,1.086A1.616,1.616,0,0,0,21.891,102.381Z" fill="gray"/>
          <path d="M28.011,95.086a1.859,1.859,0,0,1,1.013.269,1.787,1.787,0,0,1,.661.762,2.967,2.967,0,0,1,0,2.3,1.787,1.787,0,0,1-.661.762,2.034,2.034,0,0,1-2.022,0,1.778,1.778,0,0,1-.666-.762,2.967,2.967,0,0,1,0-2.3A1.778,1.778,0,0,1,27,95.355,1.874,1.874,0,0,1,28.011,95.086Zm0,.756a.972.972,0,0,0-.576.168.985.985,0,0,0-.36.486,2.534,2.534,0,0,0,0,1.541.984.984,0,0,0,.36.492,1.082,1.082,0,0,0,1.158,0,1.011,1.011,0,0,0,.354-.492,2.554,2.554,0,0,0,0-1.541,1.013,1.013,0,0,0-.354-.486A.965.965,0,0,0,28.011,95.842Zm-.228,7.283,5.04-7.92h.911l-5.04,7.92Zm5.723-4.248a1.86,1.86,0,0,1,1.015.27,1.807,1.807,0,0,1,.66.763,2.95,2.95,0,0,1,0,2.3,1.807,1.807,0,0,1-.66.763,2.028,2.028,0,0,1-2.022,0,1.773,1.773,0,0,1-.666-.763,2.95,2.95,0,0,1,0-2.3,1.773,1.773,0,0,1,.666-.763A1.861,1.861,0,0,1,33.506,98.877Zm0,.756a.976.976,0,0,0-.575.168,1.01,1.01,0,0,0-.36.486,2.54,2.54,0,0,0,0,1.543,1,1,0,0,0,.36.491,1.08,1.08,0,0,0,1.157,0,1.016,1.016,0,0,0,.354-.491,2.54,2.54,0,0,0,0-1.543,1.025,1.025,0,0,0-.354-.486A.97.97,0,0,0,33.506,99.633Z" fill="gray"/>
        </g>
        <g>
          <path d="M97.7,103.125v-.779q1.188-.876,1.986-1.536a11.722,11.722,0,0,0,1.278-1.2,3.789,3.789,0,0,0,.684-1.025,2.6,2.6,0,0,0,.2-1.015,1.527,1.527,0,0,0-.45-1.145,1.9,1.9,0,0,0-2.538.1,2.357,2.357,0,0,0-.576,1.421l-.84-.5a3.1,3.1,0,0,1,.45-1.225,2.381,2.381,0,0,1,.924-.828,3,3,0,0,1,1.386-.3,3.145,3.145,0,0,1,1.1.18,2.411,2.411,0,0,1,.834.509,2.243,2.243,0,0,1,.534.787,2.636,2.636,0,0,1,.186,1.007,3.2,3.2,0,0,1-.36,1.458,5.566,5.566,0,0,1-1.188,1.494,17.712,17.712,0,0,1-2.244,1.729v.012q.132-.012.366-.018l.468-.013c.156,0,.274,0,.354,0h2.772v.9Z" fill="gray"/>
          <path d="M107.254,103.246a2.767,2.767,0,0,1-1.7-.48,3.067,3.067,0,0,1-.99-1.332l.936-.493a2.339,2.339,0,0,0,.594,1.014,1.633,1.633,0,0,0,1.182.391,2.022,2.022,0,0,0,.942-.2,1.465,1.465,0,0,0,.606-.582,1.8,1.8,0,0,0,.216-.907,2.015,2.015,0,0,0-.2-.942,1.306,1.306,0,0,0-.57-.569,1.971,1.971,0,0,0-.912-.193,3.156,3.156,0,0,0-.714.078,1.969,1.969,0,0,0-.594.246,1.616,1.616,0,0,0-.456.444l-.84-.155.468-4.357h4.452v.9h-3.636l-.312,2.5-.024.107h.024a2.1,2.1,0,0,1,.738-.48,2.888,2.888,0,0,1,1.074-.18,2.62,2.62,0,0,1,1.314.318,2.231,2.231,0,0,1,.87.895,2.778,2.778,0,0,1,.312,1.343,2.854,2.854,0,0,1-.2,1.1,2.326,2.326,0,0,1-.576.834,2.53,2.53,0,0,1-.882.522A3.326,3.326,0,0,1,107.254,103.246Z" fill="gray"/>
        </g>
        <g>
          <path d="M184.671,103.246a2.762,2.762,0,0,1-1.7-.48,3.061,3.061,0,0,1-.991-1.332l.936-.493a2.341,2.341,0,0,0,.595,1.014,1.629,1.629,0,0,0,1.181.391,2.03,2.03,0,0,0,.943-.2,1.471,1.471,0,0,0,.606-.582,1.8,1.8,0,0,0,.215-.907,2.016,2.016,0,0,0-.2-.942,1.313,1.313,0,0,0-.571-.569,1.968,1.968,0,0,0-.912-.193,3.163,3.163,0,0,0-.714.078,1.952,1.952,0,0,0-.593.246,1.6,1.6,0,0,0-.456.444l-.84-.155.468-4.357H187.1v.9h-3.637l-.312,2.5-.023.107h.023a2.094,2.094,0,0,1,.739-.48,2.883,2.883,0,0,1,1.073-.18,2.62,2.62,0,0,1,1.314.318,2.227,2.227,0,0,1,.871.895,2.778,2.778,0,0,1,.312,1.343,2.836,2.836,0,0,1-.2,1.1,2.336,2.336,0,0,1-.575.834,2.544,2.544,0,0,1-.883.522A3.318,3.318,0,0,1,184.671,103.246Z" fill="gray"/>
          <path d="M191.943,103.246A2.576,2.576,0,0,1,189.8,102.2a6.134,6.134,0,0,1,0-6.072,2.741,2.741,0,0,1,4.3,0,6.174,6.174,0,0,1,0,6.072A2.574,2.574,0,0,1,191.943,103.246Zm0-.865a1.623,1.623,0,0,0,1.075-.365,2.23,2.23,0,0,0,.659-1.086,7.123,7.123,0,0,0,0-3.529,2.234,2.234,0,0,0-.659-1.086,1.759,1.759,0,0,0-2.148,0,2.229,2.229,0,0,0-.661,1.086,7.123,7.123,0,0,0,0,3.529,2.224,2.224,0,0,0,.661,1.086A1.615,1.615,0,0,0,191.943,102.381Z" fill="gray"/>
        </g>
        <g>
          <path d="M267.733,95.205h5.831v.9a11.383,11.383,0,0,0-1.626,2.166,8.882,8.882,0,0,0-.917,2.311,10.857,10.857,0,0,0-.288,2.543h-.984a10.338,10.338,0,0,1,.33-2.609,9.935,9.935,0,0,1,1-2.454,10.811,10.811,0,0,1,1.668-2.2l.156.24h-5.172Z" fill="gray"/>
          <path d="M277.429,103.246a2.77,2.77,0,0,1-1.7-.48,3.082,3.082,0,0,1-.99-1.332l.937-.493a2.33,2.33,0,0,0,.594,1.014,1.63,1.63,0,0,0,1.181.391,2.027,2.027,0,0,0,.943-.2,1.469,1.469,0,0,0,.605-.582,1.788,1.788,0,0,0,.217-.907,2.028,2.028,0,0,0-.2-.942,1.308,1.308,0,0,0-.571-.569,1.971,1.971,0,0,0-.912-.193,3.156,3.156,0,0,0-.714.078,1.963,1.963,0,0,0-.593.246,1.619,1.619,0,0,0-.457.444l-.839-.155.467-4.357h4.453v.9h-3.636l-.313,2.5-.023.107h.023a2.112,2.112,0,0,1,.739-.48,2.885,2.885,0,0,1,1.074-.18,2.616,2.616,0,0,1,1.313.318,2.231,2.231,0,0,1,.87.895,2.778,2.778,0,0,1,.312,1.343,2.854,2.854,0,0,1-.2,1.1,2.339,2.339,0,0,1-.576.834,2.53,2.53,0,0,1-.882.522A3.334,3.334,0,0,1,277.429,103.246Z" fill="gray"/>
        </g>
        <g>
          <path d="M344.453,103.125V97.317c0-.135,0-.282.006-.438s.01-.317.018-.485a4.311,4.311,0,0,1-.948.69,4.44,4.44,0,0,1-1.1.426l-.252-.877a2.118,2.118,0,0,0,.546-.161,6.281,6.281,0,0,0,.7-.349,6.036,6.036,0,0,0,.678-.449,2.441,2.441,0,0,0,.48-.469h.84v7.92Z" fill="gray"/>
          <path d="M350.369,103.246a2.575,2.575,0,0,1-2.148-1.045,6.134,6.134,0,0,1,0-6.072,2.738,2.738,0,0,1,4.3,0,6.174,6.174,0,0,1,0,6.072A2.57,2.57,0,0,1,350.369,103.246Zm0-.865a1.615,1.615,0,0,0,1.073-.365,2.232,2.232,0,0,0,.661-1.086,7.123,7.123,0,0,0,0-3.529,2.236,2.236,0,0,0-.661-1.086,1.757,1.757,0,0,0-2.147,0,2.228,2.228,0,0,0-.66,1.086,7.123,7.123,0,0,0,0,3.529,2.223,2.223,0,0,0,.66,1.086A1.616,1.616,0,0,0,350.369,102.381Z" fill="gray"/>
          <path d="M357.833,103.246a2.575,2.575,0,0,1-2.148-1.045,6.134,6.134,0,0,1,0-6.072,2.738,2.738,0,0,1,4.3,0,6.174,6.174,0,0,1,0,6.072A2.57,2.57,0,0,1,357.833,103.246Zm0-.865a1.615,1.615,0,0,0,1.073-.365,2.223,2.223,0,0,0,.66-1.086,7.092,7.092,0,0,0,0-3.529,2.228,2.228,0,0,0-.66-1.086,1.757,1.757,0,0,0-2.147,0,2.228,2.228,0,0,0-.66,1.086,7.123,7.123,0,0,0,0,3.529,2.223,2.223,0,0,0,.66,1.086A1.616,1.616,0,0,0,357.833,102.381Z" fill="gray"/>
        </g>
        <g>
          <path d="M131.1,118.449a1.851,1.851,0,0,1,1.013.27,1.785,1.785,0,0,1,.66.762,2.941,2.941,0,0,1,0,2.3,1.785,1.785,0,0,1-.66.762,2.026,2.026,0,0,1-2.021,0,1.771,1.771,0,0,1-.666-.762,2.941,2.941,0,0,1,0-2.3,1.771,1.771,0,0,1,.666-.762A1.862,1.862,0,0,1,131.1,118.449Zm0,.756a.942.942,0,0,0-.936.654,2.537,2.537,0,0,0,0,1.542,1,1,0,0,0,.359.492,1.083,1.083,0,0,0,1.159,0,1.021,1.021,0,0,0,.354-.492,2.557,2.557,0,0,0,0-1.542,1.022,1.022,0,0,0-.354-.486A.981.981,0,0,0,131.1,119.205Zm-.228,7.284,5.04-7.92h.911l-5.04,7.92Zm5.724-4.248a1.845,1.845,0,0,1,1.013.271,1.77,1.77,0,0,1,.66.761,2.941,2.941,0,0,1,0,2.3,1.787,1.787,0,0,1-.66.763,2.032,2.032,0,0,1-2.021,0,1.78,1.78,0,0,1-.666-.763,2.941,2.941,0,0,1,0-2.3,1.763,1.763,0,0,1,.666-.761A1.854,1.854,0,0,1,136.6,122.241Zm0,.756a.984.984,0,0,0-.577.168,1,1,0,0,0-.359.486,2.537,2.537,0,0,0,0,1.542,1,1,0,0,0,.359.493,1.083,1.083,0,0,0,1.159,0,1.027,1.027,0,0,0,.353-.493,2.537,2.537,0,0,0,0-1.542,1.021,1.021,0,0,0-.353-.486A.976.976,0,0,0,136.6,123Z" fill="#4d4d4d"/>
          <path d="M146.678,120.369a3,3,0,0,1,1.506.372,2.618,2.618,0,0,1,1.025,1.074,3.952,3.952,0,0,1,0,3.348,2.612,2.612,0,0,1-1.025,1.074,3.222,3.222,0,0,1-3.006,0,2.59,2.59,0,0,1-1.032-1.074,3.943,3.943,0,0,1,0-3.348,2.6,2.6,0,0,1,1.032-1.074A3,3,0,0,1,146.678,120.369Zm0,.828a1.9,1.9,0,0,0-1.044.276,1.788,1.788,0,0,0-.666.787,3.318,3.318,0,0,0,0,2.453,1.789,1.789,0,0,0,.666.793,2.119,2.119,0,0,0,2.088,0,1.8,1.8,0,0,0,.666-.793,3.345,3.345,0,0,0,0-2.453,1.8,1.8,0,0,0-.666-.787A1.9,1.9,0,0,0,146.678,121.2Z" fill="#4d4d4d"/>
          <path d="M154.717,120.489v.828h-4.164v-.828Zm-1-2.819a2.336,2.336,0,0,1,.589.071,1.089,1.089,0,0,1,.431.2l-.252.78a.958.958,0,0,0-.312-.137,1.482,1.482,0,0,0-.371-.043,1.2,1.2,0,0,0-.805.246.983.983,0,0,0-.288.786v6.912h-.96v-7.008a2.162,2.162,0,0,1,.12-.732,1.491,1.491,0,0,1,.366-.575,1.671,1.671,0,0,1,.618-.373A2.582,2.582,0,0,1,153.721,117.67Z" fill="#4d4d4d"/>
          <path d="M162.974,120.489v.828H158.63v-.828Zm-2.184-1.7v6.049a.82.82,0,0,0,.252.659.96.96,0,0,0,.647.216,1.389,1.389,0,0,0,.6-.119,1.653,1.653,0,0,0,.455-.324l.337.8a2.041,2.041,0,0,1-.654.4,2.434,2.434,0,0,1-.87.144,2.228,2.228,0,0,1-.852-.162,1.341,1.341,0,0,1-.631-.515,1.751,1.751,0,0,1-.246-.93v-5.953Z" fill="#4d4d4d"/>
          <path d="M164.4,126.489v-8.76h.96v3.66a1.86,1.86,0,0,1,.828-.78,2.642,2.642,0,0,1,1.128-.24,2.748,2.748,0,0,1,1.176.246,1.967,1.967,0,0,1,.847.75,2.368,2.368,0,0,1,.317,1.284v3.84h-.96v-3.5a1.821,1.821,0,0,0-.426-1.385,1.5,1.5,0,0,0-1.049-.391,2.016,2.016,0,0,0-.865.2,1.665,1.665,0,0,0-.713.666,2.333,2.333,0,0,0-.283,1.23v3.18Z" fill="#4d4d4d"/>
          <path d="M174.337,126.609a3.06,3.06,0,0,1-1.518-.372,2.586,2.586,0,0,1-1.038-1.074,3.953,3.953,0,0,1,0-3.348,2.626,2.626,0,0,1,1.02-1.074,2.914,2.914,0,0,1,1.476-.372,2.716,2.716,0,0,1,1.434.36,2.373,2.373,0,0,1,.906.978,3.036,3.036,0,0,1,.312,1.387c0,.135,0,.26-.012.371a2.831,2.831,0,0,1-.036.3h-4.848v-.853h4.428l-.492.1a1.783,1.783,0,0,0-.474-1.332,1.688,1.688,0,0,0-1.242-.469,1.854,1.854,0,0,0-1.014.27,1.77,1.77,0,0,0-.66.781,2.933,2.933,0,0,0-.234,1.229,2.88,2.88,0,0,0,.24,1.224,1.772,1.772,0,0,0,.678.786,1.953,1.953,0,0,0,1.05.271,2.042,2.042,0,0,0,1.074-.252,1.924,1.924,0,0,0,.666-.684l.757.443a2.588,2.588,0,0,1-.582.708,2.512,2.512,0,0,1-.829.462A3.271,3.271,0,0,1,174.337,126.609Z" fill="#4d4d4d"/>
          <path d="M186.024,118.569a2.9,2.9,0,0,1,1.945.624,2.109,2.109,0,0,1,.732,1.692,2.012,2.012,0,0,1-.738,1.662,3.019,3.019,0,0,1-1.95.594l-.084.06h-1.945v3.288h-.96v-7.92Zm-.011,3.732a1.9,1.9,0,0,0,1.265-.354,1.569,1.569,0,0,0,0-2.124,1.914,1.914,0,0,0-1.265-.354h-2.029V122.3Zm.551.192,2.617,4h-1.14l-2.28-3.468Z" fill="#4d4d4d"/>
          <path d="M193.129,126.609a3.066,3.066,0,0,1-1.519-.372,2.592,2.592,0,0,1-1.038-1.074,3.953,3.953,0,0,1,0-3.348,2.621,2.621,0,0,1,1.021-1.074,2.907,2.907,0,0,1,1.475-.372,2.72,2.72,0,0,1,1.435.36,2.377,2.377,0,0,1,.905.978,3.036,3.036,0,0,1,.313,1.387c0,.135,0,.26-.012.371s-.021.213-.036.3h-4.849v-.853h4.429l-.492.1a1.787,1.787,0,0,0-.474-1.332,1.688,1.688,0,0,0-1.242-.469,1.855,1.855,0,0,0-1.015.27,1.762,1.762,0,0,0-.659.781,2.933,2.933,0,0,0-.234,1.229,2.88,2.88,0,0,0,.24,1.224,1.766,1.766,0,0,0,.678.786,1.95,1.95,0,0,0,1.049.271,2.046,2.046,0,0,0,1.075-.252,1.924,1.924,0,0,0,.666-.684l.756.443a2.57,2.57,0,0,1-.582.708,2.5,2.5,0,0,1-.829.462A3.26,3.26,0,0,1,193.129,126.609Z" fill="#4d4d4d"/>
          <path d="M199.705,126.609a3.534,3.534,0,0,1-1.614-.372,2.663,2.663,0,0,1-1.134-1.055l.816-.588a2,2,0,0,0,.774.863,2.3,2.3,0,0,0,1.23.313,1.738,1.738,0,0,0,1-.247.747.747,0,0,0,.36-.642.735.735,0,0,0-.162-.461,1.029,1.029,0,0,0-.618-.307l-1.44-.3a2.261,2.261,0,0,1-1.254-.6,1.5,1.5,0,0,1-.378-1.043,1.552,1.552,0,0,1,.281-.9,1.981,1.981,0,0,1,.8-.655,2.86,2.86,0,0,1,1.23-.246,3,3,0,0,1,1.5.348,2.173,2.173,0,0,1,.912.984l-.8.528a1.431,1.431,0,0,0-.66-.774,1.971,1.971,0,0,0-.948-.246,2.041,2.041,0,0,0-.738.12,1.072,1.072,0,0,0-.468.33.76.76,0,0,0,.018.96,1.124,1.124,0,0,0,.672.319l1.5.311a2.072,2.072,0,0,1,1.176.552,1.378,1.378,0,0,1,.336.936,1.676,1.676,0,0,1-.3.99,1.9,1.9,0,0,1-.84.654A3.187,3.187,0,0,1,199.705,126.609Z" fill="#4d4d4d"/>
          <path d="M203.869,129.01v-8.521h.84l.084,1.464-.132-.168a2.09,2.09,0,0,1,.468-.738,2.233,2.233,0,0,1,.756-.5,2.639,2.639,0,0,1,2.309.192,2.7,2.7,0,0,1,.991,1.068,3.524,3.524,0,0,1,.372,1.68,3.483,3.483,0,0,1-.378,1.674,2.713,2.713,0,0,1-1,1.074,2.622,2.622,0,0,1-1.368.372,2.317,2.317,0,0,1-1.3-.366,2.062,2.062,0,0,1-.8-.93l.12-.18v3.877Zm2.844-3.24a1.672,1.672,0,0,0,1.386-.625,2.576,2.576,0,0,0,.5-1.656,2.613,2.613,0,0,0-.487-1.655,1.625,1.625,0,0,0-1.361-.625,1.8,1.8,0,0,0-1.009.282,1.891,1.891,0,0,0-.672.792,2.809,2.809,0,0,0-.239,1.206,2.877,2.877,0,0,0,.233,1.2,1.843,1.843,0,0,0,.661.8A1.745,1.745,0,0,0,206.713,125.77Z" fill="#4d4d4d"/>
          <path d="M213.877,120.369a3,3,0,0,1,1.506.372,2.618,2.618,0,0,1,1.025,1.074,3.952,3.952,0,0,1,0,3.348,2.612,2.612,0,0,1-1.025,1.074,3.222,3.222,0,0,1-3.006,0,2.6,2.6,0,0,1-1.032-1.074,3.952,3.952,0,0,1,0-3.348,2.6,2.6,0,0,1,1.032-1.074A3,3,0,0,1,213.877,120.369Zm0,.828a1.9,1.9,0,0,0-1.044.276,1.788,1.788,0,0,0-.666.787,3.331,3.331,0,0,0,0,2.453,1.789,1.789,0,0,0,.666.793,2.119,2.119,0,0,0,2.088,0,1.8,1.8,0,0,0,.666-.793,3.345,3.345,0,0,0,0-2.453,1.8,1.8,0,0,0-.666-.787A1.9,1.9,0,0,0,213.877,121.2Z" fill="#4d4d4d"/>
          <path d="M218.593,126.489v-6h.84l.084,1.345-.157-.133a2.042,2.042,0,0,1,.516-.773,1.963,1.963,0,0,1,.75-.426,2.933,2.933,0,0,1,.883-.133,2.757,2.757,0,0,1,1.176.246,1.968,1.968,0,0,1,.845.75,2.368,2.368,0,0,1,.319,1.284v3.84h-.96v-3.5a1.825,1.825,0,0,0-.427-1.385,1.5,1.5,0,0,0-1.05-.391,2.008,2.008,0,0,0-.864.2,1.694,1.694,0,0,0-.714.66,2.311,2.311,0,0,0-.281,1.224v3.192Z" fill="#4d4d4d"/>
          <path d="M228.36,126.609a2.622,2.622,0,0,1-1.368-.372,2.671,2.671,0,0,1-1-1.074,3.53,3.53,0,0,1-.371-1.674,3.375,3.375,0,0,1,.4-1.692,2.753,2.753,0,0,1,1.043-1.062,2.785,2.785,0,0,1,1.392-.366,2.183,2.183,0,0,1,1.29.385,1.822,1.822,0,0,1,.727,1.019l-.12.084v-4.128h.959v8.76h-.839l-.084-1.452.132-.072a1.752,1.752,0,0,1-.4.894,2.076,2.076,0,0,1-.779.559A2.549,2.549,0,0,1,228.36,126.609Zm.1-.839a1.74,1.74,0,0,0,1-.289,1.858,1.858,0,0,0,.659-.822,3.1,3.1,0,0,0,.235-1.254,2.72,2.72,0,0,0-.235-1.176,1.7,1.7,0,0,0-1.613-1.02,1.717,1.717,0,0,0-1.416.625,2.554,2.554,0,0,0-.5,1.655,2.6,2.6,0,0,0,.491,1.656A1.655,1.655,0,0,0,228.456,125.77Z" fill="#4d4d4d"/>
          <path d="M236.053,126.609a3.063,3.063,0,0,1-1.519-.372,2.592,2.592,0,0,1-1.038-1.074,3.953,3.953,0,0,1,0-3.348,2.621,2.621,0,0,1,1.021-1.074,2.9,2.9,0,0,1,1.475-.372,2.72,2.72,0,0,1,1.435.36,2.377,2.377,0,0,1,.905.978,3.036,3.036,0,0,1,.313,1.387c0,.135,0,.26-.012.371s-.021.213-.036.3h-4.849v-.853h4.429l-.492.1a1.791,1.791,0,0,0-.474-1.332,1.69,1.69,0,0,0-1.242-.469,1.855,1.855,0,0,0-1.015.27,1.762,1.762,0,0,0-.659.781,2.933,2.933,0,0,0-.234,1.229,2.88,2.88,0,0,0,.24,1.224,1.766,1.766,0,0,0,.678.786,1.95,1.95,0,0,0,1.049.271,2.046,2.046,0,0,0,1.075-.252,1.924,1.924,0,0,0,.666-.684l.755.443a2.535,2.535,0,0,1-.582.708,2.487,2.487,0,0,1-.828.462A3.264,3.264,0,0,1,236.053,126.609Z" fill="#4d4d4d"/>
          <path d="M240.469,126.489v-6h.84l.084,1.345-.157-.133a2.042,2.042,0,0,1,.516-.773,1.963,1.963,0,0,1,.75-.426,2.933,2.933,0,0,1,.883-.133,2.757,2.757,0,0,1,1.176.246,1.968,1.968,0,0,1,.845.75,2.368,2.368,0,0,1,.319,1.284v3.84h-.96v-3.5a1.825,1.825,0,0,0-.427-1.385,1.5,1.5,0,0,0-1.05-.391,2.008,2.008,0,0,0-.864.2,1.694,1.694,0,0,0-.714.66,2.311,2.311,0,0,0-.281,1.224v3.192Z" fill="#4d4d4d"/>
          <path d="M251.412,120.489v.828h-4.344v-.828Zm-2.183-1.7v6.049a.819.819,0,0,0,.251.659.961.961,0,0,0,.649.216,1.387,1.387,0,0,0,.6-.119,1.673,1.673,0,0,0,.456-.324l.336.8a2.046,2.046,0,0,1-.655.4,2.434,2.434,0,0,1-.87.144,2.22,2.22,0,0,1-.851-.162,1.343,1.343,0,0,1-.63-.515,1.715,1.715,0,0,1-.246-.93v-5.953Z" fill="#4d4d4d"/>
          <path d="M255,126.609a3.527,3.527,0,0,1-1.613-.372,2.671,2.671,0,0,1-1.135-1.055l.816-.588a2,2,0,0,0,.775.863,2.3,2.3,0,0,0,1.229.313,1.738,1.738,0,0,0,1-.247.746.746,0,0,0,.2-1.1,1.035,1.035,0,0,0-.619-.307l-1.44-.3a2.261,2.261,0,0,1-1.254-.6,1.5,1.5,0,0,1-.378-1.043,1.546,1.546,0,0,1,.282-.9,1.972,1.972,0,0,1,.8-.655,2.864,2.864,0,0,1,1.231-.246,3,3,0,0,1,1.5.348,2.178,2.178,0,0,1,.912.984l-.805.528a1.425,1.425,0,0,0-.659-.774,1.974,1.974,0,0,0-.948-.246,2.047,2.047,0,0,0-.739.12,1.062,1.062,0,0,0-.467.33.758.758,0,0,0,.017.96,1.124,1.124,0,0,0,.672.319l1.5.311a2.076,2.076,0,0,1,1.177.552,1.378,1.378,0,0,1,.336.936,1.676,1.676,0,0,1-.3.99,1.89,1.89,0,0,1-.84.654A3.18,3.18,0,0,1,255,126.609Z" fill="#4d4d4d"/>
        </g>
        <g>
          <line x1="17.746" y1="91.327" x2="17.746" y2="87.327" fill="none" stroke="#ccc" stroke-miterlimit="10"/>
          <line x1="103.126" y1="91.327" x2="103.126" y2="87.327" fill="none" stroke="#ccc" stroke-miterlimit="10"/>
          <line x1="188.505" y1="91.327" x2="188.505" y2="87.327" fill="none" stroke="#ccc" stroke-miterlimit="10"/>
          <line x1="273.891" y1="91.327" x2="273.891" y2="87.327" fill="none" stroke="#ccc" stroke-miterlimit="10"/>
          <line x1="359.27" y1="91.327" x2="359.27" y2="87.327" fill="none" stroke="#ccc" stroke-miterlimit="10"/>
          <line x1="17.649" y1="87.5" x2="359.27" y2="87.5" fill="none" stroke="#ccc" stroke-miterlimit="10"/>
        </g>
      </g>
    </g>
    <g>
      <rect x="19.299" y="22.987" width="10.211" height="10.211" rx="3" fill="#e57373"/>
      <rect x="110.799" y="22.987" width="10.211" height="10.211" rx="3" fill="#b3ddb5"/>
      <g>
        <path d="M42.285,27.175a1.414,1.414,0,0,0-.361-1.038,1.364,1.364,0,0,0-1.019-.366,1.952,1.952,0,0,0-1.056.27,1.582,1.582,0,0,0-.637.869l-.779-.479a2.107,2.107,0,0,1,.887-1.086,2.925,2.925,0,0,1,1.609-.414,3.022,3.022,0,0,1,1.175.221,1.857,1.857,0,0,1,.834.672,2.015,2.015,0,0,1,.307,1.158v2.905c0,.288.151.431.456.431a1.656,1.656,0,0,0,.444-.059l-.048.756a1.4,1.4,0,0,1-.624.12A1.425,1.425,0,0,1,42.849,31a.975.975,0,0,1-.432-.4,1.329,1.329,0,0,1-.156-.678V29.8l.239.036a1.581,1.581,0,0,1-.491.762,2.275,2.275,0,0,1-.78.432,2.8,2.8,0,0,1-.853.138,2.627,2.627,0,0,1-.983-.181,1.6,1.6,0,0,1-.726-.545,1.616,1.616,0,0,1,.18-2.016,2.4,2.4,0,0,1,1.254-.594l2.376-.468v.791l-1.933.4a2.205,2.205,0,0,0-.876.336.708.708,0,0,0-.288.6.744.744,0,0,0,.294.607,1.313,1.313,0,0,0,.835.233,2.389,2.389,0,0,0,.665-.09,1.738,1.738,0,0,0,.571-.275,1.315,1.315,0,0,0,.4-.469,1.454,1.454,0,0,0,.144-.666Z" fill="#333"/>
        <path d="M47.732,31.171a3.527,3.527,0,0,1-1.613-.372,2.658,2.658,0,0,1-1.135-1.057l.817-.588a1.993,1.993,0,0,0,.774.865,2.313,2.313,0,0,0,1.23.311,1.747,1.747,0,0,0,1-.245A.749.749,0,0,0,49,28.98a1.028,1.028,0,0,0-.619-.3l-1.44-.3a2.254,2.254,0,0,1-1.253-.6,1.507,1.507,0,0,1-.378-1.045,1.552,1.552,0,0,1,.281-.9,1.972,1.972,0,0,1,.8-.653,2.857,2.857,0,0,1,1.23-.246,3,3,0,0,1,1.5.348,2.178,2.178,0,0,1,.912.984l-.8.528a1.429,1.429,0,0,0-.659-.774,1.982,1.982,0,0,0-.948-.246,2.016,2.016,0,0,0-.738.12,1.067,1.067,0,0,0-.469.33.764.764,0,0,0-.162.474.751.751,0,0,0,.181.486,1.114,1.114,0,0,0,.671.318l1.5.312a2.076,2.076,0,0,1,1.177.552,1.377,1.377,0,0,1,.336.936,1.67,1.67,0,0,1-.3.99,1.9,1.9,0,0,1-.84.654A3.18,3.18,0,0,1,47.732,31.171Z" fill="#333"/>
        <path d="M54.056,31.171a3.534,3.534,0,0,1-1.614-.372,2.655,2.655,0,0,1-1.134-1.057l.817-.588a1.991,1.991,0,0,0,.773.865,2.313,2.313,0,0,0,1.23.311,1.752,1.752,0,0,0,1-.245.749.749,0,0,0,.2-1.105,1.028,1.028,0,0,0-.618-.3l-1.44-.3a2.261,2.261,0,0,1-1.254-.6,1.507,1.507,0,0,1-.378-1.045,1.553,1.553,0,0,1,.282-.9,1.976,1.976,0,0,1,.8-.653,2.86,2.86,0,0,1,1.23-.246,2.993,2.993,0,0,1,1.5.348,2.173,2.173,0,0,1,.912.984l-.8.528a1.427,1.427,0,0,0-.66-.774,1.982,1.982,0,0,0-.948-.246,2.023,2.023,0,0,0-.738.12,1.064,1.064,0,0,0-.468.33.76.76,0,0,0,.018.96,1.118,1.118,0,0,0,.672.318l1.5.312a2.072,2.072,0,0,1,1.176.552,1.372,1.372,0,0,1,.336.936,1.676,1.676,0,0,1-.3.99,1.909,1.909,0,0,1-.84.654A3.187,3.187,0,0,1,54.056,31.171Z" fill="#333"/>
        <path d="M60.705,24.931a2.991,2.991,0,0,1,1.505.372,2.6,2.6,0,0,1,1.026,1.074,3.952,3.952,0,0,1,0,3.348A2.608,2.608,0,0,1,62.21,30.8a3.22,3.22,0,0,1-3.005,0,2.6,2.6,0,0,1-1.033-1.074,3.953,3.953,0,0,1,0-3.348A2.593,2.593,0,0,1,59.205,25.3,3,3,0,0,1,60.705,24.931Zm0,.828a1.9,1.9,0,0,0-1.044.276A1.783,1.783,0,0,0,59,26.82a3.323,3.323,0,0,0,0,2.455,1.772,1.772,0,0,0,.666.791,2.106,2.106,0,0,0,2.088,0,1.785,1.785,0,0,0,.666-.791,3.35,3.35,0,0,0,0-2.455,1.8,1.8,0,0,0-.666-.785A1.912,1.912,0,0,0,60.705,25.759Z" fill="#333"/>
        <path d="M67.9,24.931a2.909,2.909,0,0,1,1.1.192,2.364,2.364,0,0,1,.822.552,2.863,2.863,0,0,1,.564.852l-.912.432a1.816,1.816,0,0,0-.582-.883,1.6,1.6,0,0,0-1.014-.3,1.908,1.908,0,0,0-1.032.27,1.715,1.715,0,0,0-.66.779,3.418,3.418,0,0,0,0,2.455,1.713,1.713,0,0,0,.66.786,1.916,1.916,0,0,0,1.032.269,2.1,2.1,0,0,0,.81-.142,1.426,1.426,0,0,0,.564-.421,1.575,1.575,0,0,0,.306-.672l.888.311a2.922,2.922,0,0,1-.558.949,2.367,2.367,0,0,1-.852.606,2.9,2.9,0,0,1-1.134.21,3,3,0,0,1-1.5-.372,2.6,2.6,0,0,1-1.032-1.074,3.953,3.953,0,0,1,0-3.348A2.591,2.591,0,0,1,66.4,25.3,3,3,0,0,1,67.9,24.931Z" fill="#333"/>
        <path d="M72.621,23.9a.72.72,0,1,1,0-1.439.72.72,0,1,1,0,1.439Zm.48,1.153v6h-.96v-6Z" fill="#333"/>
        <path d="M78.836,27.175a1.418,1.418,0,0,0-.36-1.038,1.366,1.366,0,0,0-1.02-.366,1.955,1.955,0,0,0-1.056.27,1.576,1.576,0,0,0-.636.869l-.78-.479a2.109,2.109,0,0,1,.888-1.086,2.921,2.921,0,0,1,1.608-.414,3.024,3.024,0,0,1,1.176.221,1.863,1.863,0,0,1,.834.672,2.023,2.023,0,0,1,.306,1.158v2.905c0,.288.152.431.456.431a1.65,1.65,0,0,0,.444-.059l-.048.756a1.4,1.4,0,0,1-.624.12A1.429,1.429,0,0,1,79.4,31a.975.975,0,0,1-.432-.4,1.339,1.339,0,0,1-.156-.678V29.8l.24.036a1.59,1.59,0,0,1-.492.762,2.266,2.266,0,0,1-.78.432,2.789,2.789,0,0,1-.852.138,2.636,2.636,0,0,1-.984-.181,1.607,1.607,0,0,1-.726-.545,1.62,1.62,0,0,1,.18-2.016,2.408,2.408,0,0,1,1.254-.594l2.376-.468v.791l-1.932.4a2.205,2.205,0,0,0-.876.336.706.706,0,0,0-.288.6.741.741,0,0,0,.294.607,1.31,1.31,0,0,0,.834.233,2.4,2.4,0,0,0,.666-.09,1.733,1.733,0,0,0,.57-.275,1.305,1.305,0,0,0,.4-.469,1.441,1.441,0,0,0,.144-.666Z" fill="#333"/>
        <path d="M85.484,25.051v.828H81.14v-.828Zm-2.184-1.7V29.4a.823.823,0,0,0,.252.66.961.961,0,0,0,.648.216,1.384,1.384,0,0,0,.6-.121,1.617,1.617,0,0,0,.456-.324l.336.8a2.03,2.03,0,0,1-.654.4,2.434,2.434,0,0,1-.87.144,2.228,2.228,0,0,1-.852-.162,1.353,1.353,0,0,1-.63-.517,1.723,1.723,0,0,1-.246-.93V23.611Z" fill="#333"/>
        <path d="M89.42,31.171A3.06,3.06,0,0,1,87.9,30.8a2.586,2.586,0,0,1-1.038-1.074,3.953,3.953,0,0,1,0-3.348,2.613,2.613,0,0,1,1.02-1.074,2.911,2.911,0,0,1,1.476-.372,2.716,2.716,0,0,1,1.434.36,2.373,2.373,0,0,1,.906.978,3.03,3.03,0,0,1,.312,1.385c0,.137,0,.261-.012.373a2.789,2.789,0,0,1-.036.3H87.116v-.851h4.428l-.492.095a1.79,1.79,0,0,0-.474-1.332,1.7,1.7,0,0,0-1.242-.467,1.854,1.854,0,0,0-1.014.27,1.764,1.764,0,0,0-.66.779,2.939,2.939,0,0,0-.234,1.231,2.88,2.88,0,0,0,.24,1.224,1.772,1.772,0,0,0,.678.786,1.971,1.971,0,0,0,1.05.269,2.042,2.042,0,0,0,1.074-.252,1.913,1.913,0,0,0,.666-.683l.756.444a2.509,2.509,0,0,1-1.41,1.17A3.271,3.271,0,0,1,89.42,31.171Z" fill="#333"/>
      </g>
      <g>
        <path d="M128.654,23.9a.679.679,0,1,1,.522-.2A.705.705,0,0,1,128.654,23.9Zm.48,1.153v6h-.96v-6Z" fill="#333"/>
        <path d="M131.366,31.051v-6h.84l.084,1.344-.156-.132a2.074,2.074,0,0,1,.516-.775,1.982,1.982,0,0,1,.75-.426,3,3,0,0,1,.882-.131,2.751,2.751,0,0,1,1.176.246,1.964,1.964,0,0,1,.846.75,2.368,2.368,0,0,1,.318,1.284v3.84h-.96v-3.5a1.833,1.833,0,0,0-.426-1.387,1.5,1.5,0,0,0-1.05-.389,2.008,2.008,0,0,0-.864.2,1.682,1.682,0,0,0-.714.66,2.31,2.31,0,0,0-.282,1.224v3.192Z" fill="#333"/>
        <path d="M141.134,31.171a2.622,2.622,0,0,1-1.368-.372,2.671,2.671,0,0,1-1-1.074,3.518,3.518,0,0,1-.372-1.674,3.369,3.369,0,0,1,.4-1.692,2.748,2.748,0,0,1,1.044-1.062,2.781,2.781,0,0,1,1.391-.366,2.192,2.192,0,0,1,1.291.383,1.818,1.818,0,0,1,.726,1.021l-.12.084V22.291h.96v8.76h-.84l-.084-1.452.132-.072a1.751,1.751,0,0,1-.4.894,2.066,2.066,0,0,1-.78.558A2.541,2.541,0,0,1,141.134,31.171Zm.1-.841a1.754,1.754,0,0,0,1-.287,1.871,1.871,0,0,0,.66-.822,3.1,3.1,0,0,0,.234-1.254,2.717,2.717,0,0,0-.234-1.176,1.7,1.7,0,0,0-1.614-1.02,1.716,1.716,0,0,0-1.416.624,2.556,2.556,0,0,0-.5,1.656,2.6,2.6,0,0,0,.492,1.656A1.656,1.656,0,0,0,141.229,30.33Z" fill="#333"/>
        <path d="M148.826,31.171a3.054,3.054,0,0,1-1.518-.372,2.586,2.586,0,0,1-1.038-1.074,3.943,3.943,0,0,1,0-3.348,2.607,2.607,0,0,1,1.02-1.074,2.911,2.911,0,0,1,1.476-.372,2.716,2.716,0,0,1,1.434.36,2.37,2.37,0,0,1,.905.978,3.03,3.03,0,0,1,.312,1.385c0,.137,0,.261-.011.373s-.02.211-.036.3h-4.849v-.851h4.429l-.492.095a1.79,1.79,0,0,0-.474-1.332,1.7,1.7,0,0,0-1.242-.467,1.854,1.854,0,0,0-1.014.27,1.758,1.758,0,0,0-.66.779,2.939,2.939,0,0,0-.235,1.231,2.88,2.88,0,0,0,.241,1.224,1.764,1.764,0,0,0,.677.786,1.974,1.974,0,0,0,1.051.269,2.036,2.036,0,0,0,1.073-.252,1.908,1.908,0,0,0,.667-.683l.756.444a2.509,2.509,0,0,1-1.41,1.17A3.271,3.271,0,0,1,148.826,31.171Z" fill="#333"/>
        <path d="M153.242,33.57V25.051h.84l.084,1.464-.132-.168a2.055,2.055,0,0,1,.468-.738,2.176,2.176,0,0,1,.756-.5,2.512,2.512,0,0,1,.96-.18,2.57,2.57,0,0,1,1.35.372,2.688,2.688,0,0,1,.99,1.068,3.521,3.521,0,0,1,.372,1.68,3.483,3.483,0,0,1-.378,1.674,2.713,2.713,0,0,1-1,1.074,2.622,2.622,0,0,1-1.368.372,2.32,2.32,0,0,1-1.3-.366,2.073,2.073,0,0,1-.8-.93l.12-.18V33.57Zm2.844-3.24a1.673,1.673,0,0,0,1.386-.623,2.58,2.58,0,0,0,.5-1.656,2.622,2.622,0,0,0-.486-1.656,1.628,1.628,0,0,0-1.362-.624,1.8,1.8,0,0,0-1.008.282,1.865,1.865,0,0,0-.672.792,2.812,2.812,0,0,0-.24,1.206,2.884,2.884,0,0,0,.234,1.2,1.841,1.841,0,0,0,.66.8A1.759,1.759,0,0,0,156.086,30.33Z" fill="#333"/>
        <path d="M163.274,31.171a3.06,3.06,0,0,1-1.518-.372,2.586,2.586,0,0,1-1.038-1.074,3.952,3.952,0,0,1,0-3.348,2.613,2.613,0,0,1,1.02-1.074,2.911,2.911,0,0,1,1.476-.372,2.716,2.716,0,0,1,1.434.36,2.373,2.373,0,0,1,.906.978,3.03,3.03,0,0,1,.312,1.385c0,.137,0,.261-.012.373a2.789,2.789,0,0,1-.036.3H160.97v-.851H165.4l-.492.095a1.79,1.79,0,0,0-.474-1.332,1.7,1.7,0,0,0-1.242-.467,1.854,1.854,0,0,0-1.014.27,1.764,1.764,0,0,0-.66.779,2.939,2.939,0,0,0-.234,1.231,2.88,2.88,0,0,0,.24,1.224,1.772,1.772,0,0,0,.678.786,1.971,1.971,0,0,0,1.05.269,2.042,2.042,0,0,0,1.074-.252,1.913,1.913,0,0,0,.666-.683l.756.444a2.509,2.509,0,0,1-1.41,1.17A3.271,3.271,0,0,1,163.274,31.171Z" fill="#333"/>
        <path d="M167.69,31.051v-6h.84l.084,1.344-.156-.132a2.062,2.062,0,0,1,.516-.775,1.975,1.975,0,0,1,.75-.426,3,3,0,0,1,.882-.131,2.751,2.751,0,0,1,1.176.246,1.964,1.964,0,0,1,.846.75,2.368,2.368,0,0,1,.318,1.284v3.84h-.96v-3.5a1.833,1.833,0,0,0-.426-1.387,1.5,1.5,0,0,0-1.05-.389,2.008,2.008,0,0,0-.864.2,1.682,1.682,0,0,0-.714.66,2.31,2.31,0,0,0-.282,1.224v3.192Z" fill="#333"/>
        <path d="M177.458,31.171a2.623,2.623,0,0,1-1.369-.372,2.671,2.671,0,0,1-1-1.074,3.53,3.53,0,0,1-.371-1.674,3.369,3.369,0,0,1,.4-1.692,2.734,2.734,0,0,1,1.044-1.062,2.778,2.778,0,0,1,1.391-.366,2.191,2.191,0,0,1,1.29.383,1.809,1.809,0,0,1,.726,1.021l-.119.084V22.291h.96v8.76h-.841l-.084-1.452.133-.072a1.752,1.752,0,0,1-.4.894,2.063,2.063,0,0,1-.779.558A2.549,2.549,0,0,1,177.458,31.171Zm.095-.841a1.756,1.756,0,0,0,1-.287,1.869,1.869,0,0,0,.659-.822,3.087,3.087,0,0,0,.235-1.254,2.7,2.7,0,0,0-.235-1.176,1.7,1.7,0,0,0-1.613-1.02,1.715,1.715,0,0,0-1.416.624,2.556,2.556,0,0,0-.5,1.656,2.6,2.6,0,0,0,.491,1.656A1.656,1.656,0,0,0,177.553,30.33Z" fill="#333"/>
        <path d="M185.149,31.171a3.06,3.06,0,0,1-1.518-.372,2.592,2.592,0,0,1-1.038-1.074,3.952,3.952,0,0,1,0-3.348,2.613,2.613,0,0,1,1.02-1.074,2.914,2.914,0,0,1,1.476-.372,2.716,2.716,0,0,1,1.434.36,2.373,2.373,0,0,1,.906.978,3.03,3.03,0,0,1,.312,1.385c0,.137,0,.261-.012.373a2.789,2.789,0,0,1-.036.3h-4.848v-.851h4.428l-.492.095a1.79,1.79,0,0,0-.473-1.332,1.7,1.7,0,0,0-1.243-.467,1.854,1.854,0,0,0-1.014.27,1.756,1.756,0,0,0-.659.779,2.923,2.923,0,0,0-.235,1.231,2.88,2.88,0,0,0,.24,1.224,1.772,1.772,0,0,0,.678.786,1.971,1.971,0,0,0,1.05.269,2.042,2.042,0,0,0,1.074-.252,1.9,1.9,0,0,0,.666-.683l.757.444a2.506,2.506,0,0,1-1.411,1.17A3.262,3.262,0,0,1,185.149,31.171Z" fill="#333"/>
        <path d="M189.566,31.051v-6h.84l.084,1.344-.157-.132a2.076,2.076,0,0,1,.517-.775,1.975,1.975,0,0,1,.75-.426,3,3,0,0,1,.882-.131,2.751,2.751,0,0,1,1.176.246,1.964,1.964,0,0,1,.846.75,2.368,2.368,0,0,1,.318,1.284v3.84h-.96v-3.5a1.833,1.833,0,0,0-.426-1.387,1.5,1.5,0,0,0-1.05-.389,2.016,2.016,0,0,0-.865.2,1.686,1.686,0,0,0-.713.66,2.31,2.31,0,0,0-.282,1.224v3.192Z" fill="#333"/>
        <path d="M200.509,25.051v.828h-4.343v-.828Zm-2.183-1.7V29.4a.823.823,0,0,0,.252.66.959.959,0,0,0,.648.216,1.387,1.387,0,0,0,.6-.121,1.6,1.6,0,0,0,.455-.324l.337.8a2.046,2.046,0,0,1-.655.4,2.434,2.434,0,0,1-.87.144,2.223,2.223,0,0,1-.851-.162,1.361,1.361,0,0,1-.631-.517,1.74,1.74,0,0,1-.246-.93V23.611Z" fill="#333"/>
      </g>
      <rect x="218.799" y="22.987" width="10.211" height="10.211" rx="3" fill="#999"/>
      <g>
        <path d="M239.678,27.175a1.418,1.418,0,0,0-.36-1.038,1.366,1.366,0,0,0-1.02-.366,1.955,1.955,0,0,0-1.056.27,1.576,1.576,0,0,0-.636.869l-.78-.479a2.109,2.109,0,0,1,.888-1.086,2.921,2.921,0,0,1,1.608-.414,3.024,3.024,0,0,1,1.176.221,1.863,1.863,0,0,1,.834.672,2.023,2.023,0,0,1,.306,1.158v2.905c0,.288.152.431.456.431a1.65,1.65,0,0,0,.444-.059l-.048.756a1.4,1.4,0,0,1-.624.12,1.429,1.429,0,0,1-.624-.132.975.975,0,0,1-.432-.4,1.339,1.339,0,0,1-.156-.678V29.8l.24.036a1.59,1.59,0,0,1-.492.762,2.266,2.266,0,0,1-.78.432,2.789,2.789,0,0,1-.852.138,2.636,2.636,0,0,1-.984-.181,1.607,1.607,0,0,1-.726-.545,1.62,1.62,0,0,1,.18-2.016,2.408,2.408,0,0,1,1.254-.594l2.376-.468v.791l-1.932.4a2.205,2.205,0,0,0-.876.336.706.706,0,0,0-.288.6.741.741,0,0,0,.294.607,1.31,1.31,0,0,0,.834.233,2.4,2.4,0,0,0,.666-.09,1.733,1.733,0,0,0,.57-.275,1.305,1.305,0,0,0,.4-.469,1.441,1.441,0,0,0,.144-.666Z" fill="#333"/>
        <path d="M242.966,31.051v-6h.84l.06.935a1.971,1.971,0,0,1,.846-.8,2.444,2.444,0,0,1,1.074-.252,2.6,2.6,0,0,1,1.2.288,1.932,1.932,0,0,1,.864.888,1.731,1.731,0,0,1,.54-.666,2.508,2.508,0,0,1,.762-.384,2.7,2.7,0,0,1,.786-.126,2.6,2.6,0,0,1,1.1.24,2.044,2.044,0,0,1,.858.743,2.3,2.3,0,0,1,.336,1.3v3.84h-.96V27.307a1.5,1.5,0,0,0-.408-1.176,1.469,1.469,0,0,0-1.008-.36,1.767,1.767,0,0,0-.876.228,1.674,1.674,0,0,0-.654.672,2.224,2.224,0,0,0-.246,1.092v3.288h-.96V27.307a1.5,1.5,0,0,0-.408-1.176,1.469,1.469,0,0,0-1.008-.36,1.794,1.794,0,0,0-.81.209,1.73,1.73,0,0,0-.69.666,2.306,2.306,0,0,0-.276,1.2v3.2Z" fill="#333"/>
        <path d="M257.342,31.171a2.392,2.392,0,0,1-.936-.181,2.191,2.191,0,0,1-1.212-1.235l.132-.168-.084,1.464h-.84v-8.76h.96v4.115l-.12-.179a2.058,2.058,0,0,1,.81-.93,2.357,2.357,0,0,1,1.3-.366,2.622,2.622,0,0,1,1.368.372,2.674,2.674,0,0,1,1,1.068,3.521,3.521,0,0,1,.372,1.68,3.483,3.483,0,0,1-.378,1.674,2.713,2.713,0,0,1-1,1.074A2.622,2.622,0,0,1,257.342,31.171Zm-.1-.841a1.673,1.673,0,0,0,1.386-.623,3.018,3.018,0,0,0,.006-3.312,1.657,1.657,0,0,0-1.38-.624,1.725,1.725,0,0,0-.99.288,1.929,1.929,0,0,0-.666.8,3.172,3.172,0,0,0-.006,2.406,1.806,1.806,0,0,0,.66.786A1.788,1.788,0,0,0,257.246,30.33Z" fill="#333"/>
        <path d="M262.406,23.9a.679.679,0,1,1,.522-.2A.705.705,0,0,1,262.406,23.9Zm.48,1.153v6h-.96v-6Z" fill="#333"/>
        <path d="M268.346,30.283a2.056,2.056,0,0,1,1.332.39,1.27,1.27,0,0,1,.48,1.038,1.468,1.468,0,0,1-.39,1.019,2.506,2.506,0,0,1-1.044.666,4.318,4.318,0,0,1-1.47.235,3.77,3.77,0,0,1-2.118-.481,1.381,1.381,0,0,1-.7-1.151,1.3,1.3,0,0,1,.318-.858,1.464,1.464,0,0,1,1.074-.426l-.084.18a1.626,1.626,0,0,1-.69-.366.966.966,0,0,1-.282-.75,1.136,1.136,0,0,1,.366-.846,1.829,1.829,0,0,1,1.086-.439l.636.324h-.12a1.419,1.419,0,0,0-.834.295.7.7,0,0,0-.246.51.555.555,0,0,0,.246.5,1.249,1.249,0,0,0,.69.162Zm-1.188-5.352a3.013,3.013,0,0,1,1.278.258,2.091,2.091,0,0,1,.87.713,1.935,1.935,0,0,1,0,2.107,2.076,2.076,0,0,1-.87.72,3.028,3.028,0,0,1-1.278.257,2.644,2.644,0,0,1-1.824-.569,1.87,1.87,0,0,1-.636-1.458,1.805,1.805,0,0,1,.318-1.057,2.143,2.143,0,0,1,.87-.713A2.973,2.973,0,0,1,267.158,24.931Zm.084,7.9a3.832,3.832,0,0,0,1.146-.143,1.558,1.558,0,0,0,.666-.372.709.709,0,0,0,.216-.493.61.61,0,0,0-.258-.515,1.634,1.634,0,0,0-.93-.192h-1.848a1.049,1.049,0,0,0-.648.2.645.645,0,0,0-.264.546.792.792,0,0,0,.51.707A3.106,3.106,0,0,0,267.242,32.826Zm-.084-7.115a1.594,1.594,0,0,0-1.044.342,1.181,1.181,0,0,0,0,1.806,1.74,1.74,0,0,0,2.088,0,1.181,1.181,0,0,0,0-1.806A1.594,1.594,0,0,0,267.158,25.711Zm3.012-1.764.216.852H270.3a1.509,1.509,0,0,0-.906.234.869.869,0,0,0-.318.75l-.588-.3a1.512,1.512,0,0,1,.216-.815,1.438,1.438,0,0,1,.588-.534,1.8,1.8,0,0,1,.816-.186h.06Z" fill="#333"/>
        <path d="M273.674,31.171a2.756,2.756,0,0,1-1.086-.216,1.832,1.832,0,0,1-.828-.7,2.277,2.277,0,0,1-.318-1.267V25.051h.96v3.683a1.6,1.6,0,0,0,.4,1.254,1.65,1.65,0,0,0,1.116.342,1.974,1.974,0,0,0,.66-.113,1.62,1.62,0,0,0,.582-.36,1.74,1.74,0,0,0,.408-.63,2.506,2.506,0,0,0,.15-.913V25.051h.96v6h-.84l-.06-.912a1.87,1.87,0,0,1-.846.786A2.972,2.972,0,0,1,273.674,31.171Z" fill="#333"/>
        <path d="M281.39,24.931a3,3,0,0,1,1.506.372,2.6,2.6,0,0,1,1.025,1.074,3.952,3.952,0,0,1,0,3.348A2.605,2.605,0,0,1,282.9,30.8a3.222,3.222,0,0,1-3.006,0,2.6,2.6,0,0,1-1.033-1.074,3.953,3.953,0,0,1,0-3.348A2.593,2.593,0,0,1,279.89,25.3,3,3,0,0,1,281.39,24.931Zm0,.828a1.9,1.9,0,0,0-1.044.276,1.783,1.783,0,0,0-.666.785,3.323,3.323,0,0,0,0,2.455,1.772,1.772,0,0,0,.666.791,2.106,2.106,0,0,0,2.088,0,1.785,1.785,0,0,0,.666-.791,3.35,3.35,0,0,0,0-2.455,1.8,1.8,0,0,0-.666-.785A1.91,1.91,0,0,0,281.39,25.759Z" fill="#333"/>
        <path d="M288.277,31.171a2.756,2.756,0,0,1-1.086-.216,1.832,1.832,0,0,1-.828-.7,2.277,2.277,0,0,1-.318-1.267V25.051h.96v3.683a1.6,1.6,0,0,0,.4,1.254,1.65,1.65,0,0,0,1.116.342,1.974,1.974,0,0,0,.66-.113,1.611,1.611,0,0,0,.582-.36,1.727,1.727,0,0,0,.408-.63,2.506,2.506,0,0,0,.15-.913V25.051h.96v6h-.839l-.061-.912a1.865,1.865,0,0,1-.846.786A2.972,2.972,0,0,1,288.277,31.171Z" fill="#333"/>
        <path d="M295.669,31.171a3.527,3.527,0,0,1-1.613-.372,2.658,2.658,0,0,1-1.135-1.057l.817-.588a1.993,1.993,0,0,0,.774.865,2.313,2.313,0,0,0,1.23.311,1.747,1.747,0,0,0,1-.245.749.749,0,0,0,.2-1.105,1.028,1.028,0,0,0-.619-.3l-1.44-.3a2.254,2.254,0,0,1-1.253-.6,1.507,1.507,0,0,1-.378-1.045,1.552,1.552,0,0,1,.281-.9,1.972,1.972,0,0,1,.805-.653,2.857,2.857,0,0,1,1.23-.246,3,3,0,0,1,1.5.348,2.178,2.178,0,0,1,.912.984l-.805.528a1.429,1.429,0,0,0-.659-.774,1.982,1.982,0,0,0-.948-.246,2.016,2.016,0,0,0-.738.12,1.067,1.067,0,0,0-.469.33.764.764,0,0,0-.162.474.751.751,0,0,0,.181.486,1.114,1.114,0,0,0,.671.318l1.5.312a2.076,2.076,0,0,1,1.177.552,1.377,1.377,0,0,1,.336.936,1.67,1.67,0,0,1-.3.99,1.9,1.9,0,0,1-.84.654A3.18,3.18,0,0,1,295.669,31.171Z" fill="#333"/>
      </g>
    </g>
    <g>
      <path d="M20.886,52.434a3.92,3.92,0,0,1,1.316.2,2.591,2.591,0,0,1,1,.636,3.364,3.364,0,0,1,.707,1.134l-1.316.63a1.993,1.993,0,0,0-.623-.952,1.816,1.816,0,0,0-1.183-.351,1.77,1.77,0,0,0-.966.267,2.247,2.247,0,0,0-.714.749,3.9,3.9,0,0,0-.448,1.134,6.14,6.14,0,0,0-.154,1.407v.252l.056.027a1.777,1.777,0,0,1,.553-.9,2.675,2.675,0,0,1,.9-.511,3.135,3.135,0,0,1,.994-.169,3.429,3.429,0,0,1,1.61.358,2.6,2.6,0,0,1,1.071,1.015,3.376,3.376,0,0,1-.021,3.171,2.753,2.753,0,0,1-1.127,1.05,3.743,3.743,0,0,1-1.729.371,3.363,3.363,0,0,1-2-.588,3.67,3.67,0,0,1-1.26-1.652,6.575,6.575,0,0,1-.434-2.492,6.245,6.245,0,0,1,.5-2.646,3.657,3.657,0,0,1,1.351-1.6A3.515,3.515,0,0,1,20.886,52.434Zm-.1,4.8a1.971,1.971,0,0,0-.938.218,1.639,1.639,0,0,0-.637.595,1.659,1.659,0,0,0-.231.883,1.63,1.63,0,0,0,.245.881,1.968,1.968,0,0,0,2.891.392,1.689,1.689,0,0,0,.476-1.273,1.867,1.867,0,0,0-.21-.905,1.4,1.4,0,0,0-.609-.587A2.166,2.166,0,0,0,20.788,57.234Z" fill="gray"/>
      <path d="M29.23,61.953a3.128,3.128,0,0,1-2.611-1.211,5.684,5.684,0,0,1-.945-3.549,5.681,5.681,0,0,1,.945-3.548,3.435,3.435,0,0,1,5.236,0,5.681,5.681,0,0,1,.945,3.548,5.684,5.684,0,0,1-.945,3.549A3.144,3.144,0,0,1,29.23,61.953Zm0-1.273a1.683,1.683,0,0,0,1.127-.386,2.359,2.359,0,0,0,.686-1.162,8.253,8.253,0,0,0,0-3.878,2.359,2.359,0,0,0-.686-1.162,1.842,1.842,0,0,0-2.254,0,2.316,2.316,0,0,0-.679,1.162,8.5,8.5,0,0,0,0,3.878,2.316,2.316,0,0,0,.679,1.162A1.683,1.683,0,0,0,29.23,60.68Z" fill="gray"/>
      <path d="M36.482,52.434a2.328,2.328,0,0,1,1.239.321,2.166,2.166,0,0,1,.812.895,3.34,3.34,0,0,1,0,2.709,2.145,2.145,0,0,1-.812.905,2.538,2.538,0,0,1-2.471,0,2.128,2.128,0,0,1-.819-.905,3.34,3.34,0,0,1,0-2.709,2.149,2.149,0,0,1,.819-.895A2.335,2.335,0,0,1,36.482,52.434Zm0,1.091a.992.992,0,0,0-.98.679,2.612,2.612,0,0,0,0,1.6,1.008,1.008,0,0,0,.378.5,1.061,1.061,0,0,0,.6.168,1.085,1.085,0,0,0,.616-.168,1.008,1.008,0,0,0,.378-.5,2.612,2.612,0,0,0,0-1.6,1.064,1.064,0,0,0-.371-.5A1.052,1.052,0,0,0,36.482,53.525Zm-.364,8.287,6.048-9.24h1.288l-6.034,9.24ZM43.09,56.8a2.32,2.32,0,0,1,1.239.322,2.154,2.154,0,0,1,.812.9,3.34,3.34,0,0,1,0,2.709,2.159,2.159,0,0,1-.812.9,2.531,2.531,0,0,1-2.471,0,2.142,2.142,0,0,1-.819-.9,3.34,3.34,0,0,1,0-2.709,2.137,2.137,0,0,1,.819-.9A2.327,2.327,0,0,1,43.09,56.8Zm0,1.106a1.059,1.059,0,0,0-.6.168,1.019,1.019,0,0,0-.378.5,2.612,2.612,0,0,0,0,1.6,1.054,1.054,0,0,0,.378.511,1.025,1.025,0,0,0,.6.175.989.989,0,0,0,.994-.686,2.231,2.231,0,0,0,.126-.784,2.32,2.32,0,0,0-.126-.812,1.03,1.03,0,0,0-.371-.5A1.077,1.077,0,0,0,43.09,57.907Z" fill="gray"/>
    </g>
    <g>
      <path d="M229.382,61.953a4.272,4.272,0,0,1-2.261-.581,2.944,2.944,0,0,1-1.309-1.631l1.456-.686a2.477,2.477,0,0,0,.392.868,1.685,1.685,0,0,0,.7.554,2.722,2.722,0,0,0,1.078.188,1.985,1.985,0,0,0,.924-.2,1.4,1.4,0,0,0,.581-.546,1.555,1.555,0,0,0,.2-.8,1.536,1.536,0,0,0-.175-.77,1.014,1.014,0,0,0-.546-.448,2.717,2.717,0,0,0-.945-.139c-.112,0-.226,0-.343.005s-.24.018-.371.036v-1.26c.084.01.166.016.245.021s.156.007.231.007a1.89,1.89,0,0,0,1.3-.364,1.476,1.476,0,0,0,.392-1.134,1.275,1.275,0,0,0-.4-1.009,1.683,1.683,0,0,0-1.141-.349,1.815,1.815,0,0,0-1.2.357,2.217,2.217,0,0,0-.651,1.029l-1.372-.574a2.726,2.726,0,0,1,.658-1.12,3.112,3.112,0,0,1,1.141-.735,4.168,4.168,0,0,1,1.491-.259,3.788,3.788,0,0,1,1.659.322,2.247,2.247,0,0,1,.994.882,2.417,2.417,0,0,1,.329,1.246,2.569,2.569,0,0,1-.154.931,2.183,2.183,0,0,1-.413.686,1.955,1.955,0,0,1-.56.441,2.2,2.2,0,0,1-.609.21v.028a2.038,2.038,0,0,1,1.365.567,1.825,1.825,0,0,1,.427.623,2.019,2.019,0,0,1,.154.8,2.589,2.589,0,0,1-.42,1.471,2.815,2.815,0,0,1-1.155.981A3.933,3.933,0,0,1,229.382,61.953Z" fill="gray"/>
      <path d="M233.513,52.572h7.042v1.246a12.177,12.177,0,0,0-1.876,2.472,9.861,9.861,0,0,0-1.03,2.632,12.826,12.826,0,0,0-.315,2.89h-1.512a11.723,11.723,0,0,1,.386-3,10.928,10.928,0,0,1,1.175-2.8,12.255,12.255,0,0,1,1.995-2.513l.281.378h-6.146Z" fill="gray"/>
      <path d="M243.886,52.434a2.328,2.328,0,0,1,1.239.321,2.175,2.175,0,0,1,.813.895,3.35,3.35,0,0,1,0,2.709,2.153,2.153,0,0,1-.813.905,2.538,2.538,0,0,1-2.471,0,2.128,2.128,0,0,1-.819-.905,3.34,3.34,0,0,1,0-2.709,2.149,2.149,0,0,1,.819-.895A2.338,2.338,0,0,1,243.886,52.434Zm0,1.091a.992.992,0,0,0-.98.679,2.612,2.612,0,0,0,0,1.6,1.008,1.008,0,0,0,.378.5,1.061,1.061,0,0,0,.6.168,1.085,1.085,0,0,0,.616-.168,1.008,1.008,0,0,0,.378-.5,2.612,2.612,0,0,0,0-1.6,1.064,1.064,0,0,0-.371-.5A1.05,1.05,0,0,0,243.886,53.525Zm-.364,8.287,6.048-9.24h1.288l-6.034,9.24Zm6.972-5.011a2.32,2.32,0,0,1,1.239.322,2.154,2.154,0,0,1,.812.9,3.34,3.34,0,0,1,0,2.709,2.159,2.159,0,0,1-.812.9,2.531,2.531,0,0,1-2.471,0,2.142,2.142,0,0,1-.819-.9,3.34,3.34,0,0,1,0-2.709,2.137,2.137,0,0,1,.819-.9A2.329,2.329,0,0,1,250.494,56.8Zm0,1.106a1.061,1.061,0,0,0-.6.168,1.019,1.019,0,0,0-.378.5,2.612,2.612,0,0,0,0,1.6,1.054,1.054,0,0,0,.378.511,1.027,1.027,0,0,0,.6.175.989.989,0,0,0,.994-.686,2.231,2.231,0,0,0,.126-.784,2.32,2.32,0,0,0-.126-.812,1.03,1.03,0,0,0-.371-.5A1.077,1.077,0,0,0,250.494,57.907Z" fill="gray"/>
    </g>
    <g>
      <path d="M343.858,61.953a4.272,4.272,0,0,1-2.261-.581,2.938,2.938,0,0,1-1.308-1.631l1.455-.686a2.477,2.477,0,0,0,.392.868,1.685,1.685,0,0,0,.7.554,2.724,2.724,0,0,0,1.079.188,1.983,1.983,0,0,0,.923-.2,1.4,1.4,0,0,0,.581-.546,1.556,1.556,0,0,0,.2-.8,1.536,1.536,0,0,0-.176-.77,1.011,1.011,0,0,0-.546-.448,2.715,2.715,0,0,0-.944-.139c-.113,0-.227,0-.344.005s-.24.018-.371.036v-1.26c.084.01.166.016.245.021s.157.007.231.007a1.9,1.9,0,0,0,1.3-.364,1.479,1.479,0,0,0,.391-1.134,1.275,1.275,0,0,0-.4-1.009,1.68,1.68,0,0,0-1.14-.349,1.816,1.816,0,0,0-1.2.357,2.217,2.217,0,0,0-.651,1.029l-1.372-.574a2.717,2.717,0,0,1,.659-1.12,3.108,3.108,0,0,1,1.14-.735,4.168,4.168,0,0,1,1.491-.259,3.8,3.8,0,0,1,1.66.322,2.25,2.25,0,0,1,.993.882,2.417,2.417,0,0,1,.329,1.246,2.592,2.592,0,0,1-.153.931,2.2,2.2,0,0,1-.414.686,1.942,1.942,0,0,1-.56.441,2.193,2.193,0,0,1-.609.21v.028a2.033,2.033,0,0,1,1.365.567,1.825,1.825,0,0,1,.427.623,2.019,2.019,0,0,1,.154.8,2.589,2.589,0,0,1-.42,1.471,2.812,2.812,0,0,1-1.154.981A3.941,3.941,0,0,1,343.858,61.953Z" fill="gray"/>
      <path d="M350.816,52.434a2.332,2.332,0,0,1,1.24.321,2.179,2.179,0,0,1,.812.895,3.35,3.35,0,0,1,0,2.709,2.158,2.158,0,0,1-.812.905,2.54,2.54,0,0,1-2.472,0,2.126,2.126,0,0,1-.818-.905,3.34,3.34,0,0,1,0-2.709,2.146,2.146,0,0,1,.818-.895A2.34,2.34,0,0,1,350.816,52.434Zm0,1.091a.992.992,0,0,0-.98.679,2.612,2.612,0,0,0,0,1.6,1.008,1.008,0,0,0,.378.5,1.061,1.061,0,0,0,.6.168,1.088,1.088,0,0,0,.617-.168,1.008,1.008,0,0,0,.378-.5,2.612,2.612,0,0,0,0-1.6.981.981,0,0,0-1-.679Zm-.363,8.287,6.047-9.24h1.289l-6.035,9.24Zm6.971-5.011a2.326,2.326,0,0,1,1.24.322,2.161,2.161,0,0,1,.812.9,3.35,3.35,0,0,1,0,2.709,2.166,2.166,0,0,1-.812.9,2.533,2.533,0,0,1-2.472,0,2.133,2.133,0,0,1-.818-.9,3.329,3.329,0,0,1,0-2.709,2.129,2.129,0,0,1,.818-.9A2.332,2.332,0,0,1,357.424,56.8Zm0,1.106a1.061,1.061,0,0,0-.6.168,1.019,1.019,0,0,0-.378.5,2.612,2.612,0,0,0,0,1.6,1.054,1.054,0,0,0,.378.511,1.027,1.027,0,0,0,.6.175.986.986,0,0,0,.994-.686,2.231,2.231,0,0,0,.126-.784,2.32,2.32,0,0,0-.126-.812,1.03,1.03,0,0,0-.371-.5A1.077,1.077,0,0,0,357.424,57.907Z" fill="gray"/>
    </g>
  </g>
</svg>
