<svg xmlns="http://www.w3.org/2000/svg" viewBox="0 0 375 153">
  <g id="background">
    <rect x="9" y="6" width="360" height="138" rx="5" fill="#f5f5f5"/>
  </g>
  <g id="texts">
    <g>
      <g>
        <path d="M215.559,84.13H19.354c-.895,0-1.621-1.343-1.621-3v-9c0-1.656.726-3,1.621-3H215.559Z" fill="#64b5f6"/>
        <rect x="215.559" y="69.13" width="51.271" height="15" fill="#ffb74d"/>
        <path d="M357.649,84.13h-90.82v-15h90.82c.895,0,1.621,1.344,1.621,3v9C359.27,82.787,358.544,84.13,357.649,84.13Z" fill="#999"/>
      </g>
      <g>
        <g>
          <path d="M20.891,106.246a2.575,2.575,0,0,1-2.148-1.045,6.128,6.128,0,0,1,0-6.072,2.74,2.74,0,0,1,4.3,0,6.174,6.174,0,0,1,0,6.072A2.572,2.572,0,0,1,20.891,106.246Zm0-.865a1.622,1.622,0,0,0,1.074-.365,2.231,2.231,0,0,0,.66-1.086,7.123,7.123,0,0,0,0-3.529,2.235,2.235,0,0,0-.66-1.086,1.759,1.759,0,0,0-2.148,0,2.228,2.228,0,0,0-.66,1.086,7.123,7.123,0,0,0,0,3.529,2.223,2.223,0,0,0,.66,1.086A1.616,1.616,0,0,0,20.891,105.381Z" fill="gray"/>
          <path d="M27.011,98.086a1.859,1.859,0,0,1,1.013.269,1.787,1.787,0,0,1,.661.762,2.967,2.967,0,0,1,0,2.3,1.787,1.787,0,0,1-.661.762,2.034,2.034,0,0,1-2.022,0,1.778,1.778,0,0,1-.666-.762,2.967,2.967,0,0,1,0-2.3A1.778,1.778,0,0,1,26,98.355,1.874,1.874,0,0,1,27.011,98.086Zm0,.756a.972.972,0,0,0-.576.168.985.985,0,0,0-.36.486,2.534,2.534,0,0,0,0,1.541.984.984,0,0,0,.36.492,1.082,1.082,0,0,0,1.158,0,1.011,1.011,0,0,0,.354-.492,2.554,2.554,0,0,0,0-1.541,1.013,1.013,0,0,0-.354-.486A.965.965,0,0,0,27.011,98.842Zm-.228,7.283,5.04-7.92h.911l-5.04,7.92Zm5.723-4.248a1.86,1.86,0,0,1,1.015.27,1.807,1.807,0,0,1,.66.763,2.95,2.95,0,0,1,0,2.3,1.807,1.807,0,0,1-.66.763,2.028,2.028,0,0,1-2.022,0,1.773,1.773,0,0,1-.666-.763,2.95,2.95,0,0,1,0-2.3,1.773,1.773,0,0,1,.666-.763A1.861,1.861,0,0,1,32.506,101.877Zm0,.756a.976.976,0,0,0-.575.168,1.01,1.01,0,0,0-.36.486,2.54,2.54,0,0,0,0,1.543,1,1,0,0,0,.36.491,1.08,1.08,0,0,0,1.157,0,1.016,1.016,0,0,0,.354-.491,2.54,2.54,0,0,0,0-1.543,1.025,1.025,0,0,0-.354-.486A.97.97,0,0,0,32.506,102.633Z" fill="gray"/>
        </g>
        <g>
          <path d="M97.2,106.125v-.78q1.227-.876,2.052-1.536a11.977,11.977,0,0,0,1.321-1.2,3.827,3.827,0,0,0,.707-1.026,2.53,2.53,0,0,0,.21-1.014,1.5,1.5,0,0,0-.465-1.146,2.018,2.018,0,0,0-2.623.1,2.326,2.326,0,0,0-.595,1.422l-.868-.5a3.051,3.051,0,0,1,.465-1.224,2.43,2.43,0,0,1,.955-.828,3.19,3.19,0,0,1,1.433-.3,3.348,3.348,0,0,1,1.134.18,2.511,2.511,0,0,1,.862.51,2.224,2.224,0,0,1,.552.786,2.572,2.572,0,0,1,.192,1.008,3.122,3.122,0,0,1-.372,1.458,5.634,5.634,0,0,1-1.227,1.494,18.18,18.18,0,0,1-2.32,1.728v.012c.091-.008.217-.014.379-.018l.483-.012c.161,0,.283-.006.366-.006H102.7v.9Z" fill="gray"/>
          <path d="M107.067,106.245a2.928,2.928,0,0,1-1.755-.48,3.076,3.076,0,0,1-1.023-1.332l.967-.492a2.331,2.331,0,0,0,.614,1.014,1.723,1.723,0,0,0,1.222.39,2.132,2.132,0,0,0,.973-.2,1.5,1.5,0,0,0,.627-.582,1.759,1.759,0,0,0,.223-.906,1.954,1.954,0,0,0-.205-.942,1.335,1.335,0,0,0-.589-.57,2.092,2.092,0,0,0-.942-.192,3.3,3.3,0,0,0-.738.078,2.016,2.016,0,0,0-.614.246,1.643,1.643,0,0,0-.472.444l-.867-.156.483-4.356h4.6v.9h-3.758l-.322,2.5-.025.108h.025a2.147,2.147,0,0,1,.763-.48,3.074,3.074,0,0,1,1.11-.18,2.77,2.77,0,0,1,1.358.318,2.267,2.267,0,0,1,.9.894,2.706,2.706,0,0,1,.322,1.344,2.769,2.769,0,0,1-.211,1.1,2.31,2.31,0,0,1-.595.834,2.633,2.633,0,0,1-.911.522A3.573,3.573,0,0,1,107.067,106.245Z" fill="gray"/>
        </g>
        <g>
          <path d="M184.671,106.246a2.762,2.762,0,0,1-1.7-.48,3.061,3.061,0,0,1-.991-1.332l.936-.493a2.341,2.341,0,0,0,.595,1.014,1.629,1.629,0,0,0,1.181.391,2.03,2.03,0,0,0,.943-.2,1.471,1.471,0,0,0,.606-.582,1.8,1.8,0,0,0,.215-.907,2.016,2.016,0,0,0-.2-.942,1.313,1.313,0,0,0-.571-.569,1.968,1.968,0,0,0-.912-.193,3.163,3.163,0,0,0-.714.078,1.952,1.952,0,0,0-.593.246,1.6,1.6,0,0,0-.456.444l-.84-.155.468-4.357H187.1v.9h-3.637l-.312,2.5-.023.107h.023a2.094,2.094,0,0,1,.739-.48,2.883,2.883,0,0,1,1.073-.18,2.62,2.62,0,0,1,1.314.318,2.227,2.227,0,0,1,.871.895,2.778,2.778,0,0,1,.312,1.343,2.836,2.836,0,0,1-.2,1.1,2.336,2.336,0,0,1-.575.834,2.544,2.544,0,0,1-.883.522A3.318,3.318,0,0,1,184.671,106.246Z" fill="gray"/>
          <path d="M191.943,106.246A2.576,2.576,0,0,1,189.8,105.2a6.134,6.134,0,0,1,0-6.072,2.741,2.741,0,0,1,4.3,0,6.174,6.174,0,0,1,0,6.072A2.574,2.574,0,0,1,191.943,106.246Zm0-.865a1.623,1.623,0,0,0,1.075-.365,2.23,2.23,0,0,0,.659-1.086,7.123,7.123,0,0,0,0-3.529,2.234,2.234,0,0,0-.659-1.086,1.759,1.759,0,0,0-2.148,0,2.229,2.229,0,0,0-.661,1.086,7.123,7.123,0,0,0,0,3.529,2.224,2.224,0,0,0,.661,1.086A1.615,1.615,0,0,0,191.943,105.381Z" fill="gray"/>
        </g>
        <g>
          <path d="M267.733,98.205h5.831v.9a11.383,11.383,0,0,0-1.626,2.166,8.882,8.882,0,0,0-.917,2.311,10.857,10.857,0,0,0-.288,2.543h-.984a10.338,10.338,0,0,1,.33-2.609,9.935,9.935,0,0,1,1-2.454,10.811,10.811,0,0,1,1.668-2.2l.156.24h-5.172Z" fill="gray"/>
          <path d="M277.429,106.246a2.77,2.77,0,0,1-1.7-.48,3.082,3.082,0,0,1-.99-1.332l.937-.493a2.33,2.33,0,0,0,.594,1.014,1.63,1.63,0,0,0,1.181.391,2.027,2.027,0,0,0,.943-.2,1.469,1.469,0,0,0,.605-.582,1.788,1.788,0,0,0,.217-.907,2.028,2.028,0,0,0-.2-.942,1.308,1.308,0,0,0-.571-.569,1.971,1.971,0,0,0-.912-.193,3.156,3.156,0,0,0-.714.078,1.963,1.963,0,0,0-.593.246,1.619,1.619,0,0,0-.457.444l-.839-.155.467-4.357h4.453v.9h-3.636l-.313,2.5-.023.107h.023a2.112,2.112,0,0,1,.739-.48,2.885,2.885,0,0,1,1.074-.18,2.616,2.616,0,0,1,1.313.318,2.231,2.231,0,0,1,.87.895,2.778,2.778,0,0,1,.312,1.343,2.854,2.854,0,0,1-.2,1.1,2.339,2.339,0,0,1-.576.834,2.53,2.53,0,0,1-.882.522A3.334,3.334,0,0,1,277.429,106.246Z" fill="gray"/>
        </g>
        <g>
          <path d="M344.453,106.125v-5.808c0-.135,0-.282.006-.438s.01-.317.018-.485a4.311,4.311,0,0,1-.948.69,4.44,4.44,0,0,1-1.1.426l-.252-.877a2.118,2.118,0,0,0,.546-.161,6.281,6.281,0,0,0,.7-.349,6.036,6.036,0,0,0,.678-.449,2.441,2.441,0,0,0,.48-.469h.84v7.92Z" fill="gray"/>
          <path d="M350.369,106.246a2.575,2.575,0,0,1-2.148-1.045,6.134,6.134,0,0,1,0-6.072,2.738,2.738,0,0,1,4.3,0,6.174,6.174,0,0,1,0,6.072A2.57,2.57,0,0,1,350.369,106.246Zm0-.865a1.615,1.615,0,0,0,1.073-.365,2.232,2.232,0,0,0,.661-1.086,7.123,7.123,0,0,0,0-3.529,2.236,2.236,0,0,0-.661-1.086,1.757,1.757,0,0,0-2.147,0,2.228,2.228,0,0,0-.66,1.086,7.123,7.123,0,0,0,0,3.529,2.223,2.223,0,0,0,.66,1.086A1.616,1.616,0,0,0,350.369,105.381Z" fill="gray"/>
          <path d="M357.833,106.246a2.575,2.575,0,0,1-2.148-1.045,6.134,6.134,0,0,1,0-6.072,2.738,2.738,0,0,1,4.3,0,6.174,6.174,0,0,1,0,6.072A2.57,2.57,0,0,1,357.833,106.246Zm0-.865a1.615,1.615,0,0,0,1.073-.365,2.223,2.223,0,0,0,.66-1.086,7.092,7.092,0,0,0,0-3.529,2.228,2.228,0,0,0-.66-1.086,1.757,1.757,0,0,0-2.147,0,2.228,2.228,0,0,0-.66,1.086,7.123,7.123,0,0,0,0,3.529,2.223,2.223,0,0,0,.66,1.086A1.616,1.616,0,0,0,357.833,105.381Z" fill="gray"/>
        </g>
        <g>
          <path d="M126.1,118.449a1.851,1.851,0,0,1,1.013.27,1.785,1.785,0,0,1,.66.762,2.941,2.941,0,0,1,0,2.3,1.785,1.785,0,0,1-.66.762,2.026,2.026,0,0,1-2.021,0,1.771,1.771,0,0,1-.666-.762,2.941,2.941,0,0,1,0-2.3,1.771,1.771,0,0,1,.666-.762A1.862,1.862,0,0,1,126.1,118.449Zm0,.756a.942.942,0,0,0-.936.654,2.537,2.537,0,0,0,0,1.542,1,1,0,0,0,.359.492,1.083,1.083,0,0,0,1.159,0,1.021,1.021,0,0,0,.354-.492,2.557,2.557,0,0,0,0-1.542,1.022,1.022,0,0,0-.354-.486A.981.981,0,0,0,126.1,119.205Zm-.228,7.284,5.04-7.92h.911l-5.04,7.92Zm5.724-4.248a1.845,1.845,0,0,1,1.013.271,1.77,1.77,0,0,1,.66.761,2.941,2.941,0,0,1,0,2.3,1.787,1.787,0,0,1-.66.763,2.032,2.032,0,0,1-2.021,0,1.78,1.78,0,0,1-.666-.763,2.941,2.941,0,0,1,0-2.3,1.763,1.763,0,0,1,.666-.761A1.854,1.854,0,0,1,131.6,122.241Zm0,.756a.984.984,0,0,0-.577.168,1,1,0,0,0-.359.486,2.537,2.537,0,0,0,0,1.542,1,1,0,0,0,.359.493,1.083,1.083,0,0,0,1.159,0,1.027,1.027,0,0,0,.353-.493,2.537,2.537,0,0,0,0-1.542,1.021,1.021,0,0,0-.353-.486A.976.976,0,0,0,131.6,123Z" fill="#4d4d4d"/>
          <path d="M141.678,120.369a3,3,0,0,1,1.506.372,2.618,2.618,0,0,1,1.025,1.074,3.952,3.952,0,0,1,0,3.348,2.612,2.612,0,0,1-1.025,1.074,3.222,3.222,0,0,1-3.006,0,2.59,2.59,0,0,1-1.032-1.074,3.943,3.943,0,0,1,0-3.348,2.6,2.6,0,0,1,1.032-1.074A3,3,0,0,1,141.678,120.369Zm0,.828a1.9,1.9,0,0,0-1.044.276,1.788,1.788,0,0,0-.666.787,3.318,3.318,0,0,0,0,2.453,1.789,1.789,0,0,0,.666.793,2.119,2.119,0,0,0,2.088,0,1.8,1.8,0,0,0,.666-.793,3.345,3.345,0,0,0,0-2.453,1.8,1.8,0,0,0-.666-.787A1.9,1.9,0,0,0,141.678,121.2Z" fill="#4d4d4d"/>
          <path d="M149.717,120.489v.828h-4.164v-.828Zm-1-2.819a2.336,2.336,0,0,1,.589.071,1.089,1.089,0,0,1,.431.2l-.252.78a.958.958,0,0,0-.312-.137,1.482,1.482,0,0,0-.371-.043,1.2,1.2,0,0,0-.805.246.983.983,0,0,0-.288.786v6.912h-.96v-7.008a2.162,2.162,0,0,1,.12-.732,1.491,1.491,0,0,1,.366-.575,1.671,1.671,0,0,1,.618-.373A2.582,2.582,0,0,1,148.721,117.67Z" fill="#4d4d4d"/>
          <path d="M157.974,120.489v.828H153.63v-.828Zm-2.184-1.7v6.049a.82.82,0,0,0,.252.659.96.96,0,0,0,.647.216,1.389,1.389,0,0,0,.6-.119,1.653,1.653,0,0,0,.455-.324l.337.8a2.041,2.041,0,0,1-.654.4,2.434,2.434,0,0,1-.87.144,2.228,2.228,0,0,1-.852-.162,1.341,1.341,0,0,1-.631-.515,1.751,1.751,0,0,1-.246-.93v-5.953Z" fill="#4d4d4d"/>
          <path d="M159.4,126.489v-8.76h.96v3.66a1.86,1.86,0,0,1,.828-.78,2.642,2.642,0,0,1,1.128-.24,2.748,2.748,0,0,1,1.176.246,1.967,1.967,0,0,1,.847.75,2.368,2.368,0,0,1,.317,1.284v3.84h-.96v-3.5a1.821,1.821,0,0,0-.426-1.385,1.5,1.5,0,0,0-1.049-.391,2.016,2.016,0,0,0-.865.2,1.665,1.665,0,0,0-.713.666,2.333,2.333,0,0,0-.283,1.23v3.18Z" fill="#4d4d4d"/>
          <path d="M169.337,126.609a3.06,3.06,0,0,1-1.518-.372,2.586,2.586,0,0,1-1.038-1.074,3.953,3.953,0,0,1,0-3.348,2.626,2.626,0,0,1,1.02-1.074,2.914,2.914,0,0,1,1.476-.372,2.716,2.716,0,0,1,1.434.36,2.373,2.373,0,0,1,.906.978,3.036,3.036,0,0,1,.312,1.387c0,.135,0,.26-.012.371a2.831,2.831,0,0,1-.036.3h-4.848v-.853h4.428l-.492.1a1.783,1.783,0,0,0-.474-1.332,1.688,1.688,0,0,0-1.242-.469,1.854,1.854,0,0,0-1.014.27,1.77,1.77,0,0,0-.66.781,2.933,2.933,0,0,0-.234,1.229,2.88,2.88,0,0,0,.24,1.224,1.772,1.772,0,0,0,.678.786,1.953,1.953,0,0,0,1.05.271,2.042,2.042,0,0,0,1.074-.252,1.924,1.924,0,0,0,.666-.684l.757.443a2.588,2.588,0,0,1-.582.708,2.512,2.512,0,0,1-.829.462A3.271,3.271,0,0,1,169.337,126.609Z" fill="#4d4d4d"/>
          <path d="M181.024,118.569a2.9,2.9,0,0,1,1.945.624,2.109,2.109,0,0,1,.732,1.692,2.012,2.012,0,0,1-.738,1.662,3.019,3.019,0,0,1-1.95.594l-.084.06h-1.945v3.288h-.96v-7.92Zm-.011,3.732a1.9,1.9,0,0,0,1.265-.354,1.569,1.569,0,0,0,0-2.124,1.914,1.914,0,0,0-1.265-.354h-2.029V122.3Zm.551.192,2.617,4h-1.14l-2.28-3.468Z" fill="#4d4d4d"/>
          <path d="M188.129,126.609a3.066,3.066,0,0,1-1.519-.372,2.592,2.592,0,0,1-1.038-1.074,3.953,3.953,0,0,1,0-3.348,2.621,2.621,0,0,1,1.021-1.074,2.907,2.907,0,0,1,1.475-.372,2.72,2.72,0,0,1,1.435.36,2.377,2.377,0,0,1,.905.978,3.036,3.036,0,0,1,.313,1.387c0,.135,0,.26-.012.371s-.021.213-.036.3h-4.849v-.853h4.429l-.492.1a1.787,1.787,0,0,0-.474-1.332,1.688,1.688,0,0,0-1.242-.469,1.855,1.855,0,0,0-1.015.27,1.762,1.762,0,0,0-.659.781,2.933,2.933,0,0,0-.234,1.229,2.88,2.88,0,0,0,.24,1.224,1.766,1.766,0,0,0,.678.786,1.95,1.95,0,0,0,1.049.271,2.046,2.046,0,0,0,1.075-.252,1.924,1.924,0,0,0,.666-.684l.756.443a2.57,2.57,0,0,1-.582.708,2.5,2.5,0,0,1-.829.462A3.26,3.26,0,0,1,188.129,126.609Z" fill="#4d4d4d"/>
          <path d="M194.705,126.609a3.534,3.534,0,0,1-1.614-.372,2.663,2.663,0,0,1-1.134-1.055l.816-.588a2,2,0,0,0,.774.863,2.3,2.3,0,0,0,1.23.313,1.738,1.738,0,0,0,1-.247.747.747,0,0,0,.36-.642.735.735,0,0,0-.162-.461,1.029,1.029,0,0,0-.618-.307l-1.44-.3a2.261,2.261,0,0,1-1.254-.6,1.5,1.5,0,0,1-.378-1.043,1.552,1.552,0,0,1,.281-.9,1.981,1.981,0,0,1,.8-.655,2.86,2.86,0,0,1,1.23-.246,3,3,0,0,1,1.5.348,2.173,2.173,0,0,1,.912.984l-.8.528a1.431,1.431,0,0,0-.66-.774,1.971,1.971,0,0,0-.948-.246,2.041,2.041,0,0,0-.738.12,1.072,1.072,0,0,0-.468.33.76.76,0,0,0,.018.96,1.124,1.124,0,0,0,.672.319l1.5.311a2.072,2.072,0,0,1,1.176.552,1.378,1.378,0,0,1,.336.936,1.676,1.676,0,0,1-.3.99,1.9,1.9,0,0,1-.84.654A3.187,3.187,0,0,1,194.705,126.609Z" fill="#4d4d4d"/>
          <path d="M198.869,129.01v-8.521h.84l.084,1.464-.132-.168a2.09,2.09,0,0,1,.468-.738,2.233,2.233,0,0,1,.756-.5,2.639,2.639,0,0,1,2.309.192,2.7,2.7,0,0,1,.991,1.068,3.524,3.524,0,0,1,.372,1.68,3.483,3.483,0,0,1-.378,1.674,2.713,2.713,0,0,1-1,1.074,2.622,2.622,0,0,1-1.368.372,2.317,2.317,0,0,1-1.3-.366,2.062,2.062,0,0,1-.8-.93l.12-.18v3.877Zm2.844-3.24a1.672,1.672,0,0,0,1.386-.625,2.576,2.576,0,0,0,.5-1.656,2.613,2.613,0,0,0-.487-1.655,1.625,1.625,0,0,0-1.361-.625,1.8,1.8,0,0,0-1.009.282,1.891,1.891,0,0,0-.672.792,2.809,2.809,0,0,0-.239,1.206,2.877,2.877,0,0,0,.233,1.2,1.843,1.843,0,0,0,.661.8A1.745,1.745,0,0,0,201.713,125.77Z" fill="#4d4d4d"/>
          <path d="M208.877,120.369a3,3,0,0,1,1.506.372,2.618,2.618,0,0,1,1.025,1.074,3.952,3.952,0,0,1,0,3.348,2.612,2.612,0,0,1-1.025,1.074,3.222,3.222,0,0,1-3.006,0,2.6,2.6,0,0,1-1.032-1.074,3.952,3.952,0,0,1,0-3.348,2.6,2.6,0,0,1,1.032-1.074A3,3,0,0,1,208.877,120.369Zm0,.828a1.9,1.9,0,0,0-1.044.276,1.788,1.788,0,0,0-.666.787,3.331,3.331,0,0,0,0,2.453,1.789,1.789,0,0,0,.666.793,2.119,2.119,0,0,0,2.088,0,1.8,1.8,0,0,0,.666-.793,3.345,3.345,0,0,0,0-2.453,1.8,1.8,0,0,0-.666-.787A1.9,1.9,0,0,0,208.877,121.2Z" fill="#4d4d4d"/>
          <path d="M213.593,126.489v-6h.84l.084,1.345-.157-.133a2.042,2.042,0,0,1,.516-.773,1.963,1.963,0,0,1,.75-.426,2.933,2.933,0,0,1,.883-.133,2.757,2.757,0,0,1,1.176.246,1.968,1.968,0,0,1,.845.75,2.368,2.368,0,0,1,.319,1.284v3.84h-.96v-3.5a1.825,1.825,0,0,0-.427-1.385,1.5,1.5,0,0,0-1.05-.391,2.008,2.008,0,0,0-.864.2,1.694,1.694,0,0,0-.714.66,2.311,2.311,0,0,0-.281,1.224v3.192Z" fill="#4d4d4d"/>
          <path d="M223.36,126.609a2.622,2.622,0,0,1-1.368-.372,2.671,2.671,0,0,1-1-1.074,3.53,3.53,0,0,1-.371-1.674,3.375,3.375,0,0,1,.4-1.692,2.753,2.753,0,0,1,1.043-1.062,2.785,2.785,0,0,1,1.392-.366,2.183,2.183,0,0,1,1.29.385,1.822,1.822,0,0,1,.727,1.019l-.12.084v-4.128h.959v8.76h-.839l-.084-1.452.132-.072a1.752,1.752,0,0,1-.4.894,2.076,2.076,0,0,1-.779.559A2.549,2.549,0,0,1,223.36,126.609Zm.1-.839a1.74,1.74,0,0,0,1-.289,1.858,1.858,0,0,0,.659-.822,3.1,3.1,0,0,0,.235-1.254,2.72,2.72,0,0,0-.235-1.176,1.7,1.7,0,0,0-1.613-1.02,1.717,1.717,0,0,0-1.416.625,2.554,2.554,0,0,0-.5,1.655,2.6,2.6,0,0,0,.491,1.656A1.655,1.655,0,0,0,223.456,125.77Z" fill="#4d4d4d"/>
          <path d="M231.053,126.609a3.063,3.063,0,0,1-1.519-.372,2.592,2.592,0,0,1-1.038-1.074,3.953,3.953,0,0,1,0-3.348,2.621,2.621,0,0,1,1.021-1.074,2.9,2.9,0,0,1,1.475-.372,2.72,2.72,0,0,1,1.435.36,2.377,2.377,0,0,1,.905.978,3.036,3.036,0,0,1,.313,1.387c0,.135,0,.26-.012.371s-.021.213-.036.3h-4.849v-.853h4.429l-.492.1a1.791,1.791,0,0,0-.474-1.332,1.69,1.69,0,0,0-1.242-.469,1.855,1.855,0,0,0-1.015.27,1.762,1.762,0,0,0-.659.781,2.933,2.933,0,0,0-.234,1.229,2.88,2.88,0,0,0,.24,1.224,1.766,1.766,0,0,0,.678.786,1.95,1.95,0,0,0,1.049.271,2.046,2.046,0,0,0,1.075-.252,1.924,1.924,0,0,0,.666-.684l.755.443a2.535,2.535,0,0,1-.582.708,2.487,2.487,0,0,1-.828.462A3.264,3.264,0,0,1,231.053,126.609Z" fill="#4d4d4d"/>
          <path d="M235.469,126.489v-6h.84l.084,1.345-.157-.133a2.042,2.042,0,0,1,.516-.773,1.963,1.963,0,0,1,.75-.426,2.933,2.933,0,0,1,.883-.133,2.757,2.757,0,0,1,1.176.246,1.968,1.968,0,0,1,.845.75,2.368,2.368,0,0,1,.319,1.284v3.84h-.96v-3.5a1.825,1.825,0,0,0-.427-1.385,1.5,1.5,0,0,0-1.05-.391,2.008,2.008,0,0,0-.864.2,1.694,1.694,0,0,0-.714.66,2.311,2.311,0,0,0-.281,1.224v3.192Z" fill="#4d4d4d"/>
          <path d="M246.412,120.489v.828h-4.344v-.828Zm-2.183-1.7v6.049a.819.819,0,0,0,.251.659.961.961,0,0,0,.649.216,1.387,1.387,0,0,0,.6-.119,1.673,1.673,0,0,0,.456-.324l.336.8a2.046,2.046,0,0,1-.655.4,2.434,2.434,0,0,1-.87.144,2.22,2.22,0,0,1-.851-.162,1.343,1.343,0,0,1-.63-.515,1.715,1.715,0,0,1-.246-.93v-5.953Z" fill="#4d4d4d"/>
          <path d="M250,126.609a3.527,3.527,0,0,1-1.613-.372,2.671,2.671,0,0,1-1.135-1.055l.816-.588a2,2,0,0,0,.775.863,2.3,2.3,0,0,0,1.229.313,1.738,1.738,0,0,0,1-.247.746.746,0,0,0,.2-1.1,1.035,1.035,0,0,0-.619-.307l-1.44-.3a2.261,2.261,0,0,1-1.254-.6,1.5,1.5,0,0,1-.378-1.043,1.546,1.546,0,0,1,.282-.9,1.972,1.972,0,0,1,.8-.655,2.864,2.864,0,0,1,1.231-.246,3,3,0,0,1,1.5.348,2.178,2.178,0,0,1,.912.984l-.805.528a1.425,1.425,0,0,0-.659-.774,1.974,1.974,0,0,0-.948-.246,2.047,2.047,0,0,0-.739.12,1.062,1.062,0,0,0-.467.33.758.758,0,0,0,.017.96,1.124,1.124,0,0,0,.672.319l1.5.311a2.076,2.076,0,0,1,1.177.552,1.378,1.378,0,0,1,.336.936,1.676,1.676,0,0,1-.3.99,1.89,1.89,0,0,1-.84.654A3.18,3.18,0,0,1,250,126.609Z" fill="#4d4d4d"/>
        </g>
        <g>
          <line x1="17.746" y1="94.327" x2="17.746" y2="90.327" fill="none" stroke="#ccc" stroke-miterlimit="10"/>
          <line x1="103.126" y1="94.327" x2="103.126" y2="90.327" fill="none" stroke="#ccc" stroke-miterlimit="10"/>
          <line x1="188.505" y1="94.327" x2="188.505" y2="90.327" fill="none" stroke="#ccc" stroke-miterlimit="10"/>
          <line x1="273.891" y1="94.327" x2="273.891" y2="90.327" fill="none" stroke="#ccc" stroke-miterlimit="10"/>
          <line x1="359.27" y1="94.327" x2="359.27" y2="90.327" fill="none" stroke="#ccc" stroke-miterlimit="10"/>
          <line x1="17.649" y1="90.5" x2="359.27" y2="90.5" fill="none" stroke="#ccc" stroke-miterlimit="10"/>
        </g>
      </g>
    </g>
    <g>
      <rect x="18.299" y="23.987" width="10.211" height="10.211" rx="3" fill="#64b5f6"/>
      <rect x="109.799" y="23.987" width="10.211" height="10.211" rx="3" fill="#ffb74d"/>
      <g>
        <path d="M41.285,28.175a1.414,1.414,0,0,0-.361-1.038,1.364,1.364,0,0,0-1.019-.366,1.952,1.952,0,0,0-1.056.27,1.582,1.582,0,0,0-.637.869l-.779-.479a2.107,2.107,0,0,1,.887-1.086,2.925,2.925,0,0,1,1.609-.414,3.022,3.022,0,0,1,1.175.221,1.857,1.857,0,0,1,.834.672,2.015,2.015,0,0,1,.307,1.158v2.905c0,.288.151.431.456.431a1.656,1.656,0,0,0,.444-.059l-.048.756a1.4,1.4,0,0,1-.624.12A1.425,1.425,0,0,1,41.849,32a.975.975,0,0,1-.432-.4,1.329,1.329,0,0,1-.156-.678V30.8l.239.036a1.581,1.581,0,0,1-.491.762,2.275,2.275,0,0,1-.78.432,2.8,2.8,0,0,1-.853.138,2.627,2.627,0,0,1-.983-.181,1.6,1.6,0,0,1-.726-.545,1.616,1.616,0,0,1,.18-2.016,2.4,2.4,0,0,1,1.254-.594l2.376-.468v.791l-1.933.4a2.205,2.205,0,0,0-.876.336.708.708,0,0,0-.288.6.744.744,0,0,0,.294.607,1.313,1.313,0,0,0,.835.233,2.389,2.389,0,0,0,.665-.09,1.738,1.738,0,0,0,.571-.275,1.315,1.315,0,0,0,.4-.469,1.454,1.454,0,0,0,.144-.666Z" fill="#333"/>
        <path d="M44.573,32.051v-6h.84L45.5,27.4l-.157-.132a2.086,2.086,0,0,1,.516-.775,1.99,1.99,0,0,1,.75-.426,3.006,3.006,0,0,1,.883-.131,2.757,2.757,0,0,1,1.176.246,1.97,1.97,0,0,1,.846.75,2.368,2.368,0,0,1,.318,1.284v3.84h-.96v-3.5a1.829,1.829,0,0,0-.427-1.387,1.492,1.492,0,0,0-1.049-.389,2.009,2.009,0,0,0-.865.2,1.688,1.688,0,0,0-.714.66,2.311,2.311,0,0,0-.281,1.224v3.192Z" fill="#333"/>
        <path d="M55.5,28.175a1.418,1.418,0,0,0-.36-1.038,1.365,1.365,0,0,0-1.019-.366,1.956,1.956,0,0,0-1.057.27,1.576,1.576,0,0,0-.636.869l-.78-.479a2.109,2.109,0,0,1,.888-1.086,2.921,2.921,0,0,1,1.608-.414,3.024,3.024,0,0,1,1.176.221,1.863,1.863,0,0,1,.834.672,2.023,2.023,0,0,1,.306,1.158v2.905c0,.288.152.431.456.431a1.65,1.65,0,0,0,.444-.059l-.048.756a1.4,1.4,0,0,1-.624.12A1.429,1.429,0,0,1,56.068,32a.975.975,0,0,1-.432-.4,1.339,1.339,0,0,1-.156-.678V30.8l.24.036a1.588,1.588,0,0,1-.491.762,2.279,2.279,0,0,1-.781.432,2.789,2.789,0,0,1-.852.138,2.636,2.636,0,0,1-.984-.181,1.607,1.607,0,0,1-.726-.545,1.62,1.62,0,0,1,.18-2.016,2.408,2.408,0,0,1,1.254-.594l2.376-.468v.791l-1.932.4a2.205,2.205,0,0,0-.876.336.706.706,0,0,0-.288.6.741.741,0,0,0,.294.607,1.311,1.311,0,0,0,.835.233,2.394,2.394,0,0,0,.665-.09,1.733,1.733,0,0,0,.57-.275,1.305,1.305,0,0,0,.4-.469,1.441,1.441,0,0,0,.144-.666Z" fill="#333"/>
        <path d="M59.7,23.291v7.236a.9.9,0,0,0,.168.629.72.72,0,0,0,.54.174,1.878,1.878,0,0,0,.4-.035,3.661,3.661,0,0,0,.42-.133L61.072,32a1.906,1.906,0,0,1-.42.126,2.671,2.671,0,0,1-.468.042,1.384,1.384,0,0,1-1.086-.4,1.777,1.777,0,0,1-.354-1.213V23.291Z" fill="#333"/>
        <path d="M67.1,26.051l-2.82,7.008a3.566,3.566,0,0,1-.5.929,1.614,1.614,0,0,1-.6.492,1.823,1.823,0,0,1-.761.151,2.355,2.355,0,0,1-.75-.114,2.21,2.21,0,0,1-.606-.306l.263-.84a1.617,1.617,0,0,0,.51.318,1.5,1.5,0,0,0,.534.1,1.017,1.017,0,0,0,.589-.192,1.683,1.683,0,0,0,.5-.781l.312-.779-.6-1.428-1.908-4.56h1.092l1.5,3.912.373,1.068.431-1.188,1.4-3.792Z" fill="#333"/>
        <path d="M71.956,26.051v.828H67.612v-.828Zm-2.184-1.7V30.4a.823.823,0,0,0,.252.66.961.961,0,0,0,.648.216,1.384,1.384,0,0,0,.6-.121,1.617,1.617,0,0,0,.456-.324l.336.8a2.03,2.03,0,0,1-.654.4,2.434,2.434,0,0,1-.87.144,2.228,2.228,0,0,1-.852-.162,1.353,1.353,0,0,1-.63-.517,1.723,1.723,0,0,1-.246-.93V24.611Z" fill="#333"/>
        <path d="M73.864,24.9a.679.679,0,1,1,.522-.2A.705.705,0,0,1,73.864,24.9Zm.48,1.153v6h-.96v-6Z" fill="#333"/>
        <path d="M79.06,25.931a2.909,2.909,0,0,1,1.1.192,2.364,2.364,0,0,1,.822.552,2.863,2.863,0,0,1,.564.852l-.912.432a1.816,1.816,0,0,0-.582-.883,1.6,1.6,0,0,0-1.014-.3,1.908,1.908,0,0,0-1.032.27,1.715,1.715,0,0,0-.66.779,3.418,3.418,0,0,0,0,2.455,1.713,1.713,0,0,0,.66.786,1.916,1.916,0,0,0,1.032.269,2.1,2.1,0,0,0,.81-.142,1.426,1.426,0,0,0,.564-.421,1.575,1.575,0,0,0,.306-.672l.888.311a2.922,2.922,0,0,1-.558.949,2.367,2.367,0,0,1-.852.606,2.9,2.9,0,0,1-1.134.21,3,3,0,0,1-1.5-.372,2.6,2.6,0,0,1-1.032-1.074,3.953,3.953,0,0,1,0-3.348A2.591,2.591,0,0,1,77.56,26.3,3,3,0,0,1,79.06,25.931Z" fill="#333"/>
        <path d="M86.8,28.175a1.418,1.418,0,0,0-.36-1.038,1.366,1.366,0,0,0-1.02-.366,1.955,1.955,0,0,0-1.056.27,1.576,1.576,0,0,0-.636.869l-.78-.479a2.109,2.109,0,0,1,.888-1.086,2.921,2.921,0,0,1,1.608-.414,3.024,3.024,0,0,1,1.176.221,1.863,1.863,0,0,1,.834.672,2.023,2.023,0,0,1,.306,1.158v2.905c0,.288.152.431.456.431a1.65,1.65,0,0,0,.444-.059l-.048.756a1.4,1.4,0,0,1-.624.12A1.429,1.429,0,0,1,87.364,32a.975.975,0,0,1-.432-.4,1.339,1.339,0,0,1-.156-.678V30.8l.24.036a1.59,1.59,0,0,1-.492.762,2.266,2.266,0,0,1-.78.432,2.789,2.789,0,0,1-.852.138,2.636,2.636,0,0,1-.984-.181,1.607,1.607,0,0,1-.726-.545,1.62,1.62,0,0,1,.18-2.016,2.408,2.408,0,0,1,1.254-.594l2.376-.468v.791l-1.932.4a2.205,2.205,0,0,0-.876.336.706.706,0,0,0-.288.6.741.741,0,0,0,.294.607,1.31,1.31,0,0,0,.834.233,2.4,2.4,0,0,0,.666-.09,1.733,1.733,0,0,0,.57-.275,1.305,1.305,0,0,0,.4-.469,1.441,1.441,0,0,0,.144-.666Z" fill="#333"/>
        <path d="M91,23.291v7.236a.909.909,0,0,0,.167.629.722.722,0,0,0,.541.174,1.878,1.878,0,0,0,.4-.035,3.6,3.6,0,0,0,.419-.133L92.368,32a1.906,1.906,0,0,1-.42.126,2.682,2.682,0,0,1-.469.042,1.382,1.382,0,0,1-1.085-.4,1.777,1.777,0,0,1-.354-1.213V23.291Z" fill="#333"/>
      </g>
      <g>
        <path d="M129.658,25.931a2.909,2.909,0,0,1,1.1.192,2.364,2.364,0,0,1,.822.552,2.863,2.863,0,0,1,.564.852l-.912.432a1.816,1.816,0,0,0-.582-.883,1.6,1.6,0,0,0-1.014-.3,1.908,1.908,0,0,0-1.032.27,1.715,1.715,0,0,0-.66.779,3.418,3.418,0,0,0,0,2.455,1.713,1.713,0,0,0,.66.786,1.916,1.916,0,0,0,1.032.269,2.1,2.1,0,0,0,.81-.142,1.426,1.426,0,0,0,.564-.421,1.575,1.575,0,0,0,.306-.672l.888.311a2.922,2.922,0,0,1-.558.949,2.367,2.367,0,0,1-.852.606,2.9,2.9,0,0,1-1.134.21,3,3,0,0,1-1.5-.372,2.6,2.6,0,0,1-1.032-1.074,3.953,3.953,0,0,1,0-3.348,2.591,2.591,0,0,1,1.032-1.074A3,3,0,0,1,129.658,25.931Z" fill="#333"/>
        <path d="M133.9,32.051v-6h.779l.132.984a1.761,1.761,0,0,1,.738-.828,2.361,2.361,0,0,1,1.183-.276,2.685,2.685,0,0,1,.341.024.9.9,0,0,1,.318.1l-.168.876a1.516,1.516,0,0,0-.288-.072,3.087,3.087,0,0,0-.444-.025,1.494,1.494,0,0,0-.75.217,1.705,1.705,0,0,0-.63.654,2.2,2.2,0,0,0-.252,1.11v3.24Z" fill="#333"/>
        <path d="M141.106,32.171a3.06,3.06,0,0,1-1.518-.372,2.586,2.586,0,0,1-1.038-1.074,3.953,3.953,0,0,1,0-3.348,2.613,2.613,0,0,1,1.02-1.074,2.911,2.911,0,0,1,1.476-.372,2.716,2.716,0,0,1,1.434.36,2.373,2.373,0,0,1,.906.978,3.03,3.03,0,0,1,.312,1.385c0,.137,0,.261-.012.373a2.789,2.789,0,0,1-.036.3H138.8v-.851h4.428l-.492.095a1.79,1.79,0,0,0-.474-1.332,1.7,1.7,0,0,0-1.242-.467,1.854,1.854,0,0,0-1.014.27,1.764,1.764,0,0,0-.66.779,2.939,2.939,0,0,0-.234,1.231,2.88,2.88,0,0,0,.24,1.224,1.772,1.772,0,0,0,.678.786,1.971,1.971,0,0,0,1.05.269,2.042,2.042,0,0,0,1.074-.252,1.913,1.913,0,0,0,.666-.683l.756.444a2.509,2.509,0,0,1-1.41,1.17A3.271,3.271,0,0,1,141.106,32.171Z" fill="#333"/>
        <path d="M149.026,28.175a1.418,1.418,0,0,0-.36-1.038,1.366,1.366,0,0,0-1.02-.366,1.955,1.955,0,0,0-1.056.27,1.576,1.576,0,0,0-.636.869l-.78-.479a2.109,2.109,0,0,1,.888-1.086,2.921,2.921,0,0,1,1.608-.414,3.024,3.024,0,0,1,1.176.221,1.863,1.863,0,0,1,.834.672,2.023,2.023,0,0,1,.306,1.158v2.905c0,.288.152.431.456.431a1.65,1.65,0,0,0,.444-.059l-.048.756a1.4,1.4,0,0,1-.624.12A1.429,1.429,0,0,1,149.59,32a.975.975,0,0,1-.432-.4,1.339,1.339,0,0,1-.156-.678V30.8l.24.036a1.59,1.59,0,0,1-.492.762,2.266,2.266,0,0,1-.78.432,2.789,2.789,0,0,1-.852.138,2.636,2.636,0,0,1-.984-.181,1.607,1.607,0,0,1-.726-.545,1.62,1.62,0,0,1,.18-2.016,2.408,2.408,0,0,1,1.254-.594l2.376-.468v.791l-1.932.4a2.205,2.205,0,0,0-.876.336.706.706,0,0,0-.288.6.741.741,0,0,0,.294.607,1.31,1.31,0,0,0,.834.233,2.4,2.4,0,0,0,.666-.09,1.733,1.733,0,0,0,.57-.275,1.305,1.305,0,0,0,.4-.469,1.441,1.441,0,0,0,.144-.666Z" fill="#333"/>
        <path d="M155.674,26.051v.828H151.33v-.828Zm-2.184-1.7V30.4a.823.823,0,0,0,.252.66.961.961,0,0,0,.648.216,1.384,1.384,0,0,0,.6-.121,1.617,1.617,0,0,0,.456-.324l.336.8a2.03,2.03,0,0,1-.654.4,2.434,2.434,0,0,1-.87.144,2.228,2.228,0,0,1-.852-.162,1.353,1.353,0,0,1-.63-.517,1.723,1.723,0,0,1-.246-.93V24.611Z" fill="#333"/>
        <path d="M157.582,24.9a.679.679,0,1,1,.522-.2A.705.705,0,0,1,157.582,24.9Zm.48,1.153v6h-.96v-6Z" fill="#333"/>
        <path d="M164.266,26.051h1.008l-2.5,6h-.96l-2.5-6h1.092l1.9,5.027Z" fill="#333"/>
        <path d="M169.042,32.171a3.06,3.06,0,0,1-1.518-.372,2.586,2.586,0,0,1-1.038-1.074,3.952,3.952,0,0,1,0-3.348,2.613,2.613,0,0,1,1.02-1.074,2.911,2.911,0,0,1,1.476-.372,2.716,2.716,0,0,1,1.434.36,2.373,2.373,0,0,1,.906.978,3.03,3.03,0,0,1,.312,1.385c0,.137,0,.261-.012.373a2.789,2.789,0,0,1-.036.3h-4.848v-.851h4.428l-.492.095a1.79,1.79,0,0,0-.474-1.332,1.7,1.7,0,0,0-1.242-.467,1.854,1.854,0,0,0-1.014.27,1.764,1.764,0,0,0-.66.779,2.939,2.939,0,0,0-.234,1.231,2.88,2.88,0,0,0,.24,1.224,1.772,1.772,0,0,0,.678.786,1.971,1.971,0,0,0,1.05.269,2.042,2.042,0,0,0,1.074-.252,1.913,1.913,0,0,0,.666-.683l.756.444a2.509,2.509,0,0,1-1.41,1.17A3.271,3.271,0,0,1,169.042,32.171Z" fill="#333"/>
      </g>
      <rect x="190.799" y="23.987" width="10.211" height="10.211" rx="3" fill="#999"/>
      <g>
        <path d="M210.346,32.171a2.756,2.756,0,0,1-1.086-.216,1.832,1.832,0,0,1-.828-.7,2.277,2.277,0,0,1-.318-1.267V26.051h.96v3.683a1.6,1.6,0,0,0,.4,1.254,1.65,1.65,0,0,0,1.116.342,1.974,1.974,0,0,0,.66-.113,1.611,1.611,0,0,0,.582-.36,1.727,1.727,0,0,0,.408-.63,2.506,2.506,0,0,0,.15-.913V26.051h.96v6h-.84l-.06-.912a1.865,1.865,0,0,1-.846.786A2.972,2.972,0,0,1,210.346,32.171Z" fill="#333"/>
        <path d="M215.578,32.051v-6h.84L216.5,27.4l-.156-.132a2.074,2.074,0,0,1,.516-.775,1.982,1.982,0,0,1,.75-.426,3,3,0,0,1,.882-.131,2.751,2.751,0,0,1,1.176.246,1.964,1.964,0,0,1,.846.75,2.368,2.368,0,0,1,.318,1.284v3.84h-.96v-3.5a1.833,1.833,0,0,0-.426-1.387,1.5,1.5,0,0,0-1.05-.389,2.008,2.008,0,0,0-.864.2,1.682,1.682,0,0,0-.714.66,2.31,2.31,0,0,0-.282,1.224v3.192Z" fill="#333"/>
        <path d="M223.966,23.291v8.76h-.96v-8.76Zm4.307,2.76-2.591,2.592-.228.228-1.968,1.968v-1.2l3.576-3.588Zm-2.507,2.1,2.651,3.9h-1.164l-2.292-3.36Z" fill="#333"/>
        <path d="M229.81,32.051v-6h.84l.084,1.344-.156-.132a2.074,2.074,0,0,1,.516-.775,1.982,1.982,0,0,1,.75-.426,3,3,0,0,1,.882-.131,2.751,2.751,0,0,1,1.176.246,1.964,1.964,0,0,1,.846.75,2.368,2.368,0,0,1,.318,1.284v3.84h-.96v-3.5a1.833,1.833,0,0,0-.426-1.387,1.5,1.5,0,0,0-1.05-.389,2.008,2.008,0,0,0-.864.2,1.682,1.682,0,0,0-.714.66,2.31,2.31,0,0,0-.282,1.224v3.192Z" fill="#333"/>
        <path d="M239.722,25.931a2.992,2.992,0,0,1,1.506.372,2.6,2.6,0,0,1,1.025,1.074,3.952,3.952,0,0,1,0,3.348,2.605,2.605,0,0,1-1.025,1.074,3.222,3.222,0,0,1-3.006,0,2.6,2.6,0,0,1-1.033-1.074,3.952,3.952,0,0,1,0-3.348,2.6,2.6,0,0,1,1.033-1.074A3,3,0,0,1,239.722,25.931Zm0,.828a1.9,1.9,0,0,0-1.044.276,1.783,1.783,0,0,0-.666.785,3.323,3.323,0,0,0,0,2.455,1.772,1.772,0,0,0,.666.791,2.106,2.106,0,0,0,2.088,0,1.785,1.785,0,0,0,.666-.791,3.337,3.337,0,0,0,0-2.455,1.8,1.8,0,0,0-.666-.785A1.91,1.91,0,0,0,239.722,26.759Z" fill="#333"/>
        <path d="M251.77,26.051h1.067l-2.087,6h-.96L248.1,27.275l-1.6,4.776h-.959l-2.088-6h1.067l1.512,4.884,1.633-4.884h.959l1.632,4.884Z" fill="#333"/>
        <path d="M254.278,32.051v-6h.84L255.2,27.4l-.157-.132a2.076,2.076,0,0,1,.517-.775,1.975,1.975,0,0,1,.75-.426,3,3,0,0,1,.882-.131,2.754,2.754,0,0,1,1.176.246,1.97,1.97,0,0,1,.846.75,2.368,2.368,0,0,1,.318,1.284v3.84h-.96v-3.5a1.829,1.829,0,0,0-.427-1.387,1.492,1.492,0,0,0-1.049-.389,2.012,2.012,0,0,0-.865.2,1.686,1.686,0,0,0-.713.66,2.31,2.31,0,0,0-.282,1.224v3.192Z" fill="#333"/>
      </g>
    </g>
    <g>
      <path d="M22.3,63.953a3.559,3.559,0,0,1-2.023-.532,3.615,3.615,0,0,1-1.253-1.54l1.4-.729a2.622,2.622,0,0,0,.637,1.1,1.718,1.718,0,0,0,1.267.428,2.124,2.124,0,0,0,1-.218,1.532,1.532,0,0,0,.637-.616,1.935,1.935,0,0,0,.224-.959,2.07,2.07,0,0,0-.209-.98,1.4,1.4,0,0,0-.6-.595,2.121,2.121,0,0,0-.98-.2,3.236,3.236,0,0,0-.756.084,2.132,2.132,0,0,0-.63.259,1.787,1.787,0,0,0-.489.455l-1.233-.238.56-5.1h5.376v1.289H21.038l-.336,2.6-.028.154H20.7a2.17,2.17,0,0,1,.833-.547,3.394,3.394,0,0,1,1.211-.2,3.038,3.038,0,0,1,1.54.371,2.645,2.645,0,0,1,1.008,1.029,3.1,3.1,0,0,1,.364,1.526,3.375,3.375,0,0,1-.252,1.343,2.73,2.73,0,0,1-.714.995,3.067,3.067,0,0,1-1.071.609A4.169,4.169,0,0,1,22.3,63.953Z" fill="gray"/>
      <path d="M30.768,54.447a4.062,4.062,0,0,1,1.631.3,2.441,2.441,0,0,1,1.071.848,2.25,2.25,0,0,1,.378,1.315,2.28,2.28,0,0,1-.343,1.253,2.13,2.13,0,0,1-1,.818V59a2.848,2.848,0,0,1,1.267.875,2.211,2.211,0,0,1,.469,1.435,2.346,2.346,0,0,1-.427,1.407,2.72,2.72,0,0,1-1.2.917,5.424,5.424,0,0,1-3.682,0,2.764,2.764,0,0,1-1.211-.917,2.324,2.324,0,0,1-.434-1.407,2.24,2.24,0,0,1,.462-1.428A2.761,2.761,0,0,1,29.032,59v-.015a2.159,2.159,0,0,1-1.358-2.071,2.218,2.218,0,0,1,.385-1.315,2.483,2.483,0,0,1,1.085-.848A4.078,4.078,0,0,1,30.768,54.447Zm0,8.246a2.717,2.717,0,0,0,1.05-.181,1.48,1.48,0,0,0,.672-.533,1.43,1.43,0,0,0,.238-.827,1.373,1.373,0,0,0-.245-.818,1.54,1.54,0,0,0-.679-.525,2.677,2.677,0,0,0-1.036-.182,2.745,2.745,0,0,0-1.036.182,1.516,1.516,0,0,0-.693.532,1.51,1.51,0,0,0-.007,1.638,1.474,1.474,0,0,0,.686.533A2.788,2.788,0,0,0,30.768,62.693Zm-.014-6.986a1.8,1.8,0,0,0-1.169.357,1.215,1.215,0,0,0-.441,1,1.193,1.193,0,0,0,.448.988,1.832,1.832,0,0,0,1.176.357,1.8,1.8,0,0,0,1.169-.357,1.2,1.2,0,0,0,.441-.988,1.233,1.233,0,0,0-.434-.994A1.8,1.8,0,0,0,30.754,55.707Z" fill="gray"/>
      <path d="M37.95,54.434a2.328,2.328,0,0,1,1.239.321A2.166,2.166,0,0,1,40,55.65a3.34,3.34,0,0,1,0,2.709,2.145,2.145,0,0,1-.812.905,2.538,2.538,0,0,1-2.471,0,2.128,2.128,0,0,1-.819-.905,3.34,3.34,0,0,1,0-2.709,2.149,2.149,0,0,1,.819-.895A2.335,2.335,0,0,1,37.95,54.434Zm0,1.091a1.032,1.032,0,0,0-.6.175,1.044,1.044,0,0,0-.378.5,2.612,2.612,0,0,0,0,1.6,1.008,1.008,0,0,0,.378.5,1.059,1.059,0,0,0,.6.168,1.087,1.087,0,0,0,.616-.168,1.008,1.008,0,0,0,.378-.5,2.612,2.612,0,0,0,0-1.6,1.064,1.064,0,0,0-.371-.5A1.052,1.052,0,0,0,37.95,55.525Zm-.364,8.287,6.048-9.24h1.288l-6.034,9.24ZM44.558,58.8a2.32,2.32,0,0,1,1.239.322,2.161,2.161,0,0,1,.812.9,3.34,3.34,0,0,1,0,2.709,2.166,2.166,0,0,1-.812.9,2.531,2.531,0,0,1-2.471,0,2.142,2.142,0,0,1-.819-.9,3.34,3.34,0,0,1,0-2.709,2.137,2.137,0,0,1,.819-.9A2.327,2.327,0,0,1,44.558,58.8Zm0,1.106a1.059,1.059,0,0,0-.6.168,1.019,1.019,0,0,0-.378.5,2.612,2.612,0,0,0,0,1.6,1.054,1.054,0,0,0,.378.511,1.025,1.025,0,0,0,.6.175.989.989,0,0,0,.994-.686,2.231,2.231,0,0,0,.126-.784,2.32,2.32,0,0,0-.126-.812,1.03,1.03,0,0,0-.371-.5A1.077,1.077,0,0,0,44.558,59.907Z" fill="gray"/>
    </g>
    <g>
      <path d="M219.122,63.812V57.471c0-.187,0-.38.007-.58s.012-.414.021-.638a4.887,4.887,0,0,1-1.085.791,4.746,4.746,0,0,1-1.253.47l-.28-1.3a3.145,3.145,0,0,0,.686-.2,6.726,6.726,0,0,0,.812-.393,6.091,6.091,0,0,0,.77-.512,2.792,2.792,0,0,0,.546-.539h1.26v9.24Z" fill="gray"/>
      <path d="M225.926,63.953a3.559,3.559,0,0,1-2.023-.532,3.615,3.615,0,0,1-1.253-1.54l1.4-.729a2.622,2.622,0,0,0,.637,1.1,1.718,1.718,0,0,0,1.267.428,2.124,2.124,0,0,0,1-.218,1.538,1.538,0,0,0,.637-.616,1.935,1.935,0,0,0,.224-.959,2.057,2.057,0,0,0-.21-.98,1.4,1.4,0,0,0-.6-.595,2.121,2.121,0,0,0-.98-.2,3.23,3.23,0,0,0-.756.084,2.132,2.132,0,0,0-.63.259,1.8,1.8,0,0,0-.49.455l-1.232-.238.56-5.1h5.376v1.289h-4.186l-.336,2.6-.028.154h.028a2.17,2.17,0,0,1,.833-.547,3.394,3.394,0,0,1,1.211-.2,3.038,3.038,0,0,1,1.54.371,2.645,2.645,0,0,1,1.008,1.029,3.1,3.1,0,0,1,.364,1.526,3.375,3.375,0,0,1-.252,1.343,2.73,2.73,0,0,1-.714.995,3.067,3.067,0,0,1-1.071.609A4.169,4.169,0,0,1,225.926,63.953Z" fill="gray"/>
      <path d="M232.912,54.434a2.328,2.328,0,0,1,1.239.321,2.166,2.166,0,0,1,.812.895,3.34,3.34,0,0,1,0,2.709,2.145,2.145,0,0,1-.812.905,2.538,2.538,0,0,1-2.471,0,2.128,2.128,0,0,1-.819-.905,3.34,3.34,0,0,1,0-2.709,2.149,2.149,0,0,1,.819-.895A2.338,2.338,0,0,1,232.912,54.434Zm0,1.091a.992.992,0,0,0-.98.679,2.612,2.612,0,0,0,0,1.6,1.008,1.008,0,0,0,.378.5,1.061,1.061,0,0,0,.6.168,1.085,1.085,0,0,0,.616-.168,1.008,1.008,0,0,0,.378-.5,2.612,2.612,0,0,0,0-1.6,1.064,1.064,0,0,0-.371-.5A1.05,1.05,0,0,0,232.912,55.525Zm-.364,8.287,6.048-9.24h1.288l-6.034,9.24ZM239.52,58.8a2.32,2.32,0,0,1,1.239.322,2.154,2.154,0,0,1,.812.9,3.34,3.34,0,0,1,0,2.709,2.159,2.159,0,0,1-.812.9,2.531,2.531,0,0,1-2.471,0,2.142,2.142,0,0,1-.819-.9,3.34,3.34,0,0,1,0-2.709,2.137,2.137,0,0,1,.819-.9A2.329,2.329,0,0,1,239.52,58.8Zm0,1.106a1.061,1.061,0,0,0-.6.168,1.019,1.019,0,0,0-.378.5,2.612,2.612,0,0,0,0,1.6,1.054,1.054,0,0,0,.378.511,1.027,1.027,0,0,0,.6.175.989.989,0,0,0,.994-.686,2.231,2.231,0,0,0,.126-.784,2.32,2.32,0,0,0-.126-.812,1.03,1.03,0,0,0-.371-.5A1.077,1.077,0,0,0,239.52,59.907Z" fill="gray"/>
    </g>
    <g>
      <path d="M271.26,63.812V62.721q1.331-.952,2.233-1.68a12.115,12.115,0,0,0,1.449-1.344,4.631,4.631,0,0,0,.791-1.17,2.76,2.76,0,0,0,.246-1.127,1.628,1.628,0,0,0-.463-1.2,1.97,1.97,0,0,0-2.667.119,2.605,2.605,0,0,0-.581,1.588l-1.3-.6a3.446,3.446,0,0,1,.518-1.526,2.794,2.794,0,0,1,1.141-.994,3.8,3.8,0,0,1,1.673-.349,3.91,3.91,0,0,1,1.379.223,2.848,2.848,0,0,1,1,.622,2.755,2.755,0,0,1,.623.932,2.967,2.967,0,0,1,.217,1.135,3.576,3.576,0,0,1-.434,1.7,6.369,6.369,0,0,1-1.372,1.673,18.6,18.6,0,0,1-2.464,1.834v.028a3.465,3.465,0,0,1,.462-.035l.588-.014c.2,0,.355-.007.476-.007h2.912v1.287Z" fill="gray"/>
      <path d="M278.765,54.572h7.042v1.246a12.177,12.177,0,0,0-1.876,2.472,9.861,9.861,0,0,0-1.03,2.632,12.826,12.826,0,0,0-.315,2.89h-1.512a11.766,11.766,0,0,1,.385-3,10.967,10.967,0,0,1,1.176-2.8,12.255,12.255,0,0,1,2-2.513l.281.378h-6.146Z" fill="gray"/>
      <path d="M289.138,54.434a2.328,2.328,0,0,1,1.239.321,2.166,2.166,0,0,1,.812.895,3.34,3.34,0,0,1,0,2.709,2.145,2.145,0,0,1-.812.905,2.538,2.538,0,0,1-2.471,0,2.128,2.128,0,0,1-.819-.905,3.34,3.34,0,0,1,0-2.709,2.149,2.149,0,0,1,.819-.895A2.338,2.338,0,0,1,289.138,54.434Zm0,1.091a.992.992,0,0,0-.98.679,2.612,2.612,0,0,0,0,1.6,1.008,1.008,0,0,0,.378.5,1.061,1.061,0,0,0,.6.168,1.085,1.085,0,0,0,.616-.168,1.008,1.008,0,0,0,.378-.5,2.612,2.612,0,0,0,0-1.6,1.064,1.064,0,0,0-.371-.5A1.05,1.05,0,0,0,289.138,55.525Zm-.364,8.287,6.048-9.24h1.288l-6.034,9.24Zm6.972-5.011a2.32,2.32,0,0,1,1.239.322,2.154,2.154,0,0,1,.812.9,3.34,3.34,0,0,1,0,2.709,2.159,2.159,0,0,1-.812.9,2.531,2.531,0,0,1-2.471,0,2.142,2.142,0,0,1-.819-.9,3.34,3.34,0,0,1,0-2.709,2.137,2.137,0,0,1,.819-.9A2.329,2.329,0,0,1,295.746,58.8Zm0,1.106a1.061,1.061,0,0,0-.6.168,1.019,1.019,0,0,0-.378.5,2.612,2.612,0,0,0,0,1.6,1.054,1.054,0,0,0,.378.511,1.027,1.027,0,0,0,.6.175.989.989,0,0,0,.994-.686,2.231,2.231,0,0,0,.126-.784,2.32,2.32,0,0,0-.126-.812,1.03,1.03,0,0,0-.371-.5A1.077,1.077,0,0,0,295.746,59.907Z" fill="gray"/>
    </g>
  </g>
</svg>
