<svg xmlns="http://www.w3.org/2000/svg" viewBox="0 0 375 369">
  <g id="background">
    <rect x="9" y="6" width="360" height="351" rx="5" fill="#f5f5f5"/>
  </g>
  <g id="texts">
    <g>
      <rect x="86.613" y="46.031" width="272.652" height="254.312" fill="none"/>
      <g>
        <g>
          <polyline points="86.297 303 86.297 46.031 359.264 46.031 359.264 303" fill="none" stroke="#ebebeb" stroke-miterlimit="10"/>
          <line x1="133.83" y1="303" x2="133.83" y2="46.031" fill="none" stroke="#fff" stroke-linejoin="round" stroke-width="0.53"/>
          <line x1="228.838" y1="303" x2="228.838" y2="46.031" fill="none" stroke="#fff" stroke-linejoin="round" stroke-width="0.53"/>
          <line x1="323.851" y1="303" x2="323.851" y2="46.031" fill="none" stroke="#fff" stroke-linejoin="round" stroke-width="0.53"/>
          <line x1="86.297" y1="281.809" x2="359.27" y2="281.809" fill="none" stroke="#fff" stroke-linejoin="round" stroke-width="1.07"/>
          <line x1="86.297" y1="261.483" x2="359.27" y2="261.483" fill="none" stroke="#fff" stroke-linejoin="round" stroke-width="1.07"/>
          <line x1="86.297" y1="241.157" x2="359.27" y2="241.157" fill="none" stroke="#fff" stroke-linejoin="round" stroke-width="1.07"/>
          <line x1="86.297" y1="220.831" x2="359.27" y2="220.831" fill="none" stroke="#fff" stroke-linejoin="round" stroke-width="1.07"/>
          <line x1="86.297" y1="200.505" x2="359.27" y2="200.505" fill="none" stroke="#fff" stroke-linejoin="round" stroke-width="1.07"/>
          <line x1="86.297" y1="180.179" x2="359.27" y2="180.179" fill="none" stroke="#fff" stroke-linejoin="round" stroke-width="1.07"/>
          <line x1="86.297" y1="159.853" x2="359.27" y2="159.853" fill="none" stroke="#fff" stroke-linejoin="round" stroke-width="1.07"/>
          <line x1="86.297" y1="139.526" x2="359.27" y2="139.526" fill="none" stroke="#fff" stroke-linejoin="round" stroke-width="1.07"/>
          <line x1="86.297" y1="119.2" x2="359.27" y2="119.2" fill="none" stroke="#fff" stroke-linejoin="round" stroke-width="1.07"/>
          <line x1="86.297" y1="98.874" x2="359.27" y2="98.874" fill="none" stroke="#fff" stroke-linejoin="round" stroke-width="1.07"/>
          <line x1="86.297" y1="78.554" x2="359.27" y2="78.554" fill="none" stroke="#fff" stroke-linejoin="round" stroke-width="1.07"/>
          <line x1="86.297" y1="58.228" x2="359.27" y2="58.228" fill="none" stroke="#fff" stroke-linejoin="round" stroke-width="1.07"/>
          <line x1="86.323" y1="303" x2="86.323" y2="46.031" fill="none" stroke="#fff" stroke-linejoin="round" stroke-width="1.07"/>
          <line x1="181.337" y1="303" x2="181.337" y2="46.031" fill="none" stroke="#fff" stroke-linejoin="round" stroke-width="1.07"/>
          <line x1="276.345" y1="303" x2="276.345" y2="46.031" fill="none" stroke="#fff" stroke-linejoin="round" stroke-width="1.07"/>
        </g>
        <g>
          <path d="M86.323,274.309h51.393c.9,0,1.622,1.343,1.622,3v9c0,1.657-.726,3-1.622,3H86.323Z" fill="#b3ddb5"/>
          <path d="M86.323,253.983h51.962c.9,0,1.622,1.343,1.622,3v9c0,1.657-.726,3-1.622,3H86.323Z" fill="#b3ddb5"/>
          <path d="M86.323,233.657h98.139c.9,0,1.621,1.343,1.621,3v9c0,1.657-.726,3-1.621,3H86.323Z" fill="#b3ddb5"/>
          <path d="M86.323,213.331H200.517c.9,0,1.622,1.343,1.622,3v9c0,1.657-.726,3-1.622,3H86.323Z" fill="#b3ddb5"/>
          <path d="M86.323,193.366h77.235c.9,0,1.622,1.343,1.622,3v8.278c0,1.656-.726,3-1.622,3H86.323Z" fill="#b3ddb5"/>
          <path d="M86.323,172.679h133.2c.9,0,1.622,1.343,1.622,3v9c0,1.657-.726,3-1.622,3H86.323Z" fill="#b3ddb5"/>
          <path d="M86.323,152.815H344.65c.9,0,1.621,1.344,1.621,3v8.075c0,1.657-.726,3-1.621,3H86.323Z" fill="#81c784"/>
          <path d="M86.323,132.489h79.135c.9,0,1.621,1.343,1.621,3v8.075c0,1.656-.726,3-1.621,3H86.323Z" fill="#81c784"/>
          <path d="M86.323,112.163h34.385c.895,0,1.621,1.343,1.621,3v8.074c0,1.657-.726,3-1.621,3H86.323Z" fill="#81c784"/>
          <path d="M86.323,91.735h19.756c.9,0,1.621,1.344,1.621,3v8.278c0,1.657-.726,3-1.621,3H86.323Z" fill="#81c784"/>
          <path d="M86.323,71.054h6.17c.9,0,1.621,1.343,1.621,3v9c0,1.657-.726,3-1.621,3h-6.17Z" fill="#81c784"/>
          <path d="M86.323,50.728h6.643c.9,0,1.622,1.343,1.622,3v9c0,1.657-.726,3-1.622,3H86.323Z" fill="#81c784"/>
        </g>
      </g>
    </g>
    <g>
      <rect x="60.164" y="42.503" width="225.502" height="278.119" fill="none"/>
      <g>
        <g>
          <g style="isolation: isolate">
            <path d="M71.507,284.533l-5.712-2.7v-1.115l5.712-2.7V279l-4.944,2.257,4.944,2.267Z" fill="gray"/>
            <path d="M78.539,284.869v-5.808q0-.2.006-.438t.018-.486a4.307,4.307,0,0,1-.948.689,4.363,4.363,0,0,1-1.1.426l-.252-.875a2.087,2.087,0,0,0,.546-.162,6.264,6.264,0,0,0,.7-.348,6.046,6.046,0,0,0,.678-.451,2.409,2.409,0,0,0,.48-.467h.84v7.92Z" fill="gray"/>
          </g>
          <g style="isolation: isolate">
            <path d="M78.539,264.478V258.67c0-.137,0-.282,0-.439s.01-.317.018-.485a4.264,4.264,0,0,1-.948.69,4.4,4.4,0,0,1-1.1.425l-.252-.876a2.056,2.056,0,0,0,.547-.161,6.72,6.72,0,0,0,.695-.348,5.926,5.926,0,0,0,.679-.451,2.524,2.524,0,0,0,.48-.467h.84v7.92Z" fill="gray"/>
          </g>
          <g style="isolation: isolate">
            <path d="M74.615,244.086v-.779q1.188-.876,1.986-1.536a11.7,11.7,0,0,0,1.277-1.2,3.789,3.789,0,0,0,.684-1.025,2.579,2.579,0,0,0,.2-1.015,1.524,1.524,0,0,0-.451-1.145,1.9,1.9,0,0,0-2.538.095A2.356,2.356,0,0,0,75.2,238.9l-.84-.5a3.1,3.1,0,0,1,.449-1.224,2.4,2.4,0,0,1,.924-.828,2.994,2.994,0,0,1,1.387-.3,3.126,3.126,0,0,1,1.1.18,2.43,2.43,0,0,1,.834.509,2.245,2.245,0,0,1,.533.786,2.645,2.645,0,0,1,.186,1.008,3.2,3.2,0,0,1-.359,1.458,5.586,5.586,0,0,1-1.188,1.494,17.732,17.732,0,0,1-2.245,1.729v.012c.088-.008.21-.014.367-.018l.467-.013c.157,0,.274,0,.354,0h2.772v.9Z" fill="gray"/>
          </g>
          <g style="isolation: isolate">
            <path d="M77.207,223.816a3.491,3.491,0,0,1-1.867-.5,2.488,2.488,0,0,1-1.1-1.375l.96-.492a2.54,2.54,0,0,0,.4.775,1.661,1.661,0,0,0,.666.51,2.629,2.629,0,0,0,1.038.18,1.865,1.865,0,0,0,.887-.192,1.363,1.363,0,0,0,.553-.523,1.48,1.48,0,0,0,.192-.762,1.451,1.451,0,0,0-.163-.719.96.96,0,0,0-.509-.426,2.518,2.518,0,0,0-.912-.138c-.089,0-.184,0-.289.006s-.211.014-.323.029v-.959a1.888,1.888,0,0,0,.21.012h.186a1.825,1.825,0,0,0,1.247-.342,1.393,1.393,0,0,0,.372-1.074,1.173,1.173,0,0,0-.383-.948,1.652,1.652,0,0,0-1.093-.324,1.76,1.76,0,0,0-1.152.33,2.223,2.223,0,0,0-.624.893l-.912-.431a2.505,2.505,0,0,1,.577-.888,2.7,2.7,0,0,1,.93-.6,3.264,3.264,0,0,1,1.206-.214,2.937,2.937,0,0,1,1.367.281,1.918,1.918,0,0,1,.81.75,2.018,2.018,0,0,1,.27,1.032,2.329,2.329,0,0,1-.12.774,1.919,1.919,0,0,1-.329.594,1.763,1.763,0,0,1-.474.4,1.678,1.678,0,0,1-.564.2v.023a1.788,1.788,0,0,1,.7.156,1.615,1.615,0,0,1,.522.385,1.7,1.7,0,0,1,.33.545,1.812,1.812,0,0,1,.115.643,2.259,2.259,0,0,1-.343,1.236,2.349,2.349,0,0,1-.953.846A3.158,3.158,0,0,1,77.207,223.816Z" fill="gray"/>
          </g>
          <g style="isolation: isolate">
            <path d="M77.783,203.305v-2.076H73.918v-.708l3.613-5.136h1.212V200.4h1.4v.829h-1.4v2.076Zm0-2.905v-2.963q0-.312.018-.636c.011-.217.022-.428.03-.637h-.024q-.146.3-.372.673t-.42.647L74.938,200.4Z" fill="gray"/>
          </g>
          <g style="isolation: isolate">
            <path d="M77.183,183.034a2.773,2.773,0,0,1-1.7-.479,3.073,3.073,0,0,1-.99-1.332l.936-.493a2.339,2.339,0,0,0,.594,1.014,1.631,1.631,0,0,0,1.182.391,2.01,2.01,0,0,0,.942-.2,1.465,1.465,0,0,0,.606-.582,1.8,1.8,0,0,0,.216-.907,2.014,2.014,0,0,0-.2-.941,1.313,1.313,0,0,0-.57-.57,1.984,1.984,0,0,0-.912-.192,3.1,3.1,0,0,0-.714.078,1.909,1.909,0,0,0-.594.246,1.6,1.6,0,0,0-.456.444l-.84-.156.468-4.356h4.452v.9H75.971l-.312,2.5-.024.107h.024a2.1,2.1,0,0,1,.738-.48,2.888,2.888,0,0,1,1.074-.18,2.609,2.609,0,0,1,1.314.318,2.225,2.225,0,0,1,.87.895,2.776,2.776,0,0,1,.312,1.344,2.853,2.853,0,0,1-.2,1.1,2.339,2.339,0,0,1-.576.834,2.524,2.524,0,0,1-.882.522A3.326,3.326,0,0,1,77.183,183.034Z" fill="gray"/>
          </g>
          <g style="isolation: isolate">
            <path d="M57.683,154.482a3.236,3.236,0,0,1,1.109.174,2.157,2.157,0,0,1,.823.54,3.058,3.058,0,0,1,.588.954l-.889.42a1.769,1.769,0,0,0-.582-.869,1.736,1.736,0,0,0-1.109-.318,1.639,1.639,0,0,0-.913.258,2.185,2.185,0,0,0-.671.713,3.52,3.52,0,0,0-.414,1.068,6,6,0,0,0-.138,1.32v.217h.048a1.629,1.629,0,0,1,.486-.834,2.231,2.231,0,0,1,.8-.469,2.8,2.8,0,0,1,.882-.15,3.005,3.005,0,0,1,1.4.312,2.24,2.24,0,0,1,.93.889,2.964,2.964,0,0,1-.006,2.73,2.255,2.255,0,0,1-.942.893,3.115,3.115,0,0,1-1.447.313,2.659,2.659,0,0,1-1.679-.529,3.209,3.209,0,0,1-1.032-1.446,5.911,5.911,0,0,1-.349-2.106A5.447,5.447,0,0,1,55,156.324a3.161,3.161,0,0,1,1.109-1.373A2.787,2.787,0,0,1,57.683,154.482Zm-.048,3.949a1.868,1.868,0,0,0-.906.21,1.529,1.529,0,0,0-.606.576,1.629,1.629,0,0,0-.216.845,1.57,1.57,0,0,0,.228.834,1.675,1.675,0,0,0,.617.6,1.977,1.977,0,0,0,2.155-.216,1.613,1.613,0,0,0,.456-1.218,1.776,1.776,0,0,0-.2-.87,1.384,1.384,0,0,0-.588-.563A2.017,2.017,0,0,0,57.635,158.431Z" fill="gray"/>
            <path d="M68.086,158.935v.9h-6v-.9Z" fill="gray"/>
            <path d="M71.075,162.522v-5.807c0-.137,0-.282.006-.439s.009-.317.018-.485a4.259,4.259,0,0,1-.949.689,4.349,4.349,0,0,1-1.1.426l-.252-.876a2.046,2.046,0,0,0,.547-.161,6.73,6.73,0,0,0,.7-.348,6.138,6.138,0,0,0,.678-.451,2.494,2.494,0,0,0,.48-.467h.84v7.919Z" fill="gray"/>
            <path d="M76.99,162.643a2.574,2.574,0,0,1-2.148-1.044,6.136,6.136,0,0,1,0-6.073,2.739,2.739,0,0,1,4.3,0,6.183,6.183,0,0,1,0,6.073A2.573,2.573,0,0,1,76.99,162.643Zm0-.865a1.619,1.619,0,0,0,1.074-.366,2.221,2.221,0,0,0,.66-1.086,7.115,7.115,0,0,0,0-3.527,2.221,2.221,0,0,0-.66-1.086,1.757,1.757,0,0,0-2.147,0,2.215,2.215,0,0,0-.661,1.086,7.115,7.115,0,0,0,0,3.527,2.215,2.215,0,0,0,.661,1.086A1.614,1.614,0,0,0,76.99,161.778Z" fill="gray"/>
          </g>
          <g style="isolation: isolate">
            <path d="M54.719,142.132v-5.808q0-.2.006-.438c0-.156.009-.318.018-.486a4.262,4.262,0,0,1-.949.69,4.386,4.386,0,0,1-1.1.426l-.252-.876a2.112,2.112,0,0,0,.547-.161,6.46,6.46,0,0,0,.7-.349,6.133,6.133,0,0,0,.678-.45,2.5,2.5,0,0,0,.48-.468h.84v7.92Z" fill="gray"/>
            <path d="M59.4,142.132v-5.808q0-.2.006-.438t.018-.486a4.279,4.279,0,0,1-.948.69,4.4,4.4,0,0,1-1.1.426l-.252-.876a2.118,2.118,0,0,0,.546-.161,6.46,6.46,0,0,0,.7-.349,6.041,6.041,0,0,0,.678-.45,2.467,2.467,0,0,0,.48-.468h.84v7.92Z" fill="gray"/>
            <path d="M68.566,138.544v.9h-6v-.9Z" fill="gray"/>
            <path d="M71.555,142.132v-5.808q0-.2.006-.438t.018-.486a4.262,4.262,0,0,1-.949.69,4.386,4.386,0,0,1-1.1.426l-.252-.876a2.123,2.123,0,0,0,.547-.161,6.553,6.553,0,0,0,.7-.349,6.133,6.133,0,0,0,.678-.45,2.526,2.526,0,0,0,.48-.468h.84v7.92Z" fill="gray"/>
            <path d="M77.183,142.252a2.76,2.76,0,0,1-1.7-.481,3.049,3.049,0,0,1-.99-1.332l.936-.492a2.343,2.343,0,0,0,.594,1.015,1.631,1.631,0,0,0,1.182.39,2.01,2.01,0,0,0,.942-.2,1.465,1.465,0,0,0,.606-.582,1.8,1.8,0,0,0,.216-.906,2.012,2.012,0,0,0-.2-.942,1.3,1.3,0,0,0-.57-.57,1.971,1.971,0,0,0-.912-.192,3.158,3.158,0,0,0-.714.077,1.958,1.958,0,0,0-.594.246,1.633,1.633,0,0,0-.456.445l-.84-.156.468-4.356h4.452v.9H75.971l-.312,2.5-.024.109h.024a2.058,2.058,0,0,1,.738-.48,2.868,2.868,0,0,1,1.074-.18,2.609,2.609,0,0,1,1.314.318,2.229,2.229,0,0,1,.87.894,2.778,2.778,0,0,1,.312,1.343,2.859,2.859,0,0,1-.2,1.105,2.339,2.339,0,0,1-.576.834,2.57,2.57,0,0,1-.882.522A3.376,3.376,0,0,1,77.183,142.252Z" fill="gray"/>
          </g>
          <g style="isolation: isolate">
            <path d="M49.3,121.74v-5.807c0-.136,0-.283.006-.439s.01-.317.018-.485a4.311,4.311,0,0,1-.948.69,4.4,4.4,0,0,1-1.1.426l-.252-.877a2.079,2.079,0,0,0,.546-.161,6.281,6.281,0,0,0,.7-.349,5.9,5.9,0,0,0,.678-.449,2.413,2.413,0,0,0,.48-.469h.84v7.92Z" fill="gray"/>
            <path d="M55.355,113.7a3.218,3.218,0,0,1,1.11.174,2.132,2.132,0,0,1,.822.539,3.034,3.034,0,0,1,.588.955l-.888.42a1.779,1.779,0,0,0-.582-.87,1.745,1.745,0,0,0-1.11-.318,1.641,1.641,0,0,0-.912.258,2.187,2.187,0,0,0-.672.713,3.568,3.568,0,0,0-.414,1.069,5.988,5.988,0,0,0-.138,1.32v.216h.048a1.633,1.633,0,0,1,.486-.834,2.261,2.261,0,0,1,.8-.468,2.779,2.779,0,0,1,.882-.15,2.99,2.99,0,0,1,1.4.312,2.232,2.232,0,0,1,.93.888,2.706,2.706,0,0,1,.33,1.368,2.672,2.672,0,0,1-.336,1.361,2.253,2.253,0,0,1-.942.9,3.123,3.123,0,0,1-1.446.312,2.656,2.656,0,0,1-1.68-.529,3.217,3.217,0,0,1-1.032-1.445,5.92,5.92,0,0,1-.348-2.106,5.442,5.442,0,0,1,.408-2.238,3.147,3.147,0,0,1,1.11-1.374A2.781,2.781,0,0,1,55.355,113.7Zm-.048,3.947a1.882,1.882,0,0,0-.906.211,1.529,1.529,0,0,0-.606.576,1.633,1.633,0,0,0-.216.846,1.584,1.584,0,0,0,.228.834,1.686,1.686,0,0,0,.618.6,1.978,1.978,0,0,0,2.154-.217,1.605,1.605,0,0,0,.456-1.217,1.764,1.764,0,0,0-.2-.871,1.384,1.384,0,0,0-.588-.563A2.023,2.023,0,0,0,55.307,117.648Z" fill="gray"/>
            <path d="M65.758,118.152v.9h-6v-.9Z" fill="gray"/>
            <path d="M67.151,121.74v-.779q1.188-.876,1.986-1.536a11.918,11.918,0,0,0,1.278-1.2A3.856,3.856,0,0,0,71.1,117.2a2.594,2.594,0,0,0,.2-1.014,1.527,1.527,0,0,0-.45-1.146,1.906,1.906,0,0,0-2.539.1,2.35,2.35,0,0,0-.575,1.422l-.84-.5a3.106,3.106,0,0,1,.45-1.225,2.393,2.393,0,0,1,.923-.828,3.01,3.01,0,0,1,1.387-.3,3.145,3.145,0,0,1,1.1.18,2.408,2.408,0,0,1,.834.51,2.243,2.243,0,0,1,.534.786,2.638,2.638,0,0,1,.186,1.008,3.2,3.2,0,0,1-.36,1.458,5.618,5.618,0,0,1-1.188,1.494,17.884,17.884,0,0,1-2.244,1.728v.012c.087-.008.21-.014.366-.018s.312-.007.468-.012.273-.006.354-.006h2.772v.9Z" fill="gray"/>
            <path d="M76.99,121.861a2.572,2.572,0,0,1-2.148-1.045,6.134,6.134,0,0,1,0-6.072,2.741,2.741,0,0,1,4.3,0,6.181,6.181,0,0,1,0,6.072A2.571,2.571,0,0,1,76.99,121.861Zm0-.865a1.618,1.618,0,0,0,1.074-.365,2.226,2.226,0,0,0,.66-1.086,7.119,7.119,0,0,0,0-3.528,2.226,2.226,0,0,0-.66-1.086,1.754,1.754,0,0,0-2.147,0,2.22,2.22,0,0,0-.661,1.086,7.119,7.119,0,0,0,0,3.528,2.22,2.22,0,0,0,.661,1.086A1.614,1.614,0,0,0,76.99,121Z" fill="gray"/>
          </g>
          <g style="isolation: isolate">
            <path d="M48.467,101.35v-.78q1.188-.876,1.986-1.536a11.725,11.725,0,0,0,1.278-1.2,3.789,3.789,0,0,0,.684-1.025,2.6,2.6,0,0,0,.2-1.015,1.527,1.527,0,0,0-.45-1.146,1.9,1.9,0,0,0-2.538.1,2.36,2.36,0,0,0-.576,1.422l-.84-.5a3.1,3.1,0,0,1,.45-1.224,2.392,2.392,0,0,1,.924-.829,3,3,0,0,1,1.386-.3,3.146,3.146,0,0,1,1.1.179,2.4,2.4,0,0,1,.834.51,2.239,2.239,0,0,1,.534.786,2.645,2.645,0,0,1,.186,1.008,3.2,3.2,0,0,1-.36,1.458,5.566,5.566,0,0,1-1.188,1.494,17.712,17.712,0,0,1-2.244,1.729v.011c.088-.007.21-.013.366-.017l.468-.013q.234-.006.354-.006H53.8v.9Z" fill="gray"/>
            <path d="M57.071,101.35V95.542q0-.2.006-.438t.018-.486a4.314,4.314,0,0,1-.948.691,4.436,4.436,0,0,1-1.1.425l-.252-.877a2.041,2.041,0,0,0,.546-.161,6.264,6.264,0,0,0,.7-.348,5.906,5.906,0,0,0,.678-.45,2.439,2.439,0,0,0,.48-.468h.84v7.92Z" fill="gray"/>
            <path d="M66.239,97.762v.9h-6v-.9Z" fill="gray"/>
            <path d="M67.631,101.35v-.78q1.188-.876,1.986-1.536a11.818,11.818,0,0,0,1.278-1.2,3.837,3.837,0,0,0,.684-1.025,2.6,2.6,0,0,0,.2-1.015,1.527,1.527,0,0,0-.45-1.146,1.906,1.906,0,0,0-2.539.1,2.353,2.353,0,0,0-.575,1.422l-.84-.5a3.1,3.1,0,0,1,.45-1.224,2.4,2.4,0,0,1,.923-.829,3.01,3.01,0,0,1,1.387-.3,3.146,3.146,0,0,1,1.1.179,2.408,2.408,0,0,1,.834.51,2.236,2.236,0,0,1,.533.786,2.626,2.626,0,0,1,.187,1.008,3.2,3.2,0,0,1-.36,1.458,5.586,5.586,0,0,1-1.188,1.494A17.785,17.785,0,0,1,69,100.475v.011c.087-.007.209-.013.366-.017l.468-.013c.156,0,.273-.006.354-.006h2.771v.9Z" fill="gray"/>
            <path d="M77.183,101.471a2.76,2.76,0,0,1-1.7-.481,3.055,3.055,0,0,1-.99-1.332l.936-.492a2.339,2.339,0,0,0,.594,1.014,1.635,1.635,0,0,0,1.182.39,2.01,2.01,0,0,0,.942-.2,1.465,1.465,0,0,0,.606-.582,1.8,1.8,0,0,0,.216-.906,2.015,2.015,0,0,0-.2-.942,1.308,1.308,0,0,0-.57-.57,1.971,1.971,0,0,0-.912-.192,3.1,3.1,0,0,0-.714.078,1.958,1.958,0,0,0-.594.246,1.612,1.612,0,0,0-.456.443l-.84-.155.468-4.356h4.452v.9H75.971l-.312,2.5-.024.108h.024a2.072,2.072,0,0,1,.738-.48,2.887,2.887,0,0,1,1.074-.181,2.62,2.62,0,0,1,1.314.319,2.235,2.235,0,0,1,.87.894,2.779,2.779,0,0,1,.312,1.344,2.861,2.861,0,0,1-.2,1.1,2.339,2.339,0,0,1-.576.834,2.539,2.539,0,0,1-.882.522A3.351,3.351,0,0,1,77.183,101.471Z" fill="gray"/>
          </g>
          <g style="isolation: isolate">
            <path d="M45.059,80.959V80.18q1.188-.876,1.986-1.536a11.722,11.722,0,0,0,1.278-1.2,3.789,3.789,0,0,0,.684-1.025,2.6,2.6,0,0,0,.2-1.015,1.527,1.527,0,0,0-.45-1.145,1.9,1.9,0,0,0-2.538.1,2.357,2.357,0,0,0-.576,1.421l-.84-.5a3.1,3.1,0,0,1,.45-1.224,2.381,2.381,0,0,1,.924-.828,3,3,0,0,1,1.386-.3,3.122,3.122,0,0,1,1.1.18,2.411,2.411,0,0,1,.834.509,2.243,2.243,0,0,1,.534.787,2.636,2.636,0,0,1,.186,1.007,3.2,3.2,0,0,1-.36,1.458,5.566,5.566,0,0,1-1.188,1.494,17.712,17.712,0,0,1-2.244,1.729V80.1q.132-.012.366-.018l.468-.013c.156,0,.274,0,.354,0h2.772v.9Z" fill="gray"/>
            <path d="M55.043,72.92a3.218,3.218,0,0,1,1.11.174,2.132,2.132,0,0,1,.822.539,3.023,3.023,0,0,1,.588.955l-.888.42a1.779,1.779,0,0,0-.582-.87,1.745,1.745,0,0,0-1.11-.319,1.634,1.634,0,0,0-.912.259,2.177,2.177,0,0,0-.672.713,3.573,3.573,0,0,0-.414,1.068,6,6,0,0,0-.138,1.321V77.4H52.9a1.629,1.629,0,0,1,.486-.834,2.246,2.246,0,0,1,.8-.468,2.781,2.781,0,0,1,.882-.151,2.991,2.991,0,0,1,1.4.313,2.232,2.232,0,0,1,.93.888,2.962,2.962,0,0,1-.006,2.729,2.253,2.253,0,0,1-.942.895,3.123,3.123,0,0,1-1.446.312,2.662,2.662,0,0,1-1.68-.529A3.215,3.215,0,0,1,52.3,79.105,5.91,5.91,0,0,1,51.947,77a5.438,5.438,0,0,1,.408-2.238,3.147,3.147,0,0,1,1.11-1.374A2.781,2.781,0,0,1,55.043,72.92ZM55,76.867a1.882,1.882,0,0,0-.906.211,1.534,1.534,0,0,0-.606.575,1.637,1.637,0,0,0-.216.847,1.584,1.584,0,0,0,.228.834,1.686,1.686,0,0,0,.618.6,1.984,1.984,0,0,0,2.154-.217,1.605,1.605,0,0,0,.456-1.217,1.764,1.764,0,0,0-.2-.871,1.387,1.387,0,0,0-.588-.564A2.036,2.036,0,0,0,55,76.867Z" fill="gray"/>
            <path d="M65.447,77.371v.9h-6v-.9Z" fill="gray"/>
            <path d="M69.743,81.08a3.5,3.5,0,0,1-1.867-.5,2.488,2.488,0,0,1-1.1-1.375l.96-.492a2.523,2.523,0,0,0,.4.774A1.654,1.654,0,0,0,68.8,80a2.629,2.629,0,0,0,1.038.18,1.871,1.871,0,0,0,.888-.193,1.364,1.364,0,0,0,.552-.522,1.482,1.482,0,0,0,.192-.762,1.458,1.458,0,0,0-.162-.72.964.964,0,0,0-.51-.425,2.518,2.518,0,0,0-.912-.138c-.089,0-.184,0-.288.006a3.139,3.139,0,0,0-.324.029V76.5a1.9,1.9,0,0,0,.21.012h.186a1.825,1.825,0,0,0,1.247-.342,1.39,1.39,0,0,0,.373-1.074,1.169,1.169,0,0,0-.384-.948,1.65,1.65,0,0,0-1.093-.325,1.763,1.763,0,0,0-1.151.33,2.215,2.215,0,0,0-.624.894l-.913-.432a2.493,2.493,0,0,1,.577-.887,2.709,2.709,0,0,1,.93-.6,3.248,3.248,0,0,1,1.206-.215,2.954,2.954,0,0,1,1.368.281,1.943,1.943,0,0,1,.81.75,2.035,2.035,0,0,1,.27,1.033,2.329,2.329,0,0,1-.12.774,1.921,1.921,0,0,1-.33.594,1.727,1.727,0,0,1-.474.4,1.642,1.642,0,0,1-.564.2v.024a1.77,1.77,0,0,1,.7.156,1.6,1.6,0,0,1,.522.385,1.7,1.7,0,0,1,.331.545,1.832,1.832,0,0,1,.114.642,2.264,2.264,0,0,1-.342,1.237,2.35,2.35,0,0,1-.954.845A3.142,3.142,0,0,1,69.743,81.08Z" fill="gray"/>
            <path d="M76.99,81.08a2.575,2.575,0,0,1-2.148-1.045,6.134,6.134,0,0,1,0-6.072,2.741,2.741,0,0,1,4.3,0,6.181,6.181,0,0,1,0,6.072A2.574,2.574,0,0,1,76.99,81.08Zm0-.865a1.618,1.618,0,0,0,1.074-.365,2.231,2.231,0,0,0,.66-1.086,7.123,7.123,0,0,0,0-3.529,2.235,2.235,0,0,0-.66-1.086,1.757,1.757,0,0,0-2.147,0,2.229,2.229,0,0,0-.661,1.086,7.123,7.123,0,0,0,0,3.529,2.224,2.224,0,0,0,.661,1.086A1.614,1.614,0,0,0,76.99,80.215Z" fill="gray"/>
          </g>
          <g style="isolation: isolate">
            <path d="M55.607,53.717l5.712,2.7v1.116l-5.712,2.7v-.984l4.944-2.256-4.944-2.267Z" fill="gray"/>
            <path d="M69.743,60.688a3.49,3.49,0,0,1-1.866-.5,2.483,2.483,0,0,1-1.1-1.374l.96-.492a2.545,2.545,0,0,0,.4.774,1.643,1.643,0,0,0,.666.51,2.593,2.593,0,0,0,1.038.181,1.857,1.857,0,0,0,.888-.193,1.351,1.351,0,0,0,.552-.522,1.485,1.485,0,0,0,.192-.762,1.453,1.453,0,0,0-.162-.72.97.97,0,0,0-.51-.426,2.515,2.515,0,0,0-.912-.138q-.132,0-.288.006t-.324.03V56.1a1.9,1.9,0,0,0,.21.012h.186a1.826,1.826,0,0,0,1.248-.342,1.392,1.392,0,0,0,.372-1.074,1.173,1.173,0,0,0-.384-.948,1.647,1.647,0,0,0-1.092-.324,1.764,1.764,0,0,0-1.152.33,2.224,2.224,0,0,0-.624.894l-.912-.431a2.507,2.507,0,0,1,.576-.889,2.717,2.717,0,0,1,.93-.6,3.251,3.251,0,0,1,1.206-.215,2.929,2.929,0,0,1,1.368.282,1.93,1.93,0,0,1,.81.75,2.025,2.025,0,0,1,.27,1.031,2.325,2.325,0,0,1-.12.774,1.9,1.9,0,0,1-.33.594,1.748,1.748,0,0,1-.474.4,1.665,1.665,0,0,1-.564.2v.023a1.758,1.758,0,0,1,.7.157,1.62,1.62,0,0,1,.522.383,1.7,1.7,0,0,1,.33.546,1.825,1.825,0,0,1,.114.643,2.257,2.257,0,0,1-.342,1.235,2.348,2.348,0,0,1-.954.847A3.168,3.168,0,0,1,69.743,60.688Z" fill="gray"/>
            <path d="M76.991,60.688a2.576,2.576,0,0,1-2.148-1.043,4.908,4.908,0,0,1-.8-3.037,4.906,4.906,0,0,1,.8-3.036,2.738,2.738,0,0,1,4.3,0,4.934,4.934,0,0,1,.8,3.036,4.935,4.935,0,0,1-.8,3.037A2.571,2.571,0,0,1,76.991,60.688Zm0-.864a1.62,1.62,0,0,0,1.074-.365,2.226,2.226,0,0,0,.66-1.086,7.123,7.123,0,0,0,0-3.529,2.226,2.226,0,0,0-.66-1.086,1.763,1.763,0,0,0-2.148,0,2.226,2.226,0,0,0-.66,1.086,7.123,7.123,0,0,0,0,3.529,2.226,2.226,0,0,0,.66,1.086A1.616,1.616,0,0,0,76.991,59.824Z" fill="gray"/>
          </g>
        </g>
        <line x1="91.162" y1="307.107" x2="91.162" y2="303" fill="none" stroke="#ccc" stroke-miterlimit="10"/>
        <line x1="185.76" y1="307.107" x2="185.76" y2="303" fill="none" stroke="#ccc" stroke-miterlimit="10"/>
        <line x1="280.892" y1="307.107" x2="280.892" y2="303" fill="none" stroke="#ccc" stroke-miterlimit="10"/>
        <g>
          <path d="M88.282,318.7a2.571,2.571,0,0,1-2.148-1.044,6.134,6.134,0,0,1,0-6.072,2.738,2.738,0,0,1,4.3,0,6.174,6.174,0,0,1,0,6.072A2.567,2.567,0,0,1,88.282,318.7Zm0-.864a1.621,1.621,0,0,0,1.074-.366,2.226,2.226,0,0,0,.66-1.086,7.119,7.119,0,0,0,0-3.528,2.223,2.223,0,0,0-.66-1.085,1.755,1.755,0,0,0-2.148,0,2.223,2.223,0,0,0-.66,1.085,7.119,7.119,0,0,0,0,3.528,2.226,2.226,0,0,0,.66,1.086A1.619,1.619,0,0,0,88.282,317.835Z" fill="gray"/>
          <path d="M94.4,310.539a1.857,1.857,0,0,1,1.014.27,1.792,1.792,0,0,1,.66.762,2.953,2.953,0,0,1,0,2.3,1.792,1.792,0,0,1-.66.762,2.028,2.028,0,0,1-2.022,0,1.765,1.765,0,0,1-.666-.762,2.953,2.953,0,0,1,0-2.3,1.765,1.765,0,0,1,.666-.762A1.862,1.862,0,0,1,94.4,310.539Zm0,.756a.986.986,0,0,0-.576.168,1,1,0,0,0-.36.486,2.537,2.537,0,0,0,0,1.542.992.992,0,0,0,.36.491,1.082,1.082,0,0,0,1.158,0,1.013,1.013,0,0,0,.354-.491,2.537,2.537,0,0,0,0-1.542,1.022,1.022,0,0,0-.354-.486A.979.979,0,0,0,94.4,311.3Zm-.228,7.284,5.04-7.92h.911l-5.04,7.92Zm5.723-4.248a1.85,1.85,0,0,1,1.015.271,1.783,1.783,0,0,1,.66.761,2.953,2.953,0,0,1,0,2.3,1.8,1.8,0,0,1-.66.763,2.034,2.034,0,0,1-2.022,0,1.78,1.78,0,0,1-.666-.763,2.953,2.953,0,0,1,0-2.3,1.763,1.763,0,0,1,.666-.761A1.853,1.853,0,0,1,99.9,314.331Zm0,.756a.976.976,0,0,0-.575.168,1.007,1.007,0,0,0-.36.486,2.537,2.537,0,0,0,0,1.542,1,1,0,0,0,.36.492,1.08,1.08,0,0,0,1.157,0,1.014,1.014,0,0,0,.354-.492,2.517,2.517,0,0,0,0-1.542,1.016,1.016,0,0,0-.354-.486A.97.97,0,0,0,99.9,315.087Z" fill="gray"/>
        </g>
        <g>
          <path d="M182.04,318.579v-5.808q0-.2.006-.438c0-.155.01-.317.018-.485a4.307,4.307,0,0,1-.948.689,4.4,4.4,0,0,1-1.1.426l-.252-.876a2.079,2.079,0,0,0,.546-.161,6.46,6.46,0,0,0,.7-.349,5.906,5.906,0,0,0,.678-.45,2.439,2.439,0,0,0,.48-.468H183v7.92Z" fill="gray"/>
          <path d="M187.956,318.7a2.571,2.571,0,0,1-2.148-1.044,6.134,6.134,0,0,1,0-6.072,2.738,2.738,0,0,1,4.3,0,6.174,6.174,0,0,1,0,6.072A2.567,2.567,0,0,1,187.956,318.7Zm0-.864a1.619,1.619,0,0,0,1.074-.366,2.226,2.226,0,0,0,.66-1.086,7.119,7.119,0,0,0,0-3.528,2.223,2.223,0,0,0-.66-1.085,1.755,1.755,0,0,0-2.148,0,2.223,2.223,0,0,0-.66,1.085,7.119,7.119,0,0,0,0,3.528,2.226,2.226,0,0,0,.66,1.086A1.619,1.619,0,0,0,187.956,317.835Z" fill="gray"/>
        </g>
        <g>
          <path d="M274.334,318.579v-.78q1.188-.876,1.986-1.535a11.623,11.623,0,0,0,1.278-1.2,3.789,3.789,0,0,0,.684-1.025,2.594,2.594,0,0,0,.2-1.014,1.529,1.529,0,0,0-.45-1.146,1.9,1.9,0,0,0-2.538.1,2.36,2.36,0,0,0-.576,1.422l-.839-.5a3.09,3.09,0,0,1,.449-1.224,2.366,2.366,0,0,1,.924-.828,2.99,2.99,0,0,1,1.386-.3,3.168,3.168,0,0,1,1.1.18,2.429,2.429,0,0,1,.834.51,2.225,2.225,0,0,1,.534.787,2.636,2.636,0,0,1,.186,1.007,3.179,3.179,0,0,1-.36,1.457,5.565,5.565,0,0,1-1.188,1.5A17.553,17.553,0,0,1,275.7,317.7v.012q.132-.012.366-.018l.468-.011q.234-.006.354-.006h2.772v.9Z" fill="gray"/>
          <path d="M284.174,318.7a2.571,2.571,0,0,1-2.148-1.044,6.134,6.134,0,0,1,0-6.072,2.739,2.739,0,0,1,4.3,0,6.181,6.181,0,0,1,0,6.072A2.57,2.57,0,0,1,284.174,318.7Zm0-.864a1.623,1.623,0,0,0,1.075-.366,2.225,2.225,0,0,0,.659-1.086,7.119,7.119,0,0,0,0-3.528,2.222,2.222,0,0,0-.659-1.085,1.755,1.755,0,0,0-2.148,0,2.216,2.216,0,0,0-.661,1.085,7.119,7.119,0,0,0,0,3.528,2.22,2.22,0,0,0,.661,1.086A1.614,1.614,0,0,0,284.174,317.835Z" fill="gray"/>
        </g>
        <g>
          <path d="M166.415,333.061a1.854,1.854,0,0,1,1.014.269,1.793,1.793,0,0,1,.66.763,2.95,2.95,0,0,1,0,2.3,1.773,1.773,0,0,1-.66.762,2.021,2.021,0,0,1-2.022,0,1.76,1.76,0,0,1-.666-.762,2.95,2.95,0,0,1,0-2.3,1.78,1.78,0,0,1,.666-.763A1.862,1.862,0,0,1,166.415,333.061Zm0,.755a.986.986,0,0,0-.576.168,1.014,1.014,0,0,0-.36.487,2.537,2.537,0,0,0,0,1.542,1,1,0,0,0,.36.491,1.082,1.082,0,0,0,1.158,0,1.013,1.013,0,0,0,.354-.491,2.537,2.537,0,0,0,0-1.542,1.03,1.03,0,0,0-.354-.487A.979.979,0,0,0,166.415,333.816Zm-.228,7.285,5.04-7.92h.912l-5.04,7.92Zm5.724-4.248a1.846,1.846,0,0,1,1.014.27,1.792,1.792,0,0,1,.66.762,2.95,2.95,0,0,1,0,2.3,1.788,1.788,0,0,1-.66.763,2.028,2.028,0,0,1-2.022,0,1.768,1.768,0,0,1-.666-.763,2.95,2.95,0,0,1,0-2.3,1.771,1.771,0,0,1,.666-.762A1.853,1.853,0,0,1,171.911,336.853Zm0,.755a.979.979,0,0,0-.576.168,1.014,1.014,0,0,0-.36.487,2.2,2.2,0,0,0-.12.774,2.22,2.22,0,0,0,.12.768,1,1,0,0,0,.36.492,1.082,1.082,0,0,0,1.158,0,1.021,1.021,0,0,0,.354-.492,2.22,2.22,0,0,0,.12-.768,2.2,2.2,0,0,0-.12-.774,1.03,1.03,0,0,0-.354-.487A.972.972,0,0,0,171.911,337.608Z" fill="#4d4d4d"/>
          <path d="M181.991,334.98a2.983,2.983,0,0,1,1.506.373,2.605,2.605,0,0,1,1.025,1.074,3.941,3.941,0,0,1,0,3.347,2.608,2.608,0,0,1-1.025,1.075,3.222,3.222,0,0,1-3.006,0,2.607,2.607,0,0,1-1.033-1.075,3.95,3.95,0,0,1,0-3.347,2.6,2.6,0,0,1,1.033-1.074A2.992,2.992,0,0,1,181.991,334.98Zm0,.829a1.9,1.9,0,0,0-1.044.275,1.8,1.8,0,0,0-.666.787,3.318,3.318,0,0,0,0,2.453,1.789,1.789,0,0,0,.666.793,2.113,2.113,0,0,0,2.088,0,1.8,1.8,0,0,0,.666-.793,3.331,3.331,0,0,0,0-2.453,1.807,1.807,0,0,0-.666-.787A1.9,1.9,0,0,0,181.991,335.809Z" fill="#4d4d4d"/>
          <path d="M190.03,335.1v.828h-4.164V335.1Zm-1-2.82a2.335,2.335,0,0,1,.589.072,1.075,1.075,0,0,1,.431.2l-.252.779a.97.97,0,0,0-.312-.137,1.482,1.482,0,0,0-.371-.043,1.2,1.2,0,0,0-.805.246.983.983,0,0,0-.288.786V341.1h-.96v-7.008a2.139,2.139,0,0,1,.121-.733,1.485,1.485,0,0,1,.365-.575,1.671,1.671,0,0,1,.618-.373A2.582,2.582,0,0,1,189.034,332.281Z" fill="#4d4d4d"/>
          <path d="M198.286,335.1v.828h-4.344V335.1Zm-2.183-1.7v6.049a.823.823,0,0,0,.251.659.961.961,0,0,0,.648.216,1.392,1.392,0,0,0,.6-.119,1.632,1.632,0,0,0,.455-.324l.337.8a2.043,2.043,0,0,1-.655.4,2.433,2.433,0,0,1-.87.145,2.239,2.239,0,0,1-.851-.162,1.349,1.349,0,0,1-.631-.516,1.73,1.73,0,0,1-.246-.93V333.66Z" fill="#4d4d4d"/>
          <path d="M199.715,341.1v-8.76h.96V336a1.856,1.856,0,0,1,.827-.779,2.65,2.65,0,0,1,1.129-.241,2.74,2.74,0,0,1,1.176.247,1.97,1.97,0,0,1,.846.75,2.363,2.363,0,0,1,.318,1.284v3.84h-.96v-3.5a1.825,1.825,0,0,0-.427-1.386,1.494,1.494,0,0,0-1.049-.391,2.027,2.027,0,0,0-.865.2,1.682,1.682,0,0,0-.713.666,2.343,2.343,0,0,0-.282,1.23V341.1Z" fill="#4d4d4d"/>
          <path d="M209.65,341.221a3.06,3.06,0,0,1-1.518-.372,2.588,2.588,0,0,1-1.038-1.075,3.95,3.95,0,0,1,0-3.347,2.619,2.619,0,0,1,1.02-1.074,2.9,2.9,0,0,1,1.476-.373,2.717,2.717,0,0,1,1.434.361,2.364,2.364,0,0,1,.906.977,3.036,3.036,0,0,1,.312,1.387c0,.136,0,.26-.012.371a2.831,2.831,0,0,1-.036.3h-4.848v-.853h4.428l-.492.1a1.788,1.788,0,0,0-.473-1.332,1.7,1.7,0,0,0-1.243-.469,1.846,1.846,0,0,0-1.014.271,1.759,1.759,0,0,0-.659.78,2.918,2.918,0,0,0-.235,1.23,2.879,2.879,0,0,0,.24,1.223,1.767,1.767,0,0,0,.678.786,1.953,1.953,0,0,0,1.05.271,2.042,2.042,0,0,0,1.074-.252,1.916,1.916,0,0,0,.666-.684l.757.444a2.618,2.618,0,0,1-.582.708,2.548,2.548,0,0,1-.829.462A3.3,3.3,0,0,1,209.65,341.221Z" fill="#4d4d4d"/>
          <path d="M221.338,333.181a2.9,2.9,0,0,1,1.944.624,2.107,2.107,0,0,1,.732,1.691,2.011,2.011,0,0,1-.738,1.662,3.011,3.011,0,0,1-1.95.594l-.084.06H219.3V341.1h-.96v-7.92Zm-.012,3.731a1.913,1.913,0,0,0,1.266-.353,1.569,1.569,0,0,0,0-2.124,1.913,1.913,0,0,0-1.266-.355H219.3v2.832Zm.552.192,2.616,4h-1.14l-2.28-3.468Z" fill="#4d4d4d"/>
          <path d="M228.442,341.221a3.06,3.06,0,0,1-1.518-.372,2.588,2.588,0,0,1-1.038-1.075,3.95,3.95,0,0,1,0-3.347,2.619,2.619,0,0,1,1.02-1.074,2.9,2.9,0,0,1,1.476-.373,2.717,2.717,0,0,1,1.434.361,2.364,2.364,0,0,1,.906.977,3.036,3.036,0,0,1,.312,1.387c0,.136,0,.26-.012.371a2.831,2.831,0,0,1-.036.3h-4.848v-.853h4.428l-.492.1a1.789,1.789,0,0,0-.474-1.332,1.692,1.692,0,0,0-1.242-.469,1.846,1.846,0,0,0-1.014.271,1.767,1.767,0,0,0-.66.78,2.934,2.934,0,0,0-.234,1.23,2.879,2.879,0,0,0,.24,1.223,1.767,1.767,0,0,0,.678.786,1.953,1.953,0,0,0,1.05.271,2.042,2.042,0,0,0,1.074-.252,1.924,1.924,0,0,0,.666-.684l.756.444a2.581,2.581,0,0,1-.582.708,2.533,2.533,0,0,1-.828.462A3.3,3.3,0,0,1,228.442,341.221Z" fill="#4d4d4d"/>
          <path d="M235.018,341.221a3.534,3.534,0,0,1-1.614-.372,2.665,2.665,0,0,1-1.134-1.056l.816-.588a2,2,0,0,0,.774.863,2.3,2.3,0,0,0,1.23.313,1.746,1.746,0,0,0,1-.246.749.749,0,0,0,.36-.643.735.735,0,0,0-.162-.461,1.028,1.028,0,0,0-.618-.306l-1.44-.3a2.261,2.261,0,0,1-1.254-.6,1.5,1.5,0,0,1-.378-1.043,1.546,1.546,0,0,1,.282-.9,1.97,1.97,0,0,1,.8-.654,2.845,2.845,0,0,1,1.23-.247,3,3,0,0,1,1.5.348,2.183,2.183,0,0,1,.912.984l-.8.529a1.425,1.425,0,0,0-.66-.775,1.971,1.971,0,0,0-.948-.246,2.045,2.045,0,0,0-.738.12,1.073,1.073,0,0,0-.468.331.758.758,0,0,0,.018.959,1.124,1.124,0,0,0,.672.319l1.5.311a2.079,2.079,0,0,1,1.176.552,1.374,1.374,0,0,1,.336.937,1.671,1.671,0,0,1-.3.989,1.888,1.888,0,0,1-.84.654A3.168,3.168,0,0,1,235.018,341.221Z" fill="#4d4d4d"/>
          <path d="M239.182,343.621V335.1h.84l.084,1.463-.132-.168a2.09,2.09,0,0,1,.468-.738,2.233,2.233,0,0,1,.756-.5,2.638,2.638,0,0,1,2.31.193,2.7,2.7,0,0,1,.99,1.067,3.528,3.528,0,0,1,.372,1.681,3.479,3.479,0,0,1-.378,1.673,2.716,2.716,0,0,1-1,1.075,2.622,2.622,0,0,1-1.368.372,2.312,2.312,0,0,1-1.3-.367,2.066,2.066,0,0,1-.8-.929l.12-.181v3.877Zm2.844-3.24a1.672,1.672,0,0,0,1.386-.625,2.573,2.573,0,0,0,.5-1.655,2.62,2.62,0,0,0-.486-1.656,1.628,1.628,0,0,0-1.362-.625,1.8,1.8,0,0,0-1.008.283,1.871,1.871,0,0,0-.672.792,2.805,2.805,0,0,0-.24,1.206,2.88,2.88,0,0,0,.234,1.2,1.846,1.846,0,0,0,.66.8A1.752,1.752,0,0,0,242.026,340.381Z" fill="#4d4d4d"/>
          <path d="M249.19,334.98a2.983,2.983,0,0,1,1.506.373,2.608,2.608,0,0,1,1.026,1.074,3.95,3.95,0,0,1,0,3.347,2.61,2.61,0,0,1-1.026,1.075,3.222,3.222,0,0,1-3.006,0,2.6,2.6,0,0,1-1.032-1.075,3.95,3.95,0,0,1,0-3.347,2.6,2.6,0,0,1,1.032-1.074A2.992,2.992,0,0,1,249.19,334.98Zm0,.829a1.9,1.9,0,0,0-1.044.275,1.8,1.8,0,0,0-.666.787,3.331,3.331,0,0,0,0,2.453,1.789,1.789,0,0,0,.666.793,2.113,2.113,0,0,0,2.088,0,1.789,1.789,0,0,0,.666-.793,3.331,3.331,0,0,0,0-2.453,1.8,1.8,0,0,0-.666-.787A1.9,1.9,0,0,0,249.19,335.809Z" fill="#4d4d4d"/>
          <path d="M253.906,341.1v-6h.84l.084,1.344-.156-.133a2.042,2.042,0,0,1,.516-.773,1.969,1.969,0,0,1,.75-.426,2.932,2.932,0,0,1,.882-.133,2.737,2.737,0,0,1,1.176.247,1.964,1.964,0,0,1,.846.75,2.363,2.363,0,0,1,.318,1.284v3.84h-.96v-3.5a1.829,1.829,0,0,0-.426-1.386,1.5,1.5,0,0,0-1.05-.391,2.023,2.023,0,0,0-.864.2,1.685,1.685,0,0,0-.714.661,2.3,2.3,0,0,0-.282,1.223V341.1Z" fill="#4d4d4d"/>
          <path d="M263.674,341.221a2.622,2.622,0,0,1-1.368-.372,2.674,2.674,0,0,1-1-1.075,3.526,3.526,0,0,1-.372-1.673,3.378,3.378,0,0,1,.4-1.693,2.752,2.752,0,0,1,1.044-1.061,2.783,2.783,0,0,1,1.392-.367,2.186,2.186,0,0,1,1.29.385,1.819,1.819,0,0,1,.726,1.02l-.12.084v-4.128h.96v8.76h-.84l-.084-1.453.132-.072a1.75,1.75,0,0,1-.4.895,2.088,2.088,0,0,1-.78.558A2.541,2.541,0,0,1,263.674,341.221Zm.1-.84a1.746,1.746,0,0,0,1-.288,1.871,1.871,0,0,0,.66-.822,3.111,3.111,0,0,0,.234-1.254,2.717,2.717,0,0,0-.234-1.176,1.782,1.782,0,0,0-.648-.757,1.758,1.758,0,0,0-.966-.264,1.717,1.717,0,0,0-1.416.625,2.555,2.555,0,0,0-.5,1.656,2.594,2.594,0,0,0,.492,1.655A1.655,1.655,0,0,0,263.77,340.381Z" fill="#4d4d4d"/>
          <path d="M271.366,341.221a3.057,3.057,0,0,1-1.518-.372,2.588,2.588,0,0,1-1.038-1.075,3.95,3.95,0,0,1,0-3.347,2.613,2.613,0,0,1,1.02-1.074,2.9,2.9,0,0,1,1.476-.373,2.717,2.717,0,0,1,1.434.361,2.364,2.364,0,0,1,.906.977,3.036,3.036,0,0,1,.312,1.387c0,.136,0,.26-.012.371a2.831,2.831,0,0,1-.036.3h-4.848v-.853h4.428l-.492.1a1.789,1.789,0,0,0-.474-1.332,1.694,1.694,0,0,0-1.242-.469,1.846,1.846,0,0,0-1.014.271,1.761,1.761,0,0,0-.66.78,2.934,2.934,0,0,0-.234,1.23,2.879,2.879,0,0,0,.24,1.223,1.761,1.761,0,0,0,.678.786,1.951,1.951,0,0,0,1.05.271,2.042,2.042,0,0,0,1.074-.252,1.924,1.924,0,0,0,.666-.684l.756.444a2.581,2.581,0,0,1-.582.708,2.533,2.533,0,0,1-.828.462A3.3,3.3,0,0,1,271.366,341.221Z" fill="#4d4d4d"/>
          <path d="M275.782,341.1v-6h.84l.084,1.344-.157-.133a2.054,2.054,0,0,1,.516-.773,1.976,1.976,0,0,1,.75-.426,2.943,2.943,0,0,1,.883-.133,2.743,2.743,0,0,1,1.176.247,1.97,1.97,0,0,1,.846.75,2.363,2.363,0,0,1,.318,1.284v3.84h-.96v-3.5a1.825,1.825,0,0,0-.427-1.386,1.494,1.494,0,0,0-1.049-.391,2.024,2.024,0,0,0-.865.2,1.69,1.69,0,0,0-.714.661,2.3,2.3,0,0,0-.281,1.223V341.1Z" fill="#4d4d4d"/>
          <path d="M286.726,335.1v.828h-4.344V335.1Zm-2.184-1.7v6.049a.82.82,0,0,0,.252.659.961.961,0,0,0,.648.216,1.384,1.384,0,0,0,.6-.119,1.637,1.637,0,0,0,.456-.324l.336.8a2.038,2.038,0,0,1-.654.4,2.433,2.433,0,0,1-.87.145,2.247,2.247,0,0,1-.852-.162,1.351,1.351,0,0,1-.63-.516,1.73,1.73,0,0,1-.246-.93V333.66Z" fill="#4d4d4d"/>
          <path d="M290.313,341.221a3.527,3.527,0,0,1-1.613-.372,2.674,2.674,0,0,1-1.135-1.056l.817-.588a1.993,1.993,0,0,0,.774.863,2.3,2.3,0,0,0,1.23.313,1.746,1.746,0,0,0,1-.246.749.749,0,0,0,.36-.643.735.735,0,0,0-.162-.461,1.028,1.028,0,0,0-.619-.306l-1.44-.3a2.261,2.261,0,0,1-1.253-.6,1.5,1.5,0,0,1-.378-1.043,1.545,1.545,0,0,1,.281-.9,1.966,1.966,0,0,1,.805-.654,2.842,2.842,0,0,1,1.23-.247,3.009,3.009,0,0,1,1.5.348,2.188,2.188,0,0,1,.912.984l-.805.529a1.424,1.424,0,0,0-.659-.775,1.971,1.971,0,0,0-.948-.246,2.037,2.037,0,0,0-.738.12,1.067,1.067,0,0,0-.468.331.755.755,0,0,0,.018.959,1.12,1.12,0,0,0,.671.319l1.5.311a2.079,2.079,0,0,1,1.177.552,1.379,1.379,0,0,1,.336.937,1.664,1.664,0,0,1-.3.989,1.885,1.885,0,0,1-.839.654A3.17,3.17,0,0,1,290.313,341.221Z" fill="#4d4d4d"/>
        </g>
        <g style="isolation: isolate">
          <path d="M28.332,227.443l4.824,2.832h3.1v.959h-3.1l-4.824,2.832v-1.138l2.712-1.537,1.128-.636-1.128-.636-2.712-1.536Z" fill="#4d4d4d"/>
          <path d="M36.372,224.562A3.061,3.061,0,0,1,36,226.081a2.586,2.586,0,0,1-1.074,1.038,3.952,3.952,0,0,1-3.348,0A2.624,2.624,0,0,1,30.5,226.1a2.917,2.917,0,0,1-.372-1.477,2.714,2.714,0,0,1,.36-1.434,2.373,2.373,0,0,1,.978-.906,3.032,3.032,0,0,1,1.386-.312c.136,0,.26,0,.372.011a2.776,2.776,0,0,1,.3.038v4.847h-.852v-4.428l.1.493a1.792,1.792,0,0,0-1.332.472,1.7,1.7,0,0,0-.468,1.242,1.855,1.855,0,0,0,.27,1.015,1.759,1.759,0,0,0,.78.659,2.918,2.918,0,0,0,1.23.235,2.865,2.865,0,0,0,1.224-.241,1.758,1.758,0,0,0,.786-.677,1.96,1.96,0,0,0,.27-1.05,2.034,2.034,0,0,0-.252-1.073,1.9,1.9,0,0,0-.684-.666l.444-.757a2.57,2.57,0,0,1,.708.582,2.543,2.543,0,0,1,.462.828A3.264,3.264,0,0,1,36.372,224.562Z" fill="#4d4d4d"/>
          <path d="M32.376,216.643a1.418,1.418,0,0,0-1.038.361,1.364,1.364,0,0,0-.366,1.019,1.955,1.955,0,0,0,.27,1.056,1.575,1.575,0,0,0,.87.636l-.48.78a2.108,2.108,0,0,1-1.086-.888A2.927,2.927,0,0,1,30.132,218a3.009,3.009,0,0,1,.222-1.176,1.85,1.85,0,0,1,.672-.834,2.018,2.018,0,0,1,1.158-.305h2.9c.288,0,.432-.153.432-.457a1.657,1.657,0,0,0-.06-.444l.756.048a1.4,1.4,0,0,1,.12.624,1.425,1.425,0,0,1-.132.624.978.978,0,0,1-.4.433,1.349,1.349,0,0,1-.678.155H35l.036-.239a1.579,1.579,0,0,1,.762.491,2.266,2.266,0,0,1,.432.78,2.789,2.789,0,0,1,.138.852,2.656,2.656,0,0,1-.18.984,1.619,1.619,0,0,1-.546.727,1.622,1.622,0,0,1-2.016-.181,2.408,2.408,0,0,1-.594-1.254l-.468-2.376h.792l.4,1.932a2.232,2.232,0,0,0,.336.877.709.709,0,0,0,.6.287.741.741,0,0,0,.606-.293,1.315,1.315,0,0,0,.234-.835,2.427,2.427,0,0,0-.09-.665,1.746,1.746,0,0,0-.276-.57,1.322,1.322,0,0,0-.468-.4,1.447,1.447,0,0,0-.666-.144Z" fill="#4d4d4d"/>
          <path d="M36.252,213.355h-6v-.78l.984-.132a1.761,1.761,0,0,1-.828-.738,2.359,2.359,0,0,1-.276-1.182,2.673,2.673,0,0,1,.024-.341.9.9,0,0,1,.1-.319l.876.168a1.516,1.516,0,0,0-.072.288,3.131,3.131,0,0,0-.024.445,1.5,1.5,0,0,0,.216.75,1.71,1.71,0,0,0,.654.629,2.2,2.2,0,0,0,1.11.252h3.24Z" fill="#4d4d4d"/>
          <path d="M36.372,206.551A3.531,3.531,0,0,1,36,208.165a2.659,2.659,0,0,1-1.056,1.134l-.588-.817a1.994,1.994,0,0,0,.864-.773,2.313,2.313,0,0,0,.312-1.23,1.752,1.752,0,0,0-.246-1,.748.748,0,0,0-1.1-.2,1.031,1.031,0,0,0-.306.618l-.3,1.441a2.261,2.261,0,0,1-.6,1.254,1.5,1.5,0,0,1-1.044.377,1.548,1.548,0,0,1-.9-.282,1.963,1.963,0,0,1-.654-.8,2.86,2.86,0,0,1-.246-1.23,2.993,2.993,0,0,1,.348-1.5,2.173,2.173,0,0,1,.984-.912l.528.8a1.431,1.431,0,0,0-.774.66,1.974,1.974,0,0,0-.246.948,2.014,2.014,0,0,0,.12.737,1.05,1.05,0,0,0,.33.469.761.761,0,0,0,.96-.017,1.126,1.126,0,0,0,.318-.672l.312-1.5a2.072,2.072,0,0,1,.552-1.177,1.372,1.372,0,0,1,.936-.336,1.683,1.683,0,0,1,.99.3,1.9,1.9,0,0,1,.654.84A3.187,3.187,0,0,1,36.372,206.551Z" fill="#4d4d4d"/>
          <path d="M30.132,195.812a2.992,2.992,0,0,1,.372-1.506,2.6,2.6,0,0,1,1.074-1.027,3.962,3.962,0,0,1,3.348,0A2.6,2.6,0,0,1,36,194.306a3.222,3.222,0,0,1,0,3.006,2.6,2.6,0,0,1-1.074,1.032,3.952,3.952,0,0,1-3.348,0,2.6,2.6,0,0,1-1.074-1.032A3.007,3.007,0,0,1,30.132,195.812Zm.828,0a1.9,1.9,0,0,0,.276,1.043,1.786,1.786,0,0,0,.786.666,3.321,3.321,0,0,0,2.454,0,1.78,1.78,0,0,0,.792-.666,2.111,2.111,0,0,0,0-2.087,1.78,1.78,0,0,0-.792-.666,3.321,3.321,0,0,0-2.454,0,1.786,1.786,0,0,0-.786.666A1.9,1.9,0,0,0,30.96,195.812Z" fill="#4d4d4d"/>
          <path d="M27.432,188.768a2.316,2.316,0,0,1,.072-.588,1.087,1.087,0,0,1,.2-.432l.78.252a.982.982,0,0,0-.138.312,1.528,1.528,0,0,0-.042.372,1.2,1.2,0,0,0,.246.8.977.977,0,0,0,.786.288h6.912v.96H29.244a2.162,2.162,0,0,1-.732-.12,1.493,1.493,0,0,1-.576-.365,1.674,1.674,0,0,1-.372-.619A2.575,2.575,0,0,1,27.432,188.768Zm2.82-1h.828v4.165h-.828Z" fill="#4d4d4d"/>
          <path d="M36.252,182.7h-7.92V177.14h.9v4.6h2.556V178.16h.9v3.576h2.664v-4.777h.9Z" fill="#4d4d4d"/>
          <path d="M30.252,174.645l2.508-1.79.084-.059,3.408-2.46v1.176l-2.6,1.86-.132.108-3.264,2.364Zm0-4.273,3.2,2.376v.061l2.8,2.063v1.116l-3.444-2.616V173.3l-2.556-1.8Z" fill="#4d4d4d"/>
          <path d="M38.772,168.824h-8.52v-.84l1.464-.084-.168.131a2.07,2.07,0,0,1-.738-.467,2.219,2.219,0,0,1-.5-.755A2.644,2.644,0,0,1,30.5,164.5a2.7,2.7,0,0,1,1.068-.99,3.521,3.521,0,0,1,1.68-.372,3.483,3.483,0,0,1,1.674.378,2.713,2.713,0,0,1,1.074,1,2.625,2.625,0,0,1,.372,1.368,2.32,2.32,0,0,1-.366,1.3,2.067,2.067,0,0,1-.93.8l-.18-.121h3.876Zm-3.24-2.844a1.675,1.675,0,0,0-.624-1.386,2.578,2.578,0,0,0-1.656-.5,2.622,2.622,0,0,0-1.656.486,1.626,1.626,0,0,0-.624,1.361,1.8,1.8,0,0,0,.282,1.009,1.871,1.871,0,0,0,.792.672,2.809,2.809,0,0,0,1.206.239,2.881,2.881,0,0,0,1.2-.233,1.834,1.834,0,0,0,.8-.66A1.754,1.754,0,0,0,35.532,165.98Z" fill="#4d4d4d"/>
          <path d="M36.372,158.792A3.066,3.066,0,0,1,36,160.311a2.589,2.589,0,0,1-1.074,1.037,3.943,3.943,0,0,1-3.348,0,2.619,2.619,0,0,1-1.074-1.02,2.911,2.911,0,0,1-.372-1.476,2.716,2.716,0,0,1,.36-1.434,2.373,2.373,0,0,1,.978-.906,3.044,3.044,0,0,1,1.386-.312q.2,0,.372.012c.112.009.212.02.3.036V161.1h-.852v-4.428l.1.492a1.789,1.789,0,0,0-1.332.474,1.691,1.691,0,0,0-.468,1.242,1.862,1.862,0,0,0,.27,1.015,1.765,1.765,0,0,0,.78.659,2.934,2.934,0,0,0,1.23.234,2.88,2.88,0,0,0,1.224-.24,1.766,1.766,0,0,0,.786-.678,1.96,1.96,0,0,0,.27-1.05,2.042,2.042,0,0,0-.252-1.074,1.916,1.916,0,0,0-.684-.666l.444-.756a2.57,2.57,0,0,1,.708.582,2.543,2.543,0,0,1,.462.828A3.271,3.271,0,0,1,36.372,158.792Z" fill="#4d4d4d"/>
          <path d="M36.252,154.376h-6v-.78l.984-.131a1.761,1.761,0,0,1-.828-.738,2.366,2.366,0,0,1-.276-1.183,2.688,2.688,0,0,1,.024-.342.9.9,0,0,1,.1-.317l.876.168a1.506,1.506,0,0,0-.072.287,3.115,3.115,0,0,0-.024.444,1.5,1.5,0,0,0,.216.75,1.713,1.713,0,0,0,.654.63,2.2,2.2,0,0,0,1.11.252h3.24Z" fill="#4d4d4d"/>
          <path d="M29.1,149a.682.682,0,1,1-.2-.521A.7.7,0,0,1,29.1,149Zm1.152-.48h6v.96h-6Z" fill="#4d4d4d"/>
          <path d="M36.372,143.78A3.063,3.063,0,0,1,36,145.3a2.589,2.589,0,0,1-1.074,1.037,3.943,3.943,0,0,1-3.348,0,2.619,2.619,0,0,1-1.074-1.02,2.906,2.906,0,0,1-.372-1.476,2.719,2.719,0,0,1,.36-1.434,2.379,2.379,0,0,1,.978-.906,3.044,3.044,0,0,1,1.386-.312q.2,0,.372.012t.3.036v4.848h-.852v-4.428l.1.492a1.792,1.792,0,0,0-1.332.474,1.693,1.693,0,0,0-.468,1.242,1.86,1.86,0,0,0,.27,1.015,1.765,1.765,0,0,0,.78.659,2.934,2.934,0,0,0,1.23.234,2.88,2.88,0,0,0,1.224-.24,1.766,1.766,0,0,0,.786-.678,1.958,1.958,0,0,0,.27-1.049,2.044,2.044,0,0,0-.252-1.075,1.916,1.916,0,0,0-.684-.666l.444-.755a2.509,2.509,0,0,1,1.17,1.41A3.264,3.264,0,0,1,36.372,143.78Z" fill="#4d4d4d"/>
          <path d="M36.252,139.364h-6v-.84l1.344-.084-.132.157a2.044,2.044,0,0,1-.774-.517,1.962,1.962,0,0,1-.426-.75,2.958,2.958,0,0,1-.132-.882,2.757,2.757,0,0,1,.246-1.176,1.97,1.97,0,0,1,.75-.846,2.377,2.377,0,0,1,1.284-.318h3.84v.96h-3.5a1.833,1.833,0,0,0-1.386.426,1.5,1.5,0,0,0-.39,1.051,2,2,0,0,0,.2.863,1.684,1.684,0,0,0,.66.715,2.311,2.311,0,0,0,1.224.281h3.192Z" fill="#4d4d4d"/>
          <path d="M30.132,129.452a2.909,2.909,0,0,1,.192-1.1,2.364,2.364,0,0,1,.552-.822,2.873,2.873,0,0,1,.852-.563l.432.912a1.8,1.8,0,0,0-.882.582,1.6,1.6,0,0,0-.306,1.014,1.9,1.9,0,0,0,.27,1.031,1.706,1.706,0,0,0,.78.66,3.416,3.416,0,0,0,2.454,0,1.7,1.7,0,0,0,.786-.66,1.9,1.9,0,0,0,.27-1.031,2.084,2.084,0,0,0-.144-.811,1.415,1.415,0,0,0-.42-.564,1.574,1.574,0,0,0-.672-.305l.312-.889a2.929,2.929,0,0,1,.948.559,2.343,2.343,0,0,1,.606.851,2.9,2.9,0,0,1,.21,1.134,3,3,0,0,1-.372,1.5,2.59,2.59,0,0,1-1.074,1.032,3.952,3.952,0,0,1-3.348,0,2.59,2.59,0,0,1-1.074-1.032A3,3,0,0,1,30.132,129.452Z" fill="#4d4d4d"/>
          <path d="M36.372,122.709A3.06,3.06,0,0,1,36,124.227a2.592,2.592,0,0,1-1.074,1.038,3.952,3.952,0,0,1-3.348,0,2.615,2.615,0,0,1-1.074-1.021,2.91,2.91,0,0,1-.372-1.475,2.72,2.72,0,0,1,.36-1.435,2.37,2.37,0,0,1,.978-.905,3.032,3.032,0,0,1,1.386-.312q.2,0,.372.012a2.828,2.828,0,0,1,.3.035v4.849h-.852v-4.429l.1.492a1.785,1.785,0,0,0-1.332.475,1.691,1.691,0,0,0-.468,1.242,1.857,1.857,0,0,0,.27,1.014,1.767,1.767,0,0,0,.78.66,2.934,2.934,0,0,0,1.23.234,2.88,2.88,0,0,0,1.224-.24,1.778,1.778,0,0,0,.786-.678,1.966,1.966,0,0,0,.27-1.051,2.047,2.047,0,0,0-.252-1.074,1.924,1.924,0,0,0-.684-.666l.444-.756a2.57,2.57,0,0,1,.708.582,2.543,2.543,0,0,1,.462.828A3.277,3.277,0,0,1,36.372,122.709Z" fill="#4d4d4d"/>
        </g>
      </g>
    </g>
    <g>
      <rect x="25.299" y="22.987" width="10.211" height="10.211" rx="3" fill="#b3ddb5"/>
      <rect x="98.799" y="22.987" width="10.211" height="10.211" rx="3" fill="#81c784"/>
      <g>
        <path d="M45.741,25.051v6.611a2.1,2.1,0,0,1-.288,1.177,1.626,1.626,0,0,1-.708.612,2.116,2.116,0,0,1-.828.18,1.985,1.985,0,0,1-.685-.114,1.764,1.764,0,0,1-.516-.283l.2-.912a1.441,1.441,0,0,0,.985.373.842.842,0,0,0,.63-.252,1.247,1.247,0,0,0,.246-.877V25.051Zm-.48-1.153a.72.72,0,1,1,0-1.439.72.72,0,1,1,0,1.439Z" fill="#333"/>
        <path d="M50.145,31.171a2.749,2.749,0,0,1-1.086-.216,1.829,1.829,0,0,1-.829-.7,2.285,2.285,0,0,1-.317-1.267V25.051h.96v3.683a1.6,1.6,0,0,0,.4,1.254,1.645,1.645,0,0,0,1.115.342,1.97,1.97,0,0,0,.66-.113,1.611,1.611,0,0,0,.582-.36,1.742,1.742,0,0,0,.409-.63,2.527,2.527,0,0,0,.15-.913V25.051h.96v6h-.84l-.06-.912a1.872,1.872,0,0,1-.847.786A2.967,2.967,0,0,1,50.145,31.171Z" fill="#333"/>
        <path d="M55.376,31.051v-6h.84L56.3,26.4l-.156-.132a2.074,2.074,0,0,1,.516-.775,1.982,1.982,0,0,1,.75-.426,3,3,0,0,1,.882-.131,2.751,2.751,0,0,1,1.176.246,1.964,1.964,0,0,1,.846.75,2.368,2.368,0,0,1,.318,1.284v3.84h-.96v-3.5a1.833,1.833,0,0,0-.426-1.387,1.5,1.5,0,0,0-1.05-.389,2.008,2.008,0,0,0-.864.2,1.682,1.682,0,0,0-.714.66,2.31,2.31,0,0,0-.282,1.224v3.192Z" fill="#333"/>
        <path d="M63.284,23.9a.679.679,0,1,1,.522-.2A.705.705,0,0,1,63.284,23.9Zm.48,1.153v6H62.8v-6Z" fill="#333"/>
        <path d="M68.48,24.931a2.992,2.992,0,0,1,1.506.372,2.6,2.6,0,0,1,1.026,1.074,3.952,3.952,0,0,1,0,3.348A2.608,2.608,0,0,1,69.986,30.8a3.222,3.222,0,0,1-3.006,0,2.6,2.6,0,0,1-1.032-1.074,3.953,3.953,0,0,1,0-3.348A2.591,2.591,0,0,1,66.98,25.3,3,3,0,0,1,68.48,24.931Zm0,.828a1.907,1.907,0,0,0-1.044.276,1.789,1.789,0,0,0-.666.785,3.337,3.337,0,0,0,0,2.455,1.778,1.778,0,0,0,.666.791,2.106,2.106,0,0,0,2.088,0,1.778,1.778,0,0,0,.666-.791,3.337,3.337,0,0,0,0-2.455,1.789,1.789,0,0,0-.666-.785A1.907,1.907,0,0,0,68.48,25.759Z" fill="#333"/>
        <path d="M73.2,31.051v-6h.78l.132.984a1.761,1.761,0,0,1,.738-.828,2.359,2.359,0,0,1,1.182-.276,2.688,2.688,0,0,1,.342.024.9.9,0,0,1,.318.1l-.168.876a1.516,1.516,0,0,0-.288-.072,3.087,3.087,0,0,0-.444-.025,1.494,1.494,0,0,0-.75.217,1.705,1.705,0,0,0-.63.654,2.2,2.2,0,0,0-.252,1.11v3.24Z" fill="#333"/>
      </g>
      <g>
        <path d="M119.334,31.171a3.534,3.534,0,0,1-1.614-.372,2.655,2.655,0,0,1-1.134-1.057l.816-.588a2,2,0,0,0,.774.865,2.313,2.313,0,0,0,1.23.311,1.747,1.747,0,0,0,1-.245.749.749,0,0,0,.2-1.105,1.028,1.028,0,0,0-.618-.3l-1.44-.3a2.261,2.261,0,0,1-1.254-.6,1.507,1.507,0,0,1-.378-1.045,1.553,1.553,0,0,1,.282-.9,1.976,1.976,0,0,1,.8-.653,2.86,2.86,0,0,1,1.23-.246,2.993,2.993,0,0,1,1.5.348,2.173,2.173,0,0,1,.912.984l-.8.528a1.427,1.427,0,0,0-.66-.774,1.982,1.982,0,0,0-.948-.246,2.023,2.023,0,0,0-.738.12,1.064,1.064,0,0,0-.468.33.76.76,0,0,0,.018.96,1.118,1.118,0,0,0,.672.318l1.5.312a2.072,2.072,0,0,1,1.176.552,1.372,1.372,0,0,1,.336.936,1.676,1.676,0,0,1-.3.99,1.909,1.909,0,0,1-.84.654A3.187,3.187,0,0,1,119.334,31.171Z" fill="#333"/>
        <path d="M126.006,31.171a3.06,3.06,0,0,1-1.518-.372,2.586,2.586,0,0,1-1.038-1.074,3.953,3.953,0,0,1,0-3.348,2.613,2.613,0,0,1,1.02-1.074,2.911,2.911,0,0,1,1.476-.372,2.716,2.716,0,0,1,1.434.36,2.373,2.373,0,0,1,.906.978,3.03,3.03,0,0,1,.312,1.385c0,.137,0,.261-.012.373a2.789,2.789,0,0,1-.036.3H123.7v-.851h4.428l-.492.095a1.79,1.79,0,0,0-.474-1.332,1.7,1.7,0,0,0-1.242-.467,1.854,1.854,0,0,0-1.014.27,1.764,1.764,0,0,0-.66.779,2.939,2.939,0,0,0-.234,1.231,2.88,2.88,0,0,0,.24,1.224,1.772,1.772,0,0,0,.678.786,1.971,1.971,0,0,0,1.05.269,2.042,2.042,0,0,0,1.074-.252,1.913,1.913,0,0,0,.666-.683l.756.444a2.509,2.509,0,0,1-1.41,1.17A3.271,3.271,0,0,1,126.006,31.171Z" fill="#333"/>
        <path d="M130.422,31.051v-6h.84l.084,1.344-.156-.132a2.074,2.074,0,0,1,.516-.775,1.982,1.982,0,0,1,.75-.426,3,3,0,0,1,.882-.131,2.751,2.751,0,0,1,1.176.246,1.964,1.964,0,0,1,.846.75,2.368,2.368,0,0,1,.318,1.284v3.84h-.96v-3.5a1.833,1.833,0,0,0-.426-1.387,1.5,1.5,0,0,0-1.05-.389,2.008,2.008,0,0,0-.864.2,1.682,1.682,0,0,0-.714.66,2.31,2.31,0,0,0-.282,1.224v3.192Z" fill="#333"/>
        <path d="M138.33,23.9a.679.679,0,1,1,.522-.2A.705.705,0,0,1,138.33,23.9Zm.48,1.153v6h-.96v-6Z" fill="#333"/>
        <path d="M143.526,24.931a2.992,2.992,0,0,1,1.506.372,2.6,2.6,0,0,1,1.026,1.074,3.952,3.952,0,0,1,0,3.348,2.608,2.608,0,0,1-1.026,1.074,3.222,3.222,0,0,1-3.006,0,2.6,2.6,0,0,1-1.032-1.074,3.952,3.952,0,0,1,0-3.348,2.591,2.591,0,0,1,1.032-1.074A3,3,0,0,1,143.526,24.931Zm0,.828a1.907,1.907,0,0,0-1.044.276,1.789,1.789,0,0,0-.666.785,3.337,3.337,0,0,0,0,2.455,1.778,1.778,0,0,0,.666.791,2.106,2.106,0,0,0,2.088,0,1.778,1.778,0,0,0,.666-.791,3.337,3.337,0,0,0,0-2.455,1.789,1.789,0,0,0-.666-.785A1.907,1.907,0,0,0,143.526,25.759Z" fill="#333"/>
        <path d="M148.242,31.051v-6h.779l.132.984a1.757,1.757,0,0,1,.739-.828,2.354,2.354,0,0,1,1.182-.276,2.7,2.7,0,0,1,.342.024.889.889,0,0,1,.317.1l-.168.876a1.5,1.5,0,0,0-.288-.072,3.087,3.087,0,0,0-.444-.025,1.494,1.494,0,0,0-.75.217,1.71,1.71,0,0,0-.629.654,2.2,2.2,0,0,0-.252,1.11v3.24Z" fill="#333"/>
      </g>
    </g>
    <polyline points="86.613 46.031 86.613 303 359.265 303" fill="none" stroke="#ccc" stroke-miterlimit="10"/>
    <g>
      <path d="M247.952,197.08V205h-.912v-4.98l.108-2.088h-.012l-2.6,7.068h-.816l-2.6-7.068H241.1l.108,2.088V205H240.3v-7.92h1.476l1.74,4.813.6,1.979h.024l.612-1.968,1.728-4.824Z" fill="#333"/>
      <path d="M252.776,205.12a3.053,3.053,0,0,1-1.517-.372,2.568,2.568,0,0,1-1.038-1.074,3.953,3.953,0,0,1,0-3.348,2.611,2.611,0,0,1,1.019-1.074,2.912,2.912,0,0,1,1.477-.372,2.715,2.715,0,0,1,1.433.36,2.381,2.381,0,0,1,.907.978,3.031,3.031,0,0,1,.311,1.386c0,.136,0,.26-.012.373a2.536,2.536,0,0,1-.036.3h-4.847v-.851H254.9l-.492.1a1.79,1.79,0,0,0-.473-1.332,1.7,1.7,0,0,0-1.243-.467,1.856,1.856,0,0,0-1.013.269,1.767,1.767,0,0,0-.66.78,2.918,2.918,0,0,0-.235,1.23,2.885,2.885,0,0,0,.24,1.225,1.781,1.781,0,0,0,.678.785,1.973,1.973,0,0,0,1.05.269,2.04,2.04,0,0,0,1.074-.252,1.9,1.9,0,0,0,.666-.683l.756.444a2.509,2.509,0,0,1-1.41,1.17A3.271,3.271,0,0,1,252.776,205.12Z" fill="#333"/>
      <path d="M259.532,205.12a2.622,2.622,0,0,1-1.368-.372,2.665,2.665,0,0,1-1-1.074A3.53,3.53,0,0,1,256.8,202a3.363,3.363,0,0,1,.4-1.691,2.744,2.744,0,0,1,1.044-1.063,2.785,2.785,0,0,1,1.392-.366,2.185,2.185,0,0,1,1.29.384,1.822,1.822,0,0,1,.727,1.02l-.121.084V196.24h.96V205h-.839l-.084-1.452.131-.071a1.751,1.751,0,0,1-.4.893,2.058,2.058,0,0,1-.78.558A2.523,2.523,0,0,1,259.532,205.12Zm.1-.841a1.745,1.745,0,0,0,1-.287,1.871,1.871,0,0,0,.66-.822,3.1,3.1,0,0,0,.234-1.254,2.717,2.717,0,0,0-.234-1.176,1.7,1.7,0,0,0-1.614-1.019,1.717,1.717,0,0,0-1.416.623,2.556,2.556,0,0,0-.5,1.656,2.6,2.6,0,0,0,.492,1.656A1.656,1.656,0,0,0,259.628,204.279Z" fill="#333"/>
      <path d="M265.2,197.848a.739.739,0,0,1-.521-1.243.739.739,0,1,1,.521,1.243Zm.481,1.152v6h-.96v-6Z" fill="#333"/>
      <path d="M271.413,201.124a1.418,1.418,0,0,0-.36-1.038,1.367,1.367,0,0,0-1.02-.365,1.963,1.963,0,0,0-1.056.269,1.576,1.576,0,0,0-.636.869l-.78-.479a2.113,2.113,0,0,1,.888-1.086,2.93,2.93,0,0,1,1.608-.414,3.006,3.006,0,0,1,1.176.222,1.861,1.861,0,0,1,.834.671,2.024,2.024,0,0,1,.306,1.159v2.9c0,.288.151.432.456.432a1.657,1.657,0,0,0,.444-.06l-.048.756a1.4,1.4,0,0,1-.624.12,1.429,1.429,0,0,1-.624-.132.97.97,0,0,1-.432-.4,1.326,1.326,0,0,1-.156-.678v-.12l.24.036a1.58,1.58,0,0,1-.492.762,2.25,2.25,0,0,1-.78.432,2.789,2.789,0,0,1-.852.138,2.616,2.616,0,0,1-.984-.181,1.605,1.605,0,0,1-.726-.544,1.621,1.621,0,0,1,.18-2.017,2.416,2.416,0,0,1,1.254-.594l2.375-.468v.791l-1.931.4a2.205,2.205,0,0,0-.876.336.7.7,0,0,0-.288.6.736.736,0,0,0,.294.607,1.31,1.31,0,0,0,.834.233,2.4,2.4,0,0,0,.666-.09,1.733,1.733,0,0,0,.57-.275,1.305,1.305,0,0,0,.4-.469,1.441,1.441,0,0,0,.144-.666Z" fill="#333"/>
      <path d="M274.7,205v-6h.84l.084,1.344-.156-.132a2.07,2.07,0,0,1,.516-.774,1.969,1.969,0,0,1,.75-.426,2.958,2.958,0,0,1,.882-.132,2.754,2.754,0,0,1,1.176.246,1.964,1.964,0,0,1,.846.75,2.37,2.37,0,0,1,.318,1.284V205H279v-3.5a1.837,1.837,0,0,0-.426-1.387,1.5,1.5,0,0,0-1.05-.388,2.007,2.007,0,0,0-.864.2,1.688,1.688,0,0,0-.714.66,2.314,2.314,0,0,0-.282,1.225V205Z" fill="#333"/>
      <path d="M290.853,199l-2.821,7.008a3.591,3.591,0,0,1-.5.93,1.65,1.65,0,0,1-.6.492,1.84,1.84,0,0,1-.762.15,2.351,2.351,0,0,1-.75-.114,2.2,2.2,0,0,1-.607-.306l.265-.84a1.627,1.627,0,0,0,.51.319,1.52,1.52,0,0,0,.534.1,1.014,1.014,0,0,0,.588-.192,1.693,1.693,0,0,0,.5-.78l.311-.78-.6-1.427L285.021,199h1.091l1.5,3.912.372,1.068.433-1.188,1.4-3.792Z" fill="#333"/>
      <path d="M294.621,205.12a3.053,3.053,0,0,1-1.517-.372,2.57,2.57,0,0,1-1.039-1.074,3.953,3.953,0,0,1,0-3.348,2.607,2.607,0,0,1,1.02-1.074,2.912,2.912,0,0,1,1.477-.372,2.715,2.715,0,0,1,1.433.36,2.379,2.379,0,0,1,.906.978,3.032,3.032,0,0,1,.312,1.386c0,.136,0,.26-.012.373a2.769,2.769,0,0,1-.036.3h-4.848v-.851h4.428l-.492.1a1.787,1.787,0,0,0-.474-1.332,1.691,1.691,0,0,0-1.242-.467,1.862,1.862,0,0,0-1.014.269,1.774,1.774,0,0,0-.66.78,2.934,2.934,0,0,0-.234,1.23,2.885,2.885,0,0,0,.24,1.225,1.775,1.775,0,0,0,.678.785,1.971,1.971,0,0,0,1.05.269,2.04,2.04,0,0,0,1.074-.252,1.913,1.913,0,0,0,.666-.683l.756.444a2.509,2.509,0,0,1-1.41,1.17A3.271,3.271,0,0,1,294.621,205.12Z" fill="#333"/>
      <path d="M302.541,201.124a1.418,1.418,0,0,0-.36-1.038,1.367,1.367,0,0,0-1.02-.365,1.969,1.969,0,0,0-1.057.269,1.575,1.575,0,0,0-.635.869l-.781-.479a2.119,2.119,0,0,1,.889-1.086,2.93,2.93,0,0,1,1.608-.414,3.006,3.006,0,0,1,1.176.222,1.861,1.861,0,0,1,.834.671,2.032,2.032,0,0,1,.306,1.159v2.9c0,.288.151.432.456.432a1.657,1.657,0,0,0,.444-.06l-.048.756a1.4,1.4,0,0,1-.624.12,1.436,1.436,0,0,1-.625-.132.973.973,0,0,1-.431-.4,1.326,1.326,0,0,1-.156-.678v-.12l.24.036a1.58,1.58,0,0,1-.492.762,2.259,2.259,0,0,1-.78.432,2.789,2.789,0,0,1-.852.138,2.625,2.625,0,0,1-.985-.181,1.608,1.608,0,0,1-.725-.544,1.621,1.621,0,0,1,.18-2.017,2.416,2.416,0,0,1,1.253-.594l2.376-.468v.791l-1.931.4a2.205,2.205,0,0,0-.876.336.7.7,0,0,0-.288.6.736.736,0,0,0,.294.607,1.31,1.31,0,0,0,.834.233,2.4,2.4,0,0,0,.666-.09,1.733,1.733,0,0,0,.57-.275,1.293,1.293,0,0,0,.4-.469,1.429,1.429,0,0,0,.145-.666Z" fill="#333"/>
      <path d="M305.829,205v-6h.78l.132.984a1.761,1.761,0,0,1,.738-.828,2.37,2.37,0,0,1,1.182-.276,2.885,2.885,0,0,1,.342.024.908.908,0,0,1,.318.1l-.168.876a1.462,1.462,0,0,0-.288-.071,2.922,2.922,0,0,0-.444-.026,1.5,1.5,0,0,0-.75.217,1.713,1.713,0,0,0-.63.654,2.2,2.2,0,0,0-.252,1.11V205Z" fill="#333"/>
      <path d="M312.633,205.12a3.534,3.534,0,0,1-1.614-.372,2.644,2.644,0,0,1-1.134-1.057l.815-.587a2,2,0,0,0,.775.864,2.309,2.309,0,0,0,1.229.311,1.747,1.747,0,0,0,1-.245.748.748,0,0,0,.361-.641.737.737,0,0,0-.163-.463,1.028,1.028,0,0,0-.618-.306l-1.439-.3a2.267,2.267,0,0,1-1.254-.6,1.5,1.5,0,0,1-.379-1.045,1.563,1.563,0,0,1,.282-.9,1.979,1.979,0,0,1,.805-.653,2.858,2.858,0,0,1,1.229-.246,2.983,2.983,0,0,1,1.5.349,2.168,2.168,0,0,1,.913.983l-.8.528a1.438,1.438,0,0,0-.66-.774,1.985,1.985,0,0,0-.949-.245,2.024,2.024,0,0,0-.738.119,1.069,1.069,0,0,0-.468.33.758.758,0,0,0,.019.96,1.115,1.115,0,0,0,.672.318l1.5.312a2.086,2.086,0,0,1,1.176.552,1.377,1.377,0,0,1,.336.936,1.683,1.683,0,0,1-.3.99,1.924,1.924,0,0,1-.84.655A3.209,3.209,0,0,1,312.633,205.12Z" fill="#333"/>
      <path d="M323.372,198.88a3,3,0,0,1,1.507.372,2.606,2.606,0,0,1,1.025,1.074,3.952,3.952,0,0,1,0,3.348,2.606,2.606,0,0,1-1.025,1.074,3.224,3.224,0,0,1-3.007,0,2.588,2.588,0,0,1-1.031-1.074,3.953,3.953,0,0,1,0-3.348,2.588,2.588,0,0,1,1.031-1.074A3,3,0,0,1,323.372,198.88Zm0,.828a1.91,1.91,0,0,0-1.044.276,1.792,1.792,0,0,0-.666.786,3.35,3.35,0,0,0,0,2.455,1.789,1.789,0,0,0,.666.791,2.113,2.113,0,0,0,2.088,0,1.783,1.783,0,0,0,.666-.791,3.337,3.337,0,0,0,0-2.455,1.786,1.786,0,0,0-.666-.786A1.9,1.9,0,0,0,323.372,199.708Z" fill="#333"/>
      <path d="M331.412,199v.828h-4.164V199Zm-1-2.82a2.322,2.322,0,0,1,.588.072,1.1,1.1,0,0,1,.433.2l-.252.78a1.008,1.008,0,0,0-.313-.138,1.536,1.536,0,0,0-.372-.041,1.207,1.207,0,0,0-.8.245.981.981,0,0,0-.288.786V205h-.96v-7.008a2.166,2.166,0,0,1,.12-.732,1.5,1.5,0,0,1,.367-.576,1.64,1.64,0,0,1,.618-.372A2.6,2.6,0,0,1,330.416,196.18Z" fill="#333"/>
      <path d="M242.624,219.52a3.06,3.06,0,0,1-1.518-.372,2.58,2.58,0,0,1-1.038-1.074,3.95,3.95,0,0,1,0-3.347,2.61,2.61,0,0,1,1.02-1.075,2.912,2.912,0,0,1,1.476-.373,2.708,2.708,0,0,1,1.434.362,2.368,2.368,0,0,1,.906.976,3.036,3.036,0,0,1,.312,1.387c0,.137,0,.26-.012.372a2.81,2.81,0,0,1-.036.3H240.32v-.852h4.428l-.492.1a1.789,1.789,0,0,0-.474-1.332,1.687,1.687,0,0,0-1.242-.468,1.844,1.844,0,0,0-1.014.271,1.759,1.759,0,0,0-.66.779,2.934,2.934,0,0,0-.234,1.23,2.883,2.883,0,0,0,.24,1.224,1.772,1.772,0,0,0,.678.786,1.962,1.962,0,0,0,1.05.27,2.042,2.042,0,0,0,1.074-.252,1.924,1.924,0,0,0,.666-.684l.756.444a2.567,2.567,0,0,1-.582.708,2.513,2.513,0,0,1-.828.461A3.243,3.243,0,0,1,242.624,219.52Z" fill="#333"/>
      <path d="M251.66,213.4l-2.376,3.2h-.059l-2.065,2.8h-1.116l2.616-3.444h.072l1.8-2.556Zm-4.271,0,1.788,2.508.059.084,2.46,3.408h-1.175l-1.861-2.6-.107-.132-2.365-3.264Z" fill="#333"/>
      <path d="M253.208,221.92V213.4h.84l.084,1.463L254,214.7a2.077,2.077,0,0,1,.468-.737,2.2,2.2,0,0,1,.756-.5,2.531,2.531,0,0,1,.96-.181,2.57,2.57,0,0,1,1.35.373,2.7,2.7,0,0,1,.989,1.068,3.932,3.932,0,0,1-.005,3.354,2.713,2.713,0,0,1-1,1.074,2.623,2.623,0,0,1-1.369.372,2.316,2.316,0,0,1-1.3-.366,2.076,2.076,0,0,1-.8-.929l.12-.181v3.876Zm2.844-3.24a1.673,1.673,0,0,0,1.386-.624,2.576,2.576,0,0,0,.5-1.656,2.628,2.628,0,0,0-.486-1.656,1.628,1.628,0,0,0-1.362-.624,1.8,1.8,0,0,0-1.008.282,1.867,1.867,0,0,0-.672.791,2.816,2.816,0,0,0-.24,1.207,2.9,2.9,0,0,0,.233,1.2,1.848,1.848,0,0,0,.661.8A1.752,1.752,0,0,0,256.052,218.68Z" fill="#333"/>
      <path d="M263.24,219.52a3.053,3.053,0,0,1-1.517-.372,2.574,2.574,0,0,1-1.038-1.074,3.941,3.941,0,0,1,0-3.347,2.607,2.607,0,0,1,1.019-1.075,2.913,2.913,0,0,1,1.477-.373,2.706,2.706,0,0,1,1.433.362,2.377,2.377,0,0,1,.907.976,3.035,3.035,0,0,1,.311,1.387c0,.137,0,.26-.012.372a2.81,2.81,0,0,1-.036.3h-4.847v-.852h4.427l-.492.1a1.789,1.789,0,0,0-.474-1.332,1.687,1.687,0,0,0-1.242-.468,1.84,1.84,0,0,0-1.013.271,1.761,1.761,0,0,0-.661.779,2.934,2.934,0,0,0-.234,1.23,2.883,2.883,0,0,0,.24,1.224,1.772,1.772,0,0,0,.678.786,1.964,1.964,0,0,0,1.05.27,2.04,2.04,0,0,0,1.074-.252,1.924,1.924,0,0,0,.666-.684l.756.444a2.549,2.549,0,0,1-.582.708,2.5,2.5,0,0,1-.828.461A3.243,3.243,0,0,1,263.24,219.52Z" fill="#333"/>
      <path d="M267.656,219.4v-6h.781l.131.984a1.761,1.761,0,0,1,.738-.828,2.359,2.359,0,0,1,1.182-.277,2.7,2.7,0,0,1,.342.025.9.9,0,0,1,.318.1l-.168.875a1.685,1.685,0,0,0-.288-.071,3.115,3.115,0,0,0-.444-.024,1.5,1.5,0,0,0-.75.216,1.713,1.713,0,0,0-.63.654,2.2,2.2,0,0,0-.252,1.11v3.24Z" fill="#333"/>
      <path d="M273.031,212.248a.68.68,0,1,1,.523-.2A.7.7,0,0,1,273.031,212.248Zm.481,1.152v6h-.96v-6Z" fill="#333"/>
      <path d="M278.252,219.52a3.06,3.06,0,0,1-1.518-.372,2.58,2.58,0,0,1-1.038-1.074,3.95,3.95,0,0,1,0-3.347,2.61,2.61,0,0,1,1.02-1.075,2.909,2.909,0,0,1,1.476-.373,2.71,2.71,0,0,1,1.434.362,2.374,2.374,0,0,1,.906.976,3.036,3.036,0,0,1,.312,1.387c0,.137,0,.26-.012.372a2.81,2.81,0,0,1-.036.3h-4.848v-.852h4.428l-.492.1a1.789,1.789,0,0,0-.474-1.332,1.687,1.687,0,0,0-1.242-.468,1.844,1.844,0,0,0-1.014.271,1.759,1.759,0,0,0-.66.779,2.934,2.934,0,0,0-.234,1.23,2.883,2.883,0,0,0,.24,1.224,1.772,1.772,0,0,0,.678.786,1.962,1.962,0,0,0,1.05.27,2.042,2.042,0,0,0,1.074-.252,1.924,1.924,0,0,0,.666-.684l.756.444a2.567,2.567,0,0,1-.582.708,2.508,2.508,0,0,1-.829.461A3.233,3.233,0,0,1,278.252,219.52Z" fill="#333"/>
      <path d="M282.668,219.4v-6h.84l.084,1.344-.156-.133a2.035,2.035,0,0,1,.516-.773,1.982,1.982,0,0,1,.75-.426,2.954,2.954,0,0,1,.882-.133,2.754,2.754,0,0,1,1.176.246,1.962,1.962,0,0,1,.845.75,2.373,2.373,0,0,1,.319,1.286V219.4h-.96v-3.5a1.833,1.833,0,0,0-.426-1.386,1.5,1.5,0,0,0-1.051-.39,2.007,2.007,0,0,0-.863.2,1.682,1.682,0,0,0-.714.66,2.308,2.308,0,0,0-.282,1.224V219.4Z" fill="#333"/>
      <path d="M292.579,213.279a2.918,2.918,0,0,1,1.1.193,2.357,2.357,0,0,1,.821.551,2.874,2.874,0,0,1,.564.853l-.912.433a1.811,1.811,0,0,0-.582-.883,1.59,1.59,0,0,0-1.013-.306,1.9,1.9,0,0,0-1.033.271,1.716,1.716,0,0,0-.66.779,3.43,3.43,0,0,0,0,2.454,1.719,1.719,0,0,0,.66.786,1.911,1.911,0,0,0,1.033.27,2.074,2.074,0,0,0,.809-.144,1.42,1.42,0,0,0,.565-.421,1.563,1.563,0,0,0,.305-.672l.888.313a2.92,2.92,0,0,1-.558.948,2.374,2.374,0,0,1-.851.607,2.933,2.933,0,0,1-1.135.209,3.007,3.007,0,0,1-1.5-.372,2.594,2.594,0,0,1-1.031-1.074,3.95,3.95,0,0,1,0-3.347,2.591,2.591,0,0,1,1.031-1.075A3.007,3.007,0,0,1,292.579,213.279Z" fill="#333"/>
      <path d="M299.323,219.52a3.053,3.053,0,0,1-1.517-.372,2.574,2.574,0,0,1-1.038-1.074,3.95,3.95,0,0,1,0-3.347,2.607,2.607,0,0,1,1.019-1.075,2.913,2.913,0,0,1,1.477-.373,2.706,2.706,0,0,1,1.433.362,2.37,2.37,0,0,1,.907.976,3.035,3.035,0,0,1,.311,1.387c0,.137,0,.26-.012.372a2.574,2.574,0,0,1-.036.3H297.02v-.852h4.427l-.492.1a1.789,1.789,0,0,0-.474-1.332,1.687,1.687,0,0,0-1.242-.468,1.84,1.84,0,0,0-1.013.271,1.761,1.761,0,0,0-.661.779,2.934,2.934,0,0,0-.234,1.23,2.883,2.883,0,0,0,.24,1.224,1.772,1.772,0,0,0,.678.786,1.964,1.964,0,0,0,1.05.27,2.04,2.04,0,0,0,1.074-.252,1.924,1.924,0,0,0,.666-.684l.756.444a2.549,2.549,0,0,1-.582.708,2.5,2.5,0,0,1-.828.461A3.243,3.243,0,0,1,299.323,219.52Z" fill="#333"/>
      <path d="M308.311,212.248a.68.68,0,1,1,.522-.2A.706.706,0,0,1,308.311,212.248Zm.48,1.152v6h-.96v-6Z" fill="#333"/>
      <path d="M313.184,219.52a3.541,3.541,0,0,1-1.615-.372,2.651,2.651,0,0,1-1.133-1.056l.815-.588a2,2,0,0,0,.774.863,2.3,2.3,0,0,0,1.23.313,1.746,1.746,0,0,0,1-.246.747.747,0,0,0,.36-.642.733.733,0,0,0-.162-.462,1.029,1.029,0,0,0-.618-.307l-1.439-.3a2.268,2.268,0,0,1-1.254-.6,1.5,1.5,0,0,1-.379-1.044,1.556,1.556,0,0,1,.282-.9,1.968,1.968,0,0,1,.805-.655,2.855,2.855,0,0,1,1.229-.246,2.993,2.993,0,0,1,1.5.349,2.17,2.17,0,0,1,.912.983l-.8.53a1.433,1.433,0,0,0-.661-.776,1.981,1.981,0,0,0-.948-.245,2.023,2.023,0,0,0-.738.12,1.069,1.069,0,0,0-.468.33.757.757,0,0,0,.019.959,1.112,1.112,0,0,0,.672.319l1.5.312a2.066,2.066,0,0,1,1.175.552,1.372,1.372,0,0,1,.336.936,1.678,1.678,0,0,1-.3.99,1.9,1.9,0,0,1-.839.654A3.212,3.212,0,0,1,313.184,219.52Z" fill="#333"/>
      <path d="M324.943,215.523a1.417,1.417,0,0,0-.36-1.037,1.366,1.366,0,0,0-1.02-.366,1.946,1.946,0,0,0-1.056.271,1.57,1.57,0,0,0-.636.869l-.78-.481a2.12,2.12,0,0,1,.888-1.086,2.938,2.938,0,0,1,1.608-.414,3.011,3.011,0,0,1,1.177.223,1.855,1.855,0,0,1,.834.672,2.026,2.026,0,0,1,.305,1.158v2.9c0,.287.152.432.456.432a1.625,1.625,0,0,0,.445-.061l-.049.756a1.4,1.4,0,0,1-.624.121,1.443,1.443,0,0,1-.624-.132.972.972,0,0,1-.432-.4,1.334,1.334,0,0,1-.156-.678v-.119l.24.036a1.573,1.573,0,0,1-.492.761,2.248,2.248,0,0,1-.779.433,2.8,2.8,0,0,1-.853.138,2.66,2.66,0,0,1-.984-.18,1.616,1.616,0,0,1-.726-.546,1.625,1.625,0,0,1,.18-2.017,2.422,2.422,0,0,1,1.254-.593l2.376-.468v.792l-1.932.4a2.233,2.233,0,0,0-.876.336.708.708,0,0,0-.288.6.736.736,0,0,0,.294.6,1.306,1.306,0,0,0,.834.235,2.434,2.434,0,0,0,.666-.09,1.776,1.776,0,0,0,.57-.276,1.328,1.328,0,0,0,.4-.468,1.434,1.434,0,0,0,.144-.666Z" fill="#333"/>
      <path d="M331.591,213.4v.829h-4.344V213.4Zm-2.184-1.705v6.049a.822.822,0,0,0,.252.66.961.961,0,0,0,.648.216,1.384,1.384,0,0,0,.6-.12,1.637,1.637,0,0,0,.456-.324l.336.8a2.048,2.048,0,0,1-.654.4,2.434,2.434,0,0,1-.87.144,2.21,2.21,0,0,1-.852-.163,1.343,1.343,0,0,1-.63-.515,1.73,1.73,0,0,1-.246-.93V211.96Z" fill="#333"/>
      <path d="M242.876,225.76a3.218,3.218,0,0,1,1.11.174,2.137,2.137,0,0,1,.822.541,3.035,3.035,0,0,1,.588.953l-.888.42a1.771,1.771,0,0,0-.582-.869,1.745,1.745,0,0,0-1.11-.319,1.633,1.633,0,0,0-.912.258,2.174,2.174,0,0,0-.672.715,3.566,3.566,0,0,0-.414,1.067,6,6,0,0,0-.138,1.321v.215h.048a1.637,1.637,0,0,1,.486-.834,2.261,2.261,0,0,1,.8-.468,2.779,2.779,0,0,1,.882-.15,3.015,3.015,0,0,1,1.4.312,2.244,2.244,0,0,1,.93.888,2.966,2.966,0,0,1-.006,2.731,2.261,2.261,0,0,1-.942.893,3.126,3.126,0,0,1-1.446.312,2.672,2.672,0,0,1-1.68-.527,3.212,3.212,0,0,1-1.032-1.447,5.912,5.912,0,0,1-.348-2.106,5.448,5.448,0,0,1,.408-2.238,3.15,3.15,0,0,1,1.11-1.373A2.774,2.774,0,0,1,242.876,225.76Zm-.048,3.949a1.882,1.882,0,0,0-.906.209,1.536,1.536,0,0,0-.606.576,1.636,1.636,0,0,0-.216.846,1.582,1.582,0,0,0,.228.834,1.663,1.663,0,0,0,.618.6,1.983,1.983,0,0,0,2.154-.215,1.613,1.613,0,0,0,.456-1.219,1.756,1.756,0,0,0-.2-.869,1.383,1.383,0,0,0-.588-.565A2.024,2.024,0,0,0,242.828,229.709Z" fill="#333"/>
      <path d="M256.136,227.8l-2.821,7.008a3.6,3.6,0,0,1-.5.929,1.614,1.614,0,0,1-.6.492,1.824,1.824,0,0,1-.762.151,2.359,2.359,0,0,1-.75-.115,2.251,2.251,0,0,1-.606-.3l.264-.841a1.606,1.606,0,0,0,.51.318,1.5,1.5,0,0,0,.534.1,1.006,1.006,0,0,0,.588-.193,1.672,1.672,0,0,0,.5-.78l.312-.78-.6-1.428L250.3,227.8H251.4l1.5,3.912.372,1.067.432-1.188,1.4-3.791Z" fill="#333"/>
      <path d="M259.9,233.92a3.053,3.053,0,0,1-1.517-.371,2.58,2.58,0,0,1-1.038-1.074,3.953,3.953,0,0,1,0-3.348,2.611,2.611,0,0,1,1.019-1.074,2.913,2.913,0,0,1,1.477-.373,2.715,2.715,0,0,1,1.433.361,2.367,2.367,0,0,1,.907.977,3.034,3.034,0,0,1,.311,1.386c0,.137,0,.26-.012.372a2.548,2.548,0,0,1-.036.3H257.6v-.851h4.427l-.492.095a1.79,1.79,0,0,0-.474-1.332,1.691,1.691,0,0,0-1.242-.467,1.84,1.84,0,0,0-1.013.27,1.766,1.766,0,0,0-.661.779,2.936,2.936,0,0,0-.234,1.231,2.879,2.879,0,0,0,.24,1.223,1.775,1.775,0,0,0,.678.787,1.973,1.973,0,0,0,1.05.269,2.04,2.04,0,0,0,1.074-.252,1.921,1.921,0,0,0,.666-.683l.756.443a2.5,2.5,0,0,1-1.41,1.17A3.271,3.271,0,0,1,259.9,233.92Z" fill="#333"/>
      <path d="M267.824,229.924a1.417,1.417,0,0,0-.36-1.037,1.366,1.366,0,0,0-1.02-.366,1.946,1.946,0,0,0-1.056.27,1.577,1.577,0,0,0-.636.869l-.78-.48a2.113,2.113,0,0,1,.888-1.086,2.93,2.93,0,0,1,1.608-.414,3.014,3.014,0,0,1,1.177.222,1.867,1.867,0,0,1,.834.672,2.028,2.028,0,0,1,.305,1.158v2.905q0,.43.456.431a1.625,1.625,0,0,0,.445-.06l-.049.756a1.4,1.4,0,0,1-.624.121,1.429,1.429,0,0,1-.624-.133.975.975,0,0,1-.432-.4,1.339,1.339,0,0,1-.156-.678v-.119l.24.035a1.58,1.58,0,0,1-.492.762,2.254,2.254,0,0,1-.779.432,2.8,2.8,0,0,1-.853.138,2.656,2.656,0,0,1-.984-.18,1.616,1.616,0,0,1-.726-.546,1.624,1.624,0,0,1,.18-2.016,2.419,2.419,0,0,1,1.254-.594l2.376-.468v.792l-1.932.4a2.205,2.205,0,0,0-.876.336.7.7,0,0,0-.288.6.739.739,0,0,0,.294.606,1.31,1.31,0,0,0,.834.234,2.4,2.4,0,0,0,.666-.09,1.774,1.774,0,0,0,.57-.275,1.322,1.322,0,0,0,.4-.469,1.444,1.444,0,0,0,.144-.666Z" fill="#333"/>
      <path d="M271.112,233.8v-6h.781l.131.983a1.765,1.765,0,0,1,.738-.828,2.359,2.359,0,0,1,1.182-.276,2.688,2.688,0,0,1,.342.024.9.9,0,0,1,.318.1l-.167.875a1.72,1.72,0,0,0-.289-.072,3.115,3.115,0,0,0-.444-.024,1.494,1.494,0,0,0-.75.217,1.7,1.7,0,0,0-.63.653,2.2,2.2,0,0,0-.252,1.111v3.24Z" fill="#333"/>
      <path d="M277.916,233.92a3.534,3.534,0,0,1-1.614-.371,2.661,2.661,0,0,1-1.134-1.057l.815-.588a2,2,0,0,0,.775.864,2.3,2.3,0,0,0,1.229.312,1.746,1.746,0,0,0,1-.246.747.747,0,0,0,.2-1.1,1.035,1.035,0,0,0-.619-.306l-1.439-.3a2.261,2.261,0,0,1-1.254-.6,1.5,1.5,0,0,1-.379-1.044,1.558,1.558,0,0,1,.282-.9,1.981,1.981,0,0,1,.8-.654,2.86,2.86,0,0,1,1.23-.246,3.009,3.009,0,0,1,1.5.348,2.173,2.173,0,0,1,.912.984l-.8.529a1.429,1.429,0,0,0-.66-.775,1.984,1.984,0,0,0-.948-.245,2.029,2.029,0,0,0-.739.12,1.052,1.052,0,0,0-.467.33.748.748,0,0,0-.163.473.756.756,0,0,0,.181.486,1.115,1.115,0,0,0,.672.318l1.5.313a2.069,2.069,0,0,1,1.176.551,1.379,1.379,0,0,1,.336.937,1.682,1.682,0,0,1-.3.989,1.9,1.9,0,0,1-.84.654A3.187,3.187,0,0,1,277.916,233.92Z" fill="#333"/>
    </g>
    <g>
      <path d="M180.864,59.58v.9H178.1V67.5h-.96V60.48h-2.76v-.9Z" fill="#333"/>
      <path d="M182.124,67.5V58.74h.96V62.4a1.845,1.845,0,0,1,.828-.78,2.642,2.642,0,0,1,1.128-.24,2.754,2.754,0,0,1,1.176.246,1.97,1.97,0,0,1,.846.75,2.379,2.379,0,0,1,.318,1.284V67.5h-.96V64a1.837,1.837,0,0,0-.426-1.387,1.5,1.5,0,0,0-1.051-.388,2.006,2.006,0,0,0-.863.2,1.679,1.679,0,0,0-.714.666,2.346,2.346,0,0,0-.282,1.23V67.5Z" fill="#333"/>
      <path d="M192.06,67.62a3.054,3.054,0,0,1-1.518-.372,2.574,2.574,0,0,1-1.038-1.074,3.952,3.952,0,0,1,0-3.348,2.611,2.611,0,0,1,1.019-1.074A2.912,2.912,0,0,1,192,61.38a2.719,2.719,0,0,1,1.434.36,2.386,2.386,0,0,1,.906.978,3.031,3.031,0,0,1,.311,1.386c0,.136,0,.26-.011.373s-.021.211-.036.3h-4.848v-.851h4.428l-.493.1a1.79,1.79,0,0,0-.473-1.332,1.694,1.694,0,0,0-1.242-.467,1.858,1.858,0,0,0-1.014.269,1.767,1.767,0,0,0-.66.78,2.934,2.934,0,0,0-.235,1.23,2.869,2.869,0,0,0,.241,1.225,1.773,1.773,0,0,0,.677.785,1.973,1.973,0,0,0,1.05.269,2.038,2.038,0,0,0,1.074-.252,1.9,1.9,0,0,0,.666-.683l.756.444a2.509,2.509,0,0,1-1.41,1.17A3.264,3.264,0,0,1,192.06,67.62Z" fill="#333"/>
      <path d="M200.567,67.5v-6h.84l.06.936a1.973,1.973,0,0,1,.846-.8,2.447,2.447,0,0,1,1.074-.252,2.612,2.612,0,0,1,1.2.288,1.93,1.93,0,0,1,.864.889,1.717,1.717,0,0,1,.54-.666,2.5,2.5,0,0,1,.762-.385,2.7,2.7,0,0,1,.786-.126,2.6,2.6,0,0,1,1.1.24,2.044,2.044,0,0,1,.858.743,2.3,2.3,0,0,1,.336,1.3V67.5h-.96V63.756a1.5,1.5,0,0,0-.408-1.176,1.468,1.468,0,0,0-1.008-.359,1.769,1.769,0,0,0-.876.227,1.681,1.681,0,0,0-.654.672,2.224,2.224,0,0,0-.246,1.092V67.5h-.96V63.756a1.5,1.5,0,0,0-.407-1.176,1.472,1.472,0,0,0-1.009-.359,1.785,1.785,0,0,0-.81.209,1.717,1.717,0,0,0-.69.666,2.3,2.3,0,0,0-.276,1.2v3.2Z" fill="#333"/>
      <path d="M215.507,63.624a1.414,1.414,0,0,0-.361-1.038,1.365,1.365,0,0,0-1.019-.365,1.967,1.967,0,0,0-1.057.269,1.575,1.575,0,0,0-.635.869l-.781-.479a2.11,2.11,0,0,1,.889-1.086,2.928,2.928,0,0,1,1.607-.414,3.007,3.007,0,0,1,1.177.222,1.861,1.861,0,0,1,.834.671,2.032,2.032,0,0,1,.306,1.159v2.9c0,.288.151.432.456.432a1.657,1.657,0,0,0,.444-.06l-.049.756a1.4,1.4,0,0,1-.624.12,1.435,1.435,0,0,1-.624-.132.973.973,0,0,1-.431-.4,1.326,1.326,0,0,1-.157-.678v-.12l.241.036a1.575,1.575,0,0,1-.493.762,2.245,2.245,0,0,1-.779.432,2.789,2.789,0,0,1-.852.138,2.625,2.625,0,0,1-.985-.181,1.6,1.6,0,0,1-.725-.544,1.623,1.623,0,0,1,.179-2.017,2.423,2.423,0,0,1,1.254-.594l2.376-.468v.791l-1.931.4a2.205,2.205,0,0,0-.876.336.7.7,0,0,0-.288.6.737.737,0,0,0,.293.607,1.314,1.314,0,0,0,.834.233,2.386,2.386,0,0,0,.666-.09,1.738,1.738,0,0,0,.571-.275,1.293,1.293,0,0,0,.395-.469,1.429,1.429,0,0,0,.145-.666Z" fill="#333"/>
      <path d="M219.755,61.5v6.611a2.1,2.1,0,0,1-.288,1.177,1.626,1.626,0,0,1-.708.612,2.1,2.1,0,0,1-.828.18,1.979,1.979,0,0,1-.684-.114,1.769,1.769,0,0,1-.517-.282l.205-.913a1.443,1.443,0,0,0,.984.374.842.842,0,0,0,.63-.252,1.243,1.243,0,0,0,.246-.877V61.5Zm-.481-1.152a.739.739,0,0,1-.521-1.243.739.739,0,1,1,.521,1.243Z" fill="#333"/>
      <path d="M224.471,61.38a3,3,0,0,1,1.507.372A2.606,2.606,0,0,1,227,62.826a3.952,3.952,0,0,1,0,3.348,2.606,2.606,0,0,1-1.025,1.074,3.224,3.224,0,0,1-3.007,0,2.591,2.591,0,0,1-1.032-1.074,3.952,3.952,0,0,1,0-3.348,2.591,2.591,0,0,1,1.032-1.074A3,3,0,0,1,224.471,61.38Zm0,.828a1.907,1.907,0,0,0-1.044.276,1.792,1.792,0,0,0-.666.786,3.337,3.337,0,0,0,0,2.455,1.789,1.789,0,0,0,.666.791,2.113,2.113,0,0,0,2.088,0,1.789,1.789,0,0,0,.666-.791,3.337,3.337,0,0,0,0-2.455,1.792,1.792,0,0,0-.666-.786A1.9,1.9,0,0,0,224.471,62.208Z" fill="#333"/>
      <path d="M229.188,67.5v-6h.78l.132.984a1.764,1.764,0,0,1,.737-.828,2.374,2.374,0,0,1,1.183-.276,2.884,2.884,0,0,1,.341.024.913.913,0,0,1,.319.1l-.168.876a1.48,1.48,0,0,0-.288-.071,2.937,2.937,0,0,0-.445-.026,1.5,1.5,0,0,0-.75.217,1.713,1.713,0,0,0-.63.654,2.2,2.2,0,0,0-.252,1.11V67.5Z" fill="#333"/>
      <path d="M234.562,60.348a.739.739,0,0,1-.521-1.243.739.739,0,1,1,.521,1.243Zm.481,1.152v6h-.96v-6Z" fill="#333"/>
      <path d="M240.874,61.5v.828H236.53V61.5Zm-2.184-1.7v6.048a.822.822,0,0,0,.252.66.961.961,0,0,0,.648.217,1.384,1.384,0,0,0,.6-.121,1.62,1.62,0,0,0,.456-.325l.336.8a2.05,2.05,0,0,1-.654.4,2.457,2.457,0,0,1-.87.143,2.228,2.228,0,0,1-.852-.162,1.34,1.34,0,0,1-.629-.517,1.713,1.713,0,0,1-.247-.929V60.061Z" fill="#333"/>
      <path d="M247.234,61.5l-2.82,7.008a3.591,3.591,0,0,1-.5.93,1.644,1.644,0,0,1-.6.492,1.832,1.832,0,0,1-.761.15,2.351,2.351,0,0,1-.75-.114,2.2,2.2,0,0,1-.607-.306l.265-.84a1.627,1.627,0,0,0,.51.319,1.516,1.516,0,0,0,.534.1,1.014,1.014,0,0,0,.588-.192,1.693,1.693,0,0,0,.5-.78l.311-.78-.6-1.427L241.4,61.5h1.092l1.5,3.912.372,1.068.433-1.188,1.4-3.792Z" fill="#333"/>
      <path d="M254.771,61.38a2.992,2.992,0,0,1,1.506.372,2.6,2.6,0,0,1,1.026,1.074,3.952,3.952,0,0,1,0,3.348,2.6,2.6,0,0,1-1.026,1.074,3.222,3.222,0,0,1-3.006,0,2.584,2.584,0,0,1-1.032-1.074,3.953,3.953,0,0,1,0-3.348,2.584,2.584,0,0,1,1.032-1.074A3,3,0,0,1,254.771,61.38Zm0,.828a1.907,1.907,0,0,0-1.044.276,1.786,1.786,0,0,0-.666.786,3.337,3.337,0,0,0,0,2.455,1.783,1.783,0,0,0,.666.791,2.111,2.111,0,0,0,2.087,0,1.777,1.777,0,0,0,.666-.791,3.323,3.323,0,0,0,0-2.455,1.779,1.779,0,0,0-.666-.786A1.9,1.9,0,0,0,254.771,62.208Z" fill="#333"/>
      <path d="M262.812,61.5v.828h-4.165V61.5Zm-1-2.82a2.316,2.316,0,0,1,.588.072,1.092,1.092,0,0,1,.433.2l-.252.78a1,1,0,0,0-.313-.138,1.536,1.536,0,0,0-.372-.041,1.2,1.2,0,0,0-.8.245.978.978,0,0,0-.288.786V67.5h-.96V60.492a2.166,2.166,0,0,1,.12-.732,1.5,1.5,0,0,1,.366-.576,1.64,1.64,0,0,1,.618-.372A2.6,2.6,0,0,1,261.815,58.68Z" fill="#333"/>
      <path d="M267.707,67.5v-6h.84l.059.936a1.97,1.97,0,0,1,.847-.8,2.443,2.443,0,0,1,1.073-.252,2.616,2.616,0,0,1,1.2.288,1.93,1.93,0,0,1,.864.889,1.708,1.708,0,0,1,.54-.666,2.477,2.477,0,0,1,.762-.385,2.7,2.7,0,0,1,.786-.126,2.594,2.594,0,0,1,1.1.24,2.041,2.041,0,0,1,.859.743,2.307,2.307,0,0,1,.336,1.3V67.5h-.96V63.756a1.5,1.5,0,0,0-.408-1.176,1.468,1.468,0,0,0-1.008-.359,1.763,1.763,0,0,0-.876.227,1.683,1.683,0,0,0-.655.672,2.224,2.224,0,0,0-.246,1.092V67.5h-.96V63.756a1.5,1.5,0,0,0-.407-1.176,1.469,1.469,0,0,0-1.009-.359,1.781,1.781,0,0,0-.809.209,1.719,1.719,0,0,0-.691.666,2.31,2.31,0,0,0-.275,1.2v3.2Z" fill="#333"/>
      <path d="M281.626,61.38a3,3,0,0,1,1.507.372,2.606,2.606,0,0,1,1.025,1.074,3.953,3.953,0,0,1,0,3.348,2.606,2.606,0,0,1-1.025,1.074,3.224,3.224,0,0,1-3.007,0,2.588,2.588,0,0,1-1.031-1.074,3.953,3.953,0,0,1,0-3.348,2.588,2.588,0,0,1,1.031-1.074A3,3,0,0,1,281.626,61.38Zm0,.828a1.91,1.91,0,0,0-1.044.276,1.792,1.792,0,0,0-.666.786,3.35,3.35,0,0,0,0,2.455,1.789,1.789,0,0,0,.666.791,2.113,2.113,0,0,0,2.088,0,1.783,1.783,0,0,0,.666-.791,3.337,3.337,0,0,0,0-2.455,1.786,1.786,0,0,0-.666-.786A1.9,1.9,0,0,0,281.626,62.208Z" fill="#333"/>
      <path d="M286.343,67.5v-6h.78l.132.984a1.764,1.764,0,0,1,.737-.828,2.374,2.374,0,0,1,1.183-.276,2.9,2.9,0,0,1,.342.024.908.908,0,0,1,.318.1l-.168.876a1.48,1.48,0,0,0-.288-.071,2.931,2.931,0,0,0-.444-.026,1.5,1.5,0,0,0-.75.217,1.713,1.713,0,0,0-.63.654,2.2,2.2,0,0,0-.252,1.11V67.5Z" fill="#333"/>
      <path d="M293.555,67.62a3.054,3.054,0,0,1-1.518-.372A2.574,2.574,0,0,1,291,66.174a3.953,3.953,0,0,1,0-3.348,2.607,2.607,0,0,1,1.02-1.074,2.906,2.906,0,0,1,1.476-.372,2.719,2.719,0,0,1,1.434.36,2.386,2.386,0,0,1,.906.978,3.031,3.031,0,0,1,.311,1.386c0,.136,0,.26-.011.373s-.021.211-.036.3h-4.848v-.851h4.428l-.492.1a1.791,1.791,0,0,0-.474-1.332,1.694,1.694,0,0,0-1.242-.467,1.858,1.858,0,0,0-1.014.269,1.767,1.767,0,0,0-.66.78,2.934,2.934,0,0,0-.235,1.23,2.885,2.885,0,0,0,.241,1.225,1.773,1.773,0,0,0,.677.785,1.973,1.973,0,0,0,1.05.269,2.038,2.038,0,0,0,1.074-.252,1.908,1.908,0,0,0,.667-.683l.755.444a2.509,2.509,0,0,1-1.41,1.17A3.264,3.264,0,0,1,293.555,67.62Z" fill="#333"/>
      <path d="M305.422,61.5v.828h-4.344V61.5Zm-2.184-1.7v6.048a.822.822,0,0,0,.252.66.961.961,0,0,0,.648.217,1.384,1.384,0,0,0,.6-.121,1.62,1.62,0,0,0,.456-.325l.336.8a2.05,2.05,0,0,1-.654.4,2.457,2.457,0,0,1-.87.143,2.228,2.228,0,0,1-.852-.162,1.348,1.348,0,0,1-.63-.517,1.722,1.722,0,0,1-.246-.929V60.061Z" fill="#333"/>
      <path d="M306.851,67.5V58.74h.96V62.4a1.845,1.845,0,0,1,.828-.78,2.635,2.635,0,0,1,1.128-.24,2.75,2.75,0,0,1,1.175.246,1.964,1.964,0,0,1,.846.75,2.37,2.37,0,0,1,.318,1.284V67.5h-.96V64a1.837,1.837,0,0,0-.425-1.387,1.5,1.5,0,0,0-1.051-.388,2.006,2.006,0,0,0-.863.2,1.673,1.673,0,0,0-.714.666,2.336,2.336,0,0,0-.282,1.23V67.5Z" fill="#333"/>
      <path d="M317.782,63.624a1.418,1.418,0,0,0-.36-1.038,1.366,1.366,0,0,0-1.02-.365,1.963,1.963,0,0,0-1.056.269,1.581,1.581,0,0,0-.636.869l-.78-.479a2.113,2.113,0,0,1,.888-1.086,2.93,2.93,0,0,1,1.608-.414,3.014,3.014,0,0,1,1.177.222,1.872,1.872,0,0,1,.834.671,2.032,2.032,0,0,1,.305,1.159v2.9q0,.432.456.432a1.664,1.664,0,0,0,.445-.06l-.049.756a1.4,1.4,0,0,1-.624.12,1.429,1.429,0,0,1-.624-.132.975.975,0,0,1-.432-.4,1.336,1.336,0,0,1-.156-.678v-.12l.24.036a1.58,1.58,0,0,1-.492.762,2.254,2.254,0,0,1-.779.432,2.8,2.8,0,0,1-.853.138,2.616,2.616,0,0,1-.984-.181,1.605,1.605,0,0,1-.726-.544,1.625,1.625,0,0,1,.18-2.017,2.419,2.419,0,0,1,1.254-.594l2.376-.468v.791l-1.932.4a2.205,2.205,0,0,0-.876.336.707.707,0,0,0-.288.6.738.738,0,0,0,.294.607,1.31,1.31,0,0,0,.834.233,2.4,2.4,0,0,0,.666-.09,1.733,1.733,0,0,0,.57-.275,1.305,1.305,0,0,0,.4-.469,1.441,1.441,0,0,0,.144-.666Z" fill="#333"/>
      <path d="M321.07,67.5v-6h.84l.084,1.344-.156-.132a2.07,2.07,0,0,1,.516-.774,1.969,1.969,0,0,1,.75-.426,2.963,2.963,0,0,1,.882-.132,2.751,2.751,0,0,1,1.176.246,1.964,1.964,0,0,1,.846.75,2.37,2.37,0,0,1,.318,1.284V67.5h-.96V64a1.833,1.833,0,0,0-.426-1.387,1.5,1.5,0,0,0-1.05-.388,2.01,2.01,0,0,0-.864.2,1.688,1.688,0,0,0-.714.66,2.314,2.314,0,0,0-.282,1.225V67.5Z" fill="#333"/>
      <path d="M336.094,63.624a1.414,1.414,0,0,0-.361-1.038,1.365,1.365,0,0,0-1.019-.365,1.967,1.967,0,0,0-1.057.269,1.581,1.581,0,0,0-.636.869l-.78-.479a2.11,2.11,0,0,1,.889-1.086,2.928,2.928,0,0,1,1.607-.414,3.007,3.007,0,0,1,1.177.222,1.861,1.861,0,0,1,.834.671,2.032,2.032,0,0,1,.306,1.159v2.9c0,.288.151.432.456.432a1.657,1.657,0,0,0,.444-.06l-.049.756a1.4,1.4,0,0,1-.624.12,1.435,1.435,0,0,1-.624-.132.973.973,0,0,1-.431-.4,1.326,1.326,0,0,1-.157-.678v-.12l.241.036a1.575,1.575,0,0,1-.493.762,2.245,2.245,0,0,1-.779.432,2.789,2.789,0,0,1-.852.138,2.625,2.625,0,0,1-.985-.181,1.6,1.6,0,0,1-.725-.544,1.623,1.623,0,0,1,.179-2.017,2.423,2.423,0,0,1,1.254-.594l2.376-.468v.791l-1.931.4a2.205,2.205,0,0,0-.876.336.705.705,0,0,0-.289.6.738.738,0,0,0,.294.607,1.314,1.314,0,0,0,.834.233,2.391,2.391,0,0,0,.666-.09,1.738,1.738,0,0,0,.571-.275,1.293,1.293,0,0,0,.4-.469,1.429,1.429,0,0,0,.145-.666Z" fill="#333"/>
      <path d="M179.448,84.42V80.256l.168.12a1.751,1.751,0,0,1-.4.894,2.069,2.069,0,0,1-.78.558,2.541,2.541,0,0,1-.978.192,2.622,2.622,0,0,1-1.368-.372,2.671,2.671,0,0,1-1-1.074,3.532,3.532,0,0,1-.372-1.674,3.372,3.372,0,0,1,.4-1.692,2.755,2.755,0,0,1,1.044-1.062,2.786,2.786,0,0,1,1.392-.367,2.342,2.342,0,0,1,.936.187,2.082,2.082,0,0,1,.738.528,1.714,1.714,0,0,1,.4.81h-.144l.084-1.4h.84v8.52Zm-1.9-3.24a1.752,1.752,0,0,0,.99-.282,1.88,1.88,0,0,0,.666-.8,2.923,2.923,0,0,0,.24-1.231,2.853,2.853,0,0,0-.234-1.217,1.759,1.759,0,0,0-.654-.762,1.81,1.81,0,0,0-.984-.264,1.69,1.69,0,0,0-1.392.624,2.556,2.556,0,0,0-.5,1.656,2.6,2.6,0,0,0,.492,1.656A1.654,1.654,0,0,0,177.552,81.18Z" fill="#333"/>
      <path d="M184.812,82.02a2.769,2.769,0,0,1-1.085-.216,1.828,1.828,0,0,1-.829-.7,2.289,2.289,0,0,1-.318-1.266V75.9h.96v3.684a1.608,1.608,0,0,0,.4,1.254,1.652,1.652,0,0,0,1.116.342,1.959,1.959,0,0,0,.66-.114,1.608,1.608,0,0,0,.581-.36,1.694,1.694,0,0,0,.408-.63,2.482,2.482,0,0,0,.151-.912V75.9h.959v6h-.839l-.061-.912a1.862,1.862,0,0,1-.846.785A2.957,2.957,0,0,1,184.812,82.02Z" fill="#333"/>
      <path d="M193.549,78.023a1.413,1.413,0,0,0-.361-1.037,1.365,1.365,0,0,0-1.019-.366,1.95,1.95,0,0,0-1.057.271,1.564,1.564,0,0,0-.635.869l-.781-.481a2.118,2.118,0,0,1,.889-1.086,2.937,2.937,0,0,1,1.607-.414,3.008,3.008,0,0,1,1.177.223,1.85,1.85,0,0,1,.834.672,2.026,2.026,0,0,1,.306,1.158v2.9c0,.287.151.432.456.432a1.618,1.618,0,0,0,.444-.061l-.049.756a1.4,1.4,0,0,1-.624.121,1.449,1.449,0,0,1-.624-.132.97.97,0,0,1-.431-.4,1.324,1.324,0,0,1-.157-.678v-.119l.241.036a1.567,1.567,0,0,1-.493.761,2.248,2.248,0,0,1-.779.433,2.789,2.789,0,0,1-.852.138,2.665,2.665,0,0,1-.985-.18,1.613,1.613,0,0,1-.725-.546,1.623,1.623,0,0,1,.179-2.017,2.422,2.422,0,0,1,1.254-.593l2.376-.468v.792l-1.931.4a2.221,2.221,0,0,0-.876.336.705.705,0,0,0-.288.6.735.735,0,0,0,.293.6,1.308,1.308,0,0,0,.834.235,2.424,2.424,0,0,0,.666-.09,1.781,1.781,0,0,0,.571-.276,1.315,1.315,0,0,0,.4-.468,1.435,1.435,0,0,0,.145-.666Z" fill="#333"/>
      <path d="M196.837,81.9v-6h.78l.132.984a1.764,1.764,0,0,1,.737-.828,2.366,2.366,0,0,1,1.183-.277,2.713,2.713,0,0,1,.342.025.908.908,0,0,1,.318.1l-.168.875a1.709,1.709,0,0,0-.288-.071,3.115,3.115,0,0,0-.444-.024,1.5,1.5,0,0,0-.75.216,1.713,1.713,0,0,0-.63.654,2.2,2.2,0,0,0-.252,1.11V81.9Z" fill="#333"/>
      <path d="M204.972,75.9v.829h-4.344V75.9Zm-2.184-1.705v6.049a.822.822,0,0,0,.252.66.961.961,0,0,0,.648.216,1.384,1.384,0,0,0,.6-.12,1.652,1.652,0,0,0,.456-.324l.336.8a2.048,2.048,0,0,1-.654.4,2.434,2.434,0,0,1-.87.144,2.21,2.21,0,0,1-.852-.163,1.334,1.334,0,0,1-.63-.515,1.73,1.73,0,0,1-.246-.93V74.46Z" fill="#333"/>
      <path d="M208.908,82.02a3.053,3.053,0,0,1-1.517-.372,2.574,2.574,0,0,1-1.038-1.074,3.941,3.941,0,0,1,0-3.347,2.607,2.607,0,0,1,1.019-1.075,2.913,2.913,0,0,1,1.477-.373,2.706,2.706,0,0,1,1.433.362,2.368,2.368,0,0,1,.906.976A3.036,3.036,0,0,1,211.5,78.5c0,.137,0,.26-.012.372a2.81,2.81,0,0,1-.036.3H206.6v-.852h4.428l-.492.1a1.789,1.789,0,0,0-.474-1.332,1.687,1.687,0,0,0-1.242-.468,1.84,1.84,0,0,0-1.013.271,1.761,1.761,0,0,0-.661.779,2.934,2.934,0,0,0-.234,1.23,2.883,2.883,0,0,0,.24,1.224,1.772,1.772,0,0,0,.678.786,1.964,1.964,0,0,0,1.05.27,2.04,2.04,0,0,0,1.074-.252,1.924,1.924,0,0,0,.666-.684l.756.444a2.549,2.549,0,0,1-.582.708,2.513,2.513,0,0,1-.828.461A3.243,3.243,0,0,1,208.908,82.02Z" fill="#333"/>
      <path d="M213.324,81.9v-6h.78l.132.984a1.761,1.761,0,0,1,.738-.828,2.359,2.359,0,0,1,1.182-.277,2.7,2.7,0,0,1,.342.025.9.9,0,0,1,.318.1l-.168.875a1.685,1.685,0,0,0-.288-.071,3.115,3.115,0,0,0-.444-.024,1.5,1.5,0,0,0-.75.216,1.713,1.713,0,0,0-.63.654,2.2,2.2,0,0,0-.252,1.11V81.9Z" fill="#333"/>
      <path d="M222.036,81.9V73.141H223V76.8a1.839,1.839,0,0,1,.828-.78,2.627,2.627,0,0,1,1.128-.241,2.754,2.754,0,0,1,1.176.246,1.97,1.97,0,0,1,.846.75,2.373,2.373,0,0,1,.318,1.286V81.9h-.96V78.4a1.833,1.833,0,0,0-.426-1.386,1.5,1.5,0,0,0-1.051-.39,2.007,2.007,0,0,0-.863.2,1.673,1.673,0,0,0-.714.666A2.343,2.343,0,0,0,223,78.72V81.9Z" fill="#333"/>
      <path d="M232.968,78.023a1.413,1.413,0,0,0-.361-1.037,1.365,1.365,0,0,0-1.019-.366,1.95,1.95,0,0,0-1.057.271,1.564,1.564,0,0,0-.635.869l-.781-.481A2.118,2.118,0,0,1,230,76.193a2.937,2.937,0,0,1,1.607-.414,3.008,3.008,0,0,1,1.177.223,1.85,1.85,0,0,1,.834.672,2.026,2.026,0,0,1,.306,1.158v2.9c0,.287.151.432.456.432a1.618,1.618,0,0,0,.444-.061l-.049.756a1.4,1.4,0,0,1-.624.121,1.449,1.449,0,0,1-.624-.132.97.97,0,0,1-.431-.4,1.324,1.324,0,0,1-.157-.678v-.119l.241.036a1.567,1.567,0,0,1-.493.761,2.248,2.248,0,0,1-.779.433,2.789,2.789,0,0,1-.852.138,2.665,2.665,0,0,1-.985-.18,1.608,1.608,0,0,1-.725-.546,1.623,1.623,0,0,1,.179-2.017,2.422,2.422,0,0,1,1.254-.593l2.376-.468v.792l-1.931.4a2.221,2.221,0,0,0-.876.336.706.706,0,0,0-.289.6.736.736,0,0,0,.294.6,1.308,1.308,0,0,0,.834.235,2.424,2.424,0,0,0,.666-.09,1.781,1.781,0,0,0,.571-.276,1.315,1.315,0,0,0,.4-.468,1.435,1.435,0,0,0,.145-.666Z" fill="#333"/>
      <path d="M240.023,75.9h1.008l-2.5,6h-.96l-2.5-6h1.093l1.9,5.028Z" fill="#333"/>
      <path d="M244.8,82.02a3.057,3.057,0,0,1-1.518-.372,2.58,2.58,0,0,1-1.038-1.074,3.95,3.95,0,0,1,0-3.347,2.61,2.61,0,0,1,1.02-1.075,2.909,2.909,0,0,1,1.476-.373,2.71,2.71,0,0,1,1.434.362,2.374,2.374,0,0,1,.906.976,3.036,3.036,0,0,1,.312,1.387c0,.137,0,.26-.012.372s-.021.212-.036.3H242.5v-.852h4.428l-.492.1a1.792,1.792,0,0,0-.474-1.332,1.687,1.687,0,0,0-1.242-.468,1.842,1.842,0,0,0-1.014.271,1.759,1.759,0,0,0-.66.779,2.934,2.934,0,0,0-.234,1.23,2.883,2.883,0,0,0,.24,1.224,1.772,1.772,0,0,0,.678.786,1.961,1.961,0,0,0,1.049.27,2.044,2.044,0,0,0,1.075-.252,1.924,1.924,0,0,0,.666-.684l.755.444a2.532,2.532,0,0,1-.582.708,2.493,2.493,0,0,1-.828.461A3.237,3.237,0,0,1,244.8,82.02Z" fill="#333"/>
      <path d="M256.067,73.859a3.252,3.252,0,0,1,1.111.174,2.145,2.145,0,0,1,.821.541,3.048,3.048,0,0,1,.589.953l-.889.42a1.773,1.773,0,0,0-.582-.869,1.742,1.742,0,0,0-1.109-.318,1.628,1.628,0,0,0-.912.258,2.15,2.15,0,0,0-.672.714,3.546,3.546,0,0,0-.414,1.068,5.933,5.933,0,0,0-.139,1.32v.216h.048a1.64,1.64,0,0,1,.486-.834,2.287,2.287,0,0,1,.8-.469,2.816,2.816,0,0,1,.883-.149,3.011,3.011,0,0,1,1.4.311,2.243,2.243,0,0,1,.931.889,2.705,2.705,0,0,1,.33,1.367,2.665,2.665,0,0,1-.337,1.363,2.26,2.26,0,0,1-.941.894,3.13,3.13,0,0,1-1.447.312,2.664,2.664,0,0,1-1.679-.528,3.218,3.218,0,0,1-1.033-1.446,5.918,5.918,0,0,1-.347-2.107,5.438,5.438,0,0,1,.408-2.238,3.152,3.152,0,0,1,1.109-1.373A2.782,2.782,0,0,1,256.067,73.859Zm-.047,3.95a1.886,1.886,0,0,0-.907.209,1.527,1.527,0,0,0-.6.576,1.623,1.623,0,0,0-.217.845,1.573,1.573,0,0,0,.229.834,1.659,1.659,0,0,0,.618.6,1.979,1.979,0,0,0,2.153-.216,1.608,1.608,0,0,0,.456-1.219,1.748,1.748,0,0,0-.2-.869,1.381,1.381,0,0,0-.588-.564A2.019,2.019,0,0,0,256.02,77.809Z" fill="#333"/>
      <path d="M264.527,78.264v1h-3.96v-1Z" fill="#333"/>
      <path d="M267.611,81.9V76.092c0-.136,0-.281.006-.438s.01-.318.018-.486a4.292,4.292,0,0,1-.947.689,4.347,4.347,0,0,1-1.1.426l-.252-.875a2.039,2.039,0,0,0,.546-.162,6.179,6.179,0,0,0,.7-.348,6.046,6.046,0,0,0,.678-.451,2.409,2.409,0,0,0,.48-.467h.84V81.9Z" fill="#333"/>
      <path d="M273.527,82.02a2.576,2.576,0,0,1-2.148-1.043,6.136,6.136,0,0,1,0-6.073,2.736,2.736,0,0,1,4.3,0,6.176,6.176,0,0,1,0,6.073A2.573,2.573,0,0,1,273.527,82.02Zm0-.864a1.619,1.619,0,0,0,1.074-.366,2.226,2.226,0,0,0,.66-1.086,7.119,7.119,0,0,0,0-3.528,2.221,2.221,0,0,0-.66-1.086,1.763,1.763,0,0,0-2.148,0,2.214,2.214,0,0,0-.66,1.086,7.119,7.119,0,0,0,0,3.528,2.219,2.219,0,0,0,.66,1.086A1.619,1.619,0,0,0,273.527,81.156Z" fill="#333"/>
      <path d="M287.1,75.9l-2.821,7.008a3.608,3.608,0,0,1-.5.93,1.642,1.642,0,0,1-.6.492,1.824,1.824,0,0,1-.762.15,2.35,2.35,0,0,1-.75-.115,2.227,2.227,0,0,1-.607-.3l.265-.841a1.624,1.624,0,0,0,.51.318,1.523,1.523,0,0,0,.534.1,1.009,1.009,0,0,0,.588-.194,1.668,1.668,0,0,0,.5-.779l.311-.78-.6-1.428-1.908-4.56h1.091l1.5,3.912.372,1.068.433-1.189,1.4-3.791Z" fill="#333"/>
      <path d="M290.867,82.02a3.053,3.053,0,0,1-1.517-.372,2.574,2.574,0,0,1-1.038-1.074,3.941,3.941,0,0,1,0-3.347,2.607,2.607,0,0,1,1.019-1.075,2.913,2.913,0,0,1,1.477-.373,2.706,2.706,0,0,1,1.433.362,2.368,2.368,0,0,1,.906.976,3.036,3.036,0,0,1,.312,1.387c0,.137,0,.26-.012.372a2.81,2.81,0,0,1-.036.3h-4.848v-.852h4.428l-.492.1a1.789,1.789,0,0,0-.474-1.332,1.687,1.687,0,0,0-1.242-.468,1.84,1.84,0,0,0-1.013.271,1.761,1.761,0,0,0-.661.779,2.934,2.934,0,0,0-.234,1.23,2.883,2.883,0,0,0,.24,1.224,1.772,1.772,0,0,0,.678.786,1.964,1.964,0,0,0,1.05.27,2.04,2.04,0,0,0,1.074-.252,1.924,1.924,0,0,0,.666-.684l.756.444a2.549,2.549,0,0,1-.582.708,2.513,2.513,0,0,1-.828.461A3.243,3.243,0,0,1,290.867,82.02Z" fill="#333"/>
      <path d="M298.787,78.023a1.417,1.417,0,0,0-.36-1.037,1.366,1.366,0,0,0-1.02-.366,1.946,1.946,0,0,0-1.056.271,1.565,1.565,0,0,0-.636.869l-.78-.481a2.12,2.12,0,0,1,.888-1.086,2.938,2.938,0,0,1,1.608-.414,3.006,3.006,0,0,1,1.176.223,1.85,1.85,0,0,1,.834.672,2.018,2.018,0,0,1,.306,1.158v2.9c0,.287.151.432.456.432a1.618,1.618,0,0,0,.444-.061l-.048.756a1.4,1.4,0,0,1-.624.121,1.443,1.443,0,0,1-.624-.132.967.967,0,0,1-.432-.4,1.324,1.324,0,0,1-.156-.678v-.119l.24.036a1.573,1.573,0,0,1-.492.761,2.252,2.252,0,0,1-.78.433,2.789,2.789,0,0,1-.852.138,2.656,2.656,0,0,1-.984-.18,1.616,1.616,0,0,1-.726-.546,1.621,1.621,0,0,1,.18-2.017,2.415,2.415,0,0,1,1.254-.593l2.376-.468v.792l-1.932.4a2.221,2.221,0,0,0-.876.336.708.708,0,0,0-.288.6.733.733,0,0,0,.294.6,1.3,1.3,0,0,0,.834.235,2.434,2.434,0,0,0,.666-.09,1.776,1.776,0,0,0,.57-.276,1.328,1.328,0,0,0,.4-.468,1.447,1.447,0,0,0,.144-.666Z" fill="#333"/>
      <path d="M302.075,81.9v-6h.78l.132.984a1.761,1.761,0,0,1,.738-.828,2.359,2.359,0,0,1,1.182-.277,2.7,2.7,0,0,1,.342.025.9.9,0,0,1,.318.1l-.168.875a1.685,1.685,0,0,0-.288-.071,3.115,3.115,0,0,0-.444-.024,1.5,1.5,0,0,0-.75.216,1.713,1.713,0,0,0-.63.654,2.2,2.2,0,0,0-.252,1.11V81.9Z" fill="#333"/>
      <path d="M308.879,82.02a3.534,3.534,0,0,1-1.614-.372,2.654,2.654,0,0,1-1.134-1.056l.815-.588a2,2,0,0,0,.775.863,2.3,2.3,0,0,0,1.229.313,1.746,1.746,0,0,0,1-.246.747.747,0,0,0,.2-1.1,1.035,1.035,0,0,0-.619-.307l-1.439-.3a2.268,2.268,0,0,1-1.254-.6,1.5,1.5,0,0,1-.379-1.044,1.556,1.556,0,0,1,.282-.9,1.975,1.975,0,0,1,.805-.655,2.86,2.86,0,0,1,1.23-.246,3,3,0,0,1,1.5.349,2.176,2.176,0,0,1,.912.983l-.8.53a1.436,1.436,0,0,0-.66-.776,1.984,1.984,0,0,0-.948-.245,2.025,2.025,0,0,0-.739.12,1.069,1.069,0,0,0-.468.33.757.757,0,0,0,.019.959,1.115,1.115,0,0,0,.672.319l1.5.312a2.073,2.073,0,0,1,1.176.552,1.377,1.377,0,0,1,.336.936,1.685,1.685,0,0,1-.3.99,1.9,1.9,0,0,1-.84.654A3.2,3.2,0,0,1,308.879,82.02Z" fill="#333"/>
      <path d="M177.456,96.42a2.622,2.622,0,0,1-1.368-.371,2.678,2.678,0,0,1-1-1.074,3.535,3.535,0,0,1-.372-1.674,3.376,3.376,0,0,1,.4-1.693,2.752,2.752,0,0,1,1.044-1.061,2.786,2.786,0,0,1,1.392-.367,2.192,2.192,0,0,1,1.29.384,1.819,1.819,0,0,1,.726,1.02l-.12.084V87.541h.96V96.3h-.84l-.084-1.453.132-.072a1.747,1.747,0,0,1-.4.894,2.072,2.072,0,0,1-.78.559A2.559,2.559,0,0,1,177.456,96.42Zm.1-.84a1.753,1.753,0,0,0,1-.287,1.877,1.877,0,0,0,.66-.822,3.111,3.111,0,0,0,.234-1.254,2.714,2.714,0,0,0-.234-1.176,1.782,1.782,0,0,0-.648-.757,1.757,1.757,0,0,0-.966-.263,1.717,1.717,0,0,0-1.416.624,2.555,2.555,0,0,0-.5,1.656,2.6,2.6,0,0,0,.492,1.655A1.654,1.654,0,0,0,177.552,95.58Z" fill="#333"/>
      <path d="M186.145,92.424a1.417,1.417,0,0,0-.361-1.037,1.365,1.365,0,0,0-1.019-.366,1.949,1.949,0,0,0-1.057.27,1.577,1.577,0,0,0-.636.869l-.78-.48a2.11,2.11,0,0,1,.889-1.086,2.924,2.924,0,0,1,1.607-.414,3.011,3.011,0,0,1,1.177.222,1.861,1.861,0,0,1,.834.672,2.028,2.028,0,0,1,.305,1.158v2.905q0,.431.457.431a1.623,1.623,0,0,0,.444-.06l-.049.756a1.4,1.4,0,0,1-.624.121,1.435,1.435,0,0,1-.624-.133.975.975,0,0,1-.432-.4,1.339,1.339,0,0,1-.156-.678v-.119l.24.035a1.566,1.566,0,0,1-.492.762,2.245,2.245,0,0,1-.779.432,2.79,2.79,0,0,1-.853.138,2.663,2.663,0,0,1-.984-.18,1.616,1.616,0,0,1-.726-.546,1.624,1.624,0,0,1,.18-2.016,2.423,2.423,0,0,1,1.254-.594l2.376-.468v.792l-1.932.4a2.218,2.218,0,0,0-.876.336.7.7,0,0,0-.288.6.739.739,0,0,0,.294.606,1.312,1.312,0,0,0,.834.234,2.391,2.391,0,0,0,.666-.09,1.764,1.764,0,0,0,.57-.275,1.322,1.322,0,0,0,.4-.469,1.432,1.432,0,0,0,.145-.666Z" fill="#333"/>
      <path d="M192.792,90.3v.828h-4.344V90.3Zm-2.184-1.7v6.049a.825.825,0,0,0,.252.66.966.966,0,0,0,.648.216,1.384,1.384,0,0,0,.6-.121,1.617,1.617,0,0,0,.456-.324l.336.805a2.028,2.028,0,0,1-.654.395,2.434,2.434,0,0,1-.87.144,2.228,2.228,0,0,1-.852-.162,1.338,1.338,0,0,1-.629-.516,1.719,1.719,0,0,1-.247-.93V88.86Z" fill="#333"/>
      <path d="M197.725,92.424a1.417,1.417,0,0,0-.361-1.037,1.365,1.365,0,0,0-1.019-.366,1.949,1.949,0,0,0-1.057.27,1.577,1.577,0,0,0-.636.869l-.78-.48a2.11,2.11,0,0,1,.889-1.086,2.926,2.926,0,0,1,1.607-.414,3.011,3.011,0,0,1,1.177.222,1.861,1.861,0,0,1,.834.672,2.028,2.028,0,0,1,.306,1.158v2.905c0,.287.151.431.456.431a1.623,1.623,0,0,0,.444-.06l-.049.756a1.4,1.4,0,0,1-.624.121,1.435,1.435,0,0,1-.624-.133.975.975,0,0,1-.432-.4,1.339,1.339,0,0,1-.156-.678v-.119l.24.035a1.566,1.566,0,0,1-.492.762,2.245,2.245,0,0,1-.779.432,2.79,2.79,0,0,1-.853.138,2.663,2.663,0,0,1-.984-.18,1.616,1.616,0,0,1-.726-.546,1.624,1.624,0,0,1,.18-2.016,2.423,2.423,0,0,1,1.254-.594l2.376-.468v.792l-1.932.4a2.218,2.218,0,0,0-.876.336.7.7,0,0,0-.288.6.739.739,0,0,0,.294.606,1.314,1.314,0,0,0,.834.234,2.391,2.391,0,0,0,.666-.09,1.779,1.779,0,0,0,.571-.275,1.32,1.32,0,0,0,.4-.469,1.432,1.432,0,0,0,.145-.666Z" fill="#333"/>
      <path d="M204.781,90.3h1.008l-2.5,6h-.96l-2.5-6h1.093l1.895,5.027Z" fill="#333"/>
      <path d="M207.529,89.148a.68.68,0,1,1,.523-.2A.7.7,0,0,1,207.529,89.148Zm.481,1.153v6h-.96v-6Z" fill="#333"/>
      <path d="M209.809,96.3v-.733l3.144-3.683.756-.781-1.068.025h-2.8V90.3h4.932v.731l-3.144,3.685-.744.779,1.164-.023h2.82V96.3Z" fill="#333"/>
      <path d="M223.249,96.42a3.059,3.059,0,0,1-1.518-.371,2.586,2.586,0,0,1-1.038-1.074,3.953,3.953,0,0,1,0-3.348,2.607,2.607,0,0,1,1.02-1.074,2.912,2.912,0,0,1,1.476-.373,2.717,2.717,0,0,1,1.434.361,2.364,2.364,0,0,1,.906.977,3.035,3.035,0,0,1,.312,1.386c0,.137,0,.26-.012.372a2.779,2.779,0,0,1-.036.3h-4.848v-.851h4.428l-.492.095a1.79,1.79,0,0,0-.474-1.332,1.691,1.691,0,0,0-1.242-.467,1.843,1.843,0,0,0-1.014.27,1.764,1.764,0,0,0-.66.779,2.936,2.936,0,0,0-.234,1.231,2.879,2.879,0,0,0,.24,1.223,1.775,1.775,0,0,0,.678.787,1.971,1.971,0,0,0,1.05.269,2.042,2.042,0,0,0,1.074-.252,1.921,1.921,0,0,0,.666-.683l.756.443a2.5,2.5,0,0,1-1.41,1.17A3.271,3.271,0,0,1,223.249,96.42Z" fill="#333"/>
      <path d="M232.284,90.3l-2.376,3.2h-.059l-2.065,2.8h-1.116l2.616-3.445h.072l1.8-2.555Zm-4.271,0,1.788,2.508.059.084,2.46,3.408h-1.175L229.284,93.7l-.107-.132L226.812,90.3Z" fill="#333"/>
      <path d="M233.832,98.82V90.3h.84l.084,1.463-.132-.168a2.072,2.072,0,0,1,.468-.738,2.2,2.2,0,0,1,.756-.5,2.531,2.531,0,0,1,.96-.18,2.57,2.57,0,0,1,1.35.373,2.7,2.7,0,0,1,.989,1.067,3.935,3.935,0,0,1,0,3.355,2.719,2.719,0,0,1-1,1.074,2.622,2.622,0,0,1-1.369.371,2.316,2.316,0,0,1-1.3-.365,2.078,2.078,0,0,1-.8-.93l.12-.181V98.82Zm2.844-3.24a1.673,1.673,0,0,0,1.386-.624,2.575,2.575,0,0,0,.5-1.655,2.626,2.626,0,0,0-.486-1.656,1.628,1.628,0,0,0-1.362-.624,1.794,1.794,0,0,0-1.008.282,1.855,1.855,0,0,0-.672.791,2.813,2.813,0,0,0-.24,1.207,2.9,2.9,0,0,0,.233,1.2,1.851,1.851,0,0,0,.661.8A1.759,1.759,0,0,0,236.676,95.58Z" fill="#333"/>
      <path d="M243.864,96.42a3.053,3.053,0,0,1-1.517-.371,2.58,2.58,0,0,1-1.038-1.074,3.952,3.952,0,0,1,0-3.348,2.6,2.6,0,0,1,1.019-1.074,2.913,2.913,0,0,1,1.477-.373,2.715,2.715,0,0,1,1.433.361,2.367,2.367,0,0,1,.907.977,3.034,3.034,0,0,1,.311,1.386c0,.137,0,.26-.012.372a2.548,2.548,0,0,1-.036.3h-4.847v-.851h4.427l-.492.095a1.79,1.79,0,0,0-.474-1.332,1.691,1.691,0,0,0-1.242-.467,1.84,1.84,0,0,0-1.013.27,1.766,1.766,0,0,0-.661.779,2.936,2.936,0,0,0-.234,1.231,2.879,2.879,0,0,0,.24,1.223,1.775,1.775,0,0,0,.678.787,1.973,1.973,0,0,0,1.05.269,2.04,2.04,0,0,0,1.074-.252,1.921,1.921,0,0,0,.666-.683l.756.443a2.5,2.5,0,0,1-1.41,1.17A3.271,3.271,0,0,1,243.864,96.42Z" fill="#333"/>
      <path d="M248.28,96.3v-6h.781l.131.983a1.765,1.765,0,0,1,.738-.828,2.359,2.359,0,0,1,1.182-.276,2.688,2.688,0,0,1,.342.024.9.9,0,0,1,.318.1l-.168.875a1.684,1.684,0,0,0-.288-.072,3.115,3.115,0,0,0-.444-.024,1.494,1.494,0,0,0-.75.217,1.7,1.7,0,0,0-.63.653,2.2,2.2,0,0,0-.252,1.111V96.3Z" fill="#333"/>
      <path d="M253.655,89.148a.68.68,0,1,1,.523-.2A.7.7,0,0,1,253.655,89.148Zm.481,1.153v6h-.96v-6Z" fill="#333"/>
      <path d="M258.876,96.42a3.059,3.059,0,0,1-1.518-.371,2.586,2.586,0,0,1-1.038-1.074,3.952,3.952,0,0,1,0-3.348,2.607,2.607,0,0,1,1.02-1.074,2.909,2.909,0,0,1,1.476-.373,2.717,2.717,0,0,1,1.434.361,2.364,2.364,0,0,1,.906.977,3.035,3.035,0,0,1,.312,1.386c0,.137,0,.26-.012.372a2.779,2.779,0,0,1-.036.3h-4.848v-.851H261l-.492.095a1.79,1.79,0,0,0-.474-1.332,1.691,1.691,0,0,0-1.242-.467,1.843,1.843,0,0,0-1.014.27,1.764,1.764,0,0,0-.66.779,2.936,2.936,0,0,0-.234,1.231,2.879,2.879,0,0,0,.24,1.223,1.775,1.775,0,0,0,.678.787,1.971,1.971,0,0,0,1.05.269,2.042,2.042,0,0,0,1.074-.252,1.921,1.921,0,0,0,.666-.683l.756.443a2.5,2.5,0,0,1-1.41,1.17A3.271,3.271,0,0,1,258.876,96.42Z" fill="#333"/>
      <path d="M263.292,96.3v-6h.84l.084,1.344-.156-.133a2.05,2.05,0,0,1,.516-.774,1.982,1.982,0,0,1,.75-.426,2.985,2.985,0,0,1,.882-.132,2.754,2.754,0,0,1,1.176.246,1.962,1.962,0,0,1,.845.75,2.369,2.369,0,0,1,.319,1.285V96.3h-.96V92.8a1.836,1.836,0,0,0-.426-1.387,1.5,1.5,0,0,0-1.051-.389,1.993,1.993,0,0,0-.863.2,1.67,1.67,0,0,0-.714.66,2.3,2.3,0,0,0-.282,1.223V96.3Z" fill="#333"/>
      <path d="M273.2,90.18a2.918,2.918,0,0,1,1.1.192,2.36,2.36,0,0,1,.821.552,2.878,2.878,0,0,1,.565.852l-.913.433a1.811,1.811,0,0,0-.582-.883,1.59,1.59,0,0,0-1.013-.3,1.9,1.9,0,0,0-1.033.27,1.721,1.721,0,0,0-.66.779,3.43,3.43,0,0,0,0,2.454,1.722,1.722,0,0,0,.66.787,1.92,1.92,0,0,0,1.033.269,2.093,2.093,0,0,0,.809-.143,1.429,1.429,0,0,0,.565-.421,1.574,1.574,0,0,0,.305-.672l.888.312a2.91,2.91,0,0,1-.558.948,2.374,2.374,0,0,1-.851.607,2.915,2.915,0,0,1-1.135.209,3.006,3.006,0,0,1-1.5-.371,2.6,2.6,0,0,1-1.031-1.074,3.953,3.953,0,0,1,0-3.348,2.588,2.588,0,0,1,1.031-1.074A3.007,3.007,0,0,1,273.2,90.18Z" fill="#333"/>
      <path d="M279.947,96.42a3.053,3.053,0,0,1-1.517-.371,2.58,2.58,0,0,1-1.038-1.074,3.953,3.953,0,0,1,0-3.348,2.6,2.6,0,0,1,1.019-1.074,2.913,2.913,0,0,1,1.477-.373,2.715,2.715,0,0,1,1.433.361,2.367,2.367,0,0,1,.907.977,3.034,3.034,0,0,1,.311,1.386c0,.137,0,.26-.012.372a2.548,2.548,0,0,1-.036.3h-4.847v-.851h4.427l-.492.095a1.79,1.79,0,0,0-.474-1.332,1.691,1.691,0,0,0-1.242-.467,1.84,1.84,0,0,0-1.013.27,1.766,1.766,0,0,0-.661.779,2.936,2.936,0,0,0-.234,1.231,2.879,2.879,0,0,0,.24,1.223,1.775,1.775,0,0,0,.678.787,1.973,1.973,0,0,0,1.05.269A2.04,2.04,0,0,0,281,95.328a1.921,1.921,0,0,0,.666-.683l.756.443a2.5,2.5,0,0,1-1.41,1.17A3.271,3.271,0,0,1,279.947,96.42Z" fill="#333"/>
    </g>
    <g>
      <line x1="86.613" y1="166.224" x2="88.113" y2="166.224" fill="none" stroke="gray" stroke-miterlimit="10" stroke-width="2"/>
      <line x1="92.108" y1="166.224" x2="355.773" y2="166.224" fill="none" stroke="gray" stroke-miterlimit="10" stroke-width="2" stroke-dasharray="2.996 3.995"/>
      <line x1="357.77" y1="166.224" x2="359.27" y2="166.224" fill="none" stroke="gray" stroke-miterlimit="10" stroke-width="2"/>
    </g>
    <line x1="346.271" y1="147" x2="346.271" y2="58" fill="none" stroke="#999" stroke-miterlimit="10"/>
    <g>
      <line x1="241.5" y1="189" x2="241.388" y2="174.176" fill="none" stroke="#999" stroke-miterlimit="10"/>
      <polygon points="246.385 175.597 241.334 167 236.413 175.672 246.385 175.597" fill="#999"/>
    </g>
  </g>
</svg>
